/* XPM */
static char * maximize_pressed_xpm[] = {
"20 25 112 2",
"  	c None",
". 	c #464139",
"+ 	c #78736B",
"@ 	c #59544C",
"# 	c #58534B",
"$ 	c #57524A",
"% 	c #565149",
"& 	c #646058",
"* 	c #918E8A",
"= 	c #BBBAB7",
"- 	c #CECECC",
"; 	c #635F58",
"> 	c #59544D",
", 	c #A3A19E",
"' 	c #E2E2E2",
") 	c #E6E6E6",
"! 	c #E0E0E0",
"~ 	c #A3A19D",
"{ 	c #58544C",
"] 	c #555048",
"^ 	c #5A554E",
"/ 	c #C2C1BF",
"( 	c #E1E0E0",
"_ 	c #BEBDBB",
": 	c #A09E9A",
"< 	c #9B9894",
"[ 	c #BFBEBB",
"} 	c #5A554D",
"| 	c #544F47",
"1 	c #ACAAA7",
"2 	c #DEDEDD",
"3 	c #A6A4A0",
"4 	c #989590",
"5 	c #A6A49F",
"6 	c #DDDDDD",
"7 	c #AAA8A5",
"8 	c #534E46",
"9 	c #6D6963",
"0 	c #E4E4E4",
"a 	c #A4A29E",
"b 	c #94918C",
"c 	c #CDCCCB",
"d 	c #A4A29F",
"e 	c #6C6861",
"f 	c #524D45",
"g 	c #B0AEAB",
"h 	c #C6C5C3",
"i 	c #918E89",
"j 	c #DDDDDC",
"k 	c #A9A6A3",
"l 	c #8E8C87",
"m 	c #E7E7E7",
"n 	c #AAA8A4",
"o 	c #DCDBDB",
"p 	c #514C44",
"q 	c #9B9893",
"r 	c #8B8882",
"s 	c #CCCBC8",
"t 	c #E7E7E6",
"u 	c #CECECB",
"v 	c #504B43",
"w 	c #989591",
"x 	c #87847E",
"y 	c #CAC9C8",
"z 	c #C7C7C5",
"A 	c #4F4A42",
"B 	c #DCDCDB",
"C 	c #A2A09B",
"D 	c #83807A",
"E 	c #A3A19C",
"F 	c #DBDADA",
"G 	c #4E4941",
"H 	c #AEACA9",
"I 	c #C0BEBC",
"J 	c #807C76",
"K 	c #E5E5E4",
"L 	c #827E78",
"M 	c #BFBEBC",
"N 	c #69655E",
"O 	c #E4E3E3",
"P 	c #928F8B",
"Q 	c #7C7973",
"R 	c #C4C2C1",
"S 	c #CBCAC9",
"T 	c #93908C",
"U 	c #68645D",
"V 	c #4D4840",
"W 	c #A8A6A2",
"X 	c #DADAD9",
"Y 	c #8D8A84",
"Z 	c #79756F",
"` 	c #8D8A85",
" .	c #A7A5A2",
"..	c #4C473F",
"+.	c #504B44",
"@.	c #E0E0DF",
"#.	c #ABA9A6",
"$.	c #7D7A74",
"%.	c #74706A",
"&.	c #E1E1E0",
"*.	c #4B463E",
"=.	c #9E9C98",
"-.	c #E1E1E1",
";.	c #DFDEDE",
">.	c #4A453D",
",.	c #58534C",
"'.	c #898681",
").	c #B7B6B3",
"!.	c #CCCBCA",
"~.	c #49443C",
"{.	c #48433B",
"].	c #47423A",
". . . . . . . . . . . . . . . . . . . . ",
"+ + + + + + + + + + + + + + + + + + + + ",
"@ @ @ @ @ @ @ @ @ @ @ @ @ @ @ @ @ @ @ @ ",
"# # # # # # # # # # # # # # # # # # # # ",
"$ $ $ $ $ $ $ $ $ $ $ $ $ $ $ $ $ $ $ $ ",
"% % % % % % & * = - - = * ; % % % % % % ",
"% % % % > , ' ) ) ! ! ) ) ' ~ { % % % % ",
"] ] ] ^ / ) ( _ : < < : [ ' ) / } ] ] ] ",
"| | | 1 ) 2 3 4 4 4 4 4 4 5 6 ) 7 | | | ",
"8 8 9 0 0 a b b b c c b b b d 0 0 e 8 8 ",
"f f g ) h i i i i ) ) i i i i h ) g f f ",
"f f j ) k l l l l m m l l l l n ) o f f ",
"p p ) ) q r s t t t t t t u r q ) ) p p ",
"v v ) ) w x y m m m m m m z x w ) ) v v ",
"A A B ) C D D D D t t D D D D E ) F A A ",
"G G H ) I J J J J K t L J J J M ) H G G ",
"G G N 0 O P Q Q Q R S Q Q Q T 0 0 U G G ",
"V V V W ) X Y Z Z Z Z Z Z ` X )  .V V V ",
"......+.M ) @.#.$.%.%.$.1 &.) M A ......",
"*.*.*.*.G =.-.) ) ;.;.) ) ! =.G *.*.*.*.",
">.>.>.>.>.>.,.'.).!.!.).'.,.>.>.>.>.>.>.",
">.>.>.>.>.>.>.>.>.>.>.>.>.>.>.>.>.>.>.>.",
"~.~.~.~.~.~.~.~.~.~.~.~.~.~.~.~.~.~.~.~.",
"{.{.{.{.{.{.{.{.{.{.{.{.{.{.{.{.{.{.{.{.",
"].].].].].].].].].].].].].].].].].].].]."};
