/* XPM */
static char * maximize_pressed_xpm[] = {
"20 25 97 2",
"  	c None",
". 	c #3C3C3C",
"+ 	c #707070",
"@ 	c #515151",
"# 	c #505050",
"$ 	c #4F4F4F",
"% 	c #4E4E4E",
"& 	c #5D5D5D",
"* 	c #8D8D8D",
"= 	c #B9B9B9",
"- 	c #CDCDCD",
"; 	c #5C5C5C",
"> 	c #4D4D4D",
", 	c #9F9F9F",
"' 	c #E2E2E2",
") 	c #E6E6E6",
"! 	c #E0E0E0",
"~ 	c #4C4C4C",
"{ 	c #525252",
"] 	c #C0C0C0",
"^ 	c #BCBCBC",
"/ 	c #9C9C9C",
"( 	c #969696",
"_ 	c #4B4B4B",
": 	c #A8A8A8",
"< 	c #DDDDDD",
"[ 	c #A3A3A1",
"} 	c #939392",
"| 	c #A2A2A1",
"1 	c #A6A6A6",
"2 	c #4A4A4A",
"3 	c #666666",
"4 	c #E4E4E4",
"5 	c #A0A0A0",
"6 	c #8F8F8F",
"7 	c #CCCCCC",
"8 	c #656565",
"9 	c #ADADAD",
"0 	c #C4C4C4",
"a 	c #8C8C8C",
"b 	c #494949",
"c 	c #DCDCDC",
"d 	c #A5A5A5",
"e 	c #898989",
"f 	c #E7E7E7",
"g 	c #DBDBDB",
"h 	c #484848",
"i 	c #969695",
"j 	c #858584",
"k 	c #CACAC9",
"l 	c #E7E7E6",
"m 	c #CECECC",
"n 	c #474747",
"o 	c #939393",
"p 	c #818181",
"q 	c #C9C9C9",
"r 	c #C6C6C6",
"s 	c #464646",
"t 	c #9E9E9D",
"u 	c #7D7D7D",
"v 	c #9F9F9E",
"w 	c #DADADA",
"x 	c #454545",
"y 	c #ABABAB",
"z 	c #BDBDBD",
"A 	c #7A7A79",
"B 	c #E5E5E4",
"C 	c #7C7C7B",
"D 	c #444444",
"E 	c #606060",
"F 	c #E3E3E3",
"G 	c #757575",
"H 	c #C2C2C2",
"I 	c #CACACA",
"J 	c #434343",
"K 	c #A4A4A4",
"L 	c #D9D9D9",
"M 	c #878786",
"N 	c #727271",
"O 	c #888887",
"P 	c #A3A3A3",
"Q 	c #DFDFDF",
"R 	c #A7A7A7",
"S 	c #777777",
"T 	c #6D6D6D",
"U 	c #A9A9A9",
"V 	c #424242",
"W 	c #9A9A9A",
"X 	c #E1E1E1",
"Y 	c #DEDEDE",
"Z 	c #414141",
"` 	c #838383",
" .	c #B4B4B4",
"..	c #404040",
"+.	c #3F3F3F",
"@.	c #3E3E3E",
"#.	c #3D3D3D",
". . . . . . . . . . . . . . . . . . . . ",
"+ + + + + + + + + + + + + + + + + + + + ",
"@ @ @ @ @ @ @ @ @ @ @ @ @ @ @ @ @ @ @ @ ",
"# # # # # # # # # # # # # # # # # # # # ",
"$ $ $ $ $ $ $ $ $ $ $ $ $ $ $ $ $ $ $ $ ",
"% % % % % % & * = - - = * ; % % % % % % ",
"> > > > # , ' ) ) ! ! ) ) ' , # > > > > ",
"~ ~ ~ { ] ) ! ^ / ( ( / ^ ' ) ] @ ~ ~ ~ ",
"_ _ _ : ) < [ } } } } } } | < ) 1 _ _ _ ",
"2 2 3 4 4 5 6 6 6 7 7 6 6 6 5 4 4 8 2 2 ",
"2 2 9 ) 0 a a a a ) ) a a a a 0 ) 9 2 2 ",
"b b c ) d e e e e f f e e e e 1 ) g b b ",
"h h ) ) i j k l l l l l l m j i ) ) h h ",
"n n ) ) o p q f f f f f f r p o ) ) n n ",
"s s g ) t u u u u l l u u u u v ) w s s ",
"x x y ) z A A A A B l C A A A z ) y x x ",
"D D E 4 F a G G G H I G G G * 4 4 E D D ",
"J J J K ) L M N N N N N N O L ) P J J J ",
"J J J n z ) Q R S T T S U ! ) z s J J J ",
"V V V V x W X ) ) Y Y ) ) ! W x V V V V ",
"Z Z Z Z Z Z # `  .I I  .` # Z Z Z Z Z Z ",
"........................................",
"+.+.+.+.+.+.+.+.+.+.+.+.+.+.+.+.+.+.+.+.",
"@.@.@.@.@.@.@.@.@.@.@.@.@.@.@.@.@.@.@.@.",
"#.#.#.#.#.#.#.#.#.#.#.#.#.#.#.#.#.#.#.#."};
