<?xml version="1.0" encoding="UTF-8" standalone="no"?>
<!-- Created with Inkscape (http://www.inkscape.org/) -->
<svg
   xmlns:dc="http://purl.org/dc/elements/1.1/"
   xmlns:cc="http://creativecommons.org/ns#"
   xmlns:rdf="http://www.w3.org/1999/02/22-rdf-syntax-ns#"
   xmlns:svg="http://www.w3.org/2000/svg"
   xmlns="http://www.w3.org/2000/svg"
   xmlns:xlink="http://www.w3.org/1999/xlink"
   xmlns:sodipodi="http://sodipodi.sourceforge.net/DTD/sodipodi-0.dtd"
   xmlns:inkscape="http://www.inkscape.org/namespaces/inkscape"
   width="48px"
   height="48px"
   id="svg18002"
   sodipodi:version="0.32"
   inkscape:version="0.46+devel"
   sodipodi:docname="notification-gsm-h-low.svg"
   inkscape:output_extension="org.inkscape.output.svg.inkscape">
  <defs
     id="defs18004">
    <linearGradient
       inkscape:collect="always"
       xlink:href="#SVGID_4_"
       id="linearGradient2774"
       gradientUnits="userSpaceOnUse"
       x1="23.9995"
       y1="44.586899"
       x2="23.9995"
       y2="3.4565001" />
    <linearGradient
       id="SVGID_4_"
       gradientUnits="userSpaceOnUse"
       x1="23.9995"
       y1="44.586899"
       x2="23.9995"
       y2="3.4565001">
      <stop
         offset="0"
         style="stop-color:#9B9B9B"
         id="stop279" />
      <stop
         offset="1"
         style="stop-color:#ECECEC"
         id="stop281" />
    </linearGradient>
    <linearGradient
       id="SVGID_5_"
       gradientUnits="userSpaceOnUse"
       x1="6.8573999"
       y1="12.2061"
       x2="6.8573999"
       y2="2">
      <stop
         offset="0"
         style="stop-color:#9B9B9B"
         id="stop303" />
      <stop
         offset="1"
         style="stop-color:#ECECEC"
         id="stop305" />
    </linearGradient>
    <linearGradient
       y2="3.4565001"
       x2="23.9995"
       y1="44.586899"
       x1="23.9995"
       gradientUnits="userSpaceOnUse"
       id="linearGradient17996"
       xlink:href="#SVGID_4_"
       inkscape:collect="always" />
    <linearGradient
       y2="3.4565001"
       x2="23.9995"
       y1="44.586899"
       x1="23.9995"
       gradientUnits="userSpaceOnUse"
       id="linearGradient17998"
       xlink:href="#SVGID_4_"
       inkscape:collect="always" />
    <linearGradient
       y2="3.4565001"
       x2="23.9995"
       y1="44.586899"
       x1="23.9995"
       gradientUnits="userSpaceOnUse"
       id="linearGradient18000"
       xlink:href="#SVGID_4_"
       inkscape:collect="always" />
  </defs>
  <sodipodi:namedview
     id="base"
     pagecolor="#ffffff"
     bordercolor="#666666"
     borderopacity="1.0"
     inkscape:pageopacity="0.0"
     inkscape:pageshadow="2"
     inkscape:zoom="1.75"
     inkscape:cx="-35.718265"
     inkscape:cy="4.9520509"
     inkscape:current-layer="layer1"
     showgrid="true"
     inkscape:grid-bbox="true"
     inkscape:document-units="px"
     inkscape:window-width="567"
     inkscape:window-height="460"
     inkscape:window-x="0"
     inkscape:window-y="561" />
  <metadata
     id="metadata18007">
    <rdf:RDF>
      <cc:Work
         rdf:about="">
        <dc:format>image/svg+xml</dc:format>
        <dc:type
           rdf:resource="http://purl.org/dc/dcmitype/StillImage" />
        <dc:title />
      </cc:Work>
    </rdf:RDF>
  </metadata>
  <g
     id="layer1"
     inkscape:label="Layer 1"
     inkscape:groupmode="layer">
    <g
       id="Layer_2"
       style="opacity:0.3"
       transform="translate(0,0.707)">
      <g
         id="g238">
        <g
           id="g240">
          <path
             d="m 44.087,1.458 -5.74,0 c -2.158,0 -3.912,1.753 -3.912,3.912 l 0,5.169 c -0.548,-0.292 -1.164,-0.474 -1.827,-0.474 l -5.739,0 c -2.157,0 -3.913,1.756 -3.913,3.914 l 0,5.169 C 22.409,18.856 21.793,18.674 21.13,18.674 l -5.74,0 c -2.158,0 -3.912,1.756 -3.912,3.914 l 0,5.169 C 10.93,27.465 10.314,27.283 9.65,27.283 l -5.738,0 C 1.753,27.283 0,29.036 0,31.194 l 0,11.479 c 0,2.158 1.753,3.914 3.912,3.914 l 5.739,0 c 1.138,0 2.154,-0.496 2.87,-1.273 0.715,0.777 1.731,1.273 2.869,1.273 l 5.739,0 c 1.138,0 2.154,-0.496 2.869,-1.273 0.716,0.777 1.732,1.273 2.87,1.273 l 5.739,0 c 1.138,0 2.154,-0.496 2.869,-1.273 0.716,0.777 1.731,1.273 2.87,1.273 l 5.74,0 c 2.157,0 3.911,-1.754 3.911,-3.912 l 0,-37.305 C 47.998,3.211 46.244,1.458 44.087,1.458 z M 11.564,42.674 c 0,1.057 -0.857,1.913 -1.913,1.913 l -5.739,0 c -1.057,0 -1.913,-0.856 -1.913,-1.913 l 0,-11.479 c 0,-1.057 0.856,-1.913 1.913,-1.913 l 5.739,0 c 1.056,0 1.913,0.856 1.913,1.913 l 0,11.479 z m 11.478,0 c 0,1.057 -0.856,1.913 -1.913,1.913 l -5.739,0 c -1.056,0 -1.913,-0.856 -1.913,-1.913 l 0,-20.087 c 0,-1.057 0.857,-1.913 1.913,-1.913 l 5.739,0 c 1.057,0 1.913,0.856 1.913,1.913 l 0,20.087 z m 11.479,0 c 0,1.057 -0.856,1.913 -1.913,1.913 l -5.739,0 c -1.056,0 -1.913,-0.856 -1.913,-1.913 l 0,-28.696 c 0,-1.057 0.857,-1.913 1.913,-1.913 l 5.739,0 c 1.057,0 1.913,0.856 1.913,1.913 l 0,28.696 z m 11.478,0 c 0,1.057 -0.856,1.913 -1.913,1.913 l -5.739,0 c -1.057,0 -1.913,-0.856 -1.913,-1.913 l 0,-37.305 c 0,-1.056 0.856,-1.913 1.913,-1.913 l 5.739,0 c 1.057,0 1.913,0.857 1.913,1.913 l 0,37.305 z"
             id="path242" />
        </g>
      </g>
    </g>
    <g
       id="g2825"
       style="opacity:0.3"
       transform="translate(0,0.707)">
      <path
         id="path2813"
         d="m 21.129,20.674 -5.739,0 c -1.056,0 -1.913,0.856 -1.913,1.913 l 0,20.087 c 0,1.057 0.857,1.913 1.913,1.913 l 5.739,0 c 1.057,0 1.913,-0.856 1.913,-1.913 l 0,-20.087 c 0,-1.057 -0.856,-1.913 -1.913,-1.913 z"
         style="fill:url(#linearGradient17996)" />
      <path
         id="path2807"
         d="m 21.129,20.674 -5.739,0 c -1.056,0 -1.913,0.856 -1.913,1.913 l 0,20.087 c 0,0.432 0.148,0.825 0.389,1.145 -0.087,-0.219 -0.139,-0.457 -0.139,-0.707 l 0,-20.088 c 0,-1.057 0.857,-1.913 1.913,-1.913 l 5.739,0 c 0.625,0 1.175,0.304 1.524,0.769 -0.281,-0.706 -0.967,-1.206 -1.774,-1.206 z"
         style="opacity:0.4;fill:#ffffff" />
    </g>
    <g
       id="g2817"
       style="opacity:0.3"
       transform="translate(0,0.707)">
      <path
         id="path283"
         d="m 44.086,3.456 -5.739,0 c -1.057,0 -1.913,0.857 -1.913,1.913 l 0,37.305 c 0,1.057 0.856,1.913 1.913,1.913 l 5.739,0 c 1.057,0 1.913,-0.856 1.913,-1.913 l 0,-37.305 c 0,-1.056 -0.856,-1.913 -1.913,-1.913 z"
         style="fill:url(#linearGradient17998)" />
      <path
         id="path2805"
         d="m 44.086,3.456 -5.739,0 c -1.057,0 -1.913,0.857 -1.913,1.913 l 0,37.305 c 0,0.432 0.147,0.825 0.389,1.145 -0.087,-0.219 -0.139,-0.457 -0.139,-0.707 l 0,-37.305 c 0,-1.056 0.856,-1.913 1.913,-1.913 l 5.739,0 c 0.625,0 1.175,0.305 1.524,0.769 C 45.579,3.957 44.893,3.456 44.086,3.456 z"
         style="opacity:0.4;fill:#ffffff" />
    </g>
    <g
       id="g2829"
       transform="translate(0,0.707)">
      <path
         id="path2815"
         d="m 9.651,29.282 -5.739,0 c -1.057,0 -1.913,0.856 -1.913,1.913 l 0,11.479 c 0,1.057 0.856,1.913 1.913,1.913 l 5.739,0 c 1.056,0 1.913,-0.856 1.913,-1.913 l 0,-11.479 c 0,-1.056 -0.856,-1.913 -1.913,-1.913 z"
         style="fill:url(#linearGradient18000)" />
      <path
         id="path2803"
         d="m 9.651,29.282 -5.739,0 c -1.057,0 -1.913,0.856 -1.913,1.913 l 0,11.479 c 0,0.432 0.148,0.825 0.389,1.145 C 2.3,43.6 2.249,43.361 2.249,43.111 l 0,-11.478 c 0,-1.057 0.856,-1.913 1.913,-1.913 l 5.739,0 c 0.625,0 1.175,0.305 1.524,0.769 -0.281,-0.707 -0.968,-1.207 -1.774,-1.207 z"
         style="opacity:0.4;fill:#ffffff" />
    </g>
    <g
       id="g2821"
       style="opacity:0.3"
       transform="translate(0,0.707)">
      <path
         id="path2811"
         d="m 32.607,12.065 -5.739,0 c -1.056,0 -1.913,0.856 -1.913,1.913 l 0,28.696 c 0,1.057 0.857,1.913 1.913,1.913 l 5.739,0 c 1.057,0 1.913,-0.856 1.913,-1.913 l 0,-28.696 c 10e-4,-1.057 -0.856,-1.913 -1.913,-1.913 z"
         style="fill:url(#linearGradient2774)" />
      <path
         id="path290"
         d="m 32.607,12.065 -5.739,0 c -1.056,0 -1.913,0.856 -1.913,1.913 l 0,28.696 c 0,0.431 0.148,0.824 0.389,1.145 -0.087,-0.219 -0.139,-0.457 -0.139,-0.707 l 0,-28.696 c 0,-1.057 0.857,-1.913 1.913,-1.913 l 5.739,0 c 0.625,0 1.175,0.304 1.524,0.768 -0.28,-0.706 -0.967,-1.206 -1.774,-1.206 z"
         style="opacity:0.4;fill:#ffffff" />
    </g>
    <g
       id="Layer_6_copy"
       transform="translate(0,0.707)">
      <g
         id="g293"
         style="opacity:0.3">
        <g
           id="g295">
          <path
             d="M 11.432,0 8.799,0 C 7.858,0 7.071,0.647 6.857,1.521 6.644,0.647 5.857,0 4.916,0 L 2.283,0 C 1.178,0 0.284,0.894 0.284,2 l 0,10.207 c 0,1.105 0.894,1.999 1.999,1.999 l 2.632,0 c 0.941,0 1.729,-0.647 1.942,-1.521 0.214,0.874 1.001,1.521 1.942,1.521 l 2.632,0 c 1.105,0 2,-0.894 2,-1.999 L 13.431,2 c 0,-1.106 -0.894,-2 -1.999,-2 z m -0.001,12.206 -2.632,0 0,-4.327 -3.883,0 0,4.327 -2.632,0 0,-10.206 2.632,0 0,3.89 3.883,0 0,-3.89 2.632,0 0,10.206 z"
             id="path297" />
        </g>
      </g>
    </g>
    <g
       id="Layer_11"
       transform="translate(0,0.707)">
      <g
         id="g300">
        <linearGradient
           id="linearGradient17989"
           gradientUnits="userSpaceOnUse"
           x1="6.8573999"
           y1="12.2061"
           x2="6.8573999"
           y2="2">
          <stop
             offset="0"
             style="stop-color:#9B9B9B"
             id="stop17991" />
          <stop
             offset="1"
             style="stop-color:#ECECEC"
             id="stop17993" />
        </linearGradient>
        <path
           d="m 2.284,2 2.632,0 0,3.89 3.883,0 0,-3.89 2.632,0 0,10.206 -2.632,0 0,-4.327 -3.883,0 0,4.327 -2.632,0 0,-10.206 z"
           id="path307"
           style="fill:url(#SVGID_5_)" />
      </g>
    </g>
  </g>
</svg>
