<?xml version="1.0" encoding="UTF-8" standalone="no"?>
<!-- Created with Inkscape (http://www.inkscape.org/) -->
<svg
   xmlns:dc="http://purl.org/dc/elements/1.1/"
   xmlns:cc="http://creativecommons.org/ns#"
   xmlns:rdf="http://www.w3.org/1999/02/22-rdf-syntax-ns#"
   xmlns:svg="http://www.w3.org/2000/svg"
   xmlns="http://www.w3.org/2000/svg"
   xmlns:sodipodi="http://sodipodi.sourceforge.net/DTD/sodipodi-0.dtd"
   xmlns:inkscape="http://www.inkscape.org/namespaces/inkscape"
   width="48px"
   height="48px"
   id="svg9184"
   sodipodi:version="0.32"
   inkscape:version="0.46+devel"
   sodipodi:docname="notification-message-email.svg"
   inkscape:output_extension="org.inkscape.output.svg.inkscape">
  <defs
     id="defs9186">
    <linearGradient
       id="SVGID_1_"
       gradientUnits="userSpaceOnUse"
       x1="38.024899"
       y1="35.3027"
       x2="9.9754"
       y2="-3.3041">
      <stop
         offset="0"
         style="stop-color:#878787"
         id="stop248" />
      <stop
         offset="0.2527"
         style="stop-color:#8F8F8F"
         id="stop250" />
      <stop
         offset="0.3489"
         style="stop-color:#A1A1A1"
         id="stop252" />
      <stop
         offset="0.6085"
         style="stop-color:#CDCDCD"
         id="stop254" />
      <stop
         offset="0.8104"
         style="stop-color:#E8E8E8"
         id="stop256" />
      <stop
         offset="0.9286"
         style="stop-color:#F2F2F2"
         id="stop258" />
    </linearGradient>
  </defs>
  <sodipodi:namedview
     id="base"
     pagecolor="#ffffff"
     bordercolor="#666666"
     borderopacity="1.0"
     inkscape:pageopacity="0.0"
     inkscape:pageshadow="2"
     inkscape:zoom="1.75"
     inkscape:cx="17.169882"
     inkscape:cy="24.534055"
     inkscape:current-layer="layer1"
     showgrid="true"
     inkscape:grid-bbox="true"
     inkscape:document-units="px"
     inkscape:window-width="567"
     inkscape:window-height="460"
     inkscape:window-x="1111"
     inkscape:window-y="561" />
  <metadata
     id="metadata9189">
    <rdf:RDF>
      <cc:Work
         rdf:about="">
        <dc:format>image/svg+xml</dc:format>
        <dc:type
           rdf:resource="http://purl.org/dc/dcmitype/StillImage" />
        <dc:title />
      </cc:Work>
    </rdf:RDF>
  </metadata>
  <g
     id="layer1"
     inkscape:label="Layer 1"
     inkscape:groupmode="layer">
    <g
       id="Layer_2"
       style="opacity:0.3"
       transform="translate(0,8.001)">
      <g
         id="g238">
        <g
           id="g240">
          <path
             d="M 44.999,0 3,0 C 1.345,0 0,1.345 0,3 l 0,25.998 c 0,1.654 1.345,3 3,3 l 41.999,0 c 1.655,0 3,-1.346 3,-3 L 47.999,3 c 0,-1.655 -1.345,-3 -3,-3 z M 46,28.999 c 0,0.553 -0.447,1 -1,1 l -42,0 c -0.552,0 -1,-0.447 -1,-1 l 0,-26 c 0,-0.552 0.448,-1 1,-1 l 42,0 c 0.553,0 1,0.448 1,1 l 0,26 z"
             id="path242" />
        </g>
      </g>
    </g>
    <g
       id="Layer_3"
       transform="translate(0,8.001)">
      <g
         id="g245">
        <linearGradient
           id="linearGradient9150"
           gradientUnits="userSpaceOnUse"
           x1="38.024899"
           y1="35.3027"
           x2="9.9754"
           y2="-3.3041">
          <stop
             offset="0"
             style="stop-color:#878787"
             id="stop9152" />
          <stop
             offset="0.2527"
             style="stop-color:#8F8F8F"
             id="stop9154" />
          <stop
             offset="0.3489"
             style="stop-color:#A1A1A1"
             id="stop9156" />
          <stop
             offset="0.6085"
             style="stop-color:#CDCDCD"
             id="stop9158" />
          <stop
             offset="0.8104"
             style="stop-color:#E8E8E8"
             id="stop9160" />
          <stop
             offset="0.9286"
             style="stop-color:#F2F2F2"
             id="stop9162" />
        </linearGradient>
        <path
           d="m 46,28.999 c 0,0.553 -0.447,1 -1,1 l -42,0 c -0.552,0 -1,-0.447 -1,-1 l 0,-26 c 0,-0.552 0.448,-1 1,-1 l 42,0 c 0.553,0 1,0.448 1,1 l 0,26 z"
           id="path260"
           style="fill:url(#SVGID_1_)" />
      </g>
    </g>
    <g
       id="Layer_5"
       transform="translate(0,8.001)" />
    <g
       id="Layer_4"
       transform="translate(0,8.001)">
      <g
         id="g264"
         style="opacity:0.4">
        <g
           id="g266">
          <path
             d="m 2.625,29.749 0,-26 c 0,-0.552 0.448,-1 1,-1 l 42,0 c 0.12,0 0.231,0.03 0.338,0.068 C 45.875,2.355 45.488,1.999 45,1.999 l -42,0 c -0.552,0 -1,0.448 -1,1 l 0,26 c 0,0.433 0.278,0.792 0.662,0.932 C 2.649,29.87 2.625,29.813 2.625,29.749 z"
             id="path268"
             style="fill:#ffffff" />
        </g>
      </g>
    </g>
    <g
       id="Layer_4_copy"
       transform="translate(0,8.001)">
      <g
         id="g271"
         style="opacity:0.2">
        <g
           id="g273">
          <path
             d="m 45,1.999 -42,0 c -0.552,0 -1,0.448 -1,1 l 0,26 c 0,0.553 0.448,1 1,1 l 42,0 c 0.553,0 1,-0.447 1,-1 l 0,-26 c 0,-0.552 -0.448,-1 -1,-1 z m 0.18,26.306 c 0,0.521 -0.423,0.944 -0.944,0.944 l -40.667,0 c -0.521,0 -0.944,-0.423 -0.944,-0.944 l 0,-24.612 c 0,-0.521 0.423,-0.944 0.944,-0.944 l 40.667,0 c 0.521,0 0.944,0.423 0.944,0.944 l 0,24.612 0,0 z"
             id="path275"
             style="fill:#ffffff" />
        </g>
      </g>
    </g>
    <g
       id="Layer_1"
       transform="translate(0,8.001)">
      <rect
         id="rect5272"
         x="5.5"
         y="15.874"
         enable-background="new    "
         width="20"
         height="1"
         style="opacity:0.61780001;fill:#2a2a2a" />
      <rect
         id="rect5274"
         x="5.5"
         y="19.874001"
         enable-background="new    "
         width="25"
         height="1"
         style="opacity:0.61780001;fill:#2a2a2a" />
      <rect
         id="rect5276"
         x="5.5"
         y="23.874001"
         enable-background="new    "
         width="17"
         height="1"
         style="opacity:0.61780001;fill:#2a2a2a" />
      <g
         id="g281">
        <rect
           id="rect5270"
           x="35"
           y="5.8740001"
           enable-background="new    "
           width="7"
           height="8"
           style="opacity:0.61780001;fill:#2a2a2a" />
        <path
           id="rect3197"
           enable-background="new    "
           d="m 42,5.874 0,8.017 -7,0 0,0.983 8,0 0,-9 -1,0 0,0 z"
           style="opacity:0.33000004;fill:#ffffff" />
      </g>
      <rect
         id="rect3186"
         x="5.5"
         y="16.874001"
         enable-background="new    "
         width="20"
         height="1"
         style="opacity:0.18999999;fill:#ffffff" />
      <rect
         id="rect3188"
         x="5.5"
         y="20.874001"
         enable-background="new    "
         width="25"
         height="1"
         style="opacity:0.18999999;fill:#ffffff" />
      <rect
         id="rect3190"
         x="5.5"
         y="24.874001"
         enable-background="new    "
         width="17"
         height="1"
         style="opacity:0.18999999;fill:#ffffff" />
    </g>
  </g>
</svg>
