<?xml version="1.0" encoding="UTF-8" standalone="no"?>
<!-- Created with Inkscape (http://www.inkscape.org/) -->
<svg
   xmlns:dc="http://purl.org/dc/elements/1.1/"
   xmlns:cc="http://creativecommons.org/ns#"
   xmlns:rdf="http://www.w3.org/1999/02/22-rdf-syntax-ns#"
   xmlns:svg="http://www.w3.org/2000/svg"
   xmlns="http://www.w3.org/2000/svg"
   xmlns:sodipodi="http://sodipodi.sourceforge.net/DTD/sodipodi-0.dtd"
   xmlns:inkscape="http://www.inkscape.org/namespaces/inkscape"
   width="48px"
   height="48px"
   id="svg4820"
   sodipodi:version="0.32"
   inkscape:version="0.46+devel"
   sodipodi:docname="notification-printer.svg"
   inkscape:output_extension="org.inkscape.output.svg.inkscape">
  <defs
     id="defs4822">
    <linearGradient
       id="SVGID_1_"
       gradientUnits="userSpaceOnUse"
       x1="23.9468"
       y1="26.248501"
       x2="23.9468"
       y2="13.2114">
      <stop
         offset="0"
         style="stop-color:#0D0D0D"
         id="stop242" />
      <stop
         offset="1"
         style="stop-color:#8C8C8C"
         id="stop244" />
    </linearGradient>
    <linearGradient
       id="SVGID_2_"
       gradientUnits="userSpaceOnUse"
       x1="305.94629"
       y1="-364.4346"
       x2="305.94629"
       y2="-349.47949"
       gradientTransform="matrix(1,0,0,-1,-282,-323.999)">
      <stop
         offset="0"
         style="stop-color:#9B9B9B"
         id="stop253" />
      <stop
         offset="1"
         style="stop-color:#ECECEC"
         id="stop255" />
    </linearGradient>
    <linearGradient
       id="SVGID_3_"
       gradientUnits="userSpaceOnUse"
       x1="23.9468"
       y1="37.751499"
       x2="23.9468"
       y2="25.812">
      <stop
         offset="0"
         style="stop-color:#0D0D0D"
         id="stop270" />
      <stop
         offset="1"
         style="stop-color:#8C8C8C"
         id="stop272" />
    </linearGradient>
    <linearGradient
       id="SVGID_4_"
       gradientUnits="userSpaceOnUse"
       x1="321.47559"
       y1="-366.07321"
       x2="321.47559"
       y2="-367.60721"
       gradientTransform="matrix(1,0,0,-1,-282,-323.999)">
      <stop
         offset="0.1917"
         style="stop-color:#ECEBF7"
         id="stop277" />
      <stop
         offset="0.53"
         style="stop-color:#9E9E9E"
         id="stop279" />
    </linearGradient>
    <linearGradient
       id="SVGID_5_"
       gradientUnits="userSpaceOnUse"
       x1="290.41699"
       y1="-366.07321"
       x2="290.41699"
       y2="-367.60721"
       gradientTransform="matrix(1,0,0,-1,-282,-323.999)">
      <stop
         offset="0.1917"
         style="stop-color:#ECEBF7"
         id="stop284" />
      <stop
         offset="0.53"
         style="stop-color:#9E9E9E"
         id="stop286" />
    </linearGradient>
    <linearGradient
       id="SVGID_6_"
       gradientUnits="userSpaceOnUse"
       x1="305.94629"
       y1="-368.75781"
       x2="305.94629"
       y2="-369.21799"
       gradientTransform="matrix(1,0,0,-1,-282,-323.999)">
      <stop
         offset="0.1917"
         style="stop-color:#ECEBF7"
         id="stop291" />
      <stop
         offset="0.53"
         style="stop-color:#9E9E9E"
         id="stop293" />
    </linearGradient>
    <linearGradient
       id="SVGID_7_"
       gradientUnits="userSpaceOnUse"
       x1="305.9473"
       y1="-368.3252"
       x2="305.9473"
       y2="-365.30539"
       gradientTransform="matrix(1,0,0,-1,-282,-323.999)">
      <stop
         offset="0"
         style="stop-color:#727275"
         id="stop298" />
      <stop
         offset="0.53"
         style="stop-color:#151517"
         id="stop300" />
    </linearGradient>
    <linearGradient
       id="SVGID_8_"
       gradientUnits="userSpaceOnUse"
       x1="305.94531"
       y1="-326.08981"
       x2="305.94531"
       y2="-349.48099"
       gradientTransform="matrix(1,0,0,-1,-282,-323.999)">
      <stop
         offset="0"
         style="stop-color:#FCFCFC"
         id="stop307" />
      <stop
         offset="0.1742"
         style="stop-color:#FFFFFF"
         id="stop309" />
      <stop
         offset="0.8258"
         style="stop-color:#FFFFFF"
         id="stop311" />
      <stop
         offset="1"
         style="stop-color:#A2A2A3"
         id="stop313" />
    </linearGradient>
    <linearGradient
       id="SVGID_9_"
       gradientUnits="userSpaceOnUse"
       x1="305.94629"
       y1="-326.08981"
       x2="305.94629"
       y2="-349.48099"
       gradientTransform="matrix(1,0,0,-1,-282,-323.999)">
      <stop
         offset="0"
         style="stop-color:#FCFCFC"
         id="stop318" />
      <stop
         offset="0.1742"
         style="stop-color:#EEEEEE"
         id="stop320" />
      <stop
         offset="0.8258"
         style="stop-color:#EEEEEE"
         id="stop322" />
      <stop
         offset="1"
         style="stop-color:#A2A2A3"
         id="stop324" />
    </linearGradient>
    <radialGradient
       id="SVGID_10_"
       cx="314.3721"
       cy="-335.82281"
       r="5.9809999"
       gradientTransform="matrix(0.8757,-0.131,-0.1048,-0.7,-279.3049,-182.217)"
       gradientUnits="userSpaceOnUse">
      <stop
         offset="0.2135"
         style="stop-color:#C4C4C4"
         id="stop329" />
      <stop
         offset="0.927"
         style="stop-color:#EEEEEE"
         id="stop331" />
    </radialGradient>
    <linearGradient
       id="SVGID_11_"
       gradientUnits="userSpaceOnUse"
       x1="310.38281"
       y1="-325.38821"
       x2="312.82751"
       y2="-335.6459"
       gradientTransform="matrix(1,0,0,-1,-282,-323.999)">
      <stop
         offset="0"
         style="stop-color:#FCFDFD"
         id="stop336" />
      <stop
         offset="1"
         style="stop-color:#EEEEEE"
         id="stop338" />
    </linearGradient>
  </defs>
  <sodipodi:namedview
     id="base"
     pagecolor="#ffffff"
     bordercolor="#666666"
     borderopacity="1.0"
     inkscape:pageopacity="0.0"
     inkscape:pageshadow="2"
     inkscape:zoom="2.4748737"
     inkscape:cx="21.016945"
     inkscape:cy="20.661905"
     inkscape:current-layer="layer1"
     showgrid="true"
     inkscape:grid-bbox="true"
     inkscape:document-units="px"
     inkscape:window-width="567"
     inkscape:window-height="460"
     inkscape:window-x="1111"
     inkscape:window-y="561" />
  <metadata
     id="metadata4825">
    <rdf:RDF>
      <cc:Work
         rdf:about="">
        <dc:format>image/svg+xml</dc:format>
        <dc:type
           rdf:resource="http://purl.org/dc/dcmitype/StillImage" />
        <dc:title />
      </cc:Work>
    </rdf:RDF>
  </metadata>
  <g
     id="layer1"
     inkscape:label="Layer 1"
     inkscape:groupmode="layer">
    <g
       id="Layer_1"
       transform="translate(0.053,0)" />
    <g
       id="Layer_2"
       transform="translate(0.053,0)">
      <g
         id="g239">
        <linearGradient
           id="linearGradient4725"
           gradientUnits="userSpaceOnUse"
           x1="23.9468"
           y1="26.248501"
           x2="23.9468"
           y2="13.2114">
          <stop
             offset="0"
             style="stop-color:#0D0D0D"
             id="stop4727" />
          <stop
             offset="1"
             style="stop-color:#8C8C8C"
             id="stop4729" />
        </linearGradient>
        <rect
           x="9.375"
           y="13.211"
           width="29.142"
           height="13.038"
           id="rect246"
           style="fill:url(#SVGID_1_)" />
        <path
           d="m 45.803,40.436 0,-13.068 c 0,-1.459 -1.527,-2.653 -3.004,-2.653 l -37.705,0 c -1.477,0 -3.004,1.194 -3.004,2.653 l 0,13.068 43.713,0 z"
           id="path248"
           style="fill:#ecebf7" />
        <g
           id="g250">
          <linearGradient
             id="linearGradient4734"
             gradientUnits="userSpaceOnUse"
             x1="305.94629"
             y1="-364.4346"
             x2="305.94629"
             y2="-349.47949"
             gradientTransform="matrix(1,0,0,-1,-282,-323.999)">
            <stop
               offset="0"
               style="stop-color:#9B9B9B"
               id="stop4736" />
            <stop
               offset="1"
               style="stop-color:#ECECEC"
               id="stop4738" />
          </linearGradient>
          <path
             d="m 45.419,40.436 0,-12.304 c 0,-1.458 -1.187,-2.651 -2.637,-2.651 l -37.672,0 c -1.45,0 -2.637,1.193 -2.637,2.651 l 0,12.304 42.946,0 z"
             id="path257"
             style="fill:url(#SVGID_2_)" />
        </g>
        <path
           d="m 45.803,40.157 0,4.218 c 0,0.422 -0.345,0.767 -0.767,0.767 l -42.179,0 c -0.422,0 -0.767,-0.345 -0.767,-0.767 l 0,-4.218 43.713,0 z"
           id="path259"
           style="fill:#333333" />
        <g
           id="g261">
          <path
             d="m 2.473,40.923 0,3.835 c 0,0.211 0.172,0.383 0.384,0.383 l 42.179,0 c 0.211,0 0.383,-0.172 0.383,-0.383 l 0,-3.835 -42.946,0 z"
             id="path263"
             style="fill:#333333" />
        </g>
        <path
           d="m 38.9,37.368 c 0,0.422 -0.345,0.767 -0.767,0.767 l -28.375,0 c -0.421,0 -0.766,-0.345 -0.766,-0.767 l 0,-8.436 c 0,-0.422 0.345,-0.767 0.766,-0.767 l 28.375,0 c 0.422,0 0.767,0.345 0.767,0.767 l 0,8.436 z"
           id="path265"
           style="fill:#cbc8e6" />
        <g
           id="g267">
          <linearGradient
             id="linearGradient4746"
             gradientUnits="userSpaceOnUse"
             x1="23.9468"
             y1="37.751499"
             x2="23.9468"
             y2="25.812">
            <stop
               offset="0"
               style="stop-color:#0D0D0D"
               id="stop4748" />
            <stop
               offset="1"
               style="stop-color:#8C8C8C"
               id="stop4750" />
          </linearGradient>
          <rect
             x="9.375"
             y="25.812"
             width="29.142"
             height="11.939"
             id="rect274"
             style="fill:url(#SVGID_3_)" />
        </g>
        <linearGradient
           id="linearGradient4753"
           gradientUnits="userSpaceOnUse"
           x1="321.47559"
           y1="-366.07321"
           x2="321.47559"
           y2="-367.60721"
           gradientTransform="matrix(1,0,0,-1,-282,-323.999)">
          <stop
             offset="0.1917"
             style="stop-color:#ECEBF7"
             id="stop4755" />
          <stop
             offset="0.53"
             style="stop-color:#9E9E9E"
             id="stop4757" />
        </linearGradient>
        <rect
           x="38.518002"
           y="42.074001"
           width="1.9170001"
           height="3.835"
           id="rect281"
           style="fill:url(#SVGID_4_)" />
        <linearGradient
           id="linearGradient4760"
           gradientUnits="userSpaceOnUse"
           x1="290.41699"
           y1="-366.07321"
           x2="290.41699"
           y2="-367.60721"
           gradientTransform="matrix(1,0,0,-1,-282,-323.999)">
          <stop
             offset="0.1917"
             style="stop-color:#ECEBF7"
             id="stop4762" />
          <stop
             offset="0.53"
             style="stop-color:#9E9E9E"
             id="stop4764" />
        </linearGradient>
        <rect
           x="7.4580002"
           y="42.074001"
           width="1.9170001"
           height="3.835"
           id="rect288"
           style="fill:url(#SVGID_5_)" />
        <linearGradient
           id="linearGradient4767"
           gradientUnits="userSpaceOnUse"
           x1="305.94629"
           y1="-368.75781"
           x2="305.94629"
           y2="-369.21799"
           gradientTransform="matrix(1,0,0,-1,-282,-323.999)">
          <stop
             offset="0.1917"
             style="stop-color:#ECEBF7"
             id="stop4769" />
          <stop
             offset="0.53"
             style="stop-color:#9E9E9E"
             id="stop4771" />
        </linearGradient>
        <rect
           x="9.375"
           y="44.757999"
           width="29.142"
           height="1.15"
           id="rect295"
           style="fill:url(#SVGID_6_)" />
        <linearGradient
           id="linearGradient4774"
           gradientUnits="userSpaceOnUse"
           x1="305.9473"
           y1="-368.3252"
           x2="305.9473"
           y2="-365.30539"
           gradientTransform="matrix(1,0,0,-1,-282,-323.999)">
          <stop
             offset="0"
             style="stop-color:#727275"
             id="stop4776" />
          <stop
             offset="0.53"
             style="stop-color:#151517"
             id="stop4778" />
        </linearGradient>
        <polygon
           points="38.518,42.074 38.518,44.758 9.375,44.758 9.375,42.074 9.758,41.307 38.134,41.307 38.518,42.074 "
           id="polygon302"
           style="fill:url(#SVGID_7_)" />
        <rect
           x="9.375"
           y="24.714001"
           width="29.142"
           height="1.15"
           id="rect304"
           style="fill:#333336" />
        <linearGradient
           id="linearGradient4782"
           gradientUnits="userSpaceOnUse"
           x1="305.94531"
           y1="-326.08981"
           x2="305.94531"
           y2="-349.48099"
           gradientTransform="matrix(1,0,0,-1,-282,-323.999)">
          <stop
             offset="0"
             style="stop-color:#FCFCFC"
             id="stop4784" />
          <stop
             offset="0.1742"
             style="stop-color:#FFFFFF"
             id="stop4786" />
          <stop
             offset="0.8258"
             style="stop-color:#FFFFFF"
             id="stop4788" />
          <stop
             offset="1"
             style="stop-color:#A2A2A3"
             id="stop4790" />
        </linearGradient>
        <path
           d="m 36.6,25.865 -25.308,0 c 0,0 0,-22.234 0,-22.741 0,-0.507 0.521,-1.033 1.022,-1.033 0.382,0 8.232,0 11.3,0 2.697,0 12.985,11.629 12.985,13.23 0.001,2.067 0.001,10.544 0.001,10.544 z"
           id="path315"
           style="fill:url(#SVGID_8_)" />
        <linearGradient
           id="linearGradient4793"
           gradientUnits="userSpaceOnUse"
           x1="305.94629"
           y1="-326.08981"
           x2="305.94629"
           y2="-349.48099"
           gradientTransform="matrix(1,0,0,-1,-282,-323.999)">
          <stop
             offset="0"
             style="stop-color:#FCFCFC"
             id="stop4795" />
          <stop
             offset="0.1742"
             style="stop-color:#EEEEEE"
             id="stop4797" />
          <stop
             offset="0.8258"
             style="stop-color:#EEEEEE"
             id="stop4799" />
          <stop
             offset="1"
             style="stop-color:#A2A2A3"
             id="stop4801" />
        </linearGradient>
        <path
           d="m 36.217,25.865 -24.541,0 c 0,0 0,-22.234 0,-22.741 0,-0.507 0.505,-1.033 0.991,-1.033 0.37,0 7.998,0 10.97,0 2.612,0 12.58,11.629 12.58,13.23 0,2.067 0,10.544 0,10.544 z"
           id="path326"
           style="fill:url(#SVGID_9_)" />
        <radialGradient
           id="radialGradient4804"
           cx="314.3721"
           cy="-335.82281"
           r="5.9809999"
           gradientTransform="matrix(0.8757,-0.131,-0.1048,-0.7,-279.3049,-182.217)"
           gradientUnits="userSpaceOnUse">
          <stop
             offset="0.2135"
             style="stop-color:#C4C4C4"
             id="stop4806" />
          <stop
             offset="0.927"
             style="stop-color:#EEEEEE"
             id="stop4808" />
        </radialGradient>
        <path
           d="m 34.77,12.804 c 0.288,1.927 -0.425,3.631 -2.837,3.992 -2.409,0.361 -5.605,-0.758 -5.894,-2.685 -0.289,-1.928 0.586,-2.558 2.996,-2.919 2.41,-0.36 3.856,0.521 5.735,1.612 z"
           id="path333"
           style="fill:url(#SVGID_10_)" />
        <linearGradient
           id="linearGradient4811"
           gradientUnits="userSpaceOnUse"
           x1="310.38281"
           y1="-325.38821"
           x2="312.82751"
           y2="-335.6459"
           gradientTransform="matrix(1,0,0,-1,-282,-323.999)">
          <stop
             offset="0"
             style="stop-color:#FCFDFD"
             id="stop4813" />
          <stop
             offset="1"
             style="stop-color:#EEEEEE"
             id="stop4815" />
        </linearGradient>
        <path
           d="M 36.6,15.321 C 36.6,12.233 26.343,12.228 26.343,12.228 26.333,13.25 26.447,2.09 23.614,2.09 26.312,2.091 36.6,14.29 36.6,15.321 z"
           id="path340"
           style="fill:url(#SVGID_11_)" />
        <rect
           x="9.375"
           y="25.865"
           width="29.077999"
           height="0.384"
           id="rect342"
           style="fill:#333336" />
        <path
           d="m 42.798,22.624 -2.189,0 0,-9.414 c 0,-1.154 -0.937,-2.09 -2.091,-2.09 l -2.054,0 C 33.745,7.616 28.252,1.685 25.174,0.362 24.615,0.119 24.112,0 23.637,0 L 12.314,0 C 10.655,0 9.201,1.458 9.201,3.124 l 0,8.002 C 8.129,11.217 7.285,12.114 7.285,13.21 l 0,9.413 -2.191,0 C 2.38,22.624 0,24.839 0,27.368 l 0,17.008 c 0,1.294 0.893,2.432 2.146,2.752 0.229,0.067 0.47,0.104 0.71,0.104 l 2.984,0 C 6.222,47.7 6.807,48 7.458,48 l 32.975,0 c 0.651,0 1.236,-0.301 1.618,-0.769 l 2.983,0 c 1.578,0 2.858,-1.281 2.858,-2.856 l 0,-17.007 c 0.002,-2.529 -2.38,-4.744 -5.094,-4.744 z m 3.005,21.751 c 0,0.422 -0.345,0.767 -0.767,0.767 l -4.602,0 0,0.768 -32.976,0 0,-0.768 -4.601,0 c -0.053,0 -0.103,-0.011 -0.149,-0.03 C 2.359,45.04 2.09,44.744 2.09,44.375 l 0,-17.007 c 0,-1.459 1.527,-2.653 3.004,-2.653 l 4.282,0 0,-11.504 1.917,0 0,-10.087 c 0,-0.506 0.521,-1.033 1.022,-1.033 l 11.322,0 c 0.192,0 0.429,0.07 0.694,0.188 2.672,1.147 8.57,7.459 11.089,10.933 l 3.098,0 0,11.503 4.281,0 c 1.477,0 3.004,1.194 3.004,2.653 l 0,17.007 z"
           id="path344"
           style="opacity:0.3" />
      </g>
    </g>
  </g>
</svg>
