/* XPM */
static char * close_pressed_xpm[] = {
"20 25 103 2",
"  	c None",
". 	c #3C3C3C",
"+ 	c #707070",
"@ 	c #515151",
"# 	c #505050",
"$ 	c #4F4F4F",
"% 	c #4E4E4E",
"& 	c #5D5D5D",
"* 	c #8D8D8D",
"= 	c #B9B9B9",
"- 	c #CDCDCD",
"; 	c #5C5C5C",
"> 	c #4D4D4D",
", 	c #9F9F9F",
"' 	c #E2E2E2",
") 	c #E6E6E6",
"! 	c #E0E0E0",
"~ 	c #4C4C4C",
"{ 	c #525252",
"] 	c #C0C0C0",
"^ 	c #BCBCBC",
"/ 	c #9C9C9C",
"( 	c #969696",
"_ 	c #4B4B4B",
": 	c #A8A8A8",
"< 	c #DDDDDD",
"[ 	c #A3A3A1",
"} 	c #939392",
"| 	c #A2A2A1",
"1 	c #A6A6A6",
"2 	c #4A4A4A",
"3 	c #666666",
"4 	c #E4E4E4",
"5 	c #A0A0A0",
"6 	c #CCCCCC",
"7 	c #D1D1D1",
"8 	c #8F8F8F",
"9 	c #656565",
"0 	c #ADADAD",
"a 	c #C4C4C4",
"b 	c #8C8C8C",
"c 	c #D6D6D6",
"d 	c #939393",
"e 	c #494949",
"f 	c #DCDCDC",
"g 	c #A5A5A5",
"h 	c #898989",
"i 	c #919191",
"j 	c #D7D7D7",
"k 	c #E7E7E7",
"l 	c #D8D8D8",
"m 	c #DBDBDB",
"n 	c #484848",
"o 	c #969695",
"p 	c #858584",
"q 	c #8D8D8C",
"r 	c #D8D8D6",
"s 	c #E7E7E6",
"t 	c #474747",
"u 	c #818181",
"v 	c #464646",
"w 	c #9E9E9D",
"x 	c #7D7D7D",
"y 	c #868685",
"z 	c #D5D5D4",
"A 	c #9F9F9E",
"B 	c #DADADA",
"C 	c #454545",
"D 	c #ABABAB",
"E 	c #BDBDBD",
"F 	c #7A7A79",
"G 	c #CECECD",
"H 	c #828281",
"I 	c #444444",
"J 	c #606060",
"K 	c #E3E3E3",
"L 	c #C5C5C5",
"M 	c #7E7E7E",
"N 	c #757575",
"O 	c #434343",
"P 	c #A4A4A4",
"Q 	c #D9D9D9",
"R 	c #878786",
"S 	c #727271",
"T 	c #888887",
"U 	c #A3A3A3",
"V 	c #DFDFDF",
"W 	c #A7A7A7",
"X 	c #777777",
"Y 	c #6D6D6D",
"Z 	c #A9A9A9",
"` 	c #424242",
" .	c #9A9A9A",
"..	c #E1E1E1",
"+.	c #DEDEDE",
"@.	c #414141",
"#.	c #838383",
"$.	c #B4B4B4",
"%.	c #CACACA",
"&.	c #404040",
"*.	c #3F3F3F",
"=.	c #3E3E3E",
"-.	c #3D3D3D",
". . . . . . . . . . . . . . . . . . . . ",
"+ + + + + + + + + + + + + + + + + + + + ",
"@ @ @ @ @ @ @ @ @ @ @ @ @ @ @ @ @ @ @ @ ",
"# # # # # # # # # # # # # # # # # # # # ",
"$ $ $ $ $ $ $ $ $ $ $ $ $ $ $ $ $ $ $ $ ",
"% % % % % % & * = - - = * ; % % % % % % ",
"> > > > # , ' ) ) ! ! ) ) ' , # > > > > ",
"~ ~ ~ { ] ) ! ^ / ( ( / ^ ' ) ] @ ~ ~ ~ ",
"_ _ _ : ) < [ } } } } } } | < ) 1 _ _ _ ",
"2 2 3 4 4 5 6 7 ( 8 8 ( 7 6 5 4 4 9 2 2 ",
"2 2 0 ) a b 7 ) c d d c ) 7 b a ) 0 2 2 ",
"e e f ) g h i j k l l k j i h 1 ) m e e ",
"n n ) ) o p p q r s s r q p p o ) ) n n ",
"t t ) ) d u u h j k k j h u u d ) ) t t ",
"v v m ) w x y z s c c s z y x A ) B v v ",
"C C D ) E F G s z H H z s G F E ) D C C ",
"I I J 4 K b L - M N N M - L * 4 4 J I I ",
"O O O P ) Q R S S S S S S T Q ) U O O O ",
"O O O t E ) V W X Y Y X Z ! ) E v O O O ",
"` ` ` ` C  ...) ) +.+.) ) !  .C ` ` ` ` ",
"@.@.@.@.@.@.# #.$.%.%.$.#.# @.@.@.@.@.@.",
"&.&.&.&.&.&.&.&.&.&.&.&.&.&.&.&.&.&.&.&.",
"*.*.*.*.*.*.*.*.*.*.*.*.*.*.*.*.*.*.*.*.",
"=.=.=.=.=.=.=.=.=.=.=.=.=.=.=.=.=.=.=.=.",
"-.-.-.-.-.-.-.-.-.-.-.-.-.-.-.-.-.-.-.-."};
