<?xml version="1.0" encoding="UTF-8" standalone="no"?>
<!-- Created with Inkscape (http://www.inkscape.org/) -->
<svg
   xmlns:dc="http://purl.org/dc/elements/1.1/"
   xmlns:cc="http://creativecommons.org/ns#"
   xmlns:rdf="http://www.w3.org/1999/02/22-rdf-syntax-ns#"
   xmlns:svg="http://www.w3.org/2000/svg"
   xmlns="http://www.w3.org/2000/svg"
   xmlns:xlink="http://www.w3.org/1999/xlink"
   xmlns:sodipodi="http://sodipodi.sourceforge.net/DTD/sodipodi-0.dtd"
   xmlns:inkscape="http://www.inkscape.org/namespaces/inkscape"
   width="48px"
   height="48px"
   id="svg8865"
   sodipodi:version="0.32"
   inkscape:version="0.46"
   sodipodi:docname="folder-remote-smb.svg"
   inkscape:output_extension="org.inkscape.output.svg.inkscape">
  <defs
     id="defs8867">
    <linearGradient
       id="linearGradient32104"
       inkscape:collect="always">
      <stop
         id="stop32106"
         offset="0"
         style="stop-color:#ffffff;stop-opacity:1" />
      <stop
         id="stop32108"
         offset="1"
         style="stop-color:#ffffff;stop-opacity:0" />
    </linearGradient>
    <linearGradient
       inkscape:collect="always"
       xlink:href="#linearGradient32104"
       id="linearGradient32110"
       gradientUnits="userSpaceOnUse"
       gradientTransform="matrix(0.9411765,0,0,0.9333334,0.9411766,1.199998)"
       x1="24.546265"
       y1="17.9053"
       x2="24.528528"
       y2="37.285713" />
    <linearGradient
       inkscape:collect="always"
       id="linearGradient32094">
      <stop
         style="stop-color:#ffffff;stop-opacity:1"
         offset="0"
         id="stop32096" />
      <stop
         style="stop-color:#ffffff;stop-opacity:0"
         offset="1"
         id="stop32098" />
    </linearGradient>
    <linearGradient
       inkscape:collect="always"
       xlink:href="#linearGradient32094"
       id="linearGradient32112"
       gradientUnits="userSpaceOnUse"
       gradientTransform="matrix(0.9411765,0,0,0.9333334,0.9411766,1.199998)"
       x1="25.203651"
       y1="18.000002"
       x2="25.045048"
       y2="36.097942" />
    <linearGradient
       inkscape:collect="always"
       id="linearGradient6265">
      <stop
         style="stop-color:#ffffff;stop-opacity:1;"
         offset="0"
         id="stop6267" />
      <stop
         style="stop-color:#ffffff;stop-opacity:0;"
         offset="1"
         id="stop6269" />
    </linearGradient>
    <linearGradient
       inkscape:collect="always"
       xlink:href="#linearGradient6265"
       id="linearGradient6271"
       x1="25"
       y1="15"
       x2="24.954546"
       y2="41.863636"
       gradientUnits="userSpaceOnUse"
       gradientTransform="translate(-1.246118e-4,-3.9999965)" />
    <linearGradient
       inkscape:collect="always"
       id="linearGradient7977">
      <stop
         style="stop-color:#3465a4;stop-opacity:1"
         offset="0"
         id="stop7979" />
      <stop
         style="stop-color:#204a87;stop-opacity:1"
         offset="1"
         id="stop7981" />
    </linearGradient>
    <linearGradient
       inkscape:collect="always"
       xlink:href="#linearGradient7977"
       id="linearGradient7983"
       x1="326.25296"
       y1="136.38074"
       x2="327.31815"
       y2="452.21884"
       gradientUnits="userSpaceOnUse" />
    <linearGradient
       id="linearGradient4103">
      <stop
         style="stop-color:#8fb3d9;stop-opacity:1"
         offset="0"
         id="stop4105" />
      <stop
         style="stop-color:#3465a4;stop-opacity:1"
         offset="1"
         id="stop4107" />
    </linearGradient>
    <linearGradient
       inkscape:collect="always"
       xlink:href="#linearGradient4103"
       id="linearGradient5117"
       gradientUnits="userSpaceOnUse"
       x1="256.06668"
       y1="189.27309"
       x2="256.15552"
       y2="453.99841"
       gradientTransform="matrix(0.9935665,0,0,0.9748185,1.6474216,9.6527892)" />
    <linearGradient
       id="linearGradient9347">
      <stop
         id="stop9349"
         offset="0.0000000"
         style="stop-color:#7a7a7a;stop-opacity:1.0000000;" />
      <stop
         id="stop9351"
         offset="0.19801980"
         style="stop-color:#ebebeb;stop-opacity:1" />
      <stop
         id="stop9353"
         offset="0.59900987"
         style="stop-color:#b9b9b9;stop-opacity:1" />
      <stop
         id="stop9355"
         offset="1.0000000"
         style="stop-color:#878787;stop-opacity:1" />
    </linearGradient>
    <linearGradient
       inkscape:collect="always"
       xlink:href="#linearGradient9347"
       id="linearGradient7755"
       gradientUnits="userSpaceOnUse"
       gradientTransform="matrix(0.7312763,0,0,0.6969978,6.8678445,14.121762)"
       x1="23.100046"
       y1="38.296745"
       x2="23.143667"
       y2="46.03775" />
    <linearGradient
       id="linearGradient178">
      <stop
         style="stop-color:#ffffff;stop-opacity:0.0000000;"
         offset="0.0000000"
         id="stop179" />
      <stop
         style="stop-color:#d9d9d9;stop-opacity:1"
         offset="0.10827128"
         id="stop180" />
      <stop
         style="stop-color:#d9d9d9;stop-opacity:1"
         offset="0.92053902"
         id="stop181" />
      <stop
         style="stop-color:#ffffff;stop-opacity:0.0000000;"
         offset="1.0000000"
         id="stop182" />
    </linearGradient>
    <linearGradient
       inkscape:collect="always"
       xlink:href="#linearGradient178"
       id="linearGradient7832"
       gradientUnits="userSpaceOnUse"
       gradientTransform="matrix(3.1119049,0,0,9.1235758e-2,28.948795,19.750004)"
       x1="1.6422368"
       y1="117.8271"
       x2="15.343062"
       y2="117.8271" />
    <linearGradient
       inkscape:collect="always"
       xlink:href="#linearGradient272"
       id="linearGradient7834"
       gradientUnits="userSpaceOnUse"
       gradientTransform="matrix(9.3885418,0,0,0.2235361,29.130383,-45.865211)"
       x1="0.61210024"
       y1="372.57819"
       x2="5.0856376"
       y2="372.57819" />
    <linearGradient
       id="linearGradient272">
      <stop
         style="stop-color:#474747;stop-opacity:0.0000000;"
         offset="0.0000000"
         id="stop273" />
      <stop
         style="stop-color:#474747;stop-opacity:1.0000000;"
         offset="0.10000000"
         id="stop275" />
      <stop
         style="stop-color:#474747;stop-opacity:1.0000000;"
         offset="0.89999998"
         id="stop276" />
      <stop
         style="stop-color:#474747;stop-opacity:0.0000000;"
         offset="1.0000000"
         id="stop274" />
    </linearGradient>
    <linearGradient
       inkscape:collect="always"
       xlink:href="#linearGradient272"
       id="linearGradient7830"
       gradientUnits="userSpaceOnUse"
       gradientTransform="matrix(9.3885424,0,0,0.2235366,29.130395,-51.784906)"
       x1="0.61210024"
       y1="372.57819"
       x2="5.0856376"
       y2="372.57819" />
    <linearGradient
       inkscape:collect="always"
       id="linearGradient6704">
      <stop
         style="stop-color:#000000;stop-opacity:1;"
         offset="0"
         id="stop6706" />
      <stop
         style="stop-color:#000000;stop-opacity:0;"
         offset="1"
         id="stop6708" />
    </linearGradient>
    <radialGradient
       inkscape:collect="always"
       xlink:href="#linearGradient6704"
       id="radialGradient7753"
       gradientUnits="userSpaceOnUse"
       gradientTransform="matrix(1,0,0,0.1166667,0,348.72344)"
       cx="1120.375"
       cy="394.78125"
       fx="1120.375"
       fy="394.78125"
       r="20.625" />
    <linearGradient
       id="linearGradient17648">
      <stop
         id="stop17650"
         offset="0"
         style="stop-color:#ffffff;stop-opacity:0.6" />
      <stop
         id="stop17652"
         offset="1"
         style="stop-color:#ffffff;stop-opacity:0;" />
    </linearGradient>
    <linearGradient
       inkscape:collect="always"
       xlink:href="#linearGradient17648"
       id="linearGradient17646"
       gradientUnits="userSpaceOnUse"
       x1="23.959301"
       y1="10"
       x2="24"
       y2="39.023418"
       gradientTransform="translate(-1.2596959e-4,-3.9999326)" />
    <linearGradient
       inkscape:collect="always"
       id="linearGradient6293">
      <stop
         style="stop-color:#888a85;stop-opacity:1"
         offset="0"
         id="stop6295" />
      <stop
         style="stop-color:#555753;stop-opacity:1"
         offset="1"
         id="stop6297" />
    </linearGradient>
    <linearGradient
       inkscape:collect="always"
       xlink:href="#linearGradient6293"
       id="linearGradient17644"
       gradientUnits="userSpaceOnUse"
       x1="25.0625"
       y1="8.9999352"
       x2="25.0625"
       y2="28.082869"
       gradientTransform="translate(-1.2596959e-4,-3.9999326)" />
  </defs>
  <sodipodi:namedview
     id="base"
     pagecolor="#ffffff"
     bordercolor="#666666"
     borderopacity="1.0"
     inkscape:pageopacity="0.0"
     inkscape:pageshadow="2"
     inkscape:zoom="7"
     inkscape:cx="24"
     inkscape:cy="24"
     inkscape:current-layer="layer1"
     showgrid="true"
     inkscape:grid-bbox="true"
     inkscape:document-units="px"
     inkscape:window-width="641"
     inkscape:window-height="690"
     inkscape:window-x="368"
     inkscape:window-y="66" />
  <metadata
     id="metadata8870">
    <rdf:RDF>
      <cc:Work
         rdf:about="">
        <dc:format>image/svg+xml</dc:format>
        <dc:type
           rdf:resource="http://purl.org/dc/dcmitype/StillImage" />
      </cc:Work>
    </rdf:RDF>
  </metadata>
  <g
     id="layer1"
     inkscape:label="Layer 1"
     inkscape:groupmode="layer">
    <path
       d="M 42.499876,10.500003 C 42.509427,9.0061505 42.007688,8.5000675 40.499876,8.5000675 L 21.499876,8.5000675 L 18.999876,6.0000675 C 18.7336,5.7406634 18.37636,5.5000024 17.999876,5.5000024 L 7.499875,5.5000024 C 6.012534,5.5000024 5.468625,6.0164715 5.499875,7.5000035 L 5.499875,35.500068 L 42.499876,35.500068 L 42.499876,10.500003 z"
       id="path15"
       style="fill:#d9d9d9;fill-opacity:1;stroke:url(#linearGradient17644);stroke-width:0.99986976;stroke-miterlimit:4;stroke-dasharray:none"
       sodipodi:nodetypes="cccccccccc" />
    <path
       d="M 41.499876,10.500067 C 41.491748,9.5865535 41.444434,9.5111155 40.499876,9.5000665 L 20.999876,9.5000665 L 18.499876,7.0000675 C 18.060697,6.3837605 17.950806,6.5313175 16.999876,6.5000675 L 6.999874,6.5000675 C 6.285523,6.5000675 6.499874,6.8123835 6.499874,7.5000675 L 6.499875,34.500068 L 41.499876,34.500068 L 41.499876,10.500067 z"
       id="path7263"
       style="opacity:1;fill:none;fill-opacity:1;stroke:url(#linearGradient17646);stroke-width:0.9999525;stroke-miterlimit:4;stroke-dasharray:none;stroke-opacity:1"
       sodipodi:nodetypes="cccccccccc" />
    <rect
       style="fill:#d9d9d9;fill-opacity:1;stroke:#707070;stroke-width:1;stroke-miterlimit:4;stroke-dasharray:none;stroke-opacity:1"
       id="rect8955"
       width="2.9998591"
       height="2.9998591"
       x="22.499874"
       y="37.50016" />
    <path
       sodipodi:type="arc"
       style="opacity:0.3;fill:url(#radialGradient7753);fill-opacity:1;fill-rule:evenodd;stroke:none;display:inline;enable-background:new"
       id="path6774"
       sodipodi:cx="1120.375"
       sodipodi:cy="394.78125"
       sodipodi:rx="20.625"
       sodipodi:ry="2.40625"
       d="M 1141,394.78125 A 20.625,2.40625 0 1 1 1099.75,394.78125 A 20.625,2.40625 0 1 1 1141,394.78125 z"
       transform="matrix(1.0181815,0,0,1.2467532,-1116.7453,-447.19479)" />
    <g
       style="display:inline;enable-background:new"
       id="g7753"
       transform="translate(-31.877226,12.999552)">
      <rect
         style="opacity:0.65;fill:url(#linearGradient7830);fill-opacity:1;fill-rule:nonzero;stroke:none;stroke-width:1;marker:none;visibility:visible;display:block;overflow:visible"
         id="rect8601"
         width="41.999989"
         height="1"
         x="34.877113"
         y="31" />
      <rect
         style="opacity:0.65;fill:url(#linearGradient7834);fill-opacity:1;fill-rule:nonzero;stroke:none;stroke-width:1;marker:none;visibility:visible;display:block;overflow:visible"
         id="rect8603"
         width="41.999989"
         height="1"
         x="34.877102"
         y="29" />
      <rect
         style="fill:url(#linearGradient7832);fill-opacity:1;fill-rule:nonzero;stroke:none;stroke-width:1;marker:none;visibility:visible;display:block;overflow:visible"
         id="rect8605"
         width="41.5"
         height="1"
         x="34.627102"
         y="30" />
      <g
         transform="matrix(0.544365,0,0,0.9411763,42.076688,-8.6470511)"
         id="g8613"
         style="fill:#ffffff;fill-opacity:0.72023806" />
    </g>
    <path
       sodipodi:nodetypes="ccccccccccc"
       style="fill:url(#linearGradient7755);fill-opacity:1;fill-rule:nonzero;stroke:#555753;stroke-width:1.00006688;stroke-linecap:butt;stroke-linejoin:miter;marker:none;stroke-miterlimit:4;stroke-dasharray:none;stroke-dashoffset:0;stroke-opacity:1;visibility:visible;display:block;overflow:visible;enable-background:new"
       d="M 21.778594,40.500053 L 18.545196,40.500053 C 17.962824,40.500053 17.499908,40.927093 17.499908,41.464328 L 17.499908,45.535411 C 17.499908,46.072641 17.962824,46.499986 18.545196,46.499986 L 29.45455,46.499986 C 30.036917,46.499986 30.49984,46.072641 30.49984,45.535411 L 30.49984,41.464328 C 30.49984,40.927093 30.036917,40.500053 29.45455,40.500053 L 26.633385,40.500053 L 21.778594,40.500053 z"
       id="path8607" />
    <rect
       style="fill:#ffffff;fill-opacity:0.72023806;fill-rule:nonzero;stroke:none;stroke-width:1.13999999;marker:none;visibility:visible;display:block;overflow:visible;enable-background:new"
       id="rect8615"
       width="8"
       height="1.5"
       x="20.999874"
       y="41.250019"
       rx="0.49999997"
       ry="0.5" />
    <path
       sodipodi:type="arc"
       style="fill:#ffffff;fill-opacity:0.72023806;fill-rule:nonzero;stroke:none;stroke-width:1.13999999;marker:none;visibility:visible;display:block;overflow:visible;enable-background:new"
       id="path8617"
       sodipodi:cx="18.46875"
       sodipodi:cy="40.625"
       sodipodi:rx="0.53125"
       sodipodi:ry="0.53125"
       d="M 19,40.625 A 0.53125,0.53125 0 1 1 17.9375,40.625 A 0.53125,0.53125 0 1 1 19,40.625 z"
       transform="matrix(1.4117647,0,0,1.4117647,-6.5736555,-15.352922)" />
    <g
       id="g6091"
       transform="matrix(8.5486833e-2,0,0,8.5486833e-2,2.109543,-0.6587546)">
      <path
         sodipodi:nodetypes="ccccccc"
         id="path2161"
         d="M 484.172,446.37147 L 27.961393,446.37147 C 2.6850158,446.37147 29.856715,358.94525 4.5659768,165.625 C 4.8330357,148.37385 10.230528,141.93418 27.961398,142.22959 L 484.17201,142.22959 C 501.57776,142.22959 508.00133,148.50201 507.56742,165.625 C 483.20813,358.63718 508.75897,446.37147 484.172,446.37147 z"
         style="fill:url(#linearGradient5117);fill-opacity:1;fill-rule:evenodd;stroke:url(#linearGradient7983);stroke-width:11.69475842;stroke-linecap:butt;stroke-linejoin:miter;stroke-miterlimit:4;stroke-dasharray:none;stroke-opacity:1" />
    </g>
    <path
       sodipodi:nodetypes="ccccccc"
       id="path6261"
       d="M 42.999876,36.500012 L 4.999875,36.500012 C 3.689591,36.500012 5.512906,29.01511 3.499874,13.500003 C 3.503451,12.546107 3.607692,12.507814 4.499875,12.500003 L 43.499876,12.500003 C 44.514197,12.566293 44.51456,12.580237 44.499876,13.500003 C 42.545617,29.98709 44.31865,36.500012 42.999876,36.500012 z"
       style="opacity:0.6;fill:none;fill-opacity:1;fill-rule:evenodd;stroke:url(#linearGradient6271);stroke-width:0.99998212;stroke-linecap:butt;stroke-linejoin:miter;stroke-miterlimit:4;stroke-dasharray:none;stroke-opacity:1" />
    <path
       style="fill:url(#linearGradient32110);fill-opacity:1"
       d="M 25.101897,31.878215 L 24.773532,31.80791 L 24.482909,31.704339 C 24.218483,31.610101 24.169514,31.589845 23.939558,31.47955 C 23.717203,31.372921 23.657754,31.3404 23.445119,31.209112 C 23.31218,31.127034 23.199273,31.054525 23.194216,31.047991 C 23.18916,31.04145 23.184918,31.024863 23.184787,31.011131 C 23.184656,30.997406 23.225119,30.848084 23.274717,30.679315 C 23.324305,30.510536 23.385558,30.301987 23.410824,30.215857 C 23.436082,30.129734 23.485304,29.961959 23.520194,29.843022 C 23.631508,29.463602 24.121973,27.793016 24.320915,27.115699 C 24.426619,26.755805 24.513103,26.457106 24.513103,26.451919 C 24.513103,26.440736 24.569314,26.38151 24.606541,26.353457 C 24.624512,26.339921 24.645745,26.332343 24.673663,26.32949 L 24.714495,26.325334 L 24.828099,26.400385 C 25.009798,26.520419 25.127103,26.588834 25.392528,26.729531 C 25.661077,26.871898 25.735014,26.907142 25.898287,26.970603 C 26.078682,27.040727 26.160003,27.063915 26.456522,27.129744 L 26.743732,27.193499 L 27.068327,27.214422 L 27.392911,27.235346 L 27.762801,27.198918 L 28.132678,27.16249 L 28.548892,27.065644 L 28.965097,26.968797 L 29.439114,26.804575 C 29.758783,26.693829 29.92314,26.640367 29.943848,26.640393 C 29.977305,26.640437 29.993971,26.649226 30.056834,26.700009 C 30.090666,26.727337 30.100552,26.740733 30.110123,26.772217 C 30.118504,26.799769 30.119765,26.815834 30.114498,26.828143 C 30.110438,26.83764 30.064759,26.99138 30.012992,27.169785 C 29.961224,27.348181 29.66706,28.358091 29.359288,29.414022 C 29.051519,30.469952 28.797825,31.344062 28.795525,31.3565 C 28.7857,31.409686 28.774817,31.415458 28.4768,31.525337 C 27.809868,31.771248 27.250549,31.903079 26.59276,31.96941 C 26.085417,32.057437 25.598055,31.932983 25.101897,31.878215 z M 27.33055,27.276355 C 27.321162,27.274574 27.307574,27.274644 27.300358,27.27651 C 27.29314,27.278376 27.300821,27.279836 27.317427,27.279751 C 27.334032,27.279673 27.339938,27.278143 27.33055,27.276355 z M 27.432545,27.276494 C 27.425284,27.274617 27.413393,27.274617 27.406123,27.276494 C 27.398861,27.278367 27.404803,27.279905 27.419335,27.279905 C 27.433865,27.279905 27.439816,27.278367 27.432545,27.276494 z M 27.209858,27.268913 C 27.200522,27.267134 27.18523,27.267134 27.175895,27.268913 C 27.166551,27.270694 27.174198,27.272146 27.192876,27.272146 C 27.211556,27.272146 27.219203,27.270694 27.209858,27.268913 z M 27.507891,27.269008 C 27.500542,27.267116 27.49035,27.267246 27.485239,27.269285 C 27.480131,27.271325 27.486141,27.272872 27.498598,27.272725 C 27.511049,27.272569 27.515232,27.270901 27.507891,27.269008 z M 27.08908,27.261454 C 27.079744,27.259683 27.064451,27.259683 27.055116,27.261454 C 27.045772,27.263236 27.053418,27.264687 27.072098,27.264687 C 27.090786,27.264687 27.098423,27.263236 27.08908,27.261454 z M 27.586822,27.261628 C 27.581372,27.259467 27.574864,27.259734 27.572354,27.262217 C 27.569843,27.264687 27.574303,27.26645 27.582257,27.26613 C 27.591058,27.265775 27.592843,27.264005 27.586822,27.261628 z M 26.960671,27.253988 C 26.951274,27.252208 26.937687,27.252275 26.93047,27.254135 C 26.92326,27.256002 26.930942,27.257462 26.947546,27.257384 C 26.964152,27.257296 26.970059,27.255767 26.960671,27.253988 z M 27.669861,27.25417 C 27.664409,27.252017 27.6579,27.252275 27.65539,27.254757 C 27.652878,27.257237 27.657341,27.259001 27.665293,27.258672 C 27.674085,27.258318 27.675879,27.256545 27.669861,27.25417 z M 26.839892,27.24653 C 26.830496,27.24475 26.816909,27.244817 26.809689,27.246685 C 26.802482,27.248552 26.810163,27.250004 26.826769,27.249926 C 26.843374,27.24984 26.849279,27.248318 26.839892,27.24653 z M 26.029757,27.0698 C 26.026372,27.066515 25.68687,26.931703 25.668051,26.926163 C 25.6386,26.917495 25.721803,26.957268 25.797937,26.988251 C 25.931804,27.042732 26.041734,27.081399 26.029757,27.0698 z M 29.239147,26.927823 C 29.464337,26.853888 29.838766,26.716256 29.832239,26.7098 C 29.829597,26.707191 29.048614,26.982211 29.042928,26.987758 C 29.036505,26.994006 29.051344,26.989477 29.239147,26.927823 z M 25.65295,26.920778 C 25.65295,26.919164 25.647683,26.915854 25.641234,26.913407 C 25.634516,26.910857 25.631489,26.91211 25.634131,26.916337 C 25.638566,26.923423 25.65295,26.92682 25.65295,26.920778 z M 25.577463,26.882847 C 25.577463,26.880877 25.563877,26.872425 25.54727,26.86405 C 25.530666,26.855686 25.517078,26.850508 25.517078,26.852539 C 25.517078,26.854577 25.529816,26.862884 25.545382,26.871007 C 25.577412,26.887705 25.577463,26.887722 25.577463,26.882847 z M 25.464235,26.823232 C 25.464235,26.821287 25.454042,26.814495 25.441593,26.808124 C 25.413201,26.793623 25.411487,26.799925 25.439702,26.815048 C 25.46343,26.827762 25.464235,26.82803 25.464235,26.823232 z M 25.351006,26.763538 C 25.351006,26.761578 25.337419,26.753115 25.320814,26.744749 C 25.304208,26.736376 25.290621,26.731199 25.290621,26.73323 C 25.290621,26.73527 25.30336,26.743575 25.318925,26.751699 C 25.350954,26.768397 25.351006,26.76842 25.351006,26.763538 z M 25.237778,26.703922 C 25.237778,26.701981 25.227585,26.695186 25.215135,26.688825 C 25.186743,26.674323 25.185021,26.680614 25.213245,26.695741 C 25.236964,26.708451 25.237778,26.708729 25.237778,26.703922 z M 21.015702,30.126854 C 20.999147,30.118201 20.98052,30.106837 20.974293,30.101599 C 20.968063,30.096361 20.925683,30.070971 20.88011,30.045164 C 20.834546,30.019357 20.747923,29.966407 20.687625,29.927481 C 20.516249,29.816859 20.197045,29.662486 19.921252,29.556858 L 19.694795,29.470124 L 19.426815,29.411753 C 19.188905,29.359933 19.142326,29.352059 19.011643,29.341568 C 18.759016,29.321292 18.646568,29.324991 18.253005,29.36657 L 17.905767,29.403258 L 17.520789,29.490261 L 17.1358,29.577272 L 16.67788,29.736612 C 16.273836,29.877199 16.216513,29.895321 16.19074,29.890638 C 16.156216,29.884355 16.019855,29.789851 16.007712,29.763802 C 15.997387,29.741634 15.997441,29.704628 16.007808,29.701214 C 16.021123,29.696831 17.342099,25.174308 17.333361,25.163011 C 17.318557,25.143887 17.364872,25.121641 17.641567,25.015038 C 17.811672,24.949493 18.072058,24.860372 18.226583,24.8148 C 18.274326,24.800723 18.50192,24.745894 18.732342,24.69296 L 19.151292,24.596709 L 19.514059,24.565026 L 19.876824,24.533334 L 20.193441,24.553384 L 20.510046,24.573435 L 20.80822,24.640101 C 20.972218,24.676765 21.138666,24.717184 21.178107,24.729924 C 21.464696,24.822467 21.775098,24.967374 22.099039,25.15984 C 22.280666,25.267758 22.528409,25.429232 22.537175,25.44541 C 22.548698,25.466681 22.546511,25.478753 22.506904,25.612607 C 22.486276,25.682333 22.315128,26.266192 22.126572,26.910085 C 21.938013,27.55397 21.655511,28.518688 21.498782,29.053897 C 21.342054,29.589104 21.207346,30.03609 21.199437,30.047204 C 21.180321,30.074074 21.081177,30.142581 21.061415,30.142581 C 21.052812,30.142581 21.032246,30.135504 21.015702,30.126854 z"
       id="path31581"
       sodipodi:nodetypes="cccsssssssssscccsscccccccccsssssssscccssccssccssccssccssccssccssccssccssccssccssccssccsssccssccsssccssccssscccscccccsssssscccccccssssssssc" />
    <path
       style="fill:url(#linearGradient32112);fill-opacity:1"
       d="M 26.98425,25.344882 L 26.655885,25.274577 L 26.365262,25.171006 C 26.100836,25.076769 26.051867,25.056512 25.82191,24.946216 C 25.599556,24.839588 25.540107,24.807066 25.327472,24.67578 C 25.194533,24.593701 25.081626,24.521193 25.076569,24.514657 C 25.071513,24.508117 25.06727,24.491531 25.06714,24.477798 C 25.067009,24.464074 25.107472,24.314751 25.15707,24.145982 C 25.206658,23.977204 25.26791,23.768653 25.293177,23.682524 C 25.318435,23.596402 25.367657,23.428627 25.402547,23.309689 C 25.513861,22.93027 26.004326,21.259683 26.203268,20.582367 C 26.308972,20.222472 26.395456,19.923773 26.395456,19.918587 C 26.395456,19.907404 26.451667,19.848176 26.488894,19.820123 C 26.506865,19.806589 26.528098,19.79901 26.556016,19.796157 L 26.596848,19.792001 L 26.710452,19.867053 C 26.89215,19.987087 27.009456,20.055501 27.274881,20.196198 C 27.54343,20.338565 27.617367,20.373808 27.78064,20.437271 C 27.961035,20.507395 28.042356,20.530583 28.338875,20.596412 L 28.626085,20.660167 L 28.95068,20.681089 L 29.275264,20.702013 L 29.645154,20.665585 L 30.015031,20.629157 L 30.431245,20.532311 L 30.84745,20.435464 L 31.321467,20.271242 C 31.641136,20.160496 31.805493,20.107034 31.826201,20.107061 C 31.859658,20.107103 31.876324,20.115894 31.939187,20.166677 C 31.973019,20.194004 31.982905,20.2074 31.992476,20.238884 C 32.000857,20.266436 32.002118,20.282501 31.996851,20.294809 C 31.992791,20.304307 31.947112,20.458047 31.895345,20.636452 C 31.843577,20.814848 31.549413,21.824758 31.241641,22.880689 C 30.933872,23.936619 30.680178,24.810729 30.677877,24.823167 C 30.668053,24.876353 30.65717,24.882126 30.359153,24.992004 C 29.692221,25.237916 29.132902,25.369747 28.475113,25.436078 C 27.96777,25.524105 27.480408,25.399651 26.98425,25.344882 z M 29.212902,20.743023 C 29.203515,20.741242 29.189927,20.74131 29.18271,20.743177 C 29.175493,20.745044 29.183174,20.746503 29.19978,20.746418 C 29.216385,20.74634 29.222291,20.744811 29.212902,20.743023 z M 29.314898,20.743161 C 29.307637,20.741284 29.295746,20.741284 29.288476,20.743161 C 29.281214,20.745035 29.287156,20.746573 29.301688,20.746573 C 29.316218,20.746573 29.322169,20.745035 29.314898,20.743161 z M 29.092211,20.73558 C 29.082875,20.733801 29.067583,20.733801 29.058248,20.73558 C 29.048904,20.73736 29.05655,20.738813 29.075229,20.738813 C 29.093909,20.738813 29.101556,20.73736 29.092211,20.73558 z M 29.390244,20.735675 C 29.382895,20.733783 29.372703,20.733913 29.367592,20.735952 C 29.362484,20.737993 29.368494,20.73954 29.380951,20.739391 C 29.393402,20.739236 29.397585,20.737567 29.390244,20.735675 z M 28.971433,20.728122 C 28.962097,20.72635 28.946804,20.72635 28.937469,20.728122 C 28.928125,20.729903 28.935771,20.731355 28.954451,20.731355 C 28.973139,20.731355 28.980776,20.729903 28.971433,20.728122 z M 29.469175,20.728295 C 29.463725,20.726135 29.457217,20.726401 29.454707,20.728884 C 29.452196,20.731355 29.456656,20.733118 29.46461,20.732798 C 29.473411,20.732442 29.475196,20.730672 29.469175,20.728295 z M 28.843024,20.720655 C 28.833627,20.718875 28.82004,20.718943 28.812823,20.720802 C 28.805613,20.722669 28.813295,20.724128 28.829899,20.724051 C 28.846505,20.723964 28.852412,20.722435 28.843024,20.720655 z M 29.552213,20.720837 C 29.546762,20.718684 29.540253,20.718943 29.537743,20.721424 C 29.535231,20.723904 29.539694,20.725667 29.547646,20.725339 C 29.556437,20.724984 29.558232,20.723212 29.552213,20.720837 z M 28.722245,20.713196 C 28.712849,20.711417 28.699262,20.711485 28.692042,20.713353 C 28.684835,20.715219 28.692516,20.71667 28.709122,20.716594 C 28.725727,20.716507 28.731632,20.714985 28.722245,20.713196 z M 27.91211,20.536467 C 27.908725,20.533183 27.569223,20.39837 27.550404,20.39283 C 27.520953,20.384162 27.604156,20.423935 27.68029,20.454918 C 27.814157,20.5094 27.924087,20.548067 27.91211,20.536467 z M 31.1215,20.39449 C 31.34669,20.320556 31.721119,20.182923 31.714592,20.176468 C 31.71195,20.173857 30.930966,20.448878 30.925281,20.454425 C 30.918858,20.460673 30.933697,20.456144 31.1215,20.39449 z M 27.535302,20.387446 C 27.535302,20.385831 27.530036,20.38252 27.523587,20.380074 C 27.516869,20.377524 27.513842,20.378777 27.516484,20.383005 C 27.520918,20.39009 27.535302,20.393488 27.535302,20.387446 z M 27.459816,20.349514 C 27.459816,20.347545 27.44623,20.339092 27.429623,20.330717 C 27.413019,20.322353 27.399431,20.317175 27.399431,20.319206 C 27.399431,20.321245 27.412169,20.329551 27.427734,20.337675 C 27.459765,20.354372 27.459816,20.354389 27.459816,20.349514 z M 27.346588,20.289899 C 27.346588,20.287954 27.336395,20.281162 27.323946,20.274791 C 27.295554,20.26029 27.29384,20.266592 27.322055,20.281715 C 27.345783,20.294428 27.346588,20.294696 27.346588,20.289899 z M 27.233359,20.230206 C 27.233359,20.228245 27.219772,20.219783 27.203167,20.211417 C 27.186561,20.203043 27.172974,20.197867 27.172974,20.199898 C 27.172974,20.201937 27.185713,20.210243 27.201278,20.218366 C 27.233307,20.235064 27.233359,20.235088 27.233359,20.230206 z M 27.120131,20.17059 C 27.120131,20.168648 27.109938,20.161853 27.097488,20.155493 C 27.069096,20.140991 27.067374,20.147282 27.095598,20.162409 C 27.119317,20.175119 27.120131,20.175396 27.120131,20.17059 z M 22.898055,23.59352 C 22.8815,23.584869 22.862873,23.573504 22.856646,23.568266 C 22.850416,23.563028 22.808036,23.537638 22.762463,23.511832 C 22.716899,23.486024 22.630276,23.433073 22.569978,23.394148 C 22.398602,23.283526 22.079398,23.129153 21.803605,23.023525 L 21.577148,22.936792 L 21.309168,22.87842 C 21.071258,22.826601 21.024679,22.818727 20.893996,22.808235 C 20.641369,22.787959 20.52892,22.791658 20.135358,22.833237 L 19.78812,22.869926 L 19.403142,22.956929 L 19.018152,23.043939 L 18.560233,23.203278 C 18.156189,23.343866 18.098866,23.361989 18.073093,23.357305 C 18.038568,23.351023 17.902208,23.256518 17.890065,23.23047 C 17.87974,23.208301 17.879794,23.171295 17.890161,23.167881 C 17.903476,23.163499 19.224452,18.640975 19.215714,18.629678 C 19.20091,18.610553 19.247225,18.588307 19.52392,18.481704 C 19.694025,18.41616 19.954411,18.327038 20.108936,18.281467 C 20.156679,18.267389 20.384273,18.21256 20.614695,18.159627 L 21.033645,18.063375 L 21.396412,18.031693 L 21.759177,18 L 22.075794,18.02005 L 22.392399,18.040101 L 22.690573,18.106768 C 22.854571,18.143431 23.021019,18.18385 23.06046,18.19659 C 23.347049,18.289132 23.657451,18.434041 23.981392,18.626505 C 24.163019,18.734424 24.410762,18.895899 24.419528,18.912077 C 24.431051,18.933348 24.428864,18.945419 24.389257,19.079274 C 24.368629,19.149 24.197481,19.732858 24.008925,20.376752 C 23.820366,21.020638 23.537863,21.985356 23.381135,22.520564 C 23.224407,23.055772 23.089699,23.502758 23.08179,23.513871 C 23.062674,23.540742 22.96353,23.609249 22.943767,23.609249 C 22.935165,23.609249 22.914599,23.602171 22.898055,23.59352 z"
       id="path31583"
       sodipodi:nodetypes="cccsssssssssscccsscccccccccsssssssscccssccssccssccssccssccssccssccssccssccssccssccssccsssccssccsssccssccssscccscccccsssssscccccccssssssssc" />
  </g>
</svg>
