/* XPM */
static char * close_prelight_xpm[] = {
"20 25 97 2",
"  	c None",
". 	c #464139",
"+ 	c #78736B",
"@ 	c #59544C",
"# 	c #58534B",
"$ 	c #57524A",
"% 	c #565149",
"& 	c #646058",
"* 	c #918E8A",
"= 	c #BBBAB7",
"- 	c #CECECC",
"; 	c #635F58",
"> 	c #59544D",
", 	c #A3A19E",
"' 	c #E2E2E2",
") 	c #E6E6E6",
"! 	c #DCDCDB",
"~ 	c #A3A19D",
"{ 	c #58544C",
"] 	c #555048",
"^ 	c #5A554E",
"/ 	c #C2C1BF",
"( 	c #DEDEDD",
"_ 	c #9A9793",
": 	c #5E5952",
"< 	c #5F5A52",
"[ 	c #9A9894",
"} 	c #DFDFDF",
"| 	c #5A554D",
"1 	c #544F47",
"2 	c #ACAAA7",
"3 	c #D5D5D4",
"4 	c #6E6A63",
"5 	c #6D6963",
"6 	c #D6D6D5",
"7 	c #AAA8A5",
"8 	c #534E46",
"9 	c #E4E4E4",
"0 	c #E1E1E1",
"a 	c #6F6B65",
"b 	c #BAB9B6",
"c 	c #C3C2C0",
"d 	c #5F5A53",
"e 	c #706C66",
"f 	c #6C6861",
"g 	c #524D45",
"h 	c #B0AEAB",
"i 	c #ADABA8",
"j 	c #CDCCCA",
"k 	c #AEACA9",
"l 	c #DDDDDC",
"m 	c #7E7B75",
"n 	c #CECDCC",
"o 	c #807D77",
"p 	c #DCDBDB",
"q 	c #514C44",
"r 	c #6B6760",
"s 	c #5D5851",
"t 	c #504B43",
"u 	c #6A6660",
"v 	c #5C5750",
"w 	c #6A665F",
"x 	c #4F4A42",
"y 	c #7C7973",
"z 	c #5B564F",
"A 	c #CCCBCA",
"B 	c #7E7B76",
"C 	c #DBDADA",
"D 	c #4E4941",
"E 	c #5A564E",
"F 	c #69655E",
"G 	c #6C6962",
"H 	c #B9B7B5",
"I 	c #6E6A64",
"J 	c #68645D",
"K 	c #4D4840",
"L 	c #A8A6A2",
"M 	c #68645E",
"N 	c #A7A5A2",
"O 	c #4C473F",
"P 	c #504B44",
"Q 	c #BFBEBC",
"R 	c #DFDFDE",
"S 	c #96938F",
"T 	c #57524B",
"U 	c #979591",
"V 	c #4B463E",
"W 	c #9E9C98",
"X 	c #DBDBDA",
"Y 	c #E0E0E0",
"Z 	c #4A453D",
"` 	c #58534C",
" .	c #898681",
"..	c #B7B6B3",
"+.	c #49443C",
"@.	c #48433B",
"#.	c #47423A",
". . . . . . . . . . . . . . . . . . . . ",
"+ + + + + + + + + + + + + + + + + + + + ",
"@ @ @ @ @ @ @ @ @ @ @ @ @ @ @ @ @ @ @ @ ",
"# # # # # # # # # # # # # # # # # # # # ",
"$ $ $ $ $ $ $ $ $ $ $ $ $ $ $ $ $ $ $ $ ",
"% % % % % % & * = - - = * ; % % % % % % ",
"% % % % > , ' ) ) ! ! ) ) ' ~ { % % % % ",
"] ] ] ^ / ) ( _ : ] ] < [ } ) / | ] ] ] ",
"1 1 1 2 ) 3 4 1 1 1 1 1 1 5 6 ) 7 1 1 1 ",
"8 8 5 9 0 a b c d 8 8 d c b e ' 9 f 8 8 ",
"g g h ) i g c ) j : : j ) c g k ) h g g ",
"g g l ) m g : j ) n n ) j : g o ) p g g ",
"q q ) ) r q q s n ) ) n s q q r ) ) q q ",
"t t ) ) u t t v n ) ) n v t t w ) ) t t ",
"x x ! ) y x z A ) n n ) A z x B ) C x x ",
"D D k ) 2 D / ) A E E A ) / D 2 ) k D D ",
"D D F 9 0 G H / E D D E / H I ' 9 J D D ",
"K K K L ) 3 M K K K K K K F 3 ) N K K K ",
"O O O P Q ) R S T O O T U } ) Q x O O O ",
"V V V V D W 0 ) ) X X ) ) Y W D V V V V ",
"Z Z Z Z Z Z `  ...A A .. .` Z Z Z Z Z Z ",
"Z Z Z Z Z Z Z Z Z Z Z Z Z Z Z Z Z Z Z Z ",
"+.+.+.+.+.+.+.+.+.+.+.+.+.+.+.+.+.+.+.+.",
"@.@.@.@.@.@.@.@.@.@.@.@.@.@.@.@.@.@.@.@.",
"#.#.#.#.#.#.#.#.#.#.#.#.#.#.#.#.#.#.#.#."};
