<?xml version="1.0" encoding="UTF-8" standalone="no"?>
<!-- Created with Inkscape (http://www.inkscape.org/) -->
<svg
   xmlns:dc="http://purl.org/dc/elements/1.1/"
   xmlns:cc="http://creativecommons.org/ns#"
   xmlns:rdf="http://www.w3.org/1999/02/22-rdf-syntax-ns#"
   xmlns:svg="http://www.w3.org/2000/svg"
   xmlns="http://www.w3.org/2000/svg"
   xmlns:xlink="http://www.w3.org/1999/xlink"
   xmlns:sodipodi="http://sodipodi.sourceforge.net/DTD/sodipodi-0.dtd"
   xmlns:inkscape="http://www.inkscape.org/namespaces/inkscape"
   width="48px"
   height="48px"
   id="svg6011"
   sodipodi:version="0.32"
   inkscape:version="0.46+devel"
   sodipodi:docname="notification-audio-stop.svg"
   inkscape:output_extension="org.inkscape.output.svg.inkscape">
  <defs
     id="defs6013">
    <linearGradient
       inkscape:collect="always"
       xlink:href="#SVGID_35_"
       id="linearGradient2542"
       gradientUnits="userSpaceOnUse"
       x1="302.34229"
       y1="1498.5566"
       x2="271.07709"
       y2="1455.5239" />
    <linearGradient
       id="SVGID_35_"
       gradientUnits="userSpaceOnUse"
       x1="302.34229"
       y1="1498.5566"
       x2="271.07709"
       y2="1455.5239">
      <stop
         offset="0"
         style="stop-color:#9B9B9B"
         id="stop2188" />
      <stop
         offset="1"
         style="stop-color:#ECECEC"
         id="stop2190" />
    </linearGradient>
  </defs>
  <sodipodi:namedview
     id="base"
     pagecolor="#ffffff"
     bordercolor="#666666"
     borderopacity="1.0"
     inkscape:pageopacity="0.0"
     inkscape:pageshadow="2"
     inkscape:zoom="3.5"
     inkscape:cx="41.221614"
     inkscape:cy="24.401175"
     inkscape:current-layer="layer1"
     showgrid="true"
     inkscape:grid-bbox="true"
     inkscape:document-units="px"
     inkscape:window-width="567"
     inkscape:window-height="460"
     inkscape:window-x="415"
     inkscape:window-y="145" />
  <metadata
     id="metadata6016">
    <rdf:RDF>
      <cc:Work
         rdf:about="">
        <dc:format>image/svg+xml</dc:format>
        <dc:type
           rdf:resource="http://purl.org/dc/dcmitype/StillImage" />
        <dc:title />
      </cc:Work>
    </rdf:RDF>
  </metadata>
  <g
     id="layer1"
     inkscape:label="Layer 1"
     inkscape:groupmode="layer">
    <g
       id="g2179"
       style="opacity:0.3"
       transform="translate(-262.064,-1453.039)">
      <g
         id="g2181">
        <path
           d="m 306.349,1454.041 -40.281,0 c -1.657,0 -3.004,1.348 -3.004,3.004 l 0,39.99 c 0,1.656 1.347,3.004 3.004,3.004 l 40.281,0 c 1.658,0 3.006,-1.348 3.006,-3.004 l 0,-39.99 c 0,-1.656 -1.348,-3.004 -3.006,-3.004 z m 1.006,42.993 c 0,0.556 -0.449,1.006 -1.006,1.006 l -40.28,0 c -0.555,0 -1.005,-0.45 -1.005,-1.006 l 0,-39.988 c 0,-0.556 0.45,-1.006 1.005,-1.006 l 40.28,0 c 0.557,0 1.006,0.45 1.006,1.006 l 0,39.988 z"
           id="path2183"
           sodipodi:nodetypes="cccccccccccccccccc" />
      </g>
    </g>
    <g
       id="g2185"
       transform="translate(-262.064,-1453.039)">
      <linearGradient
         id="linearGradient5520"
         gradientUnits="userSpaceOnUse"
         x1="302.34229"
         y1="1498.5566"
         x2="271.07709"
         y2="1455.5239">
        <stop
           offset="0"
           style="stop-color:#9B9B9B"
           id="stop5522" />
        <stop
           offset="1"
           style="stop-color:#ECECEC"
           id="stop5524" />
      </linearGradient>
      <path
         d="m 307.355,1497.034 c 0,0.556 -0.449,1.006 -1.006,1.006 l -40.28,0 c -0.555,0 -1.005,-0.45 -1.005,-1.006 l 0,-39.988 c 0,-0.556 0.45,-1.006 1.005,-1.006 l 40.28,0 c 0.557,0 1.006,0.45 1.006,1.006 l 0,39.988 z"
         id="path2192"
         style="fill:url(#linearGradient2542)"
         sodipodi:nodetypes="ccccccccc" />
    </g>
    <g
       id="g2194"
       style="opacity:0.2"
       transform="translate(-262.064,-1453.039)">
      <g
         id="g2196">
        <path
           d="m 306.349,1456.04 -40.28,0 c -0.555,0 -1.005,0.45 -1.005,1.006 l 0,39.988 c 0,0.556 0.45,1.006 1.005,1.006 l 40.28,0 c 0.557,0 1.006,-0.45 1.006,-1.006 l 0,-39.988 c 0,-0.556 -0.449,-1.006 -1.006,-1.006 z m 0,41 -40.28,0 -0.004,-39.993 40.284,-0.01 0.006,39.994 -0.006,0.01 z"
           id="path2198"
           style="fill:#ffffff"
           sodipodi:nodetypes="ccccccccccccccc" />
      </g>
    </g>
    <g
       id="g2200"
       style="opacity:0.2"
       transform="translate(-262.064,-1453.039)">
      <g
         id="g2202">
        <path
           d="m 266.065,1457.047 41.289,-0.01 c -0.003,-0.553 -0.45,-1 -1.005,-1 l -40.28,0 c -0.555,0 -1.005,0.45 -1.005,1.006 l 0,39.988 c 0,0.556 0.45,1.006 1.005,1.006 l -0.004,-40.993 z"
           id="path2204"
           style="fill:#ffffff"
           sodipodi:nodetypes="cccccccc" />
      </g>
    </g>
  </g>
</svg>
