<?xml version="1.0" encoding="UTF-8" standalone="no"?>
<!-- Created with Inkscape (http://www.inkscape.org/) -->
<svg
   xmlns:dc="http://purl.org/dc/elements/1.1/"
   xmlns:cc="http://creativecommons.org/ns#"
   xmlns:rdf="http://www.w3.org/1999/02/22-rdf-syntax-ns#"
   xmlns:svg="http://www.w3.org/2000/svg"
   xmlns="http://www.w3.org/2000/svg"
   xmlns:xlink="http://www.w3.org/1999/xlink"
   xmlns:sodipodi="http://sodipodi.sourceforge.net/DTD/sodipodi-0.dtd"
   xmlns:inkscape="http://www.inkscape.org/namespaces/inkscape"
   width="22"
   height="22"
   id="svg9470"
   sodipodi:version="0.32"
   inkscape:version="0.46"
   version="1.0"
   sodipodi:docname="folder-remote1.svg"
   inkscape:output_extension="org.inkscape.output.svg.inkscape">
  <defs
     id="defs9472">
    <linearGradient
       id="linearGradient32104"
       inkscape:collect="always">
      <stop
         id="stop32106"
         offset="0"
         style="stop-color:#ffffff;stop-opacity:1" />
      <stop
         id="stop32108"
         offset="1"
         style="stop-color:#ffffff;stop-opacity:0" />
    </linearGradient>
    <linearGradient
       inkscape:collect="always"
       xlink:href="#linearGradient32104"
       id="linearGradient32110"
       gradientUnits="userSpaceOnUse"
       gradientTransform="matrix(0.4705883,0,0,0.4666667,-0.5294108,-1.3999996)"
       x1="24.499996"
       y1="20.115122"
       x2="24.499996"
       y2="39.395088" />
    <linearGradient
       inkscape:collect="always"
       id="linearGradient32094">
      <stop
         style="stop-color:#ffffff;stop-opacity:1"
         offset="0"
         id="stop32096" />
      <stop
         style="stop-color:#ffffff;stop-opacity:0"
         offset="1"
         id="stop32098" />
    </linearGradient>
    <linearGradient
       inkscape:collect="always"
       xlink:href="#linearGradient32094"
       id="linearGradient32112"
       gradientUnits="userSpaceOnUse"
       gradientTransform="matrix(0.4705883,0,0,0.4666667,-0.5294108,-1.3999996)"
       x1="25.499996"
       y1="20.142857"
       x2="25.499996"
       y2="37.236336" />
    <linearGradient
       inkscape:collect="always"
       id="linearGradient6265">
      <stop
         style="stop-color:#ffffff;stop-opacity:1;"
         offset="0"
         id="stop6267" />
      <stop
         style="stop-color:#ffffff;stop-opacity:0;"
         offset="1"
         id="stop6269" />
    </linearGradient>
    <linearGradient
       inkscape:collect="always"
       xlink:href="#linearGradient6265"
       id="linearGradient6271"
       x1="25"
       y1="15"
       x2="24.954546"
       y2="41.863636"
       gradientUnits="userSpaceOnUse"
       gradientTransform="matrix(0.4413558,0,0,0.4230785,0.4019296,-1.057798)" />
    <linearGradient
       id="linearGradient204">
      <stop
         style="stop-color:#7a7a7a;stop-opacity:1.0000000;"
         offset="0.0000000"
         id="stop205" />
      <stop
         style="stop-color:#ebebeb;stop-opacity:1"
         offset="0.19801980"
         id="stop207" />
      <stop
         style="stop-color:#b9b9b9;stop-opacity:1"
         offset="0.59900987"
         id="stop208" />
      <stop
         style="stop-color:#878787;stop-opacity:1"
         offset="1.0000000"
         id="stop206" />
    </linearGradient>
    <linearGradient
       inkscape:collect="always"
       xlink:href="#linearGradient204"
       id="linearGradient6809"
       gradientUnits="userSpaceOnUse"
       gradientTransform="matrix(0.5065613,0,0,0.4581256,43.136236,11.218305)"
       x1="23.100046"
       y1="36.035053"
       x2="23.100046"
       y2="43.915466" />
    <linearGradient
       id="linearGradient178">
      <stop
         style="stop-color:#ffffff;stop-opacity:0.0000000;"
         offset="0.0000000"
         id="stop179" />
      <stop
         style="stop-color:#d9d9d9;stop-opacity:1"
         offset="0.10827128"
         id="stop180" />
      <stop
         style="stop-color:#d9d9d9;stop-opacity:1"
         offset="0.92053902"
         id="stop181" />
      <stop
         style="stop-color:#ffffff;stop-opacity:0.0000000;"
         offset="1.0000000"
         id="stop182" />
    </linearGradient>
    <linearGradient
       inkscape:collect="always"
       xlink:href="#linearGradient178"
       id="linearGradient6807"
       gradientUnits="userSpaceOnUse"
       gradientTransform="matrix(1.4618941,0,0,9.1235758e-2,42.703303,19.031256)"
       x1="1.6422368"
       y1="117.8271"
       x2="15.343062"
       y2="117.8271" />
    <linearGradient
       inkscape:collect="always"
       xlink:href="#linearGradient272"
       id="linearGradient6805"
       gradientUnits="userSpaceOnUse"
       gradientTransform="matrix(4.5825037,0,0,0.2235361,42.180164,-46.583959)"
       x1="0.61210024"
       y1="372.57819"
       x2="5.0856376"
       y2="372.57819" />
    <linearGradient
       id="linearGradient272">
      <stop
         style="stop-color:#474747;stop-opacity:0.0000000;"
         offset="0.0000000"
         id="stop273" />
      <stop
         style="stop-color:#474747;stop-opacity:1.0000000;"
         offset="0.10000000"
         id="stop275" />
      <stop
         style="stop-color:#474747;stop-opacity:1.0000000;"
         offset="0.89999998"
         id="stop276" />
      <stop
         style="stop-color:#474747;stop-opacity:0.0000000;"
         offset="1.0000000"
         id="stop274" />
    </linearGradient>
    <linearGradient
       inkscape:collect="always"
       xlink:href="#linearGradient272"
       id="linearGradient6803"
       gradientUnits="userSpaceOnUse"
       gradientTransform="matrix(4.582504,0,0,0.2235366,42.180162,-52.503654)"
       x1="0.61210024"
       y1="372.57819"
       x2="5.0856376"
       y2="372.57819" />
    <linearGradient
       inkscape:collect="always"
       id="linearGradient6704">
      <stop
         style="stop-color:#000000;stop-opacity:1;"
         offset="0"
         id="stop6706" />
      <stop
         style="stop-color:#000000;stop-opacity:0;"
         offset="1"
         id="stop6708" />
    </linearGradient>
    <radialGradient
       inkscape:collect="always"
       xlink:href="#linearGradient6704"
       id="radialGradient6776"
       gradientUnits="userSpaceOnUse"
       gradientTransform="matrix(1,0,0,0.1166667,0,348.72344)"
       cx="1120.375"
       cy="394.78125"
       fx="1120.375"
       fy="394.78125"
       r="20.625" />
    <linearGradient
       id="linearGradient4103">
      <stop
         style="stop-color:#8fb3d9;stop-opacity:1"
         offset="0"
         id="stop4105" />
      <stop
         style="stop-color:#3465a4;stop-opacity:1"
         offset="1"
         id="stop4107" />
    </linearGradient>
    <linearGradient
       inkscape:collect="always"
       xlink:href="#linearGradient4103"
       id="linearGradient5117"
       gradientUnits="userSpaceOnUse"
       x1="256.24692"
       y1="234.83112"
       x2="256.24692"
       y2="462.18024"
       gradientTransform="matrix(0.9935665,0,0,0.9748185,1.6474216,9.6527892)" />
    <linearGradient
       id="linearGradient17648">
      <stop
         id="stop17650"
         offset="0"
         style="stop-color:#ffffff;stop-opacity:0.6" />
      <stop
         id="stop17652"
         offset="1"
         style="stop-color:#ffffff;stop-opacity:0;" />
    </linearGradient>
    <linearGradient
       inkscape:collect="always"
       xlink:href="#linearGradient17648"
       id="linearGradient6327"
       gradientUnits="userSpaceOnUse"
       gradientTransform="matrix(0.4276737,0,0,0.4666684,0.4580259,-3.6235536)"
       x1="24.689999"
       y1="9.9026108"
       x2="24.652431"
       y2="37.764706" />
    <linearGradient
       inkscape:collect="always"
       id="linearGradient12449">
      <stop
         style="stop-color:#888a85;stop-opacity:0"
         offset="0"
         id="stop12451" />
      <stop
         style="stop-color:#888a85;stop-opacity:1"
         offset="1"
         id="stop12453" />
    </linearGradient>
    <linearGradient
       inkscape:collect="always"
       xlink:href="#linearGradient12449"
       id="linearGradient6325"
       gradientUnits="userSpaceOnUse"
       gradientTransform="matrix(0.4276737,0,0,0.4666684,0.4580259,-3.6235536)"
       x1="15.299507"
       y1="14.325889"
       x2="15.332263"
       y2="29.14286" />
    <linearGradient
       inkscape:collect="always"
       id="linearGradient6293">
      <stop
         style="stop-color:#555753;stop-opacity:1;"
         offset="0"
         id="stop6295" />
      <stop
         style="stop-color:#eeeeec;stop-opacity:1"
         offset="1"
         id="stop6297" />
    </linearGradient>
    <linearGradient
       inkscape:collect="always"
       xlink:href="#linearGradient6293"
       id="linearGradient17644"
       gradientUnits="userSpaceOnUse"
       x1="25.147449"
       y1="8.9330053"
       x2="25.147449"
       y2="28.485689"
       gradientTransform="matrix(0.4357475,0,0,0.4664545,4.3284757e-2,-4.2591301)" />
  </defs>
  <sodipodi:namedview
     id="base"
     pagecolor="#ffffff"
     bordercolor="#666666"
     borderopacity="1.0"
     inkscape:pageopacity="0.0"
     inkscape:pageshadow="2"
     inkscape:zoom="7.8481082"
     inkscape:cx="15.114184"
     inkscape:cy="9.1139118"
     inkscape:current-layer="layer1"
     showgrid="true"
     inkscape:grid-bbox="true"
     inkscape:document-units="px"
     inkscape:window-width="641"
     inkscape:window-height="690"
     inkscape:window-x="735"
     inkscape:window-y="213" />
  <metadata
     id="metadata9475">
    <rdf:RDF>
      <cc:Work
         rdf:about="">
        <dc:format>image/svg+xml</dc:format>
        <dc:type
           rdf:resource="http://purl.org/dc/dcmitype/StillImage" />
      </cc:Work>
    </rdf:RDF>
  </metadata>
  <g
     id="layer1"
     inkscape:label="Layer 1"
     inkscape:groupmode="layer">
    <path
       d="M 20.501111,3.0000403 C 20.502455,2.7434194 20.247189,2.5000403 20.001111,2.5000403 L 10.001222,2.5000403 L 8.5012232,1.0000403 C 8.3851942,0.87903979 8.1652752,0.50004049 8.0012232,0.50004049 L 2.0011114,0.50004049 C 1.6730085,0.50004049 1.5001114,0.65788079 1.5001114,1.0000403 L 1.5001114,2.5000403 L 1.5001114,14.500042 L 20.501111,14.500042 L 20.501111,3.0000403 z"
       id="path15"
       style="fill:#dadada;fill-opacity:1;stroke:url(#linearGradient17644);stroke-width:0.9999305;stroke-miterlimit:4;stroke-dasharray:none"
       sodipodi:nodetypes="ccccccccccc"
       inkscape:export-xdpi="90"
       inkscape:export-ydpi="90" />
    <path
       d="M 19.501111,4.0000403 C 19.502362,3.7593483 19.230241,3.5000403 19.001111,3.5000403 L 9.5012232,3.5000403 L 8.0012232,2.0000403 C 7.6931142,1.7124283 7.5482412,1.4708733 7.0012232,1.5000403 L 3.0011114,1.5000403 C 2.6956025,1.5000403 2.5011114,1.6791183 2.5011114,2.0000403 L 2.5011114,3.0000403 L 2.5011114,13.500042 L 19.501111,13.500042 L 19.501111,4.0000403 z"
       id="path7263"
       style="opacity:1;fill:url(#linearGradient6325);fill-opacity:1;stroke:url(#linearGradient6327);stroke-width:0.9999305;stroke-miterlimit:4;stroke-dasharray:none;stroke-opacity:1"
       sodipodi:nodetypes="ccccccccccc" />
    <g
       id="g6091"
       transform="matrix(3.7730102e-2,0,0,3.6167652e-2,1.3330438,0.3558105)"
       style="stroke-width:27.06782722;stroke-miterlimit:4;stroke-dasharray:none">
      <path
         sodipodi:nodetypes="ccccccc"
         id="path2161"
         d="M 501.40515,446.37112 L 11.080479,446.37147 C -7.0283561,446.67695 23.614194,349.43959 -22.049567,142.23195 C -22.964155,134.47397 -3.2324012,114.58293 4.4544698,114.58293 L 508.03116,114.58293 C 521.55964,114.58293 536.00305,130.53715 534.5352,142.23195 C 489.5271,350.10222 519.75699,446.37112 501.40515,446.37112 z"
         style="fill:url(#linearGradient5117);fill-opacity:1;fill-rule:evenodd;stroke:#204a87;stroke-width:27.06782722;stroke-linecap:butt;stroke-linejoin:miter;stroke-miterlimit:4;stroke-dasharray:none;stroke-opacity:1" />
    </g>
    <path
       sodipodi:type="arc"
       style="opacity:0.4;fill:url(#radialGradient6776);fill-opacity:1;fill-rule:evenodd;stroke:none;display:inline;enable-background:new"
       id="path6774"
       sodipodi:cx="1120.375"
       sodipodi:cy="394.78125"
       sodipodi:rx="20.625"
       sodipodi:ry="2.40625"
       d="M 1141,394.78125 A 20.625,2.40625 0 1 1 1099.75,394.78125 A 20.625,2.40625 0 1 1 1141,394.78125 z"
       transform="matrix(0.4848485,0,0,0.6233766,-532.21203,-225.59739)" />
    <g
       id="g8659"
       transform="translate(-44.234999,-10.281256)"
       style="display:inline;enable-background:new">
      <rect
         style="opacity:0.65;fill:url(#linearGradient6803);fill-opacity:1;fill-rule:nonzero;stroke:none;stroke-width:1;marker:none;visibility:visible;display:block;overflow:visible"
         id="rect8661"
         width="20.5"
         height="1"
         x="44.985111"
         y="30.281252" />
      <rect
         style="opacity:0.65;fill:url(#linearGradient6805);fill-opacity:1;fill-rule:nonzero;stroke:none;stroke-width:1;marker:none;visibility:visible;display:block;overflow:visible"
         id="rect8663"
         width="20.5"
         height="1"
         x="44.985111"
         y="28.281252" />
      <rect
         style="fill:url(#linearGradient6807);fill-opacity:1;fill-rule:nonzero;stroke:none;stroke-width:1;marker:none;visibility:visible;display:block;overflow:visible"
         id="rect8665"
         width="19.495649"
         height="1"
         x="45.370827"
         y="29.281252" />
      <path
         sodipodi:nodetypes="cccccccccc"
         style="fill:url(#linearGradient6809);fill-opacity:1;fill-rule:nonzero;stroke:#555753;stroke-width:1;stroke-linecap:butt;stroke-linejoin:miter;marker:none;stroke-miterlimit:4;stroke-dashoffset:0;stroke-opacity:1;visibility:visible;display:block;overflow:visible"
         d="M 53.465041,27.781252 L 53.443991,27.781252 C 53.040576,27.781252 52.71991,28.028135 52.71991,28.381252 L 52.71991,31.147448 C 52.71991,31.500561 53.040576,31.781252 53.443991,31.781252 L 57.094743,31.781252 C 57.498154,31.781252 57.818825,31.500561 57.818825,31.147448 L 57.818825,28.381252 C 57.818825,28.028135 57.498154,27.781252 57.094743,27.781252 L 53.465041,27.781252 z"
         id="path8667" />
      <g
         transform="matrix(0.544365,0,0,0.9411763,42.076688,-8.6470511)"
         id="g8673"
         style="fill:#ffffff;fill-opacity:0.72023806">
        <path
           sodipodi:type="arc"
           style="fill-rule:nonzero;stroke:none;stroke-width:1.13999999;marker:none;visibility:visible;display:block;overflow:visible"
           id="path8677"
           sodipodi:cx="18.46875"
           sodipodi:cy="40.625"
           sodipodi:rx="0.53125"
           sodipodi:ry="0.53125"
           d="M 19,40.625 A 0.53125,0.53125 0 1 1 17.9375,40.625 A 0.53125,0.53125 0 1 1 19,40.625 z"
           transform="matrix(2.3232693,0,0,1.3437498,-21.42781,-14.839119)" />
      </g>
    </g>
    <path
       sodipodi:nodetypes="ccccccc"
       id="path6261"
       d="M 19.001111,15.499971 L 3.0011114,15.499971 C 2.2350301,15.479751 2.9073426,12.228529 1.7011114,6.125006 C 1.441647,5.7809288 1.8183261,5.453131 2.2511114,5.500006 L 19.751111,5.500006 C 20.425299,5.468756 20.499229,5.5327467 20.251111,6.125006 C 19.122448,12.221105 19.777553,15.510082 19.001111,15.499971 z"
       style="opacity:0.8;fill:none;fill-opacity:1;fill-rule:evenodd;stroke:url(#linearGradient6271);stroke-width:0.99990231;stroke-linecap:butt;stroke-linejoin:miter;stroke-miterlimit:4;stroke-dasharray:none;stroke-opacity:1" />
    <path
       style="fill:url(#linearGradient32110);fill-opacity:1"
       d="M 11.550949,13.939107 L 11.386766,13.903955 L 11.241454,13.852169 C 11.109242,13.80505 11.084757,13.794922 10.969779,13.739774 C 10.858602,13.68646 10.828877,13.670199 10.722559,13.604556 C 10.65609,13.563516 10.599636,13.527262 10.597108,13.523995 C 10.59458,13.520724 10.592459,13.512431 10.592394,13.505565 C 10.592328,13.498702 10.612559,13.424042 10.637358,13.339657 C 10.662152,13.255268 10.692779,13.150993 10.705412,13.107928 C 10.718041,13.064867 10.742652,12.980979 10.760097,12.92151 C 10.815754,12.7318 11.060987,11.896507 11.160458,11.557849 C 11.213309,11.377902 11.256551,11.228553 11.256551,11.225959 C 11.256551,11.220367 11.284657,11.190755 11.30327,11.176728 C 11.312256,11.16996 11.322872,11.166171 11.336831,11.164745 L 11.357247,11.162667 L 11.41405,11.200192 C 11.504899,11.260209 11.563551,11.294417 11.696264,11.364765 C 11.830539,11.435948 11.867507,11.453571 11.949143,11.485301 C 12.039341,11.520363 12.080002,11.531957 12.228261,11.564871 L 12.371866,11.596749 L 12.534164,11.607211 L 12.696455,11.617672 L 12.8814,11.599459 L 13.066339,11.581244 L 13.274446,11.532821 L 13.482549,11.484398 L 13.719557,11.402287 C 13.879391,11.346914 13.96157,11.320183 13.971924,11.320195 C 13.988653,11.320218 13.996986,11.324612 14.028417,11.350003 C 14.045333,11.363667 14.050276,11.370366 14.055061,11.386107 C 14.059252,11.399883 14.059883,11.407916 14.057249,11.414071 C 14.055219,11.418819 14.03238,11.49569 14.006496,11.584891 C 13.980612,11.67409 13.83353,12.179045 13.679644,12.707011 C 13.525759,13.234975 13.398912,13.67203 13.397763,13.67825 C 13.39285,13.704843 13.387408,13.707728 13.2384,13.762668 C 12.904934,13.885623 12.625275,13.951539 12.29638,13.984704 C 12.042709,14.028718 11.799028,13.966491 11.550949,13.939107 z M 12.665275,11.638177 C 12.660581,11.637286 12.653787,11.637322 12.650179,11.638254 C 12.64657,11.639187 12.650411,11.639917 12.658714,11.639875 C 12.667016,11.639835 12.669969,11.639071 12.665275,11.638177 z M 12.716272,11.638246 C 12.712642,11.637307 12.706696,11.637307 12.703061,11.638246 C 12.69943,11.639183 12.702402,11.639952 12.709668,11.639952 C 12.716933,11.639952 12.719908,11.639183 12.716272,11.638246 z M 12.604929,11.634456 C 12.600261,11.633566 12.592615,11.633566 12.587948,11.634456 C 12.583276,11.635347 12.587099,11.636072 12.596438,11.636072 C 12.605778,11.636072 12.609602,11.635347 12.604929,11.634456 z M 12.753946,11.634503 C 12.750271,11.633557 12.745175,11.633622 12.74262,11.634642 C 12.740066,11.635662 12.74307,11.636435 12.749299,11.636362 C 12.755525,11.636283 12.757616,11.63545 12.753946,11.634503 z M 12.54454,11.630726 C 12.539872,11.629841 12.532226,11.629841 12.527558,11.630726 C 12.522886,11.631618 12.526709,11.632343 12.536049,11.632343 C 12.545393,11.632343 12.549212,11.631618 12.54454,11.630726 z M 12.793411,11.630813 C 12.790686,11.629733 12.787432,11.629867 12.786177,11.631107 C 12.784922,11.632343 12.787151,11.633224 12.791128,11.633064 C 12.795529,11.632887 12.796421,11.632002 12.793411,11.630813 z M 12.480335,11.626994 C 12.475637,11.626103 12.468844,11.626137 12.465235,11.627067 C 12.46163,11.628 12.465471,11.628731 12.473773,11.628691 C 12.482076,11.628647 12.485029,11.627883 12.480335,11.626994 z M 12.834931,11.627084 C 12.832205,11.626008 12.82895,11.626137 12.827695,11.627378 C 12.826439,11.628618 12.82867,11.629499 12.832646,11.629335 C 12.837043,11.629158 12.83794,11.628272 12.834931,11.627084 z M 12.419946,11.623264 C 12.415248,11.622374 12.408454,11.622408 12.404845,11.623342 C 12.401241,11.624275 12.405082,11.625002 12.413384,11.624963 C 12.421687,11.624919 12.424639,11.624158 12.419946,11.623264 z M 12.014878,11.534899 C 12.013186,11.533257 11.843435,11.465851 11.834026,11.463081 C 11.8193,11.458747 11.860901,11.478634 11.898968,11.494125 C 11.965902,11.521365 12.020867,11.540699 12.014878,11.534899 z M 13.619573,11.463911 C 13.732168,11.426943 13.919383,11.358127 13.916119,11.354899 C 13.914798,11.353595 13.524307,11.491105 13.521464,11.493878 C 13.518253,11.497003 13.525672,11.494738 13.619573,11.463911 z M 11.826475,11.460388 C 11.826475,11.459581 11.823842,11.457926 11.820617,11.456703 C 11.817258,11.455427 11.815744,11.456054 11.817066,11.458168 C 11.819283,11.461711 11.826475,11.46341 11.826475,11.460388 z M 11.788732,11.441423 C 11.788732,11.440438 11.781939,11.436211 11.773635,11.432025 C 11.765333,11.427843 11.758539,11.425253 11.758539,11.426269 C 11.758539,11.427288 11.764908,11.431442 11.772691,11.435503 C 11.788706,11.443851 11.788732,11.44386 11.788732,11.441423 z M 11.732117,11.411615 C 11.732117,11.410643 11.727021,11.407247 11.720797,11.404061 C 11.7066,11.396811 11.705743,11.399962 11.719851,11.407523 C 11.731715,11.413881 11.732117,11.414014 11.732117,11.411615 z M 11.675503,11.381769 C 11.675503,11.380788 11.668709,11.376557 11.660407,11.372374 C 11.652104,11.368187 11.64531,11.365599 11.64531,11.366614 C 11.64531,11.367635 11.65168,11.371787 11.659462,11.375849 C 11.675477,11.384198 11.675503,11.38421 11.675503,11.381769 z M 11.618889,11.351961 C 11.618889,11.35099 11.613792,11.347593 11.607567,11.344411 C 11.593372,11.337161 11.59251,11.340307 11.606622,11.34787 C 11.618482,11.354225 11.618889,11.354363 11.618889,11.351961 z M 9.5078512,13.063427 C 9.4995742,13.059099 9.4902602,13.053418 9.4871472,13.050799 C 9.4840322,13.048179 9.4628422,13.035485 9.4400552,13.022581 C 9.4172732,13.009678 9.3739622,12.983203 9.3438132,12.963739 C 9.2581252,12.908429 9.0985232,12.831243 8.9606262,12.778428 L 8.8473972,12.735061 L 8.7134082,12.705875 C 8.5944532,12.679966 8.5711632,12.676029 8.5058212,12.670783 C 8.3795082,12.660645 8.3232842,12.662495 8.1265022,12.683284 L 7.9528832,12.701628 L 7.7603942,12.74513 L 7.5679002,12.788635 L 7.3389402,12.868306 C 7.1369182,12.938599 7.1082562,12.947659 7.0953702,12.945318 C 7.0781082,12.942177 7.0099272,12.894925 7.0038562,12.8819 C 6.9986932,12.870816 6.9987202,12.852314 7.0039042,12.850606 C 7.0105612,12.848415 7.6710492,10.587154 7.6666802,10.581505 C 7.6592782,10.571943 7.6824362,10.560819 7.8207832,10.507518 C 7.9058362,10.474746 8.0360292,10.430186 8.1132912,10.407399 C 8.1371632,10.400361 8.2509602,10.372947 8.3661712,10.346479 L 8.5756462,10.298354 L 8.7570292,10.282513 L 8.9384122,10.266667 L 9.0967212,10.276691 L 9.2550232,10.286717 L 9.4041102,10.32005 C 9.4861092,10.338382 9.5693332,10.358591 9.5890532,10.364962 C 9.7323482,10.411233 9.8875492,10.483686 10.049519,10.579919 C 10.140333,10.633878 10.264204,10.714615 10.268588,10.722705 C 10.274349,10.733339 10.273255,10.739376 10.253452,10.806303 C 10.243138,10.841166 10.157564,11.133095 10.063286,11.455042 C 9.9690062,11.776984 9.8277562,12.259343 9.7493912,12.526947 C 9.6710272,12.794551 9.6036732,13.018044 9.5997182,13.023602 C 9.5901602,13.037036 9.5405892,13.07129 9.5307082,13.07129 C 9.5264062,13.07129 9.5161232,13.067751 9.5078512,13.063427 z"
       id="path31581"
       sodipodi:nodetypes="cccsssssssssscccsscccccccccsssssssscccssccssccssccssccssccssccssccssccssccssccssccssccsssccssccsssccssccssscccscccccsssssscccccccssssssssc" />
    <path
       style="fill:url(#linearGradient32112);fill-opacity:1"
       d="M 12.492125,10.672441 L 12.327942,10.637288 L 12.182631,10.585502 C 12.050418,10.538384 12.025933,10.528255 11.910955,10.473107 C 11.799778,10.419794 11.770053,10.403532 11.663736,10.33789 C 11.597267,10.29685 11.540813,10.260595 11.538285,10.257328 C 11.535757,10.254058 11.533635,10.245765 11.53357,10.238899 C 11.533504,10.232036 11.553736,10.157375 11.578535,10.07299 C 11.603329,9.9886025 11.633955,9.8843265 11.646589,9.8412615 C 11.659218,9.7982015 11.683829,9.7143135 11.701274,9.6548435 C 11.756931,9.4651355 12.002163,8.629843 12.101634,8.291185 C 12.154486,8.111237 12.197728,7.961888 12.197728,7.959295 C 12.197728,7.953703 12.225834,7.924089 12.244447,7.910063 C 12.253432,7.903296 12.264049,7.899507 12.278008,7.89808 L 12.298424,7.896002 L 12.355226,7.933528 C 12.446075,7.993545 12.504728,8.027752 12.63744,8.098101 C 12.771715,8.169284 12.808684,8.186905 12.89032,8.218637 C 12.980517,8.253699 13.021178,8.265293 13.169437,8.298207 L 13.313043,8.330085 L 13.47534,8.340546 L 13.637632,8.351008 L 13.822577,8.332794 L 14.007516,8.31458 L 14.215622,8.266157 L 14.423725,8.217733 L 14.660733,8.135622 C 14.820568,8.080249 14.902747,8.053518 14.913101,8.053532 C 14.929829,8.053553 14.938162,8.057949 14.969593,8.08334 C 14.986509,8.097004 14.991453,8.103701 14.996238,8.119444 C 15.000429,8.13322 15.001059,8.141252 14.998425,8.147406 C 14.996396,8.152155 14.973556,8.229025 14.947672,8.318228 C 14.921789,8.407425 14.774707,8.912381 14.620821,9.4403455 C 14.466936,9.9683095 14.340089,10.405363 14.338939,10.411583 C 14.334027,10.438176 14.328585,10.441062 14.179576,10.496002 C 13.84611,10.618957 13.566451,10.684873 13.237557,10.718038 C 12.983885,10.762051 12.740204,10.699825 12.492125,10.672441 z M 13.606451,8.371513 C 13.601757,8.370622 13.594964,8.370656 13.591355,8.37159 C 13.587747,8.372524 13.591587,8.373253 13.59989,8.373211 C 13.608192,8.373172 13.611146,8.372407 13.606451,8.371513 z M 13.657449,8.371582 C 13.653819,8.370644 13.647873,8.370644 13.644238,8.371582 C 13.640607,8.372519 13.643578,8.373288 13.650844,8.373288 C 13.658109,8.373288 13.661085,8.372519 13.657449,8.371582 z M 13.546106,8.367791 C 13.541437,8.366902 13.533791,8.366902 13.529124,8.367791 C 13.524452,8.368681 13.528275,8.369408 13.537614,8.369408 C 13.546955,8.369408 13.550778,8.368681 13.546106,8.367791 z M 13.695122,8.367839 C 13.691447,8.366893 13.686351,8.366958 13.683796,8.367977 C 13.681242,8.368998 13.684247,8.369772 13.690476,8.369697 C 13.696701,8.36962 13.698792,8.368785 13.695122,8.367839 z M 13.485717,8.364062 C 13.481048,8.363176 13.473402,8.363176 13.468734,8.364062 C 13.464062,8.364953 13.467885,8.365679 13.477226,8.365679 C 13.48657,8.365679 13.490388,8.364953 13.485717,8.364062 z M 13.734588,8.364149 C 13.731862,8.363069 13.728608,8.363202 13.727354,8.364444 C 13.726098,8.365679 13.728328,8.36656 13.732305,8.3664 C 13.736706,8.366222 13.737598,8.365337 13.734588,8.364149 z M 13.421512,8.360329 C 13.416813,8.359439 13.41002,8.359473 13.406412,8.360403 C 13.402806,8.361336 13.406647,8.362065 13.414949,8.362027 C 13.423253,8.361983 13.426206,8.361219 13.421512,8.360329 z M 13.776107,8.36042 C 13.773381,8.359343 13.770126,8.359473 13.768871,8.360713 C 13.767615,8.361953 13.769847,8.362835 13.773823,8.362671 C 13.778219,8.362493 13.779116,8.361607 13.776107,8.36042 z M 13.361123,8.356599 C 13.356424,8.35571 13.349631,8.355744 13.346021,8.356678 C 13.342418,8.357611 13.346258,8.358336 13.354561,8.358299 C 13.362863,8.358255 13.365816,8.357494 13.361123,8.356599 z M 12.956055,8.268235 C 12.954363,8.266593 12.784612,8.199187 12.775202,8.196416 C 12.760477,8.192083 12.802078,8.211969 12.840145,8.227461 C 12.907078,8.254701 12.962044,8.274035 12.956055,8.268235 z M 14.56075,8.197246 C 14.673345,8.160279 14.860559,8.091463 14.857296,8.088236 C 14.855975,8.08693 14.465483,8.22444 14.46264,8.227214 C 14.459429,8.230338 14.466848,8.228073 14.56075,8.197246 z M 12.767651,8.193725 C 12.767651,8.192917 12.765018,8.191261 12.761794,8.190038 C 12.758435,8.188764 12.756921,8.18939 12.758242,8.191504 C 12.760459,8.195046 12.767651,8.196745 12.767651,8.193725 z M 12.729908,8.174758 C 12.729908,8.173774 12.723115,8.169548 12.714812,8.16536 C 12.706509,8.161178 12.699716,8.158589 12.699716,8.159605 C 12.699716,8.160624 12.706085,8.164777 12.713867,8.168839 C 12.729883,8.177188 12.729908,8.177196 12.729908,8.174758 z M 12.673294,8.144951 C 12.673294,8.143979 12.668197,8.140582 12.661973,8.137397 C 12.647777,8.130147 12.64692,8.133297 12.661028,8.140859 C 12.672892,8.147215 12.673294,8.147349 12.673294,8.144951 z M 12.616679,8.115104 C 12.616679,8.114124 12.609886,8.109893 12.601583,8.10571 C 12.59328,8.101523 12.586487,8.098935 12.586487,8.09995 C 12.586487,8.10097 12.592856,8.105123 12.600639,8.109184 C 12.616653,8.117533 12.616679,8.117545 12.616679,8.115104 z M 12.560066,8.085296 C 12.560066,8.084325 12.554969,8.080928 12.548744,8.077748 C 12.534548,8.070497 12.533687,8.073643 12.547799,8.081206 C 12.559659,8.087561 12.560066,8.0877 12.560066,8.085296 z M 10.449028,9.7967595 C 10.44075,9.7924345 10.431436,9.7867515 10.428323,9.7841325 C 10.425208,9.7815145 10.404018,9.7688195 10.381231,9.7559155 C 10.35845,9.7430115 10.315138,9.7165365 10.284989,9.6970745 C 10.199301,9.6417635 10.039699,9.5645765 9.9018032,9.5117625 L 9.7885742,9.4683965 L 9.6545842,9.4392115 C 9.5356292,9.4133005 9.5123402,9.4093645 9.4469982,9.4041185 C 9.3206852,9.3939805 9.2644602,9.3958295 9.0676792,9.4166195 L 8.8940602,9.4349645 L 8.7015712,9.4784655 L 8.5090762,9.5219695 L 8.2801162,9.6016385 C 8.0780942,9.6719325 8.0494332,9.6809945 8.0365462,9.6786515 C 8.0192842,9.6755115 7.9511042,9.6282595 7.9450322,9.6152355 C 7.9398702,9.6041505 7.9398972,9.5856475 7.9450802,9.5839395 C 7.9517382,9.5817495 8.6122262,7.320489 8.6078572,7.31484 C 8.6004552,7.305278 8.6236132,7.294155 8.7619602,7.240853 C 8.8470132,7.208081 8.9772062,7.16352 9.0544682,7.140734 C 9.0783402,7.133696 9.1921372,7.106281 9.3073482,7.079814 L 9.5168222,7.031689 L 9.6982062,7.015848 L 9.8795882,7.0000007 L 10.037897,7.010026 L 10.196199,7.020052 L 10.345286,7.053385 C 10.427285,7.071717 10.510509,7.091926 10.53023,7.098296 C 10.673524,7.144567 10.828725,7.217022 10.990696,7.313254 C 11.081509,7.367213 11.205381,7.447951 11.209764,7.45604 C 11.215525,7.466676 11.214432,7.472711 11.194629,7.539638 C 11.184315,7.574501 11.098741,7.86643 11.004462,8.188377 C 10.910183,8.51032 10.768932,8.992679 10.690567,9.2602835 C 10.612204,9.5278855 10.54485,9.7513795 10.540895,9.7569355 C 10.531337,9.7703715 10.481765,9.8046245 10.471884,9.8046245 C 10.467582,9.8046245 10.4573,9.8010855 10.449028,9.7967595 z"
       id="path31583"
       sodipodi:nodetypes="cccsssssssssscccsscccccccccsssssssscccssccssccssccssccssccssccssccssccssccssccssccssccsssccssccsssccssccssscccscccccsssssscccccccssssssssc" />
  </g>
</svg>
