<?xml version="1.0" encoding="UTF-8" standalone="no"?>
<!-- Created with Inkscape (http://www.inkscape.org/) -->
<svg
   xmlns:dc="http://purl.org/dc/elements/1.1/"
   xmlns:cc="http://creativecommons.org/ns#"
   xmlns:rdf="http://www.w3.org/1999/02/22-rdf-syntax-ns#"
   xmlns:svg="http://www.w3.org/2000/svg"
   xmlns="http://www.w3.org/2000/svg"
   xmlns:xlink="http://www.w3.org/1999/xlink"
   xmlns:sodipodi="http://sodipodi.sourceforge.net/DTD/sodipodi-0.dtd"
   xmlns:inkscape="http://www.inkscape.org/namespaces/inkscape"
   width="32px"
   height="32px"
   id="svg9903"
   sodipodi:version="0.32"
   inkscape:version="0.46"
   sodipodi:docname="folder-remote1.svg"
   inkscape:output_extension="org.inkscape.output.svg.inkscape">
  <defs
     id="defs9905">
    <linearGradient
       id="linearGradient32104"
       inkscape:collect="always">
      <stop
         id="stop32106"
         offset="0"
         style="stop-color:#ffffff;stop-opacity:1" />
      <stop
         id="stop32108"
         offset="1"
         style="stop-color:#ffffff;stop-opacity:0" />
    </linearGradient>
    <linearGradient
       inkscape:collect="always"
       xlink:href="#linearGradient32104"
       id="linearGradient32110"
       gradientUnits="userSpaceOnUse"
       gradientTransform="matrix(0.6666666,0,0,0.6250001,-0.6666664,0.3749963)"
       x1="24.380535"
       y1="20.199999"
       x2="24.296509"
       y2="37.816044" />
    <linearGradient
       inkscape:collect="always"
       id="linearGradient32094">
      <stop
         style="stop-color:#ffffff;stop-opacity:1"
         offset="0"
         id="stop32096" />
      <stop
         style="stop-color:#ffffff;stop-opacity:0"
         offset="1"
         id="stop32098" />
    </linearGradient>
    <linearGradient
       inkscape:collect="always"
       xlink:href="#linearGradient32094"
       id="linearGradient32112"
       gradientUnits="userSpaceOnUse"
       gradientTransform="matrix(0.6666666,0,0,0.625,-4.2810735e-7,-0.2500017)"
       x1="24.90534"
       y1="18"
       x2="24.813028"
       y2="38.749592" />
    <linearGradient
       id="linearGradient9347">
      <stop
         id="stop9349"
         offset="0.0000000"
         style="stop-color:#7a7a7a;stop-opacity:1.0000000;" />
      <stop
         id="stop9351"
         offset="0.19801980"
         style="stop-color:#ebebeb;stop-opacity:1" />
      <stop
         id="stop9353"
         offset="0.59900987"
         style="stop-color:#b9b9b9;stop-opacity:1" />
      <stop
         id="stop9355"
         offset="1.0000000"
         style="stop-color:#878787;stop-opacity:1" />
    </linearGradient>
    <linearGradient
       inkscape:collect="always"
       xlink:href="#linearGradient9347"
       id="linearGradient6753"
       gradientUnits="userSpaceOnUse"
       gradientTransform="matrix(0.5065613,0,0,0.4581256,43.136236,11.218305)"
       x1="23.100046"
       y1="38.296745"
       x2="23.143667"
       y2="46.03775" />
    <linearGradient
       id="linearGradient178">
      <stop
         style="stop-color:#ffffff;stop-opacity:0.0000000;"
         offset="0.0000000"
         id="stop179" />
      <stop
         style="stop-color:#d9d9d9;stop-opacity:1"
         offset="0.10827128"
         id="stop180" />
      <stop
         style="stop-color:#d9d9d9;stop-opacity:1"
         offset="0.92053902"
         id="stop181" />
      <stop
         style="stop-color:#ffffff;stop-opacity:0.0000000;"
         offset="1.0000000"
         id="stop182" />
    </linearGradient>
    <linearGradient
       inkscape:collect="always"
       xlink:href="#linearGradient178"
       id="linearGradient7832"
       gradientUnits="userSpaceOnUse"
       gradientTransform="matrix(2.1370913,0,0,9.1235758e-2,36.727542,19.750004)"
       x1="1.6422368"
       y1="117.8271"
       x2="15.343062"
       y2="117.8271" />
    <linearGradient
       inkscape:collect="always"
       xlink:href="#linearGradient272"
       id="linearGradient7834"
       gradientUnits="userSpaceOnUse"
       gradientTransform="matrix(6.706103,0,0,0.2235361,35.772302,-45.865211)"
       x1="0.61210024"
       y1="372.57819"
       x2="5.0856376"
       y2="372.57819" />
    <linearGradient
       id="linearGradient272">
      <stop
         style="stop-color:#474747;stop-opacity:0.0000000;"
         offset="0.0000000"
         id="stop273" />
      <stop
         style="stop-color:#474747;stop-opacity:1.0000000;"
         offset="0.10000000"
         id="stop275" />
      <stop
         style="stop-color:#474747;stop-opacity:1.0000000;"
         offset="0.89999998"
         id="stop276" />
      <stop
         style="stop-color:#474747;stop-opacity:0.0000000;"
         offset="1.0000000"
         id="stop274" />
    </linearGradient>
    <linearGradient
       inkscape:collect="always"
       xlink:href="#linearGradient272"
       id="linearGradient7830"
       gradientUnits="userSpaceOnUse"
       gradientTransform="matrix(6.7061034,0,0,0.2235366,35.77231,-51.784906)"
       x1="0.61210024"
       y1="372.57819"
       x2="5.0856376"
       y2="372.57819" />
    <linearGradient
       inkscape:collect="always"
       id="linearGradient6704">
      <stop
         style="stop-color:#000000;stop-opacity:1;"
         offset="0"
         id="stop6706" />
      <stop
         style="stop-color:#000000;stop-opacity:0;"
         offset="1"
         id="stop6708" />
    </linearGradient>
    <radialGradient
       inkscape:collect="always"
       xlink:href="#linearGradient6704"
       id="radialGradient9391"
       gradientUnits="userSpaceOnUse"
       gradientTransform="matrix(1,0,0,0.1166667,0,348.72344)"
       cx="1120.375"
       cy="394.78125"
       fx="1120.375"
       fy="394.78125"
       r="20.625" />
    <linearGradient
       inkscape:collect="always"
       id="linearGradient6265">
      <stop
         style="stop-color:#ffffff;stop-opacity:1;"
         offset="0"
         id="stop6267" />
      <stop
         style="stop-color:#ffffff;stop-opacity:0;"
         offset="1"
         id="stop6269" />
    </linearGradient>
    <linearGradient
       inkscape:collect="always"
       xlink:href="#linearGradient6265"
       id="linearGradient6271"
       x1="25"
       y1="15"
       x2="24.954546"
       y2="41.863636"
       gradientUnits="userSpaceOnUse"
       gradientTransform="matrix(0.6740364,0,0,0.653844,-0.1787732,-2.6346036)" />
    <linearGradient
       id="linearGradient4103">
      <stop
         style="stop-color:#8fb3d9;stop-opacity:1"
         offset="0"
         id="stop4105" />
      <stop
         style="stop-color:#3465a4;stop-opacity:1"
         offset="1"
         id="stop4107" />
    </linearGradient>
    <linearGradient
       inkscape:collect="always"
       xlink:href="#linearGradient4103"
       id="linearGradient5117"
       gradientUnits="userSpaceOnUse"
       x1="256.24692"
       y1="219.16249"
       x2="256.24692"
       y2="457.17615"
       gradientTransform="matrix(0.9935665,0,0,0.9748185,1.6474216,9.6527892)" />
    <linearGradient
       id="linearGradient17648">
      <stop
         id="stop17650"
         offset="0"
         style="stop-color:#ffffff;stop-opacity:0.6" />
      <stop
         id="stop17652"
         offset="1"
         style="stop-color:#ffffff;stop-opacity:0;" />
    </linearGradient>
    <linearGradient
       inkscape:collect="always"
       xlink:href="#linearGradient17648"
       id="linearGradient17646"
       gradientUnits="userSpaceOnUse"
       x1="23.959301"
       y1="10"
       x2="24"
       y2="39.023418"
       gradientTransform="matrix(0.6666651,0,0,0.6666659,3.224778e-3,-3.8333016)" />
    <linearGradient
       inkscape:collect="always"
       id="linearGradient12449">
      <stop
         style="stop-color:#888a85;stop-opacity:0"
         offset="0"
         id="stop12451" />
      <stop
         style="stop-color:#888a85;stop-opacity:1"
         offset="1"
         id="stop12453" />
    </linearGradient>
    <linearGradient
       inkscape:collect="always"
       xlink:href="#linearGradient12449"
       id="linearGradient12455"
       x1="15.859375"
       y1="13.1875"
       x2="15.843751"
       y2="29.8125"
       gradientUnits="userSpaceOnUse"
       gradientTransform="matrix(0.6666651,0,0,0.6666659,3.224778e-3,-3.8333016)" />
    <linearGradient
       inkscape:collect="always"
       id="linearGradient6293">
      <stop
         style="stop-color:#555753;stop-opacity:1;"
         offset="0"
         id="stop6295" />
      <stop
         style="stop-color:#eeeeec;stop-opacity:1"
         offset="1"
         id="stop6297" />
    </linearGradient>
    <linearGradient
       inkscape:collect="always"
       xlink:href="#linearGradient6293"
       id="linearGradient17644"
       gradientUnits="userSpaceOnUse"
       x1="24"
       y1="9"
       x2="24"
       y2="26.207869"
       gradientTransform="matrix(0.6792506,0,0,0.6663604,-0.2988272,-3.8258176)" />
  </defs>
  <sodipodi:namedview
     id="base"
     pagecolor="#ffffff"
     bordercolor="#666666"
     borderopacity="1.0"
     inkscape:pageopacity="0.0"
     inkscape:pageshadow="2"
     inkscape:zoom="5.598901"
     inkscape:cx="14.251367"
     inkscape:cy="24.057566"
     inkscape:current-layer="layer1"
     showgrid="true"
     inkscape:grid-bbox="true"
     inkscape:document-units="px"
     inkscape:window-width="641"
     inkscape:window-height="690"
     inkscape:window-x="314"
     inkscape:window-y="303" />
  <metadata
     id="metadata9908">
    <rdf:RDF>
      <cc:Work
         rdf:about="">
        <dc:format>image/svg+xml</dc:format>
        <dc:type
           rdf:resource="http://purl.org/dc/dcmitype/StillImage" />
      </cc:Work>
    </rdf:RDF>
  </metadata>
  <g
     id="layer1"
     inkscape:label="Layer 1"
     inkscape:groupmode="layer">
    <rect
       style="fill:#d9d9d9;fill-opacity:1;stroke:#707070;stroke-width:1.00014102000000005;stroke-miterlimit:4;stroke-dasharray:none;stroke-opacity:1"
       id="rect8955"
       width="2.9998591"
       height="2.9998591"
       x="14.500072"
       y="23.500065" />
    <path
       d="M 28.503185,5.4999944 C 28.505277,5.1333964 27.886774,4.4999944 27.503185,4.4999944 L 14.503185,4.4999944 L 12.753185,2.9999944 C 12.572318,2.8271384 12.258913,2.4999944 12.003185,2.4999944 L 4.5031858,2.4999944 C 3.9917338,2.4999944 3.5031858,3.0111984 3.5031858,3.4999944 L 3.5031858,4.4999944 C 3.5031858,4.4999944 3.6830988,22.499995 2.7531858,22.499995 L 29.253185,22.499995 C 28.323269,22.499995 28.503185,5.4999944 28.503185,5.4999944 z"
       id="path15"
       style="fill:#dadada;fill-opacity:1;stroke:url(#linearGradient17644);stroke-width:1.0091393;stroke-miterlimit:4;stroke-dasharray:none"
       sodipodi:nodetypes="ccccccccccc" />
    <path
       d="M 27.503185,5.9999944 C 27.505132,5.6561514 27.360331,5.4999944 27.00316,5.4999944 L 14.103185,5.4999944 L 12.403185,3.9999944 C 11.9229,3.5891244 11.855887,3.4583274 11.003185,3.4999944 L 5.0031858,3.4999944 C 4.5269528,3.4999944 4.5031858,3.5415394 4.5031858,3.9999944 L 4.5031858,5.5000224 C 4.5031858,5.5000224 4.6190628,21.499995 3.7531858,21.499995 L 28.253185,21.499995 C 27.387307,21.499995 27.503185,5.9999944 27.503185,5.9999944 z"
       id="path7263"
       style="opacity:1;fill:url(#linearGradient12455);fill-opacity:1;stroke:url(#linearGradient17646);stroke-width:0.99997574;stroke-miterlimit:4;stroke-dasharray:none;stroke-opacity:1"
       sodipodi:nodetypes="ccccccccccc" />
    <g
       id="g6091"
       transform="matrix(5.7621238e-2,0,0,5.5895059e-2,1.2432198,-0.4499506)"
       style="stroke-width:17.62015152;stroke-miterlimit:4;stroke-dasharray:none">
      <path
         sodipodi:nodetypes="ccccccc"
         id="path2161"
         d="M 481.76622,446.37147 L 30.543702,446.37147 C 8.3352329,446.37147 39.633478,348.69379 4.5116334,160.12051 C 3.5970454,152.36253 14.179475,142.22959 21.866346,142.22959 L 490.44357,142.22959 C 503.97205,142.22959 509.26614,148.42571 507.79829,160.12051 C 474.38571,347.25402 504.05226,446.37147 481.76622,446.37147 z"
         style="fill:url(#linearGradient5117);fill-opacity:1;fill-rule:evenodd;stroke:#204a87;stroke-width:17.62015152;stroke-linecap:butt;stroke-linejoin:miter;stroke-miterlimit:4;stroke-dasharray:none;stroke-opacity:1" />
    </g>
    <path
       sodipodi:nodetypes="ccccccc"
       id="path6261"
       d="M 28.003185,23.499995 L 4.0031858,23.499995 C 2.8332298,23.468745 4.3328498,18.860202 2.7531858,9.4999944 C 2.7029378,9.1010534 3.0808628,8.4999944 3.5031858,8.4999944 L 28.503185,8.4999944 C 29.246451,8.4999944 29.333832,8.8986094 29.253185,9.4999944 C 27.720395,18.945318 29.188963,23.51562 28.003185,23.499995 z"
       style="opacity:0.8;fill:none;fill-opacity:1;fill-rule:evenodd;stroke:url(#linearGradient6271);stroke-width:0.99997157;stroke-linecap:butt;stroke-linejoin:miter;stroke-miterlimit:4;stroke-dasharray:none;stroke-opacity:1" />
    <path
       sodipodi:type="arc"
       style="opacity:0.4;fill:url(#radialGradient9391);fill-opacity:1;fill-rule:evenodd;stroke:none;display:inline;enable-background:new"
       id="path6774"
       sodipodi:cx="1120.375"
       sodipodi:cy="394.78125"
       sodipodi:rx="20.625"
       sodipodi:ry="2.40625"
       d="M 1141,394.78125 A 20.625,2.40625 0 1 1 1099.75,394.78125 A 20.625,2.40625 0 1 1 1141,394.78125 z"
       transform="matrix(0.7272727,0,0,0.8701298,-798.81815,-314.29268)" />
    <g
       style="display:inline;enable-background:new"
       id="g7753"
       transform="translate(-38.877101,-2.0004756)">
      <rect
         style="opacity:0.65;fill:url(#linearGradient7830);fill-opacity:1;fill-rule:nonzero;stroke:none;stroke-width:1;marker:none;visibility:visible;display:block;overflow:visible"
         id="rect8601"
         width="30"
         height="1"
         x="39.87711"
         y="31" />
      <rect
         style="opacity:0.65;fill:url(#linearGradient7834);fill-opacity:1;fill-rule:nonzero;stroke:none;stroke-width:1;marker:none;visibility:visible;display:block;overflow:visible"
         id="rect8603"
         width="30"
         height="1"
         x="39.877102"
         y="29" />
      <rect
         style="fill:url(#linearGradient7832);fill-opacity:1;fill-rule:nonzero;stroke:none;stroke-width:1;marker:none;visibility:visible;display:block;overflow:visible"
         id="rect8605"
         width="28.5"
         height="1"
         x="40.627102"
         y="30" />
      <path
         sodipodi:nodetypes="ccccccccccc"
         style="fill:url(#linearGradient6753);fill-opacity:1;fill-rule:nonzero;stroke:#555753;stroke-width:1;stroke-linecap:butt;stroke-linejoin:miter;marker:none;stroke-miterlimit:4;stroke-dashoffset:0;stroke-opacity:1;visibility:visible;display:block;overflow:visible"
         d="M 53.465041,28.556339 L 51.22524,28.556339 C 50.821825,28.556339 50.501159,28.837025 50.501159,29.190142 L 50.501159,31.866 C 50.501159,32.219113 50.821825,32.5 51.22524,32.5 L 58.782242,32.5 C 59.185653,32.5 59.506324,32.219113 59.506324,31.866 L 59.506324,29.190142 C 59.506324,28.837025 59.185653,28.556339 58.782242,28.556339 L 56.827996,28.556339 L 53.465041,28.556339 z"
         id="path8607" />
      <g
         transform="matrix(0.544365,0,0,0.9411763,42.076688,-8.6470511)"
         id="g8613"
         style="fill:#ffffff;fill-opacity:0.72023806">
        <rect
           style="fill-rule:nonzero;stroke:none;stroke-width:1.13999999;marker:none;visibility:visible;display:block;overflow:visible"
           id="rect8615"
           width="10"
           height="1"
           x="20"
           y="40"
           rx="0.91850138"
           ry="0.53125012" />
        <path
           sodipodi:type="arc"
           style="fill-rule:nonzero;stroke:none;stroke-width:1.13999999;marker:none;visibility:visible;display:block;overflow:visible"
           id="path8617"
           sodipodi:cx="18.46875"
           sodipodi:cy="40.625"
           sodipodi:rx="0.53125"
           sodipodi:ry="0.53125"
           d="M 19,40.625 A 0.53125,0.53125 0 1 1 17.9375,40.625 A 0.53125,0.53125 0 1 1 19,40.625 z"
           transform="matrix(1.7289449,0,0,1,-14.326309,-9.375e-2)" />
      </g>
    </g>
    <path
       style="fill:url(#linearGradient32110);fill-opacity:1"
       d="M 16.447176,20.918445 L 16.214585,20.871365 L 16.008726,20.802009 C 15.821425,20.738904 15.786739,20.72534 15.623852,20.651481 C 15.466352,20.580079 15.424242,20.558301 15.273625,20.470385 C 15.17946,20.415422 15.099484,20.366867 15.095902,20.36249 C 15.092321,20.358111 15.089315,20.347003 15.089224,20.337808 C 15.08913,20.328618 15.117791,20.228625 15.152923,20.115609 C 15.188049,20.002589 15.231435,19.862935 15.249333,19.805259 C 15.267224,19.747587 15.302089,19.635238 15.326804,19.555593 C 15.40565,19.301517 15.753063,18.182821 15.893981,17.729261 C 15.968855,17.488261 16.030113,17.288238 16.030113,17.284765 C 16.030113,17.277277 16.06993,17.237615 16.096299,17.218831 C 16.109028,17.209766 16.124069,17.204692 16.143843,17.202782 L 16.172766,17.199999 L 16.253236,17.250256 C 16.381939,17.330636 16.46503,17.37645 16.65304,17.470666 C 16.843262,17.566001 16.895633,17.589603 17.011285,17.632098 C 17.139066,17.679057 17.196668,17.694584 17.406703,17.738665 L 17.610143,17.781358 L 17.840064,17.79537 L 18.069977,17.809382 L 18.331983,17.784988 L 18.593979,17.760594 L 18.888798,17.695741 L 19.18361,17.630888 L 19.519372,17.520918 C 19.745803,17.446757 19.862224,17.410958 19.876891,17.410976 C 19.90059,17.411004 19.912396,17.41689 19.956923,17.450896 C 19.980888,17.469197 19.98789,17.478167 19.99467,17.499251 C 20.000606,17.5177 20.001499,17.528459 19.997769,17.5367 C 19.994892,17.54306 19.962536,17.646012 19.925868,17.765479 C 19.889199,17.884941 19.680834,18.561219 19.462828,19.268315 C 19.244825,19.975412 19.065125,20.560753 19.063496,20.569083 C 19.056537,20.604698 19.048828,20.608563 18.837732,20.682142 C 18.365323,20.846815 17.969138,20.935095 17.503204,20.979513 C 17.143836,21.03846 16.798621,20.95512 16.447176,20.918445 z M 18.025805,17.836842 C 18.019156,17.835649 18.00953,17.835696 18.004419,17.836946 C 17.999307,17.838197 18.004747,17.839173 18.01651,17.839116 C 18.028272,17.839065 18.032456,17.83804 18.025805,17.836842 z M 18.098052,17.836937 C 18.092909,17.835679 18.084486,17.835679 18.079337,17.836937 C 18.074192,17.83819 18.078402,17.83922 18.088694,17.83922 C 18.098987,17.83922 18.103202,17.83819 18.098052,17.836937 z M 17.940316,17.831859 C 17.933703,17.830667 17.92287,17.830667 17.916258,17.831859 C 17.909639,17.833053 17.915055,17.834025 17.928287,17.834025 C 17.941519,17.834025 17.946935,17.833053 17.940316,17.831859 z M 18.151422,17.831922 C 18.146216,17.830656 18.138996,17.830743 18.135376,17.832108 C 18.131759,17.833473 18.136016,17.834509 18.144839,17.834411 C 18.153659,17.834307 18.156622,17.833191 18.151422,17.831922 z M 17.854764,17.826865 C 17.848151,17.825679 17.837319,17.825679 17.830707,17.826865 C 17.824088,17.828058 17.829504,17.829029 17.842736,17.829029 C 17.855973,17.829029 17.861382,17.828058 17.854764,17.826865 z M 18.207331,17.82698 C 18.203472,17.825534 18.198861,17.825713 18.197084,17.827375 C 18.195305,17.829029 18.198463,17.830209 18.204098,17.829996 C 18.210332,17.829758 18.211597,17.828573 18.207331,17.82698 z M 17.763807,17.821864 C 17.757152,17.820672 17.747527,17.820717 17.742415,17.821964 C 17.737309,17.823212 17.742749,17.824191 17.754511,17.824139 C 17.766273,17.824081 17.770458,17.823057 17.763807,17.821864 z M 18.266151,17.821987 C 18.262289,17.820544 18.257679,17.820717 18.2559,17.822379 C 18.25412,17.824041 18.257282,17.825223 18.262915,17.825002 C 18.269143,17.824765 18.270413,17.823576 18.266151,17.821987 z M 17.678257,17.81687 C 17.6716,17.815678 17.661976,17.815723 17.656862,17.816973 C 17.651758,17.818225 17.657198,17.819196 17.668961,17.819145 C 17.680722,17.819088 17.684905,17.818068 17.678257,17.81687 z M 17.10441,17.698524 C 17.102013,17.696326 16.861531,17.606049 16.848202,17.602339 C 16.827341,17.596534 16.886277,17.623169 16.940205,17.643916 C 17.035028,17.680399 17.112893,17.706292 17.10441,17.698524 z M 19.377729,17.60345 C 19.537238,17.55394 19.802458,17.461776 19.797835,17.457452 C 19.795964,17.455707 19.242767,17.63987 19.23874,17.643586 C 19.23419,17.647769 19.244701,17.644737 19.377729,17.60345 z M 16.837505,17.598734 C 16.837505,17.597653 16.833775,17.595437 16.829207,17.593797 C 16.824449,17.59209 16.822304,17.592929 16.824176,17.595759 C 16.827316,17.600505 16.837505,17.602779 16.837505,17.598734 z M 16.784035,17.573333 C 16.784035,17.572013 16.774412,17.566354 16.762648,17.560745 C 16.750888,17.555144 16.741262,17.551677 16.741262,17.553038 C 16.741262,17.554401 16.750285,17.559965 16.761311,17.565405 C 16.784,17.576586 16.784035,17.576598 16.784035,17.573333 z M 16.703833,17.533412 C 16.703833,17.532109 16.696613,17.527561 16.687794,17.523295 C 16.667683,17.513585 16.666469,17.517804 16.686454,17.527932 C 16.703261,17.536446 16.703833,17.536624 16.703833,17.533412 z M 16.623628,17.493438 C 16.623628,17.492126 16.614005,17.486458 16.602242,17.480856 C 16.59048,17.475249 16.580856,17.471783 16.580856,17.473143 C 16.580856,17.474509 16.589879,17.48007 16.600904,17.48551 C 16.623592,17.496691 16.623628,17.496708 16.623628,17.493438 z M 16.543426,17.453517 C 16.543426,17.452217 16.536205,17.447667 16.527386,17.443408 C 16.507275,17.433696 16.506056,17.437909 16.526048,17.448039 C 16.542849,17.456551 16.543426,17.456735 16.543426,17.453517 z M 13.552787,19.745659 C 13.541062,19.739864 13.527867,19.732254 13.523456,19.728746 C 13.519043,19.725239 13.489025,19.708237 13.456743,19.690955 C 13.42447,19.673674 13.363112,19.638216 13.3204,19.612149 C 13.199009,19.538073 12.972905,19.434698 12.777552,19.363965 L 12.617146,19.305884 L 12.427326,19.266797 C 12.258807,19.232095 12.225813,19.226823 12.133247,19.219797 C 11.954302,19.20622 11.874651,19.208696 11.595877,19.23654 L 11.349917,19.261107 L 11.077224,19.319368 L 10.804524,19.377634 L 10.480164,19.484335 C 10.193966,19.578479 10.153363,19.590614 10.135107,19.587478 C 10.110652,19.58327 10.014063,19.519987 10.005461,19.502543 C 9.9981496,19.487699 9.9981876,19.462918 10.005529,19.460631 C 10.014961,19.457696 10.950653,16.429221 10.944463,16.421656 C 10.933976,16.408851 10.966783,16.393954 11.162775,16.322568 C 11.283267,16.278676 11.467707,16.218997 11.577162,16.18848 C 11.610979,16.179053 11.772192,16.142337 11.935407,16.106891 L 12.232164,16.042438 L 12.489125,16.021221 L 12.746083,15.999998 L 12.970353,16.013425 L 13.194614,16.026852 L 13.405821,16.071494 C 13.521987,16.096046 13.639888,16.123111 13.667825,16.131643 C 13.870825,16.193613 14.090694,16.290649 14.320151,16.419534 C 14.448805,16.4918 14.624289,16.599931 14.630498,16.610763 C 14.638661,16.625008 14.637111,16.633092 14.609056,16.722725 C 14.594444,16.769417 14.473215,17.160393 14.339654,17.591573 C 14.206091,18.022746 14.005986,18.668762 13.894969,19.02716 C 13.783953,19.385558 13.688536,19.684879 13.682933,19.692321 C 13.669393,19.710315 13.599166,19.75619 13.585168,19.75619 C 13.579074,19.75619 13.564506,19.751451 13.552787,19.745659 z"
       id="path31581"
       sodipodi:nodetypes="cccsssssssssscccsscccccccccsssssssscccssccssccssccssccssccssccssccssccssccssccssccssccsssccssccsssccssccssscccscccccsssssscccccccssssssssc" />
    <path
       style="fill:url(#linearGradient32112);fill-opacity:1"
       d="M 18.447175,15.918444 L 18.214583,15.871365 L 18.008725,15.802009 C 17.821424,15.738904 17.786738,15.725339 17.62385,15.651481 C 17.466351,15.580078 17.424241,15.5583 17.273624,15.470385 C 17.179459,15.415421 17.099483,15.366867 17.095901,15.362491 C 17.09232,15.358111 17.089314,15.347003 17.089223,15.337807 C 17.089129,15.328617 17.117791,15.228625 17.152922,15.115609 C 17.188048,15.002589 17.231434,14.862933 17.249332,14.805258 C 17.267223,14.747588 17.302088,14.635237 17.326803,14.555592 C 17.40565,14.301517 17.753062,13.182821 17.89398,12.729261 C 17.968854,12.48826 18.030113,12.288237 18.030113,12.284765 C 18.030113,12.277278 18.069929,12.237616 18.096297,12.218828 C 18.109027,12.209766 18.124068,12.204691 18.143843,12.20278 L 18.172765,12.199998 L 18.253236,12.250256 C 18.381937,12.330635 18.465029,12.376448 18.653039,12.470665 C 18.84326,12.566 18.895633,12.5896 19.011285,12.632097 C 19.139065,12.679057 19.196668,12.694583 19.406702,12.738666 L 19.610142,12.781358 L 19.840063,12.795369 L 20.069977,12.80938 L 20.331982,12.784987 L 20.593978,12.760594 L 20.888797,12.695741 L 21.183609,12.630888 L 21.519371,12.520918 C 21.745803,12.446758 21.862222,12.410958 21.876891,12.410975 C 21.90059,12.411003 21.912395,12.416889 21.956923,12.450898 C 21.980887,12.469197 21.987889,12.478166 21.994669,12.499249 C 22.000605,12.5177 22.001498,12.528456 21.997768,12.536699 C 21.994891,12.54306 21.962536,12.64601 21.925868,12.765478 C 21.889199,12.884941 21.680832,13.56122 21.462827,14.268315 C 21.244824,14.975411 21.065125,15.560752 21.063494,15.569081 C 21.056536,15.604696 21.048827,15.608564 20.837732,15.682142 C 20.365321,15.846816 19.969136,15.935095 19.503203,15.979513 C 19.143835,16.03846 18.79862,15.95512 18.447175,15.918444 z M 20.025803,12.836842 C 20.019155,12.83565 20.009529,12.835695 20.004417,12.836945 C 19.999306,12.838197 20.004746,12.839172 20.01651,12.839116 C 20.028271,12.839064 20.032455,12.838041 20.025803,12.836842 z M 20.098051,12.836935 C 20.092908,12.835678 20.084485,12.835678 20.079336,12.836935 C 20.074191,12.83819 20.078401,12.83922 20.088694,12.83922 C 20.098986,12.83922 20.103201,12.83819 20.098051,12.836935 z M 19.940315,12.83186 C 19.933702,12.830667 19.922869,12.830667 19.916257,12.83186 C 19.909638,12.83305 19.915054,12.834023 19.928285,12.834023 C 19.941517,12.834023 19.946934,12.83305 19.940315,12.83186 z M 20.151422,12.831922 C 20.146215,12.830655 20.138996,12.830742 20.135376,12.832108 C 20.131758,12.833474 20.136014,12.83451 20.144838,12.83441 C 20.153658,12.834306 20.156621,12.833189 20.151422,12.831922 z M 19.854763,12.826864 C 19.84815,12.825677 19.837318,12.825677 19.830705,12.826864 C 19.824087,12.828057 19.829503,12.829028 19.842735,12.829028 C 19.855972,12.829028 19.861381,12.828057 19.854763,12.826864 z M 20.20733,12.82698 C 20.20347,12.825533 20.19886,12.825711 20.197083,12.827374 C 20.195304,12.829028 20.198463,12.83021 20.204097,12.829995 C 20.210331,12.829757 20.211596,12.828572 20.20733,12.82698 z M 19.763807,12.821865 C 19.757151,12.820671 19.747526,12.820717 19.742414,12.821962 C 19.737307,12.823212 19.742748,12.824191 19.75451,12.824139 C 19.766273,12.824079 19.770457,12.823056 19.763807,12.821865 z M 20.266149,12.821986 C 20.262288,12.820544 20.257677,12.820717 20.255899,12.822379 C 20.25412,12.824041 20.257281,12.82522 20.262913,12.825001 C 20.269141,12.824763 20.270412,12.823578 20.266149,12.821986 z M 19.678255,12.816869 C 19.6716,12.815678 19.661975,12.815723 19.656861,12.816974 C 19.651757,12.818224 19.657198,12.819196 19.66896,12.819145 C 19.680721,12.819086 19.684904,12.818068 19.678255,12.816869 z M 19.104409,12.698524 C 19.102012,12.696325 18.861531,12.606049 18.848202,12.602339 C 18.82734,12.596533 18.886276,12.623167 18.940204,12.643914 C 19.035026,12.680398 19.112893,12.706292 19.104409,12.698524 z M 21.377728,12.60345 C 21.537237,12.553942 21.802457,12.461777 21.797834,12.457453 C 21.795962,12.455705 21.242765,12.63987 21.238739,12.643585 C 21.23419,12.647769 21.2447,12.644735 21.377728,12.60345 z M 18.837503,12.598732 C 18.837503,12.597651 18.833774,12.595434 18.829206,12.593796 C 18.824447,12.59209 18.822303,12.592928 18.824175,12.595761 C 18.827314,12.600504 18.837503,12.602779 18.837503,12.598732 z M 18.784034,12.573332 C 18.784034,12.572013 18.77441,12.566354 18.762647,12.560745 C 18.750887,12.555144 18.741261,12.551677 18.741261,12.553038 C 18.741261,12.554403 18.750285,12.559964 18.761309,12.565403 C 18.783998,12.576585 18.784034,12.576598 18.784034,12.573332 z M 18.703832,12.533411 C 18.703832,12.532108 18.696612,12.527561 18.687793,12.523295 C 18.667682,12.513583 18.666468,12.517804 18.686453,12.527931 C 18.703261,12.536445 18.703832,12.536623 18.703832,12.533411 z M 18.623627,12.493438 C 18.623627,12.492126 18.614004,12.486458 18.602241,12.480857 C 18.590479,12.475249 18.580854,12.471783 18.580854,12.473143 C 18.580854,12.474508 18.589878,12.48007 18.600903,12.48551 C 18.623591,12.496691 18.623627,12.496708 18.623627,12.493438 z M 18.543425,12.453517 C 18.543425,12.452217 18.536204,12.447666 18.527385,12.443407 C 18.507274,12.433696 18.506054,12.437908 18.526046,12.448038 C 18.542848,12.45655 18.543425,12.456735 18.543425,12.453517 z M 15.552787,14.745658 C 15.54106,14.739864 15.527866,14.732254 15.523455,14.728746 C 15.519042,14.725238 15.489023,14.708237 15.456742,14.690955 C 15.424469,14.673673 15.36311,14.638215 15.320399,14.612149 C 15.199008,14.538072 14.972904,14.434697 14.777551,14.363965 L 14.617144,14.305884 L 14.427325,14.266797 C 14.258806,14.232096 14.225812,14.226822 14.133245,14.219796 C 13.954301,14.206219 13.874649,14.208695 13.595876,14.236539 L 13.349916,14.261107 L 13.077223,14.319368 L 12.804522,14.377634 L 12.480163,14.484334 C 12.193964,14.578478 12.153362,14.590614 12.135105,14.587478 C 12.11065,14.583272 12.014062,14.519987 12.005461,14.502544 C 11.998147,14.487698 11.998186,14.462917 12.005529,14.460632 C 12.01496,14.457696 12.950651,11.429221 12.944462,11.421656 C 12.933975,11.40885 12.966782,11.393952 13.162774,11.322566 C 13.283266,11.278676 13.467706,11.218996 13.577161,11.188479 C 13.610978,11.179052 13.772191,11.142336 13.935407,11.106891 L 14.232162,11.042436 L 14.489123,11.02122 L 14.746082,10.999998 L 14.970352,11.013425 L 15.194614,11.026851 L 15.40582,11.071494 C 15.521986,11.096046 15.639887,11.123111 15.667824,11.131643 C 15.870824,11.193611 16.090693,11.290649 16.320151,11.419532 C 16.448804,11.491799 16.624288,11.599929 16.630497,11.610763 C 16.63866,11.625007 16.63711,11.633091 16.609055,11.722725 C 16.594444,11.769417 16.473214,12.160393 16.339653,12.591573 C 16.20609,13.022746 16.005984,13.668762 15.894968,14.02716 C 15.783953,14.385559 15.688535,14.684879 15.682932,14.692322 C 15.669392,14.710314 15.599165,14.756191 15.585166,14.756191 C 15.579072,14.756191 15.564505,14.75145 15.552787,14.745658 z"
       id="path31583"
       sodipodi:nodetypes="cccsssssssssscccsscccccccccsssssssscccssccssccssccssccssccssccssccssccssccssccssccssccsssccssccsssccssccssscccscccccsssssscccccccssssssssc" />
  </g>
</svg>
