/* XPM */
static char * maximize_inactive_xpm[] = {
"20 25 32 1",
" 	c None",
".	c #3C3C3C",
"+	c #666666",
"@	c #515151",
"#	c #505050",
"$	c #4F4F4F",
"%	c #4E4E4E",
"&	c #4D4D4D",
"*	c #4C4C4C",
"=	c #4B4B4B",
"-	c #4A4A4A",
";	c #838383",
">	c #9B9B9B",
",	c #494949",
"'	c #484848",
")	c #828282",
"!	c #868686",
"~	c #474747",
"{	c #808080",
"]	c #464646",
"^	c #454545",
"/	c #999999",
"(	c #444444",
"_	c #7F7F7F",
":	c #848484",
"<	c #434343",
"[	c #424242",
"}	c #414141",
"|	c #404040",
"1	c #3F3F3F",
"2	c #3E3E3E",
"3	c #3D3D3D",
"....................",
"++++++++++++++++++++",
"@@@@@@@@@@@@@@@@@@@@",
"####################",
"$$$$$$$$$$$$$$$$$$$$",
"%%%%%%%%%%%%%%%%%%%%",
"&&&&&&&&&&&&&&&&&&&&",
"********************",
"====================",
"---------;;---------",
"--------->>---------",
",,,,,,,,,>>,,,,,,,,,",
"'''''')>>>>>>!''''''",
"~~~~~~)>>>>>>{~~~~~~",
"]]]]]]]]]>>]]]]]]]]]",
"^^^^^^^^^/>~^^^^^^^^",
"(((((((((_:(((((((((",
"<<<<<<<<<<<<<<<<<<<<",
"<<<<<<<<<<<<<<<<<<<<",
"[[[[[[[[[[[[[[[[[[[[",
"}}}}}}}}}}}}}}}}}}}}",
"||||||||||||||||||||",
"11111111111111111111",
"22222222222222222222",
"33333333333333333333"};
