<?xml version="1.0" encoding="UTF-8" standalone="no"?>
<!-- Created with Inkscape (http://www.inkscape.org/) -->
<svg
   xmlns:dc="http://purl.org/dc/elements/1.1/"
   xmlns:cc="http://creativecommons.org/ns#"
   xmlns:rdf="http://www.w3.org/1999/02/22-rdf-syntax-ns#"
   xmlns:svg="http://www.w3.org/2000/svg"
   xmlns="http://www.w3.org/2000/svg"
   xmlns:sodipodi="http://sodipodi.sourceforge.net/DTD/sodipodi-0.dtd"
   xmlns:inkscape="http://www.inkscape.org/namespaces/inkscape"
   width="48px"
   height="48px"
   id="svg5573"
   sodipodi:version="0.32"
   inkscape:version="0.46+devel"
   sodipodi:docname="notification-printer-error.svg"
   inkscape:output_extension="org.inkscape.output.svg.inkscape">
  <defs
     id="defs5575">
    <linearGradient
       id="SVGID_1_"
       gradientUnits="userSpaceOnUse"
       x1="24.0532"
       y1="26.248501"
       x2="24.0532"
       y2="13.2114">
      <stop
         offset="0"
         style="stop-color:#0D0D0D"
         id="stop4005" />
      <stop
         offset="1"
         style="stop-color:#8C8C8C"
         id="stop4007" />
    </linearGradient>
    <linearGradient
       id="SVGID_2_"
       gradientUnits="userSpaceOnUse"
       x1="306.0527"
       y1="-364.4346"
       x2="306.0527"
       y2="-349.47949"
       gradientTransform="matrix(1,0,0,-1,-282,-323.999)">
      <stop
         offset="0"
         style="stop-color:#9B9B9B"
         id="stop4016" />
      <stop
         offset="1"
         style="stop-color:#ECECEC"
         id="stop4018" />
    </linearGradient>
    <linearGradient
       id="SVGID_3_"
       gradientUnits="userSpaceOnUse"
       x1="24.0532"
       y1="37.751499"
       x2="24.0532"
       y2="25.812">
      <stop
         offset="0"
         style="stop-color:#0D0D0D"
         id="stop4033" />
      <stop
         offset="1"
         style="stop-color:#8C8C8C"
         id="stop4035" />
    </linearGradient>
    <linearGradient
       id="SVGID_4_"
       gradientUnits="userSpaceOnUse"
       x1="321.582"
       y1="-366.07321"
       x2="321.582"
       y2="-367.60721"
       gradientTransform="matrix(1,0,0,-1,-282,-323.999)">
      <stop
         offset="0.1917"
         style="stop-color:#ECEBF7"
         id="stop4040" />
      <stop
         offset="0.53"
         style="stop-color:#9E9E9E"
         id="stop4042" />
    </linearGradient>
    <linearGradient
       id="SVGID_5_"
       gradientUnits="userSpaceOnUse"
       x1="290.52341"
       y1="-366.07321"
       x2="290.52341"
       y2="-367.60721"
       gradientTransform="matrix(1,0,0,-1,-282,-323.999)">
      <stop
         offset="0.1917"
         style="stop-color:#ECEBF7"
         id="stop4047" />
      <stop
         offset="0.53"
         style="stop-color:#9E9E9E"
         id="stop4049" />
    </linearGradient>
    <linearGradient
       id="SVGID_6_"
       gradientUnits="userSpaceOnUse"
       x1="306.0527"
       y1="-368.75781"
       x2="306.0527"
       y2="-369.21799"
       gradientTransform="matrix(1,0,0,-1,-282,-323.999)">
      <stop
         offset="0.1917"
         style="stop-color:#ECEBF7"
         id="stop4054" />
      <stop
         offset="0.53"
         style="stop-color:#9E9E9E"
         id="stop4056" />
    </linearGradient>
    <linearGradient
       id="SVGID_7_"
       gradientUnits="userSpaceOnUse"
       x1="306.05371"
       y1="-368.3252"
       x2="306.05371"
       y2="-365.30539"
       gradientTransform="matrix(1,0,0,-1,-282,-323.999)">
      <stop
         offset="0"
         style="stop-color:#727275"
         id="stop4061" />
      <stop
         offset="0.53"
         style="stop-color:#151517"
         id="stop4063" />
    </linearGradient>
    <linearGradient
       id="SVGID_8_"
       gradientUnits="userSpaceOnUse"
       x1="306.05179"
       y1="-326.08981"
       x2="306.05179"
       y2="-349.48099"
       gradientTransform="matrix(1,0,0,-1,-282,-323.999)">
      <stop
         offset="0"
         style="stop-color:#FCFCFC"
         id="stop4070" />
      <stop
         offset="0.1742"
         style="stop-color:#FFFFFF"
         id="stop4072" />
      <stop
         offset="0.8258"
         style="stop-color:#FFFFFF"
         id="stop4074" />
      <stop
         offset="1"
         style="stop-color:#A2A2A3"
         id="stop4076" />
    </linearGradient>
    <linearGradient
       id="SVGID_9_"
       gradientUnits="userSpaceOnUse"
       x1="306.0527"
       y1="-326.08981"
       x2="306.0527"
       y2="-349.48099"
       gradientTransform="matrix(1,0,0,-1,-282,-323.999)">
      <stop
         offset="0"
         style="stop-color:#FCFCFC"
         id="stop4081" />
      <stop
         offset="0.1742"
         style="stop-color:#EEEEEE"
         id="stop4083" />
      <stop
         offset="0.8258"
         style="stop-color:#EEEEEE"
         id="stop4085" />
      <stop
         offset="1"
         style="stop-color:#A2A2A3"
         id="stop4087" />
    </linearGradient>
    <radialGradient
       id="SVGID_10_"
       cx="314.85739"
       cy="-335.40671"
       r="5.9809999"
       gradientTransform="matrix(0.8757,-0.131,-0.1048,-0.7,-279.5999,-181.8777)"
       gradientUnits="userSpaceOnUse">
      <stop
         offset="0.2135"
         style="stop-color:#C4C4C4"
         id="stop4092" />
      <stop
         offset="0.927"
         style="stop-color:#EEEEEE"
         id="stop4094" />
    </radialGradient>
    <linearGradient
       id="SVGID_11_"
       gradientUnits="userSpaceOnUse"
       x1="310.48929"
       y1="-325.3877"
       x2="312.9339"
       y2="-335.64539"
       gradientTransform="matrix(1,0,0,-1,-282,-323.999)">
      <stop
         offset="0"
         style="stop-color:#FCFDFD"
         id="stop4099" />
      <stop
         offset="1"
         style="stop-color:#EEEEEE"
         id="stop4101" />
    </linearGradient>
    <linearGradient
       id="SVGID_12_"
       gradientUnits="userSpaceOnUse"
       x1="8.4042997"
       y1="0.93120003"
       x2="8.4042997"
       y2="25.789101">
      <stop
         offset="0"
         style="stop-color:#FF6363"
         id="stop4125" />
      <stop
         offset="1"
         style="stop-color:#CC0000"
         id="stop4127" />
    </linearGradient>
  </defs>
  <sodipodi:namedview
     id="base"
     pagecolor="#ffffff"
     bordercolor="#666666"
     borderopacity="1.0"
     inkscape:pageopacity="0.0"
     inkscape:pageshadow="2"
     inkscape:zoom="1.2374369"
     inkscape:cx="-79.389857"
     inkscape:cy="64.519769"
     inkscape:current-layer="layer1"
     showgrid="true"
     inkscape:grid-bbox="true"
     inkscape:document-units="px"
     inkscape:window-width="567"
     inkscape:window-height="460"
     inkscape:window-x="0"
     inkscape:window-y="561" />
  <metadata
     id="metadata5578">
    <rdf:RDF>
      <cc:Work
         rdf:about="">
        <dc:format>image/svg+xml</dc:format>
        <dc:type
           rdf:resource="http://purl.org/dc/dcmitype/StillImage" />
        <dc:title />
      </cc:Work>
    </rdf:RDF>
  </metadata>
  <g
     id="layer1"
     inkscape:label="Layer 1"
     inkscape:groupmode="layer">
    <g
       id="Layer_4">
      <path
         style="opacity:0.3"
         d="M 42.904,22.624 H 40.715 V 13.21 c 0,-1.154 -0.937,-2.09 -2.091,-2.09 H 36.57 C 33.851,7.616 28.358,1.685 25.28,0.362 24.722,0.119 24.219,0 23.744,0 H 12.421 C 10.762,0 9.308,1.458 9.308,3.124 v 8.002 C 8.236,11.217 7.392,12.114 7.392,13.21 v 9.413 H 5.2 c -2.714,0 -5.094,2.215 -5.094,4.744 v 17.008 c 0,1.294 0.893,2.432 2.146,2.752 0.229,0.067 0.47,0.104 0.71,0.104 H 5.946 C 6.329,47.7 6.914,48 7.565,48 H 40.54 c 0.651,0 1.236,-0.301 1.618,-0.769 h 2.983 c 1.578,0 2.858,-1.281 2.858,-2.856 V 27.368 C 48,24.839 45.618,22.624 42.904,22.624 z m 3.005,21.751 c 0,0.422 -0.345,0.767 -0.767,0.767 H 40.54 V 45.91 H 7.564 V 45.142 H 2.963 C 2.91,45.142 2.86,45.131 2.814,45.112 2.465,45.041 2.196,44.745 2.196,44.376 V 27.368 c 0,-1.459 1.527,-2.653 3.004,-2.653 H 9.482 V 13.211 h 1.917 V 3.124 c 0,-0.506 0.521,-1.033 1.022,-1.033 h 11.322 c 0.192,0 0.429,0.07 0.694,0.188 2.672,1.147 8.57,7.459 11.089,10.933 h 3.098 v 11.503 h 4.281 c 1.477,0 3.004,1.194 3.004,2.653 v 17.007 z"
         id="path3998" />
    </g>
    <g
       id="Layer_1" />
    <g
       style="opacity:0.3"
       id="Layer_2">
      <g
         id="g4002">
        <linearGradient
           id="linearGradient5462"
           gradientUnits="userSpaceOnUse"
           x1="24.0532"
           y1="26.248501"
           x2="24.0532"
           y2="13.2114">
          <stop
             offset="0"
             style="stop-color:#0D0D0D"
             id="stop5464" />
          <stop
             offset="1"
             style="stop-color:#8C8C8C"
             id="stop5466" />
        </linearGradient>
        <rect
           style="fill:url(#SVGID_1_)"
           x="9.4820004"
           y="13.211"
           width="29.142"
           height="13.038"
           id="rect4009" />
        <path
           style="fill:#ecebf7"
           d="M 45.909,40.436 V 27.368 c 0,-1.459 -1.527,-2.653 -3.004,-2.653 H 5.2 c -1.477,0 -3.004,1.194 -3.004,2.653 v 13.068 h 43.713 z"
           id="path4011" />
        <g
           id="g4013">
          <linearGradient
             id="linearGradient5471"
             gradientUnits="userSpaceOnUse"
             x1="306.0527"
             y1="-364.4346"
             x2="306.0527"
             y2="-349.47949"
             gradientTransform="matrix(1,0,0,-1,-282,-323.999)">
            <stop
               offset="0"
               style="stop-color:#9B9B9B"
               id="stop5473" />
            <stop
               offset="1"
               style="stop-color:#ECECEC"
               id="stop5475" />
          </linearGradient>
          <path
             style="fill:url(#SVGID_2_)"
             d="M 45.525,40.436 V 28.132 c 0,-1.458 -1.187,-2.651 -2.637,-2.651 H 5.217 c -1.45,0 -2.637,1.193 -2.637,2.651 v 12.304 h 42.945 z"
             id="path4020" />
        </g>
        <path
           style="fill:#333333"
           d="m 45.909,40.157 v 4.218 c 0,0.422 -0.345,0.767 -0.767,0.767 H 2.963 c -0.422,0 -0.767,-0.345 -0.767,-0.767 v -4.218 h 43.713 z"
           id="path4022" />
        <g
           id="g4024">
          <path
             style="fill:#333333"
             d="m 2.58,40.923 v 3.835 c 0,0.211 0.172,0.383 0.384,0.383 h 42.179 c 0.211,0 0.383,-0.172 0.383,-0.383 V 40.923 H 2.58 z"
             id="path4026" />
        </g>
        <path
           style="fill:#cbc8e6"
           d="m 39.007,37.368 c 0,0.422 -0.345,0.767 -0.767,0.767 H 9.865 c -0.421,0 -0.766,-0.345 -0.766,-0.767 v -8.436 c 0,-0.422 0.345,-0.767 0.766,-0.767 H 38.24 c 0.422,0 0.767,0.345 0.767,0.767 v 8.436 z"
           id="path4028" />
        <g
           id="g4030">
          <linearGradient
             id="linearGradient5483"
             gradientUnits="userSpaceOnUse"
             x1="24.0532"
             y1="37.751499"
             x2="24.0532"
             y2="25.812">
            <stop
               offset="0"
               style="stop-color:#0D0D0D"
               id="stop5485" />
            <stop
               offset="1"
               style="stop-color:#8C8C8C"
               id="stop5487" />
          </linearGradient>
          <rect
             style="fill:url(#SVGID_3_)"
             x="9.4820004"
             y="25.812"
             width="29.142"
             height="11.939"
             id="rect4037" />
        </g>
        <linearGradient
           id="linearGradient5490"
           gradientUnits="userSpaceOnUse"
           x1="321.582"
           y1="-366.07321"
           x2="321.582"
           y2="-367.60721"
           gradientTransform="matrix(1,0,0,-1,-282,-323.999)">
          <stop
             offset="0.1917"
             style="stop-color:#ECEBF7"
             id="stop5492" />
          <stop
             offset="0.53"
             style="stop-color:#9E9E9E"
             id="stop5494" />
        </linearGradient>
        <rect
           style="fill:url(#SVGID_4_)"
           x="38.624001"
           y="42.074001"
           width="1.9170001"
           height="3.835"
           id="rect4044" />
        <linearGradient
           id="linearGradient5497"
           gradientUnits="userSpaceOnUse"
           x1="290.52341"
           y1="-366.07321"
           x2="290.52341"
           y2="-367.60721"
           gradientTransform="matrix(1,0,0,-1,-282,-323.999)">
          <stop
             offset="0.1917"
             style="stop-color:#ECEBF7"
             id="stop5499" />
          <stop
             offset="0.53"
             style="stop-color:#9E9E9E"
             id="stop5501" />
        </linearGradient>
        <rect
           style="fill:url(#SVGID_5_)"
           x="7.5640001"
           y="42.074001"
           width="1.9170001"
           height="3.835"
           id="rect4051" />
        <linearGradient
           id="linearGradient5504"
           gradientUnits="userSpaceOnUse"
           x1="306.0527"
           y1="-368.75781"
           x2="306.0527"
           y2="-369.21799"
           gradientTransform="matrix(1,0,0,-1,-282,-323.999)">
          <stop
             offset="0.1917"
             style="stop-color:#ECEBF7"
             id="stop5506" />
          <stop
             offset="0.53"
             style="stop-color:#9E9E9E"
             id="stop5508" />
        </linearGradient>
        <rect
           style="fill:url(#SVGID_6_)"
           x="9.4820004"
           y="44.757999"
           width="29.142"
           height="1.15"
           id="rect4058" />
        <linearGradient
           id="linearGradient5511"
           gradientUnits="userSpaceOnUse"
           x1="306.05371"
           y1="-368.3252"
           x2="306.05371"
           y2="-365.30539"
           gradientTransform="matrix(1,0,0,-1,-282,-323.999)">
          <stop
             offset="0"
             style="stop-color:#727275"
             id="stop5513" />
          <stop
             offset="0.53"
             style="stop-color:#151517"
             id="stop5515" />
        </linearGradient>
        <polygon
           style="fill:url(#SVGID_7_)"
           points="38.624,44.758 9.482,44.758 9.482,42.074 9.865,41.307 38.24,41.307 38.624,42.074 "
           id="polygon4065" />
        <rect
           style="fill:#333336"
           x="9.4820004"
           y="24.714001"
           width="29.142"
           height="1.15"
           id="rect4067" />
        <linearGradient
           id="linearGradient5519"
           gradientUnits="userSpaceOnUse"
           x1="306.05179"
           y1="-326.08981"
           x2="306.05179"
           y2="-349.48099"
           gradientTransform="matrix(1,0,0,-1,-282,-323.999)">
          <stop
             offset="0"
             style="stop-color:#FCFCFC"
             id="stop5521" />
          <stop
             offset="0.1742"
             style="stop-color:#FFFFFF"
             id="stop5523" />
          <stop
             offset="0.8258"
             style="stop-color:#FFFFFF"
             id="stop5525" />
          <stop
             offset="1"
             style="stop-color:#A2A2A3"
             id="stop5527" />
        </linearGradient>
        <path
           style="fill:url(#SVGID_8_)"
           d="M 36.706,25.865 H 11.399 c 0,0 0,-22.234 0,-22.741 0,-0.507 0.521,-1.033 1.022,-1.033 0.382,0 8.232,0 11.3,0 2.697,0 12.985,11.629 12.985,13.23 0,2.067 0,10.544 0,10.544 z"
           id="path4078" />
        <linearGradient
           id="linearGradient5530"
           gradientUnits="userSpaceOnUse"
           x1="306.0527"
           y1="-326.08981"
           x2="306.0527"
           y2="-349.48099"
           gradientTransform="matrix(1,0,0,-1,-282,-323.999)">
          <stop
             offset="0"
             style="stop-color:#FCFCFC"
             id="stop5532" />
          <stop
             offset="0.1742"
             style="stop-color:#EEEEEE"
             id="stop5534" />
          <stop
             offset="0.8258"
             style="stop-color:#EEEEEE"
             id="stop5536" />
          <stop
             offset="1"
             style="stop-color:#A2A2A3"
             id="stop5538" />
        </linearGradient>
        <path
           style="fill:url(#SVGID_9_)"
           d="M 36.323,25.865 H 11.782 c 0,0 0,-22.234 0,-22.741 0,-0.507 0.505,-1.033 0.991,-1.033 0.37,0 7.998,0 10.97,0 2.612,0 12.58,11.629 12.58,13.23 0,2.067 0,10.544 0,10.544 z"
           id="path4089" />
        <radialGradient
           id="radialGradient5541"
           cx="314.85739"
           cy="-335.40671"
           r="5.9809999"
           gradientTransform="matrix(0.8757,-0.131,-0.1048,-0.7,-279.5999,-181.8777)"
           gradientUnits="userSpaceOnUse">
          <stop
             offset="0.2135"
             style="stop-color:#C4C4C4"
             id="stop5543" />
          <stop
             offset="0.927"
             style="stop-color:#EEEEEE"
             id="stop5545" />
        </radialGradient>
        <path
           style="fill:url(#SVGID_10_)"
           d="m 34.876,12.804 c 0.288,1.927 -0.425,3.631 -2.837,3.992 -2.409,0.361 -5.605,-0.758 -5.894,-2.685 -0.289,-1.928 0.586,-2.558 2.996,-2.919 2.411,-0.36 3.856,0.521 5.735,1.612 z"
           id="path4096" />
        <linearGradient
           id="linearGradient5548"
           gradientUnits="userSpaceOnUse"
           x1="310.48929"
           y1="-325.3877"
           x2="312.9339"
           y2="-335.64539"
           gradientTransform="matrix(1,0,0,-1,-282,-323.999)">
          <stop
             offset="0"
             style="stop-color:#FCFDFD"
             id="stop5550" />
          <stop
             offset="1"
             style="stop-color:#EEEEEE"
             id="stop5552" />
        </linearGradient>
        <path
           style="fill:url(#SVGID_11_)"
           d="m 36.706,15.321 c 0,-3.088 -10.257,-3.093 -10.257,-3.093 C 26.439,13.25 26.553,2.09 23.72,2.09 c 2.698,0.001 12.986,12.2 12.986,13.231 z"
           id="path4103" />
        <rect
           style="fill:#333336"
           x="9.4820004"
           y="25.865"
           width="29.077999"
           height="0.384"
           id="rect4105" />
      </g>
    </g>
    <g
       id="Layer_3">
      <g
         id="g4108">
        <g
           id="g4110">
          <g
             id="g4112">
            <path
               d="M 10.219,26.72 H 4.316 c -0.514,0 -0.932,-0.418 -0.932,-0.932 v -5.821 c 0,-0.514 0.418,-0.931 0.932,-0.931 h 5.902 c 0.514,0 0.932,0.417 0.932,0.931 v 5.821 c 0,0.514 -0.418,0.932 -0.931,0.932 l 0,0 z m 0,-8.243 H 4.316 c -0.514,0 -0.932,-0.417 -0.932,-0.931 v -0.8 c 0,-1.045 0.219,-1.989 0.646,-2.809 C 4.446,13.139 5.251,12.19 6.497,11.04 L 7.55,10.085 C 8.1,9.588 8.496,9.125 8.732,8.711 8.941,8.349 9.043,8.009 9.043,7.668 9.043,7.034 8.791,6.755 8.6,6.598 8.248,6.308 7.709,6.163 6.998,6.163 6.225,6.163 5.367,6.329 4.449,6.657 3.498,6.997 2.482,7.51 1.438,8.189 1.284,8.289 1.108,8.339 0.932,8.339 0.78,8.339 0.625,8.3 0.487,8.226 0.186,8.063 0,7.75 0,7.408 V 2.272 C 0,1.876 0.252,1.524 0.625,1.394 1.977,0.923 3.232,0.573 4.361,0.347 5.512,0.119 6.637,0 7.701,0 c 2.857,0 5.098,0.613 6.654,1.823 1.629,1.264 2.453,3.11 2.453,5.486 0,1.211 -0.248,2.317 -0.736,3.287 -0.479,0.951 -1.252,1.928 -2.369,2.981 l -1.068,0.95 c -0.861,0.789 -1.156,1.207 -1.258,1.385 -0.154,0.273 -0.227,0.566 -0.227,0.897 v 0.735 c 0,0.516 -0.418,0.933 -0.931,0.933 l 0,0 z"
               id="path4114" />
          </g>
          <g
             id="g4116">
            <path
               d="M 10.219,17.547 H 4.316 v -0.802 c 0,-0.895 0.18,-1.688 0.539,-2.379 0.361,-0.693 1.117,-1.573 2.273,-2.643 L 8.175,10.776 C 8.796,10.209 9.251,9.674 9.54,9.172 9.829,8.67 9.975,8.17 9.975,7.669 9.975,6.905 9.713,6.309 9.19,5.878 8.667,5.447 7.936,5.232 6.998,5.232 6.115,5.232 5.16,5.416 4.137,5.781 3.111,6.146 2.043,6.688 0.93,7.408 V 2.272 C 2.25,1.814 3.455,1.476 4.545,1.258 5.635,1.04 6.688,0.931 7.701,0.931 c 2.66,0 4.689,0.543 6.084,1.627 1.395,1.085 2.094,2.669 2.094,4.751 0,1.069 -0.213,2.025 -0.639,2.87 -0.426,0.846 -1.15,1.753 -2.176,2.723 l -1.045,0.934 c -0.742,0.675 -1.227,1.218 -1.455,1.627 -0.23,0.408 -0.346,0.858 -0.346,1.349 v 0.735 z m -5.903,2.42 h 5.902 v 5.821 H 4.316 v -5.821 z"
               id="path4118" />
          </g>
        </g>
        <g
           id="g4120">
          <g
             id="g4122">
            <linearGradient
               id="linearGradient5565"
               gradientUnits="userSpaceOnUse"
               x1="8.4042997"
               y1="0.93120003"
               x2="8.4042997"
               y2="25.789101">
              <stop
                 offset="0"
                 style="stop-color:#FF6363"
                 id="stop5567" />
              <stop
                 offset="1"
                 style="stop-color:#CC0000"
                 id="stop5569" />
            </linearGradient>
            <path
               style="fill:url(#SVGID_12_)"
               d="M 10.219,17.547 H 4.316 v -0.802 c 0,-0.895 0.18,-1.688 0.539,-2.379 0.361,-0.693 1.117,-1.573 2.273,-2.643 L 8.175,10.776 C 8.796,10.209 9.251,9.674 9.54,9.172 9.829,8.67 9.975,8.17 9.975,7.669 9.975,6.905 9.713,6.309 9.19,5.878 8.667,5.447 7.936,5.232 6.998,5.232 6.115,5.232 5.16,5.416 4.137,5.781 3.111,6.146 2.043,6.688 0.93,7.408 V 2.272 C 2.25,1.814 3.455,1.476 4.545,1.258 5.635,1.04 6.688,0.931 7.701,0.931 c 2.66,0 4.689,0.543 6.084,1.627 1.395,1.085 2.094,2.669 2.094,4.751 0,1.069 -0.213,2.025 -0.639,2.87 -0.426,0.846 -1.15,1.753 -2.176,2.723 l -1.045,0.934 c -0.742,0.675 -1.227,1.218 -1.455,1.627 -0.23,0.408 -0.346,0.858 -0.346,1.349 v 0.735 z m -5.903,2.42 h 5.902 v 5.821 H 4.316 v -5.821 z"
               id="path4129" />
          </g>
        </g>
        <path
           style="opacity:0.4;fill:#ffffff"
           d="M 9.975,7.669 C 9.975,8.17 9.83,8.671 9.541,9.173 9.252,9.675 8.797,10.209 8.176,10.777 l -1.047,0.947 c -1.156,1.069 -1.912,1.949 -2.273,2.643 -0.359,0.691 -0.539,1.484 -0.539,2.379 v 0.802 h 0.348 v -0.259 c 0,-0.895 0.18,-1.688 0.541,-2.38 0.359,-0.692 1.117,-1.573 2.273,-2.641 L 8.524,11.32 C 9.147,10.753 9.602,10.218 9.891,9.716 10.18,9.215 10.325,8.714 10.325,8.212 10.325,7.587 10.139,7.079 9.788,6.677 9.91,6.969 9.975,7.298 9.975,7.669 z M 4.316,25.789 H 4.664 V 20.51 h 5.555 V 19.967 H 4.316 v 5.822 z M 13.785,2.558 C 12.39,1.474 10.361,0.931 7.701,0.931 6.687,0.931 5.635,1.04 4.545,1.258 3.455,1.476 2.25,1.814 0.93,2.272 V 7.408 C 1.047,7.332 1.164,7.266 1.28,7.194 V 2.815 C 2.6,2.357 3.803,2.019 4.895,1.801 5.985,1.583 7.036,1.474 8.051,1.474 c 2.66,0 4.688,0.543 6.082,1.627 0.391,0.303 0.719,0.648 1,1.029 C 14.797,3.525 14.352,3 13.785,2.558 z"
           id="path4131" />
      </g>
    </g>
  </g>
</svg>
