<?xml version="1.0" encoding="UTF-8" standalone="no"?>
<!-- Created with Inkscape (http://www.inkscape.org/) -->
<svg
   xmlns:dc="http://purl.org/dc/elements/1.1/"
   xmlns:cc="http://creativecommons.org/ns#"
   xmlns:rdf="http://www.w3.org/1999/02/22-rdf-syntax-ns#"
   xmlns:svg="http://www.w3.org/2000/svg"
   xmlns="http://www.w3.org/2000/svg"
   xmlns:xlink="http://www.w3.org/1999/xlink"
   xmlns:sodipodi="http://sodipodi.sourceforge.net/DTD/sodipodi-0.dtd"
   xmlns:inkscape="http://www.inkscape.org/namespaces/inkscape"
   width="16px"
   height="16px"
   id="svg7445"
   sodipodi:version="0.32"
   inkscape:version="0.46"
   sodipodi:docname="folder-remote-smb.svg"
   inkscape:output_extension="org.inkscape.output.svg.inkscape">
  <defs
     id="defs7447">
    <linearGradient
       id="linearGradient32104"
       inkscape:collect="always">
      <stop
         id="stop32106"
         offset="0"
         style="stop-color:#ffffff;stop-opacity:1" />
      <stop
         id="stop32108"
         offset="1"
         style="stop-color:#ffffff;stop-opacity:0" />
    </linearGradient>
    <linearGradient
       inkscape:collect="always"
       xlink:href="#linearGradient32104"
       id="linearGradient32110"
       gradientUnits="userSpaceOnUse"
       gradientTransform="matrix(0.4117647,0,0,0.3999999,-2.0882347,-2.1999984)"
       x1="24.472109"
       y1="23.019806"
       x2="24.565605"
       y2="40.500008" />
    <linearGradient
       inkscape:collect="always"
       id="linearGradient32094">
      <stop
         style="stop-color:#ffffff;stop-opacity:1"
         offset="0"
         id="stop32096" />
      <stop
         style="stop-color:#ffffff;stop-opacity:0"
         offset="1"
         id="stop32098" />
    </linearGradient>
    <linearGradient
       inkscape:collect="always"
       xlink:href="#linearGradient32094"
       id="linearGradient32112"
       gradientUnits="userSpaceOnUse"
       gradientTransform="matrix(0.4117647,0,0,0.3999999,-2.0882347,-2.1999984)"
       x1="24.472109"
       y1="23.019806"
       x2="24.525963"
       y2="37.96817" />
    <linearGradient
       id="linearGradient204">
      <stop
         style="stop-color:#7a7a7a;stop-opacity:1.0000000;"
         offset="0.0000000"
         id="stop205" />
      <stop
         style="stop-color:#ebebeb;stop-opacity:1"
         offset="0.19801980"
         id="stop207" />
      <stop
         style="stop-color:#b9b9b9;stop-opacity:1"
         offset="0.59900987"
         id="stop208" />
      <stop
         style="stop-color:#878787;stop-opacity:1"
         offset="1.0000000"
         id="stop206" />
    </linearGradient>
    <linearGradient
       inkscape:collect="always"
       xlink:href="#linearGradient204"
       id="linearGradient6849"
       gradientUnits="userSpaceOnUse"
       gradientTransform="matrix(0.5065613,0,0,0.4314897,43.034978,12.413858)"
       x1="23.100046"
       y1="38.296745"
       x2="23.100046"
       y2="43.915466" />
    <linearGradient
       id="linearGradient6862">
      <stop
         id="stop6864"
         offset="0.0000000"
         style="stop-color:#ffffff;stop-opacity:0.0000000;" />
      <stop
         id="stop6866"
         offset="0.10342737"
         style="stop-color:#d9d9d9;stop-opacity:1" />
      <stop
         id="stop6868"
         offset="0.89450336"
         style="stop-color:#d9d9d9;stop-opacity:1" />
      <stop
         id="stop6870"
         offset="1.0000000"
         style="stop-color:#ffffff;stop-opacity:0.0000000;" />
    </linearGradient>
    <linearGradient
       inkscape:collect="always"
       xlink:href="#linearGradient6862"
       id="linearGradient6847"
       gradientUnits="userSpaceOnUse"
       gradientTransform="matrix(1.1997705,0,0,9.1235761e-2,44.958601,20.062502)"
       x1="1.6422368"
       y1="117.8271"
       x2="15.343062"
       y2="117.8271" />
    <linearGradient
       inkscape:collect="always"
       xlink:href="#linearGradient272"
       id="linearGradient6845"
       gradientUnits="userSpaceOnUse"
       gradientTransform="matrix(3.5765885,0,0,0.2235361,44.958575,-45.552711)"
       x1="0.61210024"
       y1="372.57819"
       x2="5.0856376"
       y2="372.57819" />
    <linearGradient
       id="linearGradient272">
      <stop
         style="stop-color:#474747;stop-opacity:0.0000000;"
         offset="0.0000000"
         id="stop273" />
      <stop
         style="stop-color:#474747;stop-opacity:1.0000000;"
         offset="0.10000000"
         id="stop275" />
      <stop
         style="stop-color:#474747;stop-opacity:1.0000000;"
         offset="0.89999998"
         id="stop276" />
      <stop
         style="stop-color:#474747;stop-opacity:0.0000000;"
         offset="1.0000000"
         id="stop274" />
    </linearGradient>
    <linearGradient
       inkscape:collect="always"
       xlink:href="#linearGradient272"
       id="linearGradient6843"
       gradientUnits="userSpaceOnUse"
       gradientTransform="matrix(3.5765886,0,0,0.2257221,44.958573,-52.291577)"
       x1="0.61210024"
       y1="372.57819"
       x2="5.0856376"
       y2="372.57819" />
    <linearGradient
       inkscape:collect="always"
       id="linearGradient6265">
      <stop
         style="stop-color:#ffffff;stop-opacity:1;"
         offset="0"
         id="stop6267" />
      <stop
         style="stop-color:#ffffff;stop-opacity:0;"
         offset="1"
         id="stop6269" />
    </linearGradient>
    <linearGradient
       inkscape:collect="always"
       xlink:href="#linearGradient6265"
       id="linearGradient6271"
       x1="24.012035"
       y1="7.888154"
       x2="24.012035"
       y2="42.256897"
       gradientUnits="userSpaceOnUse"
       gradientTransform="matrix(0.3169131,0,0,0.291671,0.4037269,0.6875261)" />
    <linearGradient
       inkscape:collect="always"
       id="linearGradient7963">
      <stop
         style="stop-color:#3465a4;stop-opacity:1"
         offset="0"
         id="stop7965" />
      <stop
         style="stop-color:#204a87;stop-opacity:1"
         offset="1"
         id="stop7967" />
    </linearGradient>
    <linearGradient
       inkscape:collect="always"
       xlink:href="#linearGradient7963"
       id="linearGradient7969"
       x1="321.63464"
       y1="98.174034"
       x2="321.03998"
       y2="420.02725"
       gradientUnits="userSpaceOnUse" />
    <linearGradient
       id="linearGradient4103">
      <stop
         style="stop-color:#8fb3d9;stop-opacity:1"
         offset="0"
         id="stop4105" />
      <stop
         style="stop-color:#3465a4;stop-opacity:1"
         offset="1"
         id="stop4107" />
    </linearGradient>
    <linearGradient
       inkscape:collect="always"
       xlink:href="#linearGradient4103"
       id="linearGradient5117"
       gradientUnits="userSpaceOnUse"
       x1="256.08548"
       y1="186.4377"
       x2="256.08548"
       y2="430.65604"
       gradientTransform="matrix(0.9531336,0,0,0.9284911,12.004535,20.166933)" />
    <linearGradient
       id="linearGradient17648">
      <stop
         id="stop17650"
         offset="0"
         style="stop-color:#ffffff;stop-opacity:0.6" />
      <stop
         id="stop17652"
         offset="1"
         style="stop-color:#ffffff;stop-opacity:0;" />
    </linearGradient>
    <linearGradient
       inkscape:collect="always"
       xlink:href="#linearGradient17648"
       id="linearGradient17646"
       gradientUnits="userSpaceOnUse"
       x1="22.124207"
       y1="11.806856"
       x2="22.124207"
       y2="44.554501"
       gradientTransform="matrix(0.3513555,0,0,0.3333434,0.2264754,-1.998246)" />
    <linearGradient
       inkscape:collect="always"
       id="linearGradient6293">
      <stop
         style="stop-color:#888a85;stop-opacity:1"
         offset="0"
         id="stop6295" />
      <stop
         style="stop-color:#555753;stop-opacity:1"
         offset="1"
         id="stop6297" />
    </linearGradient>
    <linearGradient
       inkscape:collect="always"
       xlink:href="#linearGradient6293"
       id="linearGradient17644"
       gradientUnits="userSpaceOnUse"
       x1="24.116728"
       y1="8.0004635"
       x2="24.000704"
       y2="29.093473"
       gradientTransform="matrix(0.3513555,0,0,0.3333434,0.5672374,-2.6667473)" />
  </defs>
  <sodipodi:namedview
     id="base"
     pagecolor="#ffffff"
     bordercolor="#666666"
     borderopacity="1.0"
     inkscape:pageopacity="0.0"
     inkscape:pageshadow="2"
     inkscape:zoom="22.197802"
     inkscape:cx="8"
     inkscape:cy="8"
     inkscape:current-layer="layer1"
     showgrid="true"
     inkscape:grid-bbox="true"
     inkscape:document-units="px"
     inkscape:window-width="641"
     inkscape:window-height="690"
     inkscape:window-x="117"
     inkscape:window-y="331" />
  <metadata
     id="metadata7450">
    <rdf:RDF>
      <cc:Work
         rdf:about="">
        <dc:format>image/svg+xml</dc:format>
        <dc:type
           rdf:resource="http://purl.org/dc/dcmitype/StillImage" />
      </cc:Work>
    </rdf:RDF>
  </metadata>
  <g
     id="layer1"
     inkscape:label="Layer 1"
     inkscape:groupmode="layer">
    <path
       d="M 14.500017,2.0001546 C 14.501101,1.8167655 14.198435,1.5000444 14.000017,1.5000444 L 8.4998554,1.5000444 L 6.500017,0.49999227 L 1.9998546,0.49999227 C 1.7352957,0.49999227 1.4998546,0.75551177 1.4998546,1.0000294 L 1.4998546,10.500316 L 14.500017,10.500316 L 14.500017,2.0001546 z"
       id="path15"
       style="fill:#d9d9d9;fill-opacity:1;stroke:url(#linearGradient17644);stroke-width:0.99967569;stroke-miterlimit:4;stroke-dasharray:none"
       sodipodi:nodetypes="ccccccccc" />
    <path
       d="M 13.500017,2.7499918 C 13.501042,2.5104907 13.505832,2.5001546 13.250017,2.5001546 L 8.2000174,2.5001546 C 8.2000174,2.5001546 6.503067,1.4993087 6.000017,1.5001546 L 2.7500168,1.5001546 C 2.4990248,1.5001546 2.4998546,1.5207576 2.4998546,1.7499918 L 2.5100128,10.835472 L 13.500017,10.835472 L 13.500017,2.7499918 z"
       id="path7263"
       style="opacity:1;fill:none;fill-opacity:1;stroke:url(#linearGradient17646);stroke-width:0.99967569;stroke-miterlimit:4;stroke-dasharray:none;stroke-opacity:1"
       sodipodi:nodetypes="ccccccccc" />
    <g
       id="g6091"
       transform="matrix(3.1069053e-2,0,0,3.1069053e-2,5.3172304e-2,-4.9856933e-2)">
      <path
         sodipodi:nodetypes="ccccccc"
         id="path2161"
         d="M 489.13124,403.9393 L 22.428896,403.9393 C -1.0938751,404.12055 36.235028,311.25227 14.382304,130.35516 C 13.504935,122.96588 23.101431,114.26198 30.475488,114.26198 L 481.08465,114.26198 C 494.06261,114.26198 498.58595,119.21615 497.17784,130.35516 C 475.79355,310.47804 512.71764,403.9393 489.13124,403.9393 z"
         style="fill:url(#linearGradient5117);fill-opacity:1;fill-rule:evenodd;stroke:url(#linearGradient7969);stroke-width:32.17588806;stroke-linecap:butt;stroke-linejoin:miter;stroke-miterlimit:4;stroke-dasharray:none;stroke-opacity:1" />
    </g>
    <path
       sodipodi:nodetypes="ccccccc"
       id="path6261"
       d="M 14.000017,11.500154 L 2.0000168,11.500154 C 1.0226832,11.513749 2.0928908,9.993938 1.6000168,5.0001545 C 1.5525004,4.3841894 1.4510492,4.5081182 2.0000168,4.5001546 L 14.011664,4.5001546 C 14.56385,4.5114169 14.406078,4.3655557 14.400017,5.0001545 C 13.867657,10.484273 15.108525,11.517048 14.000017,11.500154 z"
       style="opacity:0.7;fill:none;fill-opacity:1;fill-rule:evenodd;stroke:url(#linearGradient6271);stroke-width:0.99989057;stroke-linecap:butt;stroke-linejoin:miter;stroke-miterlimit:4;stroke-dasharray:none;stroke-opacity:1" />
    <g
       id="g8782"
       transform="translate(-47.1478,-16.3125)"
       style="display:inline;enable-background:new">
      <rect
         style="opacity:0.56571428;fill:url(#linearGradient6843);fill-opacity:1;fill-rule:nonzero;stroke:none;stroke-width:1;marker:none;visibility:visible;display:block;overflow:visible"
         id="rect8784"
         width="16"
         height="1.0097771"
         x="47.1478"
         y="31.302723" />
      <rect
         style="opacity:0.56571428;fill:url(#linearGradient6845);fill-opacity:1;fill-rule:nonzero;stroke:none;stroke-width:1;marker:none;visibility:visible;display:block;overflow:visible"
         id="rect8786"
         width="16"
         height="1"
         x="47.1478"
         y="29.3125" />
      <rect
         style="fill:url(#linearGradient6847);fill-opacity:1;fill-rule:nonzero;stroke:none;stroke-width:1;marker:none;visibility:visible;display:block;overflow:visible"
         id="rect8788"
         width="16"
         height="1"
         x="47.147827"
         y="30.3125" />
      <path
         sodipodi:nodetypes="ccccccccc"
         style="fill:url(#linearGradient6849);fill-opacity:1;fill-rule:nonzero;stroke:#555753;stroke-width:1;stroke-linecap:butt;stroke-linejoin:miter;marker:none;stroke-miterlimit:4;stroke-dashoffset:0;stroke-opacity:1;visibility:visible;display:block;overflow:visible"
         d="M 53.342732,28.743839 C 52.939317,28.743839 52.618651,29.008206 52.618651,29.340792 L 52.618651,31.184298 C 52.618651,31.516881 52.939317,31.781252 53.342732,31.781252 L 56.993484,31.781252 C 57.396895,31.781252 57.717566,31.516881 57.717566,31.184298 L 57.717566,29.340792 C 57.717566,29.008206 57.396895,28.743839 56.993484,28.743839 L 53.342732,28.743839 z"
         id="path8790" />
      <g
         transform="matrix(0.544365,0,0,0.9411763,42.076688,-8.6470511)"
         id="g8792"
         style="fill:#ffffff;fill-opacity:0.72023806">
        <path
           sodipodi:type="arc"
           style="fill-rule:nonzero;stroke:none;stroke-width:1.13999999;marker:none;visibility:visible;display:block;overflow:visible"
           id="path8794"
           sodipodi:cx="18.46875"
           sodipodi:cy="40.625"
           sodipodi:rx="0.53125"
           sodipodi:ry="0.53125"
           d="M 19,40.625 A 0.53125,0.53125 0 1 1 17.9375,40.625 A 0.53125,0.53125 0 1 1 19,40.625 z"
           transform="matrix(2.3232693,0,0,1.3437498,-21.657435,-13.709952)" />
      </g>
    </g>
    <path
       style="fill:url(#linearGradient32110);fill-opacity:1"
       d="M 8.4820798,10.947805 L 8.3384198,10.917674 L 8.2112728,10.873287 C 8.0955858,10.832899 8.0741618,10.824218 7.9735568,10.77695 C 7.8762758,10.73125 7.8502668,10.717313 7.7572398,10.661047 C 7.6990788,10.625869 7.6496818,10.594797 7.6474694,10.591995 C 7.6452574,10.589191 7.6434016,10.582084 7.6433442,10.576199 C 7.6432869,10.570317 7.6609895,10.50632 7.6826887,10.433991 C 7.7043828,10.361657 7.7311818,10.272279 7.7422358,10.235367 C 7.7532858,10.198456 7.7748208,10.126553 7.7900848,10.075581 C 7.8387848,9.9129721 8.0533628,9.1970071 8.1403998,8.9067281 C 8.1866458,8.7524901 8.2244828,8.6244751 8.2244828,8.6222521 C 8.2244828,8.6174591 8.2490748,8.5920761 8.2653618,8.5800541 C 8.2732238,8.5742531 8.2825128,8.5710051 8.2947278,8.5697821 L 8.3125918,8.5680001 L 8.3622928,8.6001661 C 8.4417868,8.6516081 8.4931078,8.6809291 8.6092308,8.7412291 C 8.7267208,8.8022411 8.7590688,8.8173461 8.8305008,8.8445461 C 8.9094228,8.8745981 8.9450008,8.8845371 9.0747278,8.9127481 L 9.2003828,8.9400731 L 9.3423928,8.9490381 L 9.4843988,8.9580061 L 9.6462248,8.9423931 L 9.8080468,8.9267811 L 9.9901408,8.8852771 L 10.172229,8.8437721 L 10.379612,8.7733901 C 10.519467,8.7259271 10.591373,8.7030151 10.600433,8.7030251 C 10.61507,8.7030451 10.622362,8.7068101 10.649865,8.7285751 C 10.664666,8.7402871 10.668991,8.7460301 10.673178,8.7595211 C 10.676845,8.7713291 10.677396,8.7782141 10.675093,8.7834911 C 10.673316,8.7875601 10.653331,8.8534481 10.630684,8.9299071 C 10.608035,9.0063641 10.479338,9.4391821 10.344688,9.8917221 C 10.210039,10.344264 10.099047,10.718884 10.098041,10.724213 C 10.093743,10.747007 10.088981,10.749481 9.9585998,10.796571 C 9.6668178,10.901962 9.4221148,10.958461 9.1343328,10.986889 C 8.9123698,11.024616 8.6991488,10.971277 8.4820798,10.947805 z M 9.4571158,8.9755811 C 9.4530078,8.9748191 9.4470638,8.9748471 9.4439068,8.9756481 C 9.4407488,8.9764471 9.4441088,8.9770741 9.4513738,8.9770371 C 9.4586388,8.9770021 9.4612228,8.9763481 9.4571158,8.9755811 z M 9.5017378,8.9756421 C 9.4985618,8.9748351 9.4933588,8.9748351 9.4901788,8.9756421 C 9.4870018,8.9764441 9.4896008,8.9771031 9.4959588,8.9771031 C 9.5023158,8.9771031 9.5049198,8.9764441 9.5017378,8.9756421 z M 9.4043128,8.9723921 C 9.4002278,8.9716301 9.3935378,8.9716301 9.3894538,8.9723921 C 9.3853658,8.9731541 9.3887118,8.9737771 9.3968828,8.9737771 C 9.4050558,8.9737771 9.4084008,8.9731541 9.4043128,8.9723921 z M 9.5347018,8.9724321 C 9.5314868,8.9716221 9.5270278,8.9716781 9.5247918,8.9725511 C 9.5225568,8.9734271 9.5251868,8.9740881 9.5306368,8.9740251 C 9.5360838,8.9739581 9.5379138,8.9732441 9.5347018,8.9724321 z M 9.3514728,8.9691961 C 9.3473878,8.9684361 9.3406968,8.9684361 9.3366128,8.9691961 C 9.3325248,8.9699581 9.3358698,8.9705811 9.3440428,8.9705811 C 9.3522188,8.9705811 9.3555598,8.9699581 9.3514728,8.9691961 z M 9.5692348,8.9692701 C 9.5668508,8.9683451 9.5640028,8.9684571 9.5629048,8.9695211 C 9.5618058,8.9705811 9.5637568,8.9713361 9.5672368,8.9711991 C 9.5710878,8.9710471 9.5718688,8.9702881 9.5692348,8.9692701 z M 9.2952938,8.9659951 C 9.2911818,8.9652321 9.2852378,8.9652611 9.2820808,8.9660581 C 9.2789258,8.9668591 9.2822868,8.9674841 9.2895508,8.9674501 C 9.2968168,8.9674131 9.2994008,8.9667581 9.2952938,8.9659951 z M 9.6055638,8.9660721 C 9.6031788,8.9651511 9.6003318,8.9652611 9.5992328,8.9663251 C 9.5981338,8.9673881 9.6000868,8.9681431 9.6035658,8.9680031 C 9.6074118,8.9678521 9.6081968,8.9670921 9.6055638,8.9660721 z M 9.2424528,8.9627991 C 9.2383418,8.9620371 9.2323978,8.9620651 9.2292388,8.9628671 C 9.2260858,8.9636651 9.2294458,8.9642871 9.2367108,8.9642541 C 9.2439758,8.9642181 9.2465598,8.9635661 9.2424528,8.9627991 z M 8.8880188,8.8870571 C 8.8865378,8.8856491 8.7380058,8.8278731 8.7297718,8.8254991 C 8.7168878,8.8217841 8.7532888,8.8388291 8.7865968,8.8521091 C 8.8451638,8.8754581 8.8932588,8.8920291 8.8880188,8.8870571 z M 10.292126,8.8262111 C 10.390647,8.7945241 10.55446,8.7355391 10.551604,8.7327711 C 10.550447,8.7316541 10.208768,8.8495191 10.20628,8.8518981 C 10.20347,8.8545741 10.209962,8.8526331 10.292126,8.8262111 z M 8.7231658,8.8231901 C 8.7231658,8.8225001 8.7208608,8.8210821 8.7180398,8.8200321 C 8.7151008,8.8189381 8.7137758,8.8194771 8.7149318,8.8212881 C 8.7168728,8.8243251 8.7231658,8.8257801 8.7231658,8.8231901 z M 8.6901398,8.8069351 C 8.6901398,8.8060921 8.6841958,8.8024671 8.6769308,8.7988791 C 8.6696658,8.7952941 8.6637218,8.7930761 8.6637218,8.7939471 C 8.6637218,8.7948201 8.6692948,8.7983791 8.6761048,8.8018611 C 8.6901178,8.8090161 8.6901398,8.8090231 8.6901398,8.8069351 z M 8.6406028,8.7813861 C 8.6406028,8.7805521 8.6361428,8.7776421 8.6306968,8.7749121 C 8.6182748,8.7686961 8.6175258,8.7713971 8.6298698,8.7778781 C 8.6402508,8.7833271 8.6406028,8.7834431 8.6406028,8.7813861 z M 8.5910648,8.7558031 C 8.5910648,8.7549611 8.5851208,8.7513371 8.5778558,8.7477511 C 8.5705908,8.7441611 8.5646468,8.7419431 8.5646468,8.7428141 C 8.5646468,8.7436871 8.5702198,8.7472471 8.5770298,8.7507281 C 8.5910418,8.7578861 8.5910648,8.7578941 8.5910648,8.7558031 z M 8.5415278,8.7302531 C 8.5415278,8.7294221 8.5370678,8.7265091 8.5316218,8.7237821 C 8.5191998,8.7175671 8.5184468,8.7202631 8.5307948,8.7267481 C 8.5411718,8.7321931 8.5415278,8.7323121 8.5415278,8.7302531 z M 6.6943698,10.197222 C 6.687127,10.193513 6.6789776,10.188643 6.6762533,10.186399 C 6.6735276,10.184153 6.6549865,10.173274 6.6350483,10.162213 C 6.615114,10.151153 6.5772165,10.128459 6.5508359,10.111776 C 6.475859,10.064369 6.3362073,9.9982071 6.2155479,9.9529371 L 6.116473,9.9157671 L 5.9992317,9.8907501 C 5.895146,9.8685431 5.8747678,9.8651691 5.817594,9.8606711 C 5.7070696,9.8519821 5.6578736,9.8535671 5.4856897,9.8713851 L 5.3337732,9.8871081 L 5.1653453,9.9243971 L 4.9969127,9.9616871 L 4.7965727,10.029975 C 4.6198033,10.090228 4.5947245,10.097993 4.5834488,10.095988 C 4.5683447,10.093294 4.5086867,10.052794 4.5033742,10.041627 C 4.498857,10.032128 4.4988805,10.016268 4.5034162,10.014806 C 4.5092415,10.012927 5.0871684,8.0747031 5.0833455,8.0698621 C 5.0768688,8.0616671 5.0971317,8.0521331 5.2181857,8.0064461 C 5.2926066,7.9783542 5.4065255,7.9401589 5.4741302,7.9206286 C 5.4950176,7.9145954 5.5945901,7.8910972 5.6953996,7.8684114 L 5.8786904,7.8271612 L 6.037401,7.8135829 L 6.1961106,7.8000001 L 6.3346305,7.8085931 L 6.4731453,7.8171875 L 6.6035963,7.8457578 C 6.6753455,7.861472 6.7481665,7.8787931 6.765422,7.8842526 C 6.8908046,7.9239143 7.0266055,7.9860185 7.1683295,8.0685031 C 7.2477913,8.1147551 7.3561788,8.1839571 7.360014,8.1908911 C 7.3650553,8.2000071 7.3640985,8.2051811 7.3467704,8.2625471 C 7.3377457,8.2924301 7.2628685,8.5426541 7.1803752,8.8186081 C 7.0978808,9.0945591 6.9742861,9.5080081 6.9057173,9.7373831 C 6.8371488,9.9667581 6.778214,10.158322 6.7747538,10.163086 C 6.7663904,10.174601 6.7230149,10.203962 6.7143691,10.203962 C 6.7106053,10.203962 6.7016078,10.200929 6.6943698,10.197222 z"
       id="path31581"
       sodipodi:nodetypes="cccsssssssssscccsscccccccccsssssssscccssccssccssccssccssccssccssccssccssccssccssccssccsssccssccsssccssccssscccscccccsssssscccccccssssssssc" />
    <path
       style="fill:url(#linearGradient32112);fill-opacity:1"
       d="M 9.3056088,8.1478071 L 9.1619498,8.1176771 L 9.0348018,8.0732901 C 8.9191158,8.0329021 8.8976918,8.0242201 8.7970858,7.9769495 C 8.6998058,7.9312514 8.6737968,7.9173131 8.5807688,7.861048 C 8.5226078,7.8258721 8.4732108,7.7947966 8.4709988,7.7919966 C 8.4687868,7.7891932 8.4669308,7.7820858 8.4668738,7.7761989 C 8.4668158,7.7703166 8.4845188,7.7063223 8.5062178,7.6339921 C 8.5279128,7.5616584 8.5547108,7.4722801 8.5657648,7.4353681 C 8.5768148,7.3984584 8.5983498,7.3265544 8.6136138,7.2755808 C 8.6623138,7.1129728 8.8768928,6.3970073 8.9639298,6.1067294 C 9.0101748,5.952489 9.0480118,5.8244743 9.0480118,5.8222517 C 9.0480118,5.8174594 9.0726038,5.7920759 9.0888908,5.7800529 C 9.0967528,5.7742526 9.1060428,5.7710049 9.1182568,5.7697817 L 9.1361208,5.7680004 L 9.1858228,5.8001657 C 9.2653158,5.8516088 9.3166368,5.8809291 9.4327598,5.9412282 C 9.5502508,6.0022417 9.5825978,6.0173466 9.6540298,6.0445447 C 9.7329528,6.0745982 9.7685308,6.0845356 9.8982578,6.1127486 L 10.023911,6.1400716 L 10.165922,6.149038 L 10.307928,6.1580057 L 10.469755,6.1423934 L 10.631575,6.1267811 L 10.813668,6.0852762 L 10.995759,6.0437713 L 11.203141,5.9733896 C 11.342997,5.9259273 11.414902,5.9030151 11.423962,5.9030263 C 11.4386,5.9030442 11.445891,5.9068122 11.473394,5.928576 C 11.488195,5.9402874 11.49252,5.9460296 11.496707,5.9595217 C 11.500374,5.9713297 11.500926,5.9782142 11.498622,5.9834901 C 11.496845,5.9875605 11.476861,6.0534494 11.454213,6.1299079 C 11.431564,6.2063637 11.302867,6.6391822 11.168217,7.0917237 C 11.033569,7.5442664 10.922578,7.9188834 10.92157,7.9242148 C 10.917272,7.9470092 10.912512,7.9494834 10.782129,7.9965727 C 10.490345,8.1019651 10.245644,8.1584631 9.9578618,8.1868921 C 9.7358998,8.2246171 9.5226788,8.1712791 9.3056088,8.1478071 z M 10.280644,6.175582 C 10.276537,6.1748181 10.270592,6.1748483 10.267435,6.1756478 C 10.264277,6.1764473 10.267638,6.1770727 10.274903,6.1770371 C 10.282168,6.1770028 10.284752,6.1763472 10.280644,6.175582 z M 10.325268,6.1756409 C 10.32209,6.1748359 10.316889,6.1748359 10.313707,6.1756409 C 10.310531,6.1764432 10.31313,6.1771029 10.319488,6.1771029 C 10.325845,6.1771029 10.328448,6.1764432 10.325268,6.1756409 z M 10.227841,6.172392 C 10.223757,6.1716295 10.217067,6.1716295 10.212983,6.172392 C 10.208895,6.1731545 10.21224,6.1737772 10.220412,6.1737772 C 10.228584,6.1737772 10.23193,6.1731545 10.227841,6.172392 z M 10.358231,6.1724318 C 10.355016,6.1716213 10.350557,6.1716775 10.348321,6.1725511 C 10.346086,6.1734261 10.348716,6.1740885 10.354165,6.1740254 C 10.359613,6.1739582 10.361443,6.1732437 10.358231,6.1724318 z M 10.175001,6.1691952 C 10.170916,6.1684368 10.164226,6.1684368 10.160142,6.1691952 C 10.156054,6.1699591 10.159399,6.1705804 10.167571,6.1705804 C 10.175747,6.1705804 10.179089,6.1699591 10.175001,6.1691952 z M 10.392763,6.1692693 C 10.390378,6.1683436 10.387532,6.1684574 10.386434,6.1695216 C 10.385335,6.1705804 10.387287,6.1713374 10.390767,6.1712003 C 10.394617,6.1710467 10.395397,6.1702883 10.392763,6.1692693 z M 10.118822,6.1659957 C 10.114711,6.1652318 10.108767,6.165262 10.105609,6.1660588 C 10.102455,6.1668583 10.105816,6.1674837 10.11308,6.1674508 C 10.120345,6.1674137 10.12293,6.1667582 10.118822,6.1659957 z M 10.429092,6.1660725 C 10.426708,6.1651509 10.423859,6.165262 10.422762,6.1663248 C 10.421663,6.1673877 10.423616,6.1681433 10.427095,6.1680021 C 10.43094,6.1678512 10.431726,6.1670915 10.429092,6.1660725 z M 10.065981,6.1627989 C 10.06187,6.1620364 10.055927,6.1620652 10.052768,6.1628661 C 10.049614,6.1636656 10.052975,6.1642883 10.06024,6.1642553 C 10.067505,6.1642169 10.070088,6.1635655 10.065981,6.1627989 z M 9.7115478,6.0870576 C 9.7100668,6.0856506 9.5615348,6.0278737 9.5533018,6.0254997 C 9.5404168,6.0217845 9.5768188,6.03883 9.6101268,6.0521082 C 9.6686938,6.0754581 9.7167878,6.0920291 9.7115478,6.0870576 z M 11.115655,6.0262101 C 11.214177,5.9945246 11.377989,5.9355381 11.375134,5.9327725 C 11.373978,5.931653 11.032297,6.0495203 11.02981,6.051897 C 11.027,6.054574 11.033492,6.0526334 11.115655,6.0262101 z M 9.5466948,6.0231916 C 9.5466948,6.022499 9.5443908,6.021081 9.5415688,6.0200318 C 9.5386298,6.0189388 9.5373058,6.0194764 9.5384618,6.0212881 C 9.5404018,6.0243244 9.5466948,6.0257809 9.5466948,6.0231916 z M 9.5136698,6.0069347 C 9.5136698,6.0060913 9.5077258,6.0024679 9.5004598,5.9988789 C 9.4931958,5.995294 9.4872508,5.993075 9.4872508,5.9939459 C 9.4872508,5.9948195 9.4928238,5.9983797 9.4996338,6.0018604 C 9.5136468,6.0090165 9.5136698,6.0090234 9.5136698,6.0069347 z M 9.4641318,5.981385 C 9.4641318,5.9805525 9.4596728,5.977641 9.4542258,5.9749105 C 9.4418048,5.9686965 9.4410548,5.9713969 9.4533988,5.9778782 C 9.4637798,5.9833269 9.4641318,5.9834421 9.4641318,5.981385 z M 9.4145948,5.9558037 C 9.4145948,5.9549617 9.4086498,5.9513356 9.4013858,5.9477507 C 9.3941198,5.9441617 9.3881758,5.9419427 9.3881758,5.9428136 C 9.3881758,5.9436872 9.3937488,5.9472474 9.4005588,5.9507294 C 9.4145718,5.9578856 9.4145948,5.9578952 9.4145948,5.9558037 z M 9.3650568,5.9302533 C 9.3650568,5.929421 9.3605978,5.9265086 9.3551508,5.9237828 C 9.3427298,5.9175676 9.3419758,5.9202642 9.3543238,5.9267467 C 9.3647008,5.9321939 9.3650568,5.9323131 9.3650568,5.9302533 z M 7.517899,7.397223 C 7.5106562,7.3935156 7.5025068,7.3886448 7.4997826,7.386399 C 7.4970569,7.3841544 7.4785157,7.3732733 7.4585775,7.3622139 C 7.4386432,7.3511533 7.4007457,7.3284596 7.3743653,7.3117773 C 7.2993883,7.2643682 7.1597368,7.1982082 7.0390773,7.1529385 L 6.9400023,7.1157682 L 6.8227611,7.090751 C 6.7186755,7.0685431 6.6982971,7.0651682 6.6411233,7.0606711 C 6.5305989,7.0519819 6.4814026,7.0535671 6.3092193,7.0713865 L 6.1573026,7.0871111 L 5.9888748,7.124398 L 5.8204416,7.1616882 L 5.620102,7.2299762 C 5.4433327,7.2902276 5.418254,7.2979944 5.4069782,7.2959876 C 5.3918736,7.293295 5.3322161,7.2527933 5.3269035,7.2416299 C 5.3223863,7.2321293 5.32241,7.2162688 5.3269455,7.2148059 C 5.3327708,7.2129271 5.9106979,5.2747038 5.9068751,5.2698626 C 5.9003983,5.2616657 5.920661,5.2521319 6.0417151,5.2064451 C 6.116136,5.1783548 6.230055,5.1401598 6.2976596,5.1206291 C 6.3185471,5.1145956 6.4181195,5.0910977 6.5189291,5.0684119 L 6.7022198,5.027161 L 6.8609303,5.013583 L 7.0196399,5.0000006 L 7.15816,5.0085937 L 7.2966745,5.0171865 L 7.4271257,5.0457583 C 7.4988747,5.0614707 7.5716957,5.0787937 7.5889512,5.0842535 C 7.7143338,5.1239144 7.8501348,5.1860177 7.9918588,5.2685023 C 8.0713208,5.3147537 8.1797078,5.383957 8.1835438,5.3908904 C 8.1885848,5.4000069 8.1876278,5.4051799 8.1702998,5.4625467 C 8.1612748,5.4924291 8.0863978,5.7426541 8.0039048,6.0186083 C 7.9214098,6.2945602 7.7978148,6.7080101 7.7292468,6.9373842 C 7.660678,7.1667602 7.6017432,7.3583247 7.5982831,7.363087 C 7.5899198,7.3746036 7.5465443,7.4039647 7.537898,7.4039647 C 7.5341347,7.4039647 7.525137,7.4009316 7.517899,7.397223 z"
       id="path31583"
       sodipodi:nodetypes="cccsssssssssscccsscccccccccsssssssscccssccssccssccssccssccssccssccssccssccssccssccssccsssccssccsssccssccssscccscccccsssssscccccccssssssssc" />
  </g>
</svg>
