/* XPM */
static char * hide_prelight_xpm[] = {
"20 25 91 1",
" 	c None",
".	c #464139",
"+	c #78736B",
"@	c #59544C",
"#	c #58534B",
"$	c #57524A",
"%	c #565149",
"&	c #646058",
"*	c #918E8A",
"=	c #BBBAB7",
"-	c #CECECC",
";	c #635F58",
">	c #59544D",
",	c #A3A19E",
"'	c #E2E2E2",
")	c #E6E6E6",
"!	c #DCDCDB",
"~	c #A3A19D",
"{	c #58544C",
"]	c #555048",
"^	c #5A554E",
"/	c #C2C1BF",
"(	c #DEDEDD",
"_	c #9A9793",
":	c #5E5952",
"<	c #5F5A52",
"[	c #9A9894",
"}	c #DFDFDF",
"|	c #5A554D",
"1	c #544F47",
"2	c #ACAAA7",
"3	c #D5D5D4",
"4	c #6E6A63",
"5	c #6D6963",
"6	c #D6D6D5",
"7	c #AAA8A5",
"8	c #534E46",
"9	c #E4E4E4",
"0	c #E1E1E1",
"a	c #6F6B65",
"b	c #706C66",
"c	c #6C6861",
"d	c #524D45",
"e	c #B0AEAB",
"f	c #ADABA8",
"g	c #AEACA9",
"h	c #DDDDDC",
"i	c #7E7B75",
"j	c #807D77",
"k	c #DCDBDB",
"l	c #514C44",
"m	c #6B6760",
"n	c #504B43",
"o	c #6A6660",
"p	c #6A665F",
"q	c #4F4A42",
"r	c #7C7973",
"s	c #B9B8B5",
"t	c #BEBCBA",
"u	c #7E7B76",
"v	c #DBDADA",
"w	c #4E4941",
"x	c #B9B7B5",
"y	c #B5B3B0",
"z	c #69655E",
"A	c #6C6962",
"B	c #6E6A64",
"C	c #68645D",
"D	c #4D4840",
"E	c #A8A6A2",
"F	c #68645E",
"G	c #A7A5A2",
"H	c #4C473F",
"I	c #504B44",
"J	c #BFBEBC",
"K	c #DFDFDE",
"L	c #96938F",
"M	c #57524B",
"N	c #979591",
"O	c #4B463E",
"P	c #9E9C98",
"Q	c #DBDBDA",
"R	c #E0E0E0",
"S	c #4A453D",
"T	c #58534C",
"U	c #898681",
"V	c #B7B6B3",
"W	c #CCCBCA",
"X	c #49443C",
"Y	c #48433B",
"Z	c #47423A",
"....................",
"++++++++++++++++++++",
"@@@@@@@@@@@@@@@@@@@@",
"####################",
"$$$$$$$$$$$$$$$$$$$$",
"%%%%%%&*=--=*;%%%%%%",
"%%%%>,'))!!))'~{%%%%",
"]]]^/)(_:]]<[})/|]]]",
"1112)3411111156)7111",
"88590a88888888b'9c88",
"dde)fddddddddddg)edd",
"ddh)iddddddddddj)kdd",
"ll))mllllllllllm))ll",
"nn))onnnnnnnnnnp))nn",
"qq!)rqs))))))tqu)vqq",
"wwg)2wx))))))yw2)gww",
"wwz90AwwwwwwwwB'9Cww",
"DDDE)3FDDDDDDz3)GDDD",
"HHHIJ)KLMHHMN})JqHHH",
"OOOOwP0))QQ))RPwOOOO",
"SSSSSSTUVWWVUTSSSSSS",
"SSSSSSSSSSSSSSSSSSSS",
"XXXXXXXXXXXXXXXXXXXX",
"YYYYYYYYYYYYYYYYYYYY",
"ZZZZZZZZZZZZZZZZZZZZ"};
