/* XPM */
static char * maximize_prelight_xpm[] = {
"20 25 94 2",
"  	c None",
". 	c #464139",
"+ 	c #78736B",
"@ 	c #59544C",
"# 	c #58534B",
"$ 	c #57524A",
"% 	c #565149",
"& 	c #646058",
"* 	c #918E8A",
"= 	c #BBBAB7",
"- 	c #CECECC",
"; 	c #635F58",
"> 	c #59544D",
", 	c #A3A19E",
"' 	c #E2E2E2",
") 	c #E6E6E6",
"! 	c #DCDCDB",
"~ 	c #A3A19D",
"{ 	c #58544C",
"] 	c #555048",
"^ 	c #5A554E",
"/ 	c #C2C1BF",
"( 	c #DEDEDD",
"_ 	c #9A9793",
": 	c #5E5952",
"< 	c #5F5A52",
"[ 	c #9A9894",
"} 	c #DFDFDF",
"| 	c #5A554D",
"1 	c #544F47",
"2 	c #ACAAA7",
"3 	c #D5D5D4",
"4 	c #6E6A63",
"5 	c #6D6963",
"6 	c #D6D6D5",
"7 	c #AAA8A5",
"8 	c #534E46",
"9 	c #E4E4E4",
"0 	c #E1E1E1",
"a 	c #6F6B65",
"b 	c #BAB9B6",
"c 	c #706C66",
"d 	c #6C6861",
"e 	c #524D45",
"f 	c #B0AEAB",
"g 	c #ADABA8",
"h 	c #AEACA9",
"i 	c #DDDDDC",
"j 	c #7E7B75",
"k 	c #807D77",
"l 	c #DCDBDB",
"m 	c #514C44",
"n 	c #6B6760",
"o 	c #BAB8B6",
"p 	c #BEBDBB",
"q 	c #504B43",
"r 	c #6A6660",
"s 	c #B9B8B6",
"t 	c #B5B4B1",
"u 	c #6A665F",
"v 	c #4F4A42",
"w 	c #7C7973",
"x 	c #7E7B76",
"y 	c #DBDADA",
"z 	c #4E4941",
"A 	c #E3E2E2",
"B 	c #69655E",
"C 	c #6C6962",
"D 	c #B4B2B0",
"E 	c #6E6A64",
"F 	c #68645D",
"G 	c #4D4840",
"H 	c #A8A6A2",
"I 	c #68645E",
"J 	c #A7A5A2",
"K 	c #4C473F",
"L 	c #504B44",
"M 	c #BFBEBC",
"N 	c #DFDFDE",
"O 	c #96938F",
"P 	c #57524B",
"Q 	c #979591",
"R 	c #4B463E",
"S 	c #9E9C98",
"T 	c #DBDBDA",
"U 	c #E0E0E0",
"V 	c #4A453D",
"W 	c #58534C",
"X 	c #898681",
"Y 	c #B7B6B3",
"Z 	c #CCCBCA",
"` 	c #49443C",
" .	c #48433B",
"..	c #47423A",
". . . . . . . . . . . . . . . . . . . . ",
"+ + + + + + + + + + + + + + + + + + + + ",
"@ @ @ @ @ @ @ @ @ @ @ @ @ @ @ @ @ @ @ @ ",
"# # # # # # # # # # # # # # # # # # # # ",
"$ $ $ $ $ $ $ $ $ $ $ $ $ $ $ $ $ $ $ $ ",
"% % % % % % & * = - - = * ; % % % % % % ",
"% % % % > , ' ) ) ! ! ) ) ' ~ { % % % % ",
"] ] ] ^ / ) ( _ : ] ] < [ } ) / | ] ] ] ",
"1 1 1 2 ) 3 4 1 1 1 1 1 1 5 6 ) 7 1 1 1 ",
"8 8 5 9 0 a 8 8 8 b b 8 8 8 c ' 9 d 8 8 ",
"e e f ) g e e e e ) ) e e e e h ) f e e ",
"e e i ) j e e e e ) ) e e e e k ) l e e ",
"m m ) ) n m o ) ) ) ) ) ) p m n ) ) m m ",
"q q ) ) r q s ) ) ) ) ) ) t q u ) ) q q ",
"v v ! ) w v v v v ) ) v v v v x ) y v v ",
"z z h ) 2 z z z z A ) m z z z 2 ) h z z ",
"z z B 9 0 C z z z D p z z z E ' 9 F z z ",
"G G G H ) 3 I G G G G G G B 3 ) J G G G ",
"K K K L M ) N O P K K P Q } ) M v K K K ",
"R R R R z S 0 ) ) T T ) ) U S z R R R R ",
"V V V V V V W X Y Z Z Y X W V V V V V V ",
"V V V V V V V V V V V V V V V V V V V V ",
"` ` ` ` ` ` ` ` ` ` ` ` ` ` ` ` ` ` ` ` ",
" . . . . . . . . . . . . . . . . . . . .",
"........................................"};
