/* XPM */
static char * hide_inactive_xpm[] = {
"20 25 27 1",
" 	c None",
".	c #464139",
"+	c #6E6961",
"@	c #59544C",
"#	c #58534B",
"$	c #57524A",
"%	c #565149",
"&	c #555048",
"*	c #544F47",
"=	c #534E46",
"-	c #524D45",
";	c #514C44",
">	c #504B43",
",	c #4F4A42",
"'	c #838280",
")	c #9B9B9B",
"!	c #878683",
"~	c #4E4941",
"{	c #83827F",
"]	c #82807E",
"^	c #4D4840",
"/	c #4C473F",
"(	c #4B463E",
"_	c #4A453D",
":	c #49443C",
"<	c #48433B",
"[	c #47423A",
"....................",
"++++++++++++++++++++",
"@@@@@@@@@@@@@@@@@@@@",
"####################",
"$$$$$$$$$$$$$$$$$$$$",
"%%%%%%%%%%%%%%%%%%%%",
"%%%%%%%%%%%%%%%%%%%%",
"&&&&&&&&&&&&&&&&&&&&",
"********************",
"====================",
"--------------------",
"--------------------",
";;;;;;;;;;;;;;;;;;;;",
">>>>>>>>>>>>>>>>>>>>",
",,,,,,'))))))!,,,,,,",
"~~~~~~{))))))]~~~~~~",
"~~~~~~~~~~~~~~~~~~~~",
"^^^^^^^^^^^^^^^^^^^^",
"////////////////////",
"((((((((((((((((((((",
"____________________",
"____________________",
"::::::::::::::::::::",
"<<<<<<<<<<<<<<<<<<<<",
"[[[[[[[[[[[[[[[[[[[["};
