/* XPM */
static char * maximize_inactive_xpm[] = {
"20 25 31 1",
" 	c None",
".	c #464139",
"+	c #6E6961",
"@	c #59544C",
"#	c #58534B",
"$	c #57524A",
"%	c #565149",
"&	c #555048",
"*	c #544F47",
"=	c #534E46",
"-	c #858381",
";	c #524D45",
">	c #9B9B9B",
",	c #514C44",
"'	c #848380",
")	c #878684",
"!	c #504B43",
"~	c #848280",
"{	c #82817E",
"]	c #4F4A42",
"^	c #4E4941",
"/	c #999999",
"(	c #82807E",
"_	c #868583",
":	c #4D4840",
"<	c #4C473F",
"[	c #4B463E",
"}	c #4A453D",
"|	c #49443C",
"1	c #48433B",
"2	c #47423A",
"....................",
"++++++++++++++++++++",
"@@@@@@@@@@@@@@@@@@@@",
"####################",
"$$$$$$$$$$$$$$$$$$$$",
"%%%%%%%%%%%%%%%%%%%%",
"%%%%%%%%%%%%%%%%%%%%",
"&&&&&&&&&&&&&&&&&&&&",
"********************",
"=========--=========",
";;;;;;;;;>>;;;;;;;;;",
";;;;;;;;;>>;;;;;;;;;",
",,,,,,'>>>>>>),,,,,,",
"!!!!!!~>>>>>>{!!!!!!",
"]]]]]]]]]>>]]]]]]]]]",
"^^^^^^^^^/>]^^^^^^^^",
"^^^^^^^^^(_^^^^^^^^^",
"::::::::::::::::::::",
"<<<<<<<<<<<<<<<<<<<<",
"[[[[[[[[[[[[[[[[[[[[",
"}}}}}}}}}}}}}}}}}}}}",
"}}}}}}}}}}}}}}}}}}}}",
"||||||||||||||||||||",
"11111111111111111111",
"22222222222222222222"};
