<?xml version="1.0" encoding="UTF-8" standalone="no"?>
<!-- Created with Inkscape (http://www.inkscape.org/) -->
<svg
   xmlns:dc="http://purl.org/dc/elements/1.1/"
   xmlns:cc="http://creativecommons.org/ns#"
   xmlns:rdf="http://www.w3.org/1999/02/22-rdf-syntax-ns#"
   xmlns:svg="http://www.w3.org/2000/svg"
   xmlns="http://www.w3.org/2000/svg"
   xmlns:xlink="http://www.w3.org/1999/xlink"
   xmlns:sodipodi="http://sodipodi.sourceforge.net/DTD/sodipodi-0.dtd"
   xmlns:inkscape="http://www.inkscape.org/namespaces/inkscape"
   width="48px"
   height="48px"
   id="svg7555"
   sodipodi:version="0.32"
   inkscape:version="0.46"
   sodipodi:docname="drawing-3.svg"
   inkscape:output_extension="org.inkscape.output.svg.inkscape">
  <defs
     id="defs7557">
    <linearGradient
       inkscape:collect="always"
       id="linearGradient7668">
      <stop
         style="stop-color:#7ba5d3;stop-opacity:1"
         offset="0"
         id="stop7670" />
      <stop
         style="stop-color:#3569a0;stop-opacity:1"
         offset="1"
         id="stop7672" />
    </linearGradient>
    <linearGradient
       inkscape:collect="always"
       xlink:href="#linearGradient7668"
       id="linearGradient7674"
       x1="20.142857"
       y1="14.785715"
       x2="38.428574"
       y2="37"
       gradientUnits="userSpaceOnUse"
       gradientTransform="translate(-3.9795993e-4,0)" />
  </defs>
  <sodipodi:namedview
     id="base"
     pagecolor="#ffffff"
     bordercolor="#666666"
     borderopacity="1.0"
     inkscape:pageopacity="0.0"
     inkscape:pageshadow="2"
     inkscape:zoom="7"
     inkscape:cx="24"
     inkscape:cy="24"
     inkscape:current-layer="layer1"
     showgrid="true"
     inkscape:grid-bbox="true"
     inkscape:document-units="px"
     inkscape:window-width="641"
     inkscape:window-height="690"
     inkscape:window-x="0"
     inkscape:window-y="331" />
  <metadata
     id="metadata7560">
    <rdf:RDF>
      <cc:Work
         rdf:about="">
        <dc:format>image/svg+xml</dc:format>
        <dc:type
           rdf:resource="http://purl.org/dc/dcmitype/StillImage" />
      </cc:Work>
    </rdf:RDF>
  </metadata>
  <g
     id="layer1"
     inkscape:label="Layer 1"
     inkscape:groupmode="layer">
    <path
       style="fill:url(#linearGradient7674);fill-opacity:1;fill-rule:evenodd;stroke:#1a3c6d;stroke-width:1px;stroke-linecap:round;stroke-linejoin:round;stroke-opacity:1"
       d="M 4.5710306,41.5 C 4.5472209,32.02381 18.405984,4.64389 24.856744,4.5 C 28.082722,4.428041 32.916056,10.487565 36.981585,18.321031 C 41.047115,26.154497 44.34484,35.761904 44.499602,42.785714 C 44.499602,42.785714 28.892459,12.625001 24.999602,12.535715 C 21.035316,12.446429 10.275269,33.785303 11.555186,36.162292 C 12.805186,38.483721 35.999602,31 35.999602,31 C 35.499602,31.761905 20.356745,41.666667 8.9996016,44 C 7.2853166,43.952381 4.7138878,43.97619 4.5710306,41.5 z"
       id="path5556"
       sodipodi:nodetypes="czsczzccc" />
    <path
       style="opacity:0.5;fill:none;fill-opacity:0.75;fill-rule:evenodd;stroke:#eeeeec;stroke-width:0.9999997px;stroke-linecap:butt;stroke-linejoin:miter;stroke-opacity:1"
       d="M 5.60677,41.131753 C 6.0126814,32.223922 18.666329,5.6369478 24.805506,5.500603 C 30.945823,5.364233 40.776437,26.289082 42.785296,37.385758 C 42.785296,37.385758 29.467719,11.441908 24.941464,11.500162 C 20.379495,11.558415 8.5608736,34.018221 10.644017,36.727584 C 12.70986,39.414447 28.93763,34.418631 28.93763,34.418631 C 28.068924,35.033438 18.808579,40.396822 9.9642906,42.786367 C 7.8685216,42.919816 5.7427268,43.478091 5.60677,41.131753 z"
       id="path6760"
       sodipodi:nodetypes="czczzccc" />
  </g>
</svg>
