<?xml version="1.0" encoding="UTF-8" standalone="no"?>
<!-- Created with Inkscape (http://www.inkscape.org/) -->
<svg
   xmlns:dc="http://purl.org/dc/elements/1.1/"
   xmlns:cc="http://creativecommons.org/ns#"
   xmlns:rdf="http://www.w3.org/1999/02/22-rdf-syntax-ns#"
   xmlns:svg="http://www.w3.org/2000/svg"
   xmlns="http://www.w3.org/2000/svg"
   xmlns:xlink="http://www.w3.org/1999/xlink"
   xmlns:sodipodi="http://sodipodi.sourceforge.net/DTD/sodipodi-0.dtd"
   xmlns:inkscape="http://www.inkscape.org/namespaces/inkscape"
   width="48px"
   height="48px"
   id="svg7704"
   sodipodi:version="0.32"
   inkscape:version="0.46"
   sodipodi:docname="drawing-3.svg"
   inkscape:output_extension="org.inkscape.output.svg.inkscape">
  <defs
     id="defs7706">
    <linearGradient
       inkscape:collect="always"
       xlink:href="#linearGradient6100"
       id="linearGradient4452"
       gradientUnits="userSpaceOnUse"
       gradientTransform="matrix(1.4009365,0,0,1.3685027,2.9124313,7.2829649)"
       x1="8.7939825"
       y1="7.4403272"
       x2="15.843031"
       y2="23.693287" />
    <linearGradient
       inkscape:collect="always"
       xlink:href="#linearGradient3147"
       id="linearGradient4450"
       gradientUnits="userSpaceOnUse"
       x1="2.4968669"
       y1="10.856824"
       x2="13.314402"
       y2="23.11368" />
    <linearGradient
       inkscape:collect="always"
       xlink:href="#linearGradient6100"
       id="linearGradient4442"
       gradientUnits="userSpaceOnUse"
       gradientTransform="matrix(1.2268005,0,0,1.1983982,13.528006,1.236588)"
       x1="8.7939825"
       y1="7.4403272"
       x2="11.069962"
       y2="19.728262" />
    <linearGradient
       inkscape:collect="always"
       xlink:href="#linearGradient3147"
       id="linearGradient4440"
       gradientUnits="userSpaceOnUse"
       x1="2.4968669"
       y1="10.856824"
       x2="13.314402"
       y2="23.11368" />
    <linearGradient
       inkscape:collect="always"
       xlink:href="#linearGradient6100"
       id="linearGradient3463"
       gradientUnits="userSpaceOnUse"
       gradientTransform="matrix(1.2268005,0,0,1.1983982,-2.4719932,1.2365874)"
       x1="8.7939825"
       y1="7.4403272"
       x2="15.969215"
       y2="22.401535" />
    <linearGradient
       inkscape:collect="always"
       xlink:href="#linearGradient3147"
       id="linearGradient3461"
       gradientUnits="userSpaceOnUse"
       x1="2.4968669"
       y1="10.856824"
       x2="13.314402"
       y2="23.11368" />
    <linearGradient
       inkscape:collect="always"
       xlink:href="#linearGradient6100"
       id="linearGradient3453"
       gradientUnits="userSpaceOnUse"
       gradientTransform="matrix(1.050602,0,0,1.0262741,22.186407,-2.7865931)"
       x1="8.7939825"
       y1="7.4403272"
       x2="15.052196"
       y2="19.563244" />
    <linearGradient
       inkscape:collect="always"
       xlink:href="#linearGradient3147"
       id="linearGradient3451"
       gradientUnits="userSpaceOnUse"
       x1="2.4968669"
       y1="10.856824"
       x2="13.314402"
       y2="23.11368" />
    <linearGradient
       inkscape:collect="always"
       xlink:href="#linearGradient6100"
       id="linearGradient2474"
       gradientUnits="userSpaceOnUse"
       gradientTransform="matrix(1.050602,0,0,1.0262741,8.1864073,-2.7865931)"
       x1="8.7939825"
       y1="7.4403272"
       x2="15.052196"
       y2="19.563244" />
    <linearGradient
       inkscape:collect="always"
       xlink:href="#linearGradient3147"
       id="linearGradient2472"
       gradientUnits="userSpaceOnUse"
       x1="2.4968669"
       y1="10.856824"
       x2="13.314402"
       y2="23.11368" />
    <linearGradient
       inkscape:collect="always"
       id="linearGradient6100">
      <stop
         style="stop-color:#eeeeec;stop-opacity:1;"
         offset="0"
         id="stop6102" />
      <stop
         style="stop-color:#eeeeec;stop-opacity:0;"
         offset="1"
         id="stop6104" />
    </linearGradient>
    <linearGradient
       inkscape:collect="always"
       xlink:href="#linearGradient6100"
       id="linearGradient2444"
       gradientUnits="userSpaceOnUse"
       gradientTransform="matrix(1.050602,0,0,1.0262741,-5.8135931,-2.7865941)"
       x1="8.7939825"
       y1="7.4403272"
       x2="15.052196"
       y2="20.941252" />
    <linearGradient
       inkscape:collect="always"
       id="linearGradient3147">
      <stop
         style="stop-color:#ffffff;stop-opacity:1;"
         offset="0"
         id="stop3149" />
      <stop
         style="stop-color:#ffffff;stop-opacity:0;"
         offset="1"
         id="stop3151" />
    </linearGradient>
    <linearGradient
       inkscape:collect="always"
       xlink:href="#linearGradient3147"
       id="linearGradient2442"
       gradientUnits="userSpaceOnUse"
       x1="2.4968669"
       y1="10.856824"
       x2="13.314402"
       y2="23.11368" />
    <linearGradient
       inkscape:collect="always"
       id="linearGradient11174">
      <stop
         style="stop-color:#000000;stop-opacity:1;"
         offset="0"
         id="stop11176" />
      <stop
         style="stop-color:#000000;stop-opacity:0;"
         offset="1"
         id="stop11178" />
    </linearGradient>
    <radialGradient
       inkscape:collect="always"
       xlink:href="#linearGradient11174"
       id="radialGradient2440"
       gradientUnits="userSpaceOnUse"
       gradientTransform="matrix(1,0,0,0.5856354,0,5.9823895)"
       cx="10.75"
       cy="14.4375"
       fx="10.75"
       fy="14.4375"
       r="11.3125" />
  </defs>
  <sodipodi:namedview
     id="base"
     pagecolor="#ffffff"
     bordercolor="#666666"
     borderopacity="1.0"
     inkscape:pageopacity="0.0"
     inkscape:pageshadow="2"
     inkscape:zoom="7"
     inkscape:cx="24"
     inkscape:cy="24"
     inkscape:current-layer="layer1"
     showgrid="true"
     inkscape:grid-bbox="true"
     inkscape:document-units="px"
     inkscape:window-width="641"
     inkscape:window-height="690"
     inkscape:window-x="813"
     inkscape:window-y="331" />
  <metadata
     id="metadata7709">
    <rdf:RDF>
      <cc:Work
         rdf:about="">
        <dc:format>image/svg+xml</dc:format>
        <dc:type
           rdf:resource="http://purl.org/dc/dcmitype/StillImage" />
      </cc:Work>
    </rdf:RDF>
  </metadata>
  <g
     id="layer1"
     inkscape:label="Layer 1"
     inkscape:groupmode="layer">
    <g
       id="g2394"
       inkscape:label="Layer 1"
       transform="translate(3.2500003,7.9999982)" />
    <path
       transform="matrix(2.2196531,0,0,2.6938776,0.1387283,-14.392858)"
       d="M 21.5625,14.4375 A 10.8125,6.125 0 1 1 -0.0625,14.4375 A 10.8125,6.125 0 1 1 21.5625,14.4375 z"
       sodipodi:ry="6.125"
       sodipodi:rx="10.8125"
       sodipodi:cy="14.4375"
       sodipodi:cx="10.75"
       id="path10203"
       style="opacity:0.296875;fill:url(#radialGradient2440);fill-opacity:1;stroke:none;stroke-width:1;stroke-miterlimit:4;stroke-dasharray:none;stroke-opacity:1"
       sodipodi:type="arc" />
    <path
       transform="matrix(1.4764513,0,0,1.6240964,2.4200033,-7.0993131)"
       d="M 9.5535717,13.607142 A 4.4196429,4.0178571 0 1 1 0.71428585,13.607142 A 4.4196429,4.0178571 0 1 1 9.5535717,13.607142 z"
       sodipodi:ry="4.0178571"
       sodipodi:rx="4.4196429"
       sodipodi:cy="13.607142"
       sodipodi:cx="5.1339288"
       id="path9097"
       style="opacity:1;fill:#75507b;fill-opacity:1;stroke:#5c3566;stroke-width:0.61299038;stroke-miterlimit:4;stroke-dasharray:none;stroke-opacity:1"
       sodipodi:type="arc" />
    <path
       transform="matrix(1.2501887,0,0,1.3752076,3.5816203,-3.7126471)"
       d="M 9.5535717,13.607142 A 4.4196429,4.0178571 0 1 1 0.71428585,13.607142 A 4.4196429,4.0178571 0 1 1 9.5535717,13.607142 z"
       sodipodi:ry="4.0178571"
       sodipodi:rx="4.4196429"
       sodipodi:cy="13.607142"
       sodipodi:cx="5.1339288"
       id="path9099"
       style="opacity:0.45833333;fill:none;fill-opacity:1;stroke:url(#linearGradient2442);stroke-width:0.72393107;stroke-miterlimit:4;stroke-dasharray:none;stroke-opacity:1"
       sodipodi:type="arc" />
    <path
       sodipodi:nodetypes="cscssc"
       id="path9101"
       d="M 4.1507053,14.888429 C 4.1507053,14.888429 9.2183263,17.30738 10.634281,16.173497 C 12.050235,15.039614 16,15.341982 16,15.341982 C 16,15.341982 15.925478,10.655264 12.795472,9.5969722 C 9.6654693,8.5386831 7.4661423,8.7251191 5.1195163,11.48678 C 3.5309773,13.356268 4.0761803,15.039614 4.1507053,14.888429 z"
       style="opacity:0.43229167;fill:url(#linearGradient2444);fill-opacity:1;fill-rule:evenodd;stroke:none;stroke-width:1px;stroke-linecap:butt;stroke-linejoin:miter;stroke-opacity:1" />
    <path
       transform="matrix(1.4764513,0,0,1.6240964,16.420004,-7.0993121)"
       d="M 9.5535717,13.607142 A 4.4196429,4.0178571 0 1 1 0.71428585,13.607142 A 4.4196429,4.0178571 0 1 1 9.5535717,13.607142 z"
       sodipodi:ry="4.0178571"
       sodipodi:rx="4.4196429"
       sodipodi:cy="13.607142"
       sodipodi:cx="5.1339288"
       id="path2466"
       style="opacity:1;fill:#f57900;fill-opacity:1;stroke:#ce5c00;stroke-width:0.61299038;stroke-miterlimit:4;stroke-dasharray:none;stroke-opacity:1"
       sodipodi:type="arc" />
    <path
       transform="matrix(1.2501887,0,0,1.3752076,17.581621,-3.7126471)"
       d="M 9.5535717,13.607142 A 4.4196429,4.0178571 0 1 1 0.71428585,13.607142 A 4.4196429,4.0178571 0 1 1 9.5535717,13.607142 z"
       sodipodi:ry="4.0178571"
       sodipodi:rx="4.4196429"
       sodipodi:cy="13.607142"
       sodipodi:cx="5.1339288"
       id="path2468"
       style="opacity:0.45833333;fill:none;fill-opacity:1;stroke:url(#linearGradient2472);stroke-width:0.72393107;stroke-miterlimit:4;stroke-dasharray:none;stroke-opacity:1"
       sodipodi:type="arc" />
    <path
       sodipodi:nodetypes="cscssc"
       id="path2470"
       d="M 18.150706,14.888429 C 18.150706,14.888429 23.218327,17.30738 24.634282,16.173497 C 26.050236,15.039614 30.000001,15.341982 30.000001,15.341982 C 30.000001,15.341982 29.925479,10.655264 26.795473,9.5969722 C 23.66547,8.5386831 21.466143,8.7251191 19.119517,11.48678 C 17.530978,13.356268 18.076181,15.039614 18.150706,14.888429 z"
       style="opacity:0.43229167;fill:url(#linearGradient2474);fill-opacity:1;fill-rule:evenodd;stroke:none;stroke-width:1px;stroke-linecap:butt;stroke-linejoin:miter;stroke-opacity:1" />
    <path
       transform="matrix(1.4764513,0,0,1.6240964,30.420004,-7.0993121)"
       d="M 9.5535717,13.607142 A 4.4196429,4.0178571 0 1 1 0.71428585,13.607142 A 4.4196429,4.0178571 0 1 1 9.5535717,13.607142 z"
       sodipodi:ry="4.0178571"
       sodipodi:rx="4.4196429"
       sodipodi:cy="13.607142"
       sodipodi:cx="5.1339288"
       id="path3445"
       style="opacity:1;fill:#73d216;fill-opacity:1;stroke:#4e9a06;stroke-width:0.61299038;stroke-miterlimit:4;stroke-dasharray:none;stroke-opacity:1"
       sodipodi:type="arc" />
    <path
       transform="matrix(1.2501887,0,0,1.3752076,31.581621,-3.7126471)"
       d="M 9.5535717,13.607142 A 4.4196429,4.0178571 0 1 1 0.71428585,13.607142 A 4.4196429,4.0178571 0 1 1 9.5535717,13.607142 z"
       sodipodi:ry="4.0178571"
       sodipodi:rx="4.4196429"
       sodipodi:cy="13.607142"
       sodipodi:cx="5.1339288"
       id="path3447"
       style="opacity:0.45833333;fill:none;fill-opacity:1;stroke:url(#linearGradient3451);stroke-width:0.72393107;stroke-miterlimit:4;stroke-dasharray:none;stroke-opacity:1"
       sodipodi:type="arc" />
    <path
       sodipodi:nodetypes="cscssc"
       id="path3449"
       d="M 32.150706,14.888429 C 32.150706,14.888429 37.218327,17.30738 38.634282,16.173497 C 40.050236,15.039614 44.000001,15.341982 44.000001,15.341982 C 44.000001,15.341982 43.925479,10.655264 40.795473,9.5969722 C 37.66547,8.5386827 35.466143,8.7251187 33.119517,11.48678 C 31.530978,13.356268 32.076181,15.039614 32.150706,14.888429 z"
       style="opacity:0.43229167;fill:url(#linearGradient3453);fill-opacity:1;fill-rule:evenodd;stroke:none;stroke-width:1px;stroke-linecap:butt;stroke-linejoin:miter;stroke-opacity:1" />
    <path
       transform="matrix(1.7027139,0,0,1.8729853,7.2583883,-3.4859801)"
       d="M 9.5535717,13.607142 A 4.4196429,4.0178571 0 1 1 0.71428585,13.607142 A 4.4196429,4.0178571 0 1 1 9.5535717,13.607142 z"
       sodipodi:ry="4.0178571"
       sodipodi:rx="4.4196429"
       sodipodi:cy="13.607142"
       sodipodi:cx="5.1339288"
       id="path3455"
       style="opacity:1;fill:#cc0000;fill-opacity:1;stroke:#a40000;stroke-width:0.53153408;stroke-miterlimit:4;stroke-dasharray:none;stroke-opacity:1"
       sodipodi:type="arc" />
    <path
       transform="matrix(1.4764513,0,0,1.6241043,8.4200043,-9.945215e-2)"
       d="M 9.5535717,13.607142 A 4.4196429,4.0178571 0 1 1 0.71428585,13.607142 A 4.4196429,4.0178571 0 1 1 9.5535717,13.607142 z"
       sodipodi:ry="4.0178571"
       sodipodi:rx="4.4196429"
       sodipodi:cy="13.607142"
       sodipodi:cx="5.1339288"
       id="path3457"
       style="opacity:0.45833333;fill:none;fill-opacity:1;stroke:url(#linearGradient3461);stroke-width:0.61298895;stroke-miterlimit:4;stroke-dasharray:none;stroke-opacity:1"
       sodipodi:type="arc" />
    <path
       sodipodi:nodetypes="cscssc"
       id="path3459"
       d="M 9.1634363,21.876021 C 9.1634363,21.876021 15.080958,24.700673 16.734385,23.376617 C 18.387812,22.052562 23,22.405642 23,22.405642 C 23,22.405642 22.912979,16.932879 19.258034,15.697095 C 15.603092,14.461312 13.034912,14.679017 10.294728,17.903855 C 8.4397723,20.086889 9.0764123,22.052562 9.1634363,21.876021 z"
       style="opacity:0.77604167;fill:url(#linearGradient3463);fill-opacity:1;fill-rule:evenodd;stroke:none;stroke-width:1px;stroke-linecap:butt;stroke-linejoin:miter;stroke-opacity:1" />
    <path
       transform="matrix(1.7027139,0,0,1.8729853,23.258388,-3.4859791)"
       d="M 9.5535717,13.607142 A 4.4196429,4.0178571 0 1 1 0.71428585,13.607142 A 4.4196429,4.0178571 0 1 1 9.5535717,13.607142 z"
       sodipodi:ry="4.0178571"
       sodipodi:rx="4.4196429"
       sodipodi:cy="13.607142"
       sodipodi:cx="5.1339288"
       id="path4434"
       style="opacity:1;fill:#3465a4;fill-opacity:1;stroke:#204a87;stroke-width:0.53153408;stroke-miterlimit:4;stroke-dasharray:none;stroke-opacity:1"
       sodipodi:type="arc" />
    <path
       transform="matrix(1.4764513,0,0,1.6241043,24.420004,-9.945215e-2)"
       d="M 9.5535717,13.607142 A 4.4196429,4.0178571 0 1 1 0.71428585,13.607142 A 4.4196429,4.0178571 0 1 1 9.5535717,13.607142 z"
       sodipodi:ry="4.0178571"
       sodipodi:rx="4.4196429"
       sodipodi:cy="13.607142"
       sodipodi:cx="5.1339288"
       id="path4436"
       style="opacity:0.45833333;fill:none;fill-opacity:1;stroke:url(#linearGradient4440);stroke-width:0.61298895;stroke-miterlimit:4;stroke-dasharray:none;stroke-opacity:1"
       sodipodi:type="arc" />
    <path
       sodipodi:nodetypes="cscssc"
       id="path4438"
       d="M 25.163436,21.876021 C 25.163436,21.876021 31.080958,24.700673 32.734385,23.376617 C 34.387812,22.052562 39,22.405642 39,22.405642 C 39,22.405642 38.912979,16.932879 35.258034,15.697095 C 31.603092,14.461312 29.034912,14.679017 26.294728,17.903855 C 24.439772,20.086889 25.076412,22.052562 25.163436,21.876021 z"
       style="opacity:0.77604167;fill:url(#linearGradient4442);fill-opacity:1;fill-rule:evenodd;stroke:none;stroke-width:1px;stroke-linecap:butt;stroke-linejoin:miter;stroke-opacity:1" />
    <path
       transform="matrix(1.9289765,0,0,2.1218742,14.096772,2.127354)"
       d="M 9.5535717,13.607142 A 4.4196429,4.0178571 0 1 1 0.71428585,13.607142 A 4.4196429,4.0178571 0 1 1 9.5535717,13.607142 z"
       sodipodi:ry="4.0178571"
       sodipodi:rx="4.4196429"
       sodipodi:cy="13.607142"
       sodipodi:cx="5.1339288"
       id="path4444"
       style="opacity:1;fill:#edd400;fill-opacity:1;stroke:#c4a000;stroke-width:0.46918687;stroke-miterlimit:4;stroke-dasharray:none;stroke-opacity:1"
       sodipodi:type="arc" />
    <path
       transform="matrix(1.7027139,0,0,1.8729943,15.258388,5.5138629)"
       d="M 9.5535717,13.607142 A 4.4196429,4.0178571 0 1 1 0.71428585,13.607142 A 4.4196429,4.0178571 0 1 1 9.5535717,13.607142 z"
       sodipodi:ry="4.0178571"
       sodipodi:rx="4.4196429"
       sodipodi:cy="13.607142"
       sodipodi:cx="5.1339288"
       id="path4446"
       style="opacity:0.45833333;fill:none;fill-opacity:1;stroke:url(#linearGradient4450);stroke-width:0.53153282;stroke-miterlimit:4;stroke-dasharray:none;stroke-opacity:1"
       sodipodi:type="arc" />
    <path
       sodipodi:nodetypes="cscssc"
       id="path4448"
       d="M 16.19943,30.852027 C 16.19943,30.852027 22.956904,34.07762 24.845024,32.565623 C 26.733143,31.053627 32,31.456824 32,31.456824 C 32,31.456824 31.900627,25.207239 27.726887,23.796045 C 23.553151,22.384851 20.620436,22.633458 17.491301,26.316039 C 15.373047,28.80894 16.100053,31.053627 16.19943,30.852027 z"
       style="opacity:1;fill:url(#linearGradient4452);fill-opacity:1;fill-rule:evenodd;stroke:none;stroke-width:1px;stroke-linecap:butt;stroke-linejoin:miter;stroke-opacity:1" />
  </g>
</svg>
