<?xml version="1.0" encoding="UTF-8" standalone="no"?>
<!-- Created with Inkscape (http://www.inkscape.org/) -->
<svg
   xmlns:dc="http://purl.org/dc/elements/1.1/"
   xmlns:cc="http://creativecommons.org/ns#"
   xmlns:rdf="http://www.w3.org/1999/02/22-rdf-syntax-ns#"
   xmlns:svg="http://www.w3.org/2000/svg"
   xmlns="http://www.w3.org/2000/svg"
   xmlns:sodipodi="http://sodipodi.sourceforge.net/DTD/sodipodi-0.dtd"
   xmlns:inkscape="http://www.inkscape.org/namespaces/inkscape"
   version="1.0"
   width="1000"
   height="1000"
   viewBox="0 0 321 368"
   id="svg1468"
   xml:space="preserve"
   sodipodi:version="0.32"
   inkscape:version="0.46"
   sodipodi:docname="Palette.svg"
   inkscape:output_extension="org.inkscape.output.svg.inkscape"><metadata
   id="metadata108"><rdf:RDF><cc:Work
       rdf:about=""><dc:format>image/svg+xml</dc:format><dc:type
         rdf:resource="http://purl.org/dc/dcmitype/StillImage" /></cc:Work></rdf:RDF></metadata><sodipodi:namedview
   inkscape:window-height="690"
   inkscape:window-width="1340"
   inkscape:pageshadow="2"
   inkscape:pageopacity="0.0"
   guidetolerance="10.0"
   gridtolerance="10.0"
   objecttolerance="10.0"
   borderopacity="1.0"
   bordercolor="#666666"
   pagecolor="#ffffff"
   id="base"
   showgrid="false"
   inkscape:zoom="0.988"
   inkscape:cx="467.72682"
   inkscape:cy="689.28108"
   inkscape:window-x="172"
   inkscape:window-y="146"
   inkscape:current-layer="svg1468" />






	<style
   type="text/css"
   id="style1470" />



	<defs
   id="defs1472" />



	<path
   d="M 164.5164,135.3145 L 176.6932,135.3145 C 179.6698,135.3145 182.0828,137.7295 182.0828,140.7071 L 182.0828,152.8829 C 182.0828,155.8604 179.6697,158.2735 176.6932,158.2735 L 164.5164,158.2735 C 161.5398,158.2735 159.1248,155.8604 159.1248,152.8829 L 159.1248,140.7071 C 159.1248,137.7295 161.5398,135.3145 164.5164,135.3145 z"
   id="rect139_1_"
   style="fill:#a7cc5c;fill-opacity:1" /><path
   d="M 194.1248,135.3145 L 206.2996,135.3145 C 209.2781,135.3145 211.6912,137.7295 211.6912,140.7071 L 211.6912,152.8829 C 211.6912,155.8604 209.2781,158.2735 206.2996,158.2735 L 194.1248,158.2735 C 191.1463,158.2735 188.7322,155.8604 188.7322,152.8829 L 188.7322,140.7071 C 188.7322,137.7295 191.1462,135.3145 194.1248,135.3145 z"
   id="rect145_1_"
   style="fill:#789e2d;fill-opacity:1" /><path
   d="M 223.7312,135.3145 L 235.907,135.3145 C 238.8845,135.3145 241.2976,137.7295 241.2976,140.7071 L 241.2976,152.8829 C 241.2976,155.8604 238.8845,158.2735 235.907,158.2735 L 223.7312,158.2735 C 220.7537,158.2735 218.3396,155.8604 218.3396,152.8829 L 218.3396,140.7071 C 218.3396,137.7295 220.7537,135.3145 223.7312,135.3145 z"
   id="rect157_1_"
   style="fill:#42770c;fill-opacity:1" /><path
   d="M 164.5164,76.099602 L 176.6932,76.099602 C 179.6698,76.099602 182.0828,78.514602 182.0828,81.492202 L 182.0828,93.668002 C 182.0828,96.645502 179.6697,99.058602 176.6932,99.058602 L 164.5164,99.058602 C 161.5398,99.058602 159.1248,96.645502 159.1248,93.668002 L 159.1248,81.492202 C 159.1248,78.514702 161.5398,76.099602 164.5164,76.099602 z"
   id="rect140_1_"
   style="fill:#faa546" /><path
   d="M 194.1248,76.099602 L 206.2996,76.099602 C 209.2781,76.099602 211.6912,78.514602 211.6912,81.492202 L 211.6912,93.668002 C 211.6912,96.645502 209.2781,99.058602 206.2996,99.058602 L 194.1248,99.058602 C 191.1463,99.058602 188.7322,96.645502 188.7322,93.668002 L 188.7322,81.492202 C 188.7322,78.514702 191.1462,76.099602 194.1248,76.099602 z"
   id="rect146_1_"
   style="fill:#e07a1f" /><path
   d="M 223.7312,76.099602 L 235.907,76.099602 C 238.8845,76.099602 241.2976,78.514602 241.2976,81.492202 L 241.2976,93.668002 C 241.2976,96.645502 238.8845,99.058602 235.907,99.058602 L 223.7312,99.058602 C 220.7537,99.058602 218.3396,96.645502 218.3396,93.668002 L 218.3396,81.492202 C 218.3396,78.514702 220.7537,76.099602 223.7312,76.099602 z"
   id="rect158_1_"
   style="fill:#ce5c00" /><path
   d="M 164.5164,164.9238 L 176.6932,164.9238 C 179.6698,164.9238 182.0828,167.3369 182.0828,170.3144 L 182.0828,182.4892 C 182.0828,185.4677 179.6697,187.8818 176.6932,187.8818 L 164.5164,187.8818 C 161.5398,187.8818 159.1248,185.4677 159.1248,182.4892 L 159.1248,170.3144 C 159.1248,167.3369 161.5398,164.9238 164.5164,164.9238 z"
   id="rect141_3_"
   style="fill:#729fcf" /><path
   d="M 194.1248,164.9238 L 206.2996,164.9238 C 209.2781,164.9238 211.6912,167.3369 211.6912,170.3144 L 211.6912,182.4892 C 211.6912,185.4677 209.2781,187.8818 206.2996,187.8818 L 194.1248,187.8818 C 191.1463,187.8818 188.7322,185.4677 188.7322,182.4892 L 188.7322,170.3144 C 188.7322,167.3369 191.1462,164.9238 194.1248,164.9238 z"
   id="rect147_3_"
   style="fill:#3465a4" /><path
   d="M 223.7312,164.9238 L 235.907,164.9238 C 238.8845,164.9238 241.2976,167.3369 241.2976,170.3144 L 241.2976,182.4892 C 241.2976,185.4677 238.8845,187.8818 235.907,187.8818 L 223.7312,187.8818 C 220.7537,187.8818 218.3396,185.4677 218.3396,182.4892 L 218.3396,170.3144 C 218.3396,167.3369 220.7537,164.9238 223.7312,164.9238 z"
   id="rect159_3_"
   style="fill:#204a87" /><path
   d="M 164.5164,268.9414 L 176.6932,268.9414 C 179.6698,268.9414 182.0828,271.3545 182.0828,274.333 L 182.0828,286.5098 C 182.0828,289.4864 179.6697,291.9014 176.6932,291.9014 L 164.5164,291.9014 C 161.5398,291.9014 159.1248,289.4864 159.1248,286.5098 L 159.1248,274.333 C 159.1248,271.3545 161.5398,268.9414 164.5164,268.9414 z"
   id="rect168_1_"
   style="fill:#eeeeec" /><path
   d="M 194.1248,268.9414 L 206.2996,268.9414 C 209.2781,268.9414 211.6912,271.3545 211.6912,274.333 L 211.6912,286.5098 C 211.6912,289.4864 209.2781,291.9014 206.2996,291.9014 L 194.1248,291.9014 C 191.1463,291.9014 188.7322,289.4864 188.7322,286.5098 L 188.7322,274.333 C 188.7322,271.3545 191.1462,268.9414 194.1248,268.9414 z"
   id="rect169_1_"
   style="fill:#d3d7cf" /><path
   d="M 223.7312,268.9414 L 235.907,268.9414 C 238.8845,268.9414 241.2976,271.3545 241.2976,274.333 L 241.2976,286.5098 C 241.2976,289.4864 238.8845,291.9014 235.907,291.9014 L 223.7312,291.9014 C 220.7537,291.9014 218.3396,289.4864 218.3396,286.5098 L 218.3396,274.333 C 218.3396,271.3545 220.7537,268.9414 223.7312,268.9414 z"
   id="rect181_1_"
   style="fill:#babdb6" /><path
   d="M 194.1248,298.5488 L 206.2996,298.5488 C 209.2781,298.5488 211.6912,300.9648 211.6912,303.9404 L 211.6912,316.1162 C 211.6912,319.0947 209.2781,321.5068 206.2996,321.5068 L 194.1248,321.5068 C 191.1463,321.5068 188.7322,319.0947 188.7322,316.1162 L 188.7322,303.9404 C 188.7322,300.9648 191.1462,298.5488 194.1248,298.5488 z"
   id="rect171_1_"
   style="fill:#555753" /><path
   d="M 223.7312,298.5488 L 235.907,298.5488 C 238.8845,298.5488 241.2976,300.9648 241.2976,303.9404 L 241.2976,316.1162 C 241.2976,319.0947 238.8845,321.5068 235.907,321.5068 L 223.7312,321.5068 C 220.7537,321.5068 218.3396,319.0947 218.3396,316.1162 L 218.3396,303.9404 C 218.3396,300.9648 220.7537,298.5488 223.7312,298.5488 z"
   id="rect183_1_"
   style="fill:#2e3436" /><path
   d="M 164.5164,298.5488 L 176.6932,298.5488 C 179.6698,298.5488 182.0828,300.9648 182.0828,303.9404 L 182.0828,316.1162 C 182.0828,319.0947 179.6697,321.5068 176.6932,321.5068 L 164.5164,321.5068 C 161.5398,321.5068 159.1248,319.0947 159.1248,316.1162 L 159.1248,303.9404 C 159.1248,300.9648 161.5398,298.5488 164.5164,298.5488 z"
   id="rect193_1_"
   style="fill:#888a85" /><path
   d="M 164.5164,46.493202 L 176.6932,46.493202 C 179.6698,46.493202 182.0828,48.906302 182.0828,51.883802 L 182.0828,64.059602 C 182.0828,67.037102 179.6697,69.451202 176.6932,69.451202 L 164.5164,69.451202 C 161.5398,69.451202 159.1248,67.037102 159.1248,64.059602 L 159.1248,51.883802 C 159.1248,48.906302 161.5398,46.493202 164.5164,46.493202 z"
   id="rect301_1_"
   style="fill:#fce94f" /><path
   d="M 194.1248,46.493202 L 206.2996,46.493202 C 209.2781,46.493202 211.6912,48.906302 211.6912,51.883802 L 211.6912,64.059602 C 211.6912,67.037102 209.2781,69.451202 206.2996,69.451202 L 194.1248,69.451202 C 191.1463,69.451202 188.7322,67.037102 188.7322,64.059602 L 188.7322,51.883802 C 188.7322,48.906302 191.1462,46.493202 194.1248,46.493202 z"
   id="rect302_1_"
   style="fill:#edd400" /><path
   d="M 223.7312,46.493202 L 235.907,46.493202 C 238.8845,46.493202 241.2976,48.906302 241.2976,51.883802 L 241.2976,64.059602 C 241.2976,67.037102 238.8845,69.451202 235.907,69.451202 L 223.7312,69.451202 C 220.7537,69.451202 218.3396,67.037102 218.3396,64.059602 L 218.3396,51.883802 C 218.3396,48.906302 220.7537,46.493202 223.7312,46.493202 z"
   id="rect303_1_"
   style="fill:#c4a000" /><path
   d="M 164.5164,105.708 L 176.6932,105.708 C 179.6698,105.708 182.0828,108.1211 182.0828,111.0996 L 182.0828,123.2744 C 182.0828,126.2519 179.6697,128.666 176.6932,128.666 L 164.5164,128.666 C 161.5398,128.666 159.1248,126.2519 159.1248,123.2744 L 159.1248,111.0996 C 159.1248,108.1211 161.5398,105.708 164.5164,105.708 z"
   id="rect305_1_"
   style="fill:#b49372" /><path
   d="M 194.1248,105.708 L 206.2996,105.708 C 209.2781,105.708 211.6912,108.1211 211.6912,111.0996 L 211.6912,123.2744 C 211.6912,126.2519 209.2781,128.666 206.2996,128.666 L 194.1248,128.666 C 191.1463,128.666 188.7322,126.2519 188.7322,123.2744 L 188.7322,111.0996 C 188.7322,108.1211 191.1462,105.708 194.1248,105.708 z"
   id="rect306_1_"
   style="fill:#906e4c" /><path
   d="M 223.7312,105.708 L 235.907,105.708 C 238.8845,105.708 241.2976,108.1211 241.2976,111.0996 L 241.2976,123.2744 C 241.2976,126.2519 238.8845,128.666 235.907,128.666 L 223.7312,128.666 C 220.7537,128.666 218.3396,126.2519 218.3396,123.2744 L 218.3396,111.0996 C 218.3396,108.1211 220.7537,105.708 223.7312,105.708 z"
   id="rect307_1_"
   style="fill:#745536" /><path
   d="M 164.5164,194.9238 L 176.6932,194.9238 C 179.6698,194.9238 182.0828,197.3369 182.0828,200.3144 L 182.0828,212.4892 C 182.0828,215.4677 179.6697,217.8818 176.6932,217.8818 L 164.5164,217.8818 C 161.5398,217.8818 159.1248,215.4677 159.1248,212.4892 L 159.1248,200.3144 C 159.1248,197.3369 161.5398,194.9238 164.5164,194.9238 z"
   id="rect141_2_"
   style="fill:#ad7fa8" /><path
   d="M 194.1248,194.9238 L 206.2996,194.9238 C 209.2781,194.9238 211.6912,197.3369 211.6912,200.3144 L 211.6912,212.4892 C 211.6912,215.4677 209.2781,217.8818 206.2996,217.8818 L 194.1248,217.8818 C 191.1463,217.8818 188.7322,215.4677 188.7322,212.4892 L 188.7322,200.3144 C 188.7322,197.3369 191.1462,194.9238 194.1248,194.9238 z"
   id="rect147_2_"
   style="fill:#75507b" /><path
   d="M 223.7312,194.9238 L 235.907,194.9238 C 238.8845,194.9238 241.2976,197.3369 241.2976,200.3144 L 241.2976,212.4892 C 241.2976,215.4677 238.8845,217.8818 235.907,217.8818 L 223.7312,217.8818 C 220.7537,217.8818 218.3396,215.4677 218.3396,212.4892 L 218.3396,200.3144 C 218.3396,197.3369 220.7537,194.9238 223.7312,194.9238 z"
   id="rect159_2_"
   style="fill:#5c3566" /><text
   x="142.30701"
   y="178.882"
   id="text1529"
   style="fill:#a7a7a7;fill-opacity:1"><tspan
     x="142.30701"
     y="178.882"
     id="tspan1531"
     style="font-size:8px"> </tspan></text>















<text
   x="106.278"
   y="60.861801"
   id="text1533"
   style="font-size:12px;font-style:normal;font-variant:normal;font-weight:bold;font-stretch:normal;line-height:100%;text-anchor:start;fill:#a7a7a7;fill-opacity:1;font-family:Trebuchet MS"><tspan
     x="106.278"
     y="60.861801"
     id="tspan1535"
     style="font-size:11px;font-family:Trebuchet MS"> Butter</tspan></text>















<text
   x="106.364"
   y="90.468803"
   id="text1537"
   style="font-size:12px;font-style:normal;font-variant:normal;font-weight:bold;font-stretch:normal;line-height:100%;text-anchor:start;fill:#a7a7a7;fill-opacity:1;font-family:Trebuchet MS"><tspan
     x="106.364"
     y="90.468803"
     id="tspan1539"
     style="font-size:11px;font-family:Trebuchet MS">Human</tspan></text>















<text
   x="117.27792"
   y="120.077"
   id="text1541"
   style="font-size:12px;font-style:normal;font-variant:normal;font-weight:bold;font-stretch:normal;line-height:100%;text-anchor:start;fill:#a7a7a7;fill-opacity:1;font-family:Trebuchet MS"
   sodipodi:linespacing="100%"><tspan
     x="117.27792"
     y="120.077"
     id="tspan1543"
     style="font-size:11px;font-family:Trebuchet MS">Dust</tspan></text>















<text
   x="118.15314"
   y="149.68401"
   id="text1545"
   style="font-size:12px;font-style:normal;font-variant:normal;font-weight:bold;font-stretch:normal;line-height:100%;text-anchor:start;fill:#a7a7a7;fill-opacity:1;font-family:Trebuchet MS"><tspan
     x="118.15314"
     y="149.68401"
     id="tspan1547"
     style="font-size:11px;font-family:Trebuchet MS">Wise</tspan></text>















<text
   x="115.53433"
   y="179.29201"
   id="text1549"
   style="font-size:12px;font-style:normal;font-variant:normal;font-weight:bold;font-stretch:normal;line-height:100%;text-anchor:start;fill:#a7a7a7;fill-opacity:1;font-family:Trebuchet MS"><tspan
     x="115.53433"
     y="179.29201"
     id="tspan1551"
     style="font-size:11px;font-family:Trebuchet MS">Brave</tspan></text>















<text
   x="142.30701"
   y="208.882"
   id="text1553"
   style="fill:#a7a7a7;fill-opacity:1"><tspan
     x="142.30701"
     y="208.882"
     id="tspan1555"
     style="font-size:8px"> </tspan></text>















<text
   x="117.358"
   y="209.29201"
   id="text1557"
   style="font-size:12px;font-style:normal;font-variant:normal;font-weight:bold;font-stretch:normal;line-height:100%;text-anchor:start;fill:#a7a7a7;fill-opacity:1;font-family:Trebuchet MS"><tspan
     x="117.358"
     y="209.29201"
     id="tspan1559"
     style="font-size:11px;font-family:Trebuchet MS">Noble</tspan></text>















<text
   x="118.15314"
   y="238.89799"
   id="text1561"
   style="font-size:12px;font-style:normal;font-variant:normal;font-weight:bold;font-stretch:normal;line-height:100%;text-anchor:start;fill:#a7a7a7;fill-opacity:1;font-family:Trebuchet MS"><tspan
     x="118.15314"
     y="238.89799"
     id="tspan1563"
     style="font-size:11px;font-family:Trebuchet MS">Wine</tspan></text>















<text
   x="87.838699"
   y="283.31"
   id="text1565"
   style="font-size:12px;font-style:normal;font-variant:normal;font-weight:bold;font-stretch:normal;line-height:100%;text-anchor:start;fill:#a7a7a7;fill-opacity:1;font-family:Trebuchet MS"><tspan
     x="87.838699"
     y="283.31"
     id="tspan1567"
     style="font-size:11px;font-family:Trebuchet MS">Aluminium</tspan></text>















<path
   d="M 164.5164,224.5293 L 176.6932,224.5293 C 179.6698,224.5293 182.0828,226.9443 182.0828,229.9219 L 182.0828,242.0977 C 182.0828,245.0743 179.6697,247.4903 176.6932,247.4903 L 164.5164,247.4903 C 161.5398,247.4903 159.1248,245.0743 159.1248,242.0977 L 159.1248,229.9219 C 159.1248,226.9443 161.5398,224.5293 164.5164,224.5293 z"
   id="rect170_1_"
   style="fill:#da3f3f;fill-opacity:1" /><path
   d="M 194.1248,224.5293 L 206.2996,224.5293 C 209.2781,224.5293 211.6912,226.9443 211.6912,229.9219 L 211.6912,242.0977 C 211.6912,245.0743 209.2781,247.4903 206.2996,247.4903 L 194.1248,247.4903 C 191.1463,247.4903 188.7322,245.0743 188.7322,242.0977 L 188.7322,229.9219 C 188.7322,226.9443 191.1462,224.5293 194.1248,224.5293 z"
   id="rect182_1_"
   style="fill:#c22f2f;fill-opacity:1" /><path
   d="M 223.3259,224.5293 L 235.5007,224.5293 C 238.4782,224.5293 240.8943,226.9443 240.8943,229.9219 L 240.8943,242.0977 C 240.8943,245.0743 238.4783,247.4903 235.5007,247.4903 L 223.3259,247.4903 C 220.3484,247.4903 217.9343,245.0743 217.9343,242.0977 L 217.9343,229.9219 C 217.9343,226.9443 220.3484,224.5293 223.3259,224.5293 z"
   id="rect344_1_"
   style="fill:#a40000" />






























<g
   id="layer1"><text
   x="162.728"
   y="66.332603"
   id="text2362"
   xml:space="preserve"
   style="font-size:3.68000007px;font-style:normal;font-variant:normal;font-weight:normal;font-stretch:normal;text-align:start;line-height:100%;text-anchor:start;fill:#000000;fill-opacity:1;stroke:none;stroke-width:1px;stroke-linecap:butt;stroke-linejoin:miter;stroke-opacity:1;font-family:Segoe"><tspan
     x="162.728"
     y="66.332603"
     id="tspan2364">#fce94f</tspan></text>











<text
   x="162.728"
   y="95.582603"
   id="text2366"
   xml:space="preserve"
   style="font-size:3.68000007px;font-style:normal;font-variant:normal;font-weight:normal;font-stretch:normal;text-align:start;line-height:100%;text-anchor:start;fill:#000000;fill-opacity:1;stroke:none;stroke-width:1px;stroke-linecap:butt;stroke-linejoin:miter;stroke-opacity:1;font-family:Segoe"
   sodipodi:linespacing="100%"><tspan
     x="162.728"
     y="95.582603"
     id="tspan2368">#faa546</tspan></text>











<text
   x="162.728"
   y="125.083"
   id="text2370"
   xml:space="preserve"
   style="font-size:3.68000007px;font-style:normal;font-variant:normal;font-weight:normal;font-stretch:normal;text-align:start;line-height:100%;text-anchor:start;fill:#000000;fill-opacity:1;stroke:none;stroke-width:1px;stroke-linecap:butt;stroke-linejoin:miter;stroke-opacity:1;font-family:Segoe"
   sodipodi:linespacing="100%"><tspan
     x="162.728"
     y="125.083"
     id="tspan2372">#b49372</tspan></text>











<text
   x="162.728"
   y="154.33299"
   id="text2374"
   xml:space="preserve"
   style="font-size:3.68000007px;font-style:normal;font-variant:normal;font-weight:normal;font-stretch:normal;text-align:start;line-height:100%;text-anchor:start;fill:#000000;fill-opacity:1;stroke:none;stroke-width:1px;stroke-linecap:butt;stroke-linejoin:miter;stroke-opacity:1;font-family:Segoe"><tspan
     x="162.728"
     y="154.33299"
     id="tspan2376">#a7cc5c</tspan></text>











<text
   x="162.728"
   y="183.83299"
   id="text2378"
   xml:space="preserve"
   style="font-size:3.68000007px;font-style:normal;font-variant:normal;font-weight:normal;font-stretch:normal;text-align:start;line-height:100%;text-anchor:start;fill:#000000;fill-opacity:1;stroke:none;stroke-width:1px;stroke-linecap:butt;stroke-linejoin:miter;stroke-opacity:1;font-family:Segoe"><tspan
     x="162.728"
     y="183.83299"
     id="tspan2380">#729fcf</tspan></text>











<text
   x="162.728"
   y="214.08299"
   id="text2382"
   xml:space="preserve"
   style="font-size:3.68000007px;font-style:normal;font-variant:normal;font-weight:normal;font-stretch:normal;text-align:start;line-height:100%;text-anchor:start;fill:#ffffff;fill-opacity:1;stroke:none;stroke-width:1px;stroke-linecap:butt;stroke-linejoin:miter;stroke-opacity:1;font-family:Segoe"><tspan
     x="162.728"
     y="214.08299"
     id="tspan2384">#ad7fa8</tspan></text>











<text
   x="162.728"
   y="243.58299"
   id="text2386"
   xml:space="preserve"
   style="font-size:3.68000007px;font-style:normal;font-variant:normal;font-weight:normal;font-stretch:normal;text-align:start;line-height:100%;text-anchor:start;fill:#ffffff;fill-opacity:1;stroke:none;stroke-width:1px;stroke-linecap:butt;stroke-linejoin:miter;stroke-opacity:1;font-family:Segoe"><tspan
     x="162.728"
     y="243.58299"
     id="tspan3256">#da3f3f</tspan></text>











<text
   x="162.728"
   y="288.58301"
   id="text2390"
   xml:space="preserve"
   style="font-size:3.68000007px;font-style:normal;font-variant:normal;font-weight:normal;font-stretch:normal;text-align:start;line-height:100%;text-anchor:start;fill:#000000;fill-opacity:1;stroke:none;stroke-width:1px;stroke-linecap:butt;stroke-linejoin:miter;stroke-opacity:1;font-family:Segoe"><tspan
     x="162.728"
     y="288.58301"
     id="tspan2392">#eeeeec</tspan></text>











<text
   x="162.728"
   y="317.58301"
   id="text2394"
   xml:space="preserve"
   style="font-size:3.68000007px;font-style:normal;font-variant:normal;font-weight:normal;font-stretch:normal;text-align:start;line-height:100%;text-anchor:start;fill:#ffffff;fill-opacity:1;stroke:none;stroke-width:1px;stroke-linecap:butt;stroke-linejoin:miter;stroke-opacity:1;font-family:Segoe"><tspan
     x="162.728"
     y="317.58301"
     id="tspan2396">#888a85</tspan></text>











<text
   x="192.728"
   y="66.332603"
   id="text2398"
   xml:space="preserve"
   style="font-size:3.68000007px;font-style:normal;font-variant:normal;font-weight:normal;font-stretch:normal;text-align:start;line-height:100%;text-anchor:start;fill:#000000;fill-opacity:1;stroke:none;stroke-width:1px;stroke-linecap:butt;stroke-linejoin:miter;stroke-opacity:1;font-family:Segoe"><tspan
     x="192.728"
     y="66.332603"
     id="tspan2400">#edd400</tspan></text>











<text
   x="192.728"
   y="95.582603"
   id="text2402"
   xml:space="preserve"
   style="font-size:3.68000007px;font-style:normal;font-variant:normal;font-weight:normal;font-stretch:normal;text-align:start;line-height:100%;text-anchor:start;fill:#ffffff;fill-opacity:1;stroke:none;stroke-width:1px;stroke-linecap:butt;stroke-linejoin:miter;stroke-opacity:1;font-family:Segoe"
   sodipodi:linespacing="100%"><tspan
     x="192.728"
     y="95.582603"
     id="tspan2404">#e07a1f</tspan></text>











<text
   x="192.728"
   y="125.083"
   id="text2406"
   xml:space="preserve"
   style="font-size:3.68000007px;font-style:normal;font-variant:normal;font-weight:normal;font-stretch:normal;text-align:start;line-height:100%;text-anchor:start;fill:#ffffff;fill-opacity:1;stroke:none;stroke-width:1px;stroke-linecap:butt;stroke-linejoin:miter;stroke-opacity:1;font-family:Segoe"
   sodipodi:linespacing="100%"><tspan
     x="192.728"
     y="125.083"
     id="tspan2408">#906e4c</tspan></text>











<text
   x="192.728"
   y="154.33299"
   id="text2410"
   xml:space="preserve"
   style="font-size:3.68000007px;font-style:normal;font-variant:normal;font-weight:normal;font-stretch:normal;text-align:start;line-height:100%;text-anchor:start;fill:#000000;fill-opacity:1;stroke:none;stroke-width:1px;stroke-linecap:butt;stroke-linejoin:miter;stroke-opacity:1;font-family:Segoe"><tspan
     x="192.728"
     y="154.33299"
     id="tspan2412">#789e2d</tspan></text>











<text
   x="192.728"
   y="183.83299"
   id="text2414"
   xml:space="preserve"
   style="font-size:3.68000007px;font-style:normal;font-variant:normal;font-weight:normal;font-stretch:normal;text-align:start;line-height:100%;text-anchor:start;fill:#ffffff;fill-opacity:1;stroke:none;stroke-width:1px;stroke-linecap:butt;stroke-linejoin:miter;stroke-opacity:1;font-family:Segoe"><tspan
     x="192.728"
     y="183.83299"
     id="tspan2416">#3465a4</tspan></text>











<text
   x="192.728"
   y="214.08299"
   id="text2418"
   xml:space="preserve"
   style="font-size:3.68000007px;font-style:normal;font-variant:normal;font-weight:normal;font-stretch:normal;text-align:start;line-height:100%;text-anchor:start;fill:#ffffff;fill-opacity:1;stroke:none;stroke-width:1px;stroke-linecap:butt;stroke-linejoin:miter;stroke-opacity:1;font-family:Segoe"><tspan
     x="192.728"
     y="214.08299"
     id="tspan2420">#75507b</tspan></text>











<text
   x="192.728"
   y="243.58299"
   id="text2422"
   xml:space="preserve"
   style="font-size:3.68000007px;font-style:normal;font-variant:normal;font-weight:normal;font-stretch:normal;text-align:start;line-height:100%;text-anchor:start;fill:#ffffff;fill-opacity:1;stroke:none;stroke-width:1px;stroke-linecap:butt;stroke-linejoin:miter;stroke-opacity:1;font-family:Segoe"><tspan
     x="192.728"
     y="243.58299"
     id="tspan2424">#c22f2f</tspan></text>











<text
   x="192.728"
   y="288.58301"
   id="text2426"
   xml:space="preserve"
   style="font-size:3.68000007px;font-style:normal;font-variant:normal;font-weight:normal;font-stretch:normal;text-align:start;line-height:100%;text-anchor:start;fill:#000000;fill-opacity:1;stroke:none;stroke-width:1px;stroke-linecap:butt;stroke-linejoin:miter;stroke-opacity:1;font-family:Segoe"><tspan
     x="192.728"
     y="288.58301"
     id="tspan2428">#d3d7cf</tspan></text>











<text
   x="192.728"
   y="317.58301"
   id="text2430"
   xml:space="preserve"
   style="font-size:3.68000007px;font-style:normal;font-variant:normal;font-weight:normal;font-stretch:normal;text-align:start;line-height:100%;text-anchor:start;fill:#ffffff;fill-opacity:1;stroke:none;stroke-width:1px;stroke-linecap:butt;stroke-linejoin:miter;stroke-opacity:1;font-family:Segoe"><tspan
     x="192.728"
     y="317.58301"
     id="tspan2432">#555753</tspan></text>











<text
   x="222.728"
   y="66.332603"
   id="text2434"
   xml:space="preserve"
   style="font-size:3.68000007px;font-style:normal;font-variant:normal;font-weight:normal;font-stretch:normal;text-align:start;line-height:100%;text-anchor:start;fill:#ffffff;fill-opacity:1;stroke:none;stroke-width:1px;stroke-linecap:butt;stroke-linejoin:miter;stroke-opacity:1;font-family:Segoe"><tspan
     x="222.728"
     y="66.332603"
     id="tspan2436">#c4a000</tspan></text>











<text
   x="222.728"
   y="95.582603"
   id="text2438"
   xml:space="preserve"
   style="font-size:3.68000007px;font-style:normal;font-variant:normal;font-weight:normal;font-stretch:normal;text-align:start;line-height:100%;text-anchor:start;fill:#ffffff;fill-opacity:1;stroke:none;stroke-width:1px;stroke-linecap:butt;stroke-linejoin:miter;stroke-opacity:1;font-family:Segoe"><tspan
     x="222.728"
     y="95.582603"
     id="tspan2440">#ce5c00</tspan></text>











<text
   x="222.728"
   y="125.083"
   id="text2442"
   xml:space="preserve"
   style="font-size:3.68000007px;font-style:normal;font-variant:normal;font-weight:normal;font-stretch:normal;text-align:start;line-height:100%;text-anchor:start;fill:#ffffff;fill-opacity:1;stroke:none;stroke-width:1px;stroke-linecap:butt;stroke-linejoin:miter;stroke-opacity:1;font-family:Segoe"
   sodipodi:linespacing="100%"><tspan
     x="222.728"
     y="125.083"
     id="tspan2444">#745536</tspan></text>











<text
   x="222.728"
   y="154.33299"
   id="text2446"
   xml:space="preserve"
   style="font-size:3.68000007px;font-style:normal;font-variant:normal;font-weight:normal;font-stretch:normal;text-align:start;line-height:100%;text-anchor:start;fill:#ffffff;fill-opacity:1;stroke:none;stroke-width:1px;stroke-linecap:butt;stroke-linejoin:miter;stroke-opacity:1;font-family:Segoe"><tspan
     x="222.728"
     y="154.33299"
     id="tspan2448">#42770c</tspan></text>











<text
   x="222.728"
   y="183.83299"
   id="text2450"
   xml:space="preserve"
   style="font-size:3.68000007px;font-style:normal;font-variant:normal;font-weight:normal;font-stretch:normal;text-align:start;line-height:100%;text-anchor:start;fill:#ffffff;fill-opacity:1;stroke:none;stroke-width:1px;stroke-linecap:butt;stroke-linejoin:miter;stroke-opacity:1;font-family:Segoe"><tspan
     x="222.728"
     y="183.83299"
     id="tspan2452">#204a87</tspan></text>











<text
   x="222.728"
   y="214.08299"
   id="text2454"
   xml:space="preserve"
   style="font-size:3.68000007px;font-style:normal;font-variant:normal;font-weight:normal;font-stretch:normal;text-align:start;line-height:100%;text-anchor:start;fill:#ffffff;fill-opacity:1;stroke:none;stroke-width:1px;stroke-linecap:butt;stroke-linejoin:miter;stroke-opacity:1;font-family:Segoe"><tspan
     x="222.728"
     y="214.08299"
     id="tspan2456">#5c3566</tspan></text>











<text
   x="222.728"
   y="243.58299"
   id="text2458"
   xml:space="preserve"
   style="font-size:3.68000007px;font-style:normal;font-variant:normal;font-weight:normal;font-stretch:normal;text-align:start;line-height:100%;text-anchor:start;fill:#ffffff;fill-opacity:1;stroke:none;stroke-width:1px;stroke-linecap:butt;stroke-linejoin:miter;stroke-opacity:1;font-family:Segoe"><tspan
     x="222.728"
     y="243.58299"
     id="tspan2460">#a40000</tspan></text>











<text
   x="222.728"
   y="288.58301"
   id="text2462"
   xml:space="preserve"
   style="font-size:3.68000007px;font-style:normal;font-variant:normal;font-weight:normal;font-stretch:normal;text-align:start;line-height:100%;text-anchor:start;fill:#000000;fill-opacity:1;stroke:none;stroke-width:1px;stroke-linecap:butt;stroke-linejoin:miter;stroke-opacity:1;font-family:Segoe"><tspan
     x="222.728"
     y="288.58301"
     id="tspan2464">#babdb6</tspan></text>











<text
   x="222.728"
   y="317.58301"
   id="text2466"
   xml:space="preserve"
   style="font-size:3.68000007px;font-style:normal;font-variant:normal;font-weight:normal;font-stretch:normal;text-align:start;line-height:100%;text-anchor:start;fill:#ffffff;fill-opacity:1;stroke:none;stroke-width:1px;stroke-linecap:butt;stroke-linejoin:miter;stroke-opacity:1;font-family:Segoe"><tspan
     x="222.728"
     y="317.58301"
     id="tspan2468">#2e3436</tspan></text>











</g></svg>