<?xml version="1.0" encoding="UTF-8" standalone="no"?>
<!-- Created with Inkscape (http://www.inkscape.org/) -->
<svg
   xmlns:dc="http://purl.org/dc/elements/1.1/"
   xmlns:cc="http://creativecommons.org/ns#"
   xmlns:rdf="http://www.w3.org/1999/02/22-rdf-syntax-ns#"
   xmlns:svg="http://www.w3.org/2000/svg"
   xmlns="http://www.w3.org/2000/svg"
   xmlns:xlink="http://www.w3.org/1999/xlink"
   xmlns:sodipodi="http://sodipodi.sourceforge.net/DTD/sodipodi-0.dtd"
   xmlns:inkscape="http://www.inkscape.org/namespaces/inkscape"
   width="48px"
   height="48px"
   id="svg8194"
   sodipodi:version="0.32"
   inkscape:version="0.46"
   sodipodi:docname="drawing-2.svg"
   inkscape:output_extension="org.inkscape.output.svg.inkscape">
  <defs
     id="defs8196">
    <linearGradient
       inkscape:collect="always"
       id="linearGradient6778">
      <stop
         style="stop-color:#ffffff;stop-opacity:1"
         offset="0"
         id="stop6780" />
      <stop
         style="stop-color:#ffffff;stop-opacity:0"
         offset="1"
         id="stop6782" />
    </linearGradient>
    <linearGradient
       inkscape:collect="always"
       xlink:href="#linearGradient6778"
       id="linearGradient6784"
       x1="25"
       y1="20.985353"
       x2="25.026558"
       y2="40"
       gradientUnits="userSpaceOnUse" />
    <linearGradient
       inkscape:collect="always"
       id="linearGradient6265">
      <stop
         style="stop-color:#ffffff;stop-opacity:1;"
         offset="0"
         id="stop6267" />
      <stop
         style="stop-color:#ffffff;stop-opacity:0;"
         offset="1"
         id="stop6269" />
    </linearGradient>
    <linearGradient
       inkscape:collect="always"
       xlink:href="#linearGradient6265"
       id="linearGradient6271"
       x1="25"
       y1="15"
       x2="24.954546"
       y2="41.863636"
       gradientUnits="userSpaceOnUse" />
    <linearGradient
       id="linearGradient4103">
      <stop
         style="stop-color:#8fb3d9;stop-opacity:1"
         offset="0"
         id="stop4105" />
      <stop
         style="stop-color:#3465a4;stop-opacity:1"
         offset="1"
         id="stop4107" />
    </linearGradient>
    <linearGradient
       inkscape:collect="always"
       xlink:href="#linearGradient4103"
       id="linearGradient5117"
       gradientUnits="userSpaceOnUse"
       x1="249.4088"
       y1="214.00076"
       x2="250.53354"
       y2="453.99841"
       gradientTransform="matrix(0.9935665,0,0,0.9748185,1.6474216,9.6527892)" />
    <radialGradient
       inkscape:collect="always"
       xlink:href="#linearGradient5060"
       id="radialGradient2099"
       gradientUnits="userSpaceOnUse"
       gradientTransform="matrix(-2.774389,0,0,1.969706,112.7623,-872.8854)"
       cx="605.71429"
       cy="486.64789"
       fx="605.71429"
       fy="486.64789"
       r="117.14286" />
    <linearGradient
       inkscape:collect="always"
       id="linearGradient5060">
      <stop
         style="stop-color:black;stop-opacity:1;"
         offset="0"
         id="stop5062" />
      <stop
         style="stop-color:black;stop-opacity:0;"
         offset="1"
         id="stop5064" />
    </linearGradient>
    <radialGradient
       inkscape:collect="always"
       xlink:href="#linearGradient5060"
       id="radialGradient2097"
       gradientUnits="userSpaceOnUse"
       gradientTransform="matrix(2.774389,0,0,1.969706,-1891.633,-872.8854)"
       cx="605.71429"
       cy="486.64789"
       fx="605.71429"
       fy="486.64789"
       r="117.14286" />
    <linearGradient
       id="linearGradient5048">
      <stop
         style="stop-color:black;stop-opacity:0;"
         offset="0"
         id="stop5050" />
      <stop
         id="stop5056"
         offset="0.5"
         style="stop-color:black;stop-opacity:1;" />
      <stop
         style="stop-color:black;stop-opacity:0;"
         offset="1"
         id="stop5052" />
    </linearGradient>
    <linearGradient
       inkscape:collect="always"
       xlink:href="#linearGradient5048"
       id="linearGradient2095"
       gradientUnits="userSpaceOnUse"
       gradientTransform="matrix(2.774389,0,0,1.969706,-1892.179,-872.8854)"
       x1="302.85715"
       y1="366.64789"
       x2="302.85715"
       y2="609.50507" />
    <linearGradient
       id="linearGradient17648">
      <stop
         id="stop17650"
         offset="0"
         style="stop-color:#ffffff;stop-opacity:0.6" />
      <stop
         id="stop17652"
         offset="1"
         style="stop-color:#ffffff;stop-opacity:0;" />
    </linearGradient>
    <linearGradient
       inkscape:collect="always"
       xlink:href="#linearGradient17648"
       id="linearGradient17646"
       gradientUnits="userSpaceOnUse"
       x1="23.959301"
       y1="10"
       x2="24"
       y2="39.023418"
       gradientTransform="translate(-3.577825e-7,6.4928537e-5)" />
    <linearGradient
       inkscape:collect="always"
       id="linearGradient12449">
      <stop
         style="stop-color:#888a85;stop-opacity:0"
         offset="0"
         id="stop12451" />
      <stop
         style="stop-color:#888a85;stop-opacity:1"
         offset="1"
         id="stop12453" />
    </linearGradient>
    <linearGradient
       inkscape:collect="always"
       xlink:href="#linearGradient12449"
       id="linearGradient12455"
       x1="16"
       y1="13"
       x2="15.937501"
       y2="29.0625"
       gradientUnits="userSpaceOnUse"
       gradientTransform="translate(-3.577825e-7,6.4928537e-5)" />
    <linearGradient
       inkscape:collect="always"
       id="linearGradient6293">
      <stop
         style="stop-color:#555753;stop-opacity:1;"
         offset="0"
         id="stop6295" />
      <stop
         style="stop-color:#eeeeec;stop-opacity:1"
         offset="1"
         id="stop6297" />
    </linearGradient>
    <linearGradient
       inkscape:collect="always"
       xlink:href="#linearGradient6293"
       id="linearGradient17644"
       gradientUnits="userSpaceOnUse"
       x1="24"
       y1="9"
       x2="24"
       y2="26.207869"
       gradientTransform="translate(-3.577825e-7,6.4928537e-5)" />
  </defs>
  <sodipodi:namedview
     id="base"
     pagecolor="#ffffff"
     bordercolor="#666666"
     borderopacity="1.0"
     inkscape:pageopacity="0.0"
     inkscape:pageshadow="2"
     inkscape:zoom="7"
     inkscape:cx="24"
     inkscape:cy="24"
     inkscape:current-layer="layer1"
     showgrid="true"
     inkscape:grid-bbox="true"
     inkscape:document-units="px"
     inkscape:window-width="641"
     inkscape:window-height="690"
     inkscape:window-x="608"
     inkscape:window-y="294" />
  <metadata
     id="metadata8199">
    <rdf:RDF>
      <cc:Work
         rdf:about="">
        <dc:format>image/svg+xml</dc:format>
        <dc:type
           rdf:resource="http://purl.org/dc/dcmitype/StillImage" />
      </cc:Work>
    </rdf:RDF>
  </metadata>
  <g
     id="layer1"
     inkscape:label="Layer 1"
     inkscape:groupmode="layer">
    <path
       d="M 42.5,13.500065 C 42.503079,12.949915 42.064724,12.500065 41.5,12.500065 L 21.5,12.500065 L 19,10.000065 C 18.733724,9.740661 18.376484,9.5 18,9.5 L 6.9999996,9.5 C 6.2470336,9.5 5.4999996,10.266533 5.4999996,11.000065 L 5.4999996,13.000065 C 5.4999996,13.000065 5.8689616,39.500065 4.4999346,39.500065 L 43.500065,39.500065 C 42.131035,39.500065 42.5,13.500065 42.5,13.500065 z"
       id="path15"
       style="fill:#dadada;fill-opacity:1;stroke:url(#linearGradient17644);stroke-width:0.99986976;stroke-miterlimit:4;stroke-dasharray:none"
       sodipodi:nodetypes="ccccccccccc" />
    <path
       d="M 41.5,14.500065 C 41.502921,13.9843 41.035762,13.500065 40.5,13.500065 L 21,13.500065 L 18.5,11.000065 C 18.060821,10.383758 17.95093,10.531315 17,10.500065 L 6.9999996,10.500065 C 6.2856486,10.500065 6.4999996,10.812381 6.4999996,11.500065 L 6.4999996,14.000065 C 6.4999996,14.000065 6.7987936,38.500065 5.4999756,38.500065 L 42.500024,38.500065 C 41.201204,38.500065 41.5,14.500065 41.5,14.500065 z"
       id="path7263"
       style="opacity:1;fill:url(#linearGradient12455);fill-opacity:1;stroke:url(#linearGradient17646);stroke-width:0.9999525;stroke-miterlimit:4;stroke-dasharray:none;stroke-opacity:1"
       sodipodi:nodetypes="ccccccccccc" />
    <g
       id="g13071"
       transform="matrix(2.3640267e-2,0,0,2.1950125e-2,45.026494,37.807815)"
       style="display:inline">
      <rect
         y="-150.69685"
         x="-1559.2523"
         height="478.35718"
         width="1339.6335"
         id="rect13073"
         style="opacity:0.40206185;fill:url(#linearGradient2095);fill-opacity:1;fill-rule:nonzero;stroke:none;stroke-width:1;stroke-linecap:round;stroke-linejoin:miter;marker:none;marker-start:none;marker-mid:none;marker-end:none;stroke-miterlimit:4;stroke-dasharray:none;stroke-dashoffset:0;stroke-opacity:1;visibility:visible;display:inline;overflow:visible" />
      <path
         sodipodi:nodetypes="cccc"
         id="path13075"
         d="M -219.61876,-150.68038 C -219.61876,-150.68038 -219.61876,327.65041 -219.61876,327.65041 C -76.744594,328.55086 125.78146,220.48075 125.78138,88.454235 C 125.78138,-43.572302 -33.655436,-150.68036 -219.61876,-150.68038 z"
         style="opacity:0.40206185;fill:url(#radialGradient2097);fill-opacity:1;fill-rule:nonzero;stroke:none;stroke-width:1;stroke-linecap:round;stroke-linejoin:miter;marker:none;marker-start:none;marker-mid:none;marker-end:none;stroke-miterlimit:4;stroke-dasharray:none;stroke-dashoffset:0;stroke-opacity:1;visibility:visible;display:inline;overflow:visible" />
      <path
         style="opacity:0.40206185;fill:url(#radialGradient2099);fill-opacity:1;fill-rule:nonzero;stroke:none;stroke-width:1;stroke-linecap:round;stroke-linejoin:miter;marker:none;marker-start:none;marker-mid:none;marker-end:none;stroke-miterlimit:4;stroke-dasharray:none;stroke-dashoffset:0;stroke-opacity:1;visibility:visible;display:inline;overflow:visible"
         d="M -1559.2523,-150.68038 C -1559.2523,-150.68038 -1559.2523,327.65041 -1559.2523,327.65041 C -1702.1265,328.55086 -1904.6525,220.48075 -1904.6525,88.454235 C -1904.6525,-43.572302 -1745.2157,-150.68036 -1559.2523,-150.68038 z"
         id="path13077"
         sodipodi:nodetypes="cccc" />
    </g>
    <g
       id="g6091"
       transform="matrix(8.5486833e-2,0,0,8.5486833e-2,2.1096686,3.341243)">
      <path
         sodipodi:nodetypes="ccccccc"
         id="path2161"
         d="M 484.172,446.37147 L 27.961393,446.37147 C 2.6850158,446.37147 27.345715,349.69917 4.5659768,159.77615 C 3.6513888,152.01817 14.425668,142.22959 22.112539,142.22959 L 490.02085,142.22959 C 503.54933,142.22959 509.03527,148.08135 507.56742,159.77615 C 485.27601,348.88632 508.75897,446.37147 484.172,446.37147 z"
         style="fill:url(#linearGradient5117);fill-opacity:1;fill-rule:evenodd;stroke:#204a87;stroke-width:11.69475842;stroke-linecap:butt;stroke-linejoin:miter;stroke-miterlimit:4;stroke-dasharray:none;stroke-opacity:1" />
    </g>
    <path
       sodipodi:nodetypes="ccccccc"
       id="path6261"
       d="M 43,40.500009 L 5.4999996,40.500009 C 3.4397156,40.500009 5.3567816,32.936981 3.4999996,18 C 3.4254516,17.389854 4.3734406,16.5 4.9999996,16.5 L 43,16.5 C 44.102709,16.5 44.619645,17.080234 44.5,18 C 42.921391,34.023047 44.318774,40.500009 43,40.500009 z"
       style="opacity:0.8;fill:none;fill-opacity:1;fill-rule:evenodd;stroke:url(#linearGradient6271);stroke-width:0.99998212;stroke-linecap:butt;stroke-linejoin:miter;stroke-miterlimit:4;stroke-dasharray:none;stroke-opacity:1" />
    <path
       style="opacity:1;fill:url(#linearGradient6784);fill-opacity:1;fill-rule:evenodd;stroke:none;stroke-width:2.296875;stroke-linecap:square;stroke-linejoin:round;marker:none;marker-start:none;marker-mid:none;marker-end:none;stroke-miterlimit:4;stroke-dasharray:none;stroke-dashoffset:0;stroke-opacity:1;visibility:visible;display:inline;overflow:visible"
       d="M 22.86301,21.483131 C 19.598684,21.734409 17,24.494648 17,27.819388 C 16.999999,31.307641 19.874295,34.181937 23.362549,34.181937 C 25.07261,34.181937 26.633243,33.506995 27.779525,32.394113 C 27.850024,32.574078 27.966697,32.746853 28.095023,32.893652 C 28.21175,33.022077 28.359205,33.146141 28.515687,33.235442 L 32.722331,35.759428 C 33.520953,36.238602 34.556811,35.979637 35.035985,35.181015 C 35.515159,34.382393 35.256194,33.346534 34.457571,32.867361 L 30.250928,30.343374 C 29.966476,30.166371 29.636509,30.069205 29.304433,30.080459 C 29.572458,29.380236 29.698806,28.609695 29.698806,27.819388 C 29.698806,24.331136 26.850802,21.483131 23.362549,21.483131 C 23.199036,21.483131 23.02355,21.470773 22.86301,21.483131 z M 23.204799,24.007117 C 23.254056,24.005278 23.3128,24.007117 23.362549,24.007117 C 25.485166,24.007118 27.17482,25.69677 27.17482,27.819388 C 27.174819,29.942007 25.485166,31.631659 23.362549,31.631659 C 21.23993,31.631659 19.550278,29.942007 19.550278,27.819388 C 19.550277,25.746519 21.152449,24.083765 23.204799,24.007117 z"
       id="path2347"
       inkscape:r_cx="true"
       inkscape:r_cy="true" />
  </g>
</svg>
