<?xml version="1.0" encoding="UTF-8" standalone="no"?>
<!-- Created with Inkscape (http://www.inkscape.org/) -->
<svg
   xmlns:dc="http://purl.org/dc/elements/1.1/"
   xmlns:cc="http://creativecommons.org/ns#"
   xmlns:rdf="http://www.w3.org/1999/02/22-rdf-syntax-ns#"
   xmlns:svg="http://www.w3.org/2000/svg"
   xmlns="http://www.w3.org/2000/svg"
   xmlns:xlink="http://www.w3.org/1999/xlink"
   xmlns:sodipodi="http://sodipodi.sourceforge.net/DTD/sodipodi-0.dtd"
   xmlns:inkscape="http://www.inkscape.org/namespaces/inkscape"
   width="48px"
   height="48px"
   id="svg7494"
   sodipodi:version="0.32"
   inkscape:version="0.46"
   sodipodi:docname="drawing.svg"
   inkscape:output_extension="org.inkscape.output.svg.inkscape">
  <defs
     id="defs7496">
    <linearGradient
       inkscape:collect="always"
       id="linearGradient32094">
      <stop
         style="stop-color:#ffffff;stop-opacity:1"
         offset="0"
         id="stop32096" />
      <stop
         style="stop-color:#ffffff;stop-opacity:0"
         offset="1"
         id="stop32098" />
    </linearGradient>
    <linearGradient
       inkscape:collect="always"
       xlink:href="#linearGradient32094"
       id="linearGradient32112"
       gradientUnits="userSpaceOnUse"
       gradientTransform="matrix(0.9411765,0,0,0.9333334,0.9411778,1.2000024)"
       x1="25.203651"
       y1="18.000002"
       x2="25.045048"
       y2="36.097942" />
    <linearGradient
       id="linearGradient32104"
       inkscape:collect="always">
      <stop
         id="stop32106"
         offset="0"
         style="stop-color:#ffffff;stop-opacity:1" />
      <stop
         id="stop32108"
         offset="1"
         style="stop-color:#ffffff;stop-opacity:0" />
    </linearGradient>
    <linearGradient
       inkscape:collect="always"
       xlink:href="#linearGradient32104"
       id="linearGradient32110"
       gradientUnits="userSpaceOnUse"
       gradientTransform="matrix(0.9411765,0,0,0.9333334,0.9411778,1.2000024)"
       x1="24.546265"
       y1="17.9053"
       x2="24.528528"
       y2="37.285713" />
    <linearGradient
       id="linearGradient9347">
      <stop
         id="stop9349"
         offset="0.0000000"
         style="stop-color:#7a7a7a;stop-opacity:1.0000000;" />
      <stop
         id="stop9351"
         offset="0.19801980"
         style="stop-color:#ebebeb;stop-opacity:1" />
      <stop
         id="stop9353"
         offset="0.59900987"
         style="stop-color:#b9b9b9;stop-opacity:1" />
      <stop
         id="stop9355"
         offset="1.0000000"
         style="stop-color:#878787;stop-opacity:1" />
    </linearGradient>
    <linearGradient
       inkscape:collect="always"
       xlink:href="#linearGradient9347"
       id="linearGradient7755"
       gradientUnits="userSpaceOnUse"
       gradientTransform="matrix(0.7312763,0,0,0.6969978,6.8679708,14.121764)"
       x1="23.100046"
       y1="38.296745"
       x2="23.143667"
       y2="46.03775" />
    <linearGradient
       id="linearGradient178">
      <stop
         style="stop-color:#ffffff;stop-opacity:0.0000000;"
         offset="0.0000000"
         id="stop179" />
      <stop
         style="stop-color:#d9d9d9;stop-opacity:1"
         offset="0.10827128"
         id="stop180" />
      <stop
         style="stop-color:#d9d9d9;stop-opacity:1"
         offset="0.92053902"
         id="stop181" />
      <stop
         style="stop-color:#ffffff;stop-opacity:0.0000000;"
         offset="1.0000000"
         id="stop182" />
    </linearGradient>
    <linearGradient
       inkscape:collect="always"
       xlink:href="#linearGradient178"
       id="linearGradient7832"
       gradientUnits="userSpaceOnUse"
       gradientTransform="matrix(3.1119049,0,0,9.1235758e-2,28.948795,19.750004)"
       x1="1.6422368"
       y1="117.8271"
       x2="15.343062"
       y2="117.8271" />
    <linearGradient
       inkscape:collect="always"
       xlink:href="#linearGradient272"
       id="linearGradient7834"
       gradientUnits="userSpaceOnUse"
       gradientTransform="matrix(9.3885418,0,0,0.2235361,29.130383,-45.865211)"
       x1="0.61210024"
       y1="372.57819"
       x2="5.0856376"
       y2="372.57819" />
    <linearGradient
       id="linearGradient272">
      <stop
         style="stop-color:#474747;stop-opacity:0.0000000;"
         offset="0.0000000"
         id="stop273" />
      <stop
         style="stop-color:#474747;stop-opacity:1.0000000;"
         offset="0.10000000"
         id="stop275" />
      <stop
         style="stop-color:#474747;stop-opacity:1.0000000;"
         offset="0.89999998"
         id="stop276" />
      <stop
         style="stop-color:#474747;stop-opacity:0.0000000;"
         offset="1.0000000"
         id="stop274" />
    </linearGradient>
    <linearGradient
       inkscape:collect="always"
       xlink:href="#linearGradient272"
       id="linearGradient7830"
       gradientUnits="userSpaceOnUse"
       gradientTransform="matrix(9.3885424,0,0,0.2235366,29.130395,-51.784906)"
       x1="0.61210024"
       y1="372.57819"
       x2="5.0856376"
       y2="372.57819" />
    <linearGradient
       inkscape:collect="always"
       id="linearGradient6704">
      <stop
         style="stop-color:#000000;stop-opacity:1;"
         offset="0"
         id="stop6706" />
      <stop
         style="stop-color:#000000;stop-opacity:0;"
         offset="1"
         id="stop6708" />
    </linearGradient>
    <radialGradient
       inkscape:collect="always"
       xlink:href="#linearGradient6704"
       id="radialGradient7753"
       gradientUnits="userSpaceOnUse"
       gradientTransform="matrix(1,0,0,0.1166667,0,348.72344)"
       cx="1120.375"
       cy="394.78125"
       fx="1120.375"
       fy="394.78125"
       r="20.625" />
    <linearGradient
       inkscape:collect="always"
       id="linearGradient6265">
      <stop
         style="stop-color:#ffffff;stop-opacity:1;"
         offset="0"
         id="stop6267" />
      <stop
         style="stop-color:#ffffff;stop-opacity:0;"
         offset="1"
         id="stop6269" />
    </linearGradient>
    <linearGradient
       inkscape:collect="always"
       xlink:href="#linearGradient6265"
       id="linearGradient6271"
       x1="25"
       y1="15"
       x2="24.954546"
       y2="41.863636"
       gradientUnits="userSpaceOnUse"
       gradientTransform="translate(4.5407887e-3,-3.9999786)" />
    <linearGradient
       id="linearGradient4103">
      <stop
         style="stop-color:#8fb3d9;stop-opacity:1"
         offset="0"
         id="stop4105" />
      <stop
         style="stop-color:#3465a4;stop-opacity:1"
         offset="1"
         id="stop4107" />
    </linearGradient>
    <linearGradient
       inkscape:collect="always"
       xlink:href="#linearGradient4103"
       id="linearGradient5117"
       gradientUnits="userSpaceOnUse"
       x1="249.4088"
       y1="214.00076"
       x2="250.53354"
       y2="453.99841"
       gradientTransform="matrix(0.9935665,0,0,0.9748185,1.6474216,9.6527892)" />
    <linearGradient
       id="linearGradient17648">
      <stop
         id="stop17650"
         offset="0"
         style="stop-color:#ffffff;stop-opacity:0.6" />
      <stop
         id="stop17652"
         offset="1"
         style="stop-color:#ffffff;stop-opacity:0;" />
    </linearGradient>
    <linearGradient
       inkscape:collect="always"
       xlink:href="#linearGradient17648"
       id="linearGradient17646"
       gradientUnits="userSpaceOnUse"
       x1="23.959301"
       y1="10"
       x2="24"
       y2="39.023418"
       gradientTransform="translate(4.5417887e-3,-3.9999136)" />
    <linearGradient
       inkscape:collect="always"
       id="linearGradient12449">
      <stop
         style="stop-color:#888a85;stop-opacity:0"
         offset="0"
         id="stop12451" />
      <stop
         style="stop-color:#888a85;stop-opacity:1"
         offset="1"
         id="stop12453" />
    </linearGradient>
    <linearGradient
       inkscape:collect="always"
       xlink:href="#linearGradient12449"
       id="linearGradient12455"
       x1="16"
       y1="13"
       x2="15.937501"
       y2="29.0625"
       gradientUnits="userSpaceOnUse"
       gradientTransform="translate(4.5417887e-3,-3.9999136)" />
    <linearGradient
       inkscape:collect="always"
       id="linearGradient6293">
      <stop
         style="stop-color:#555753;stop-opacity:1;"
         offset="0"
         id="stop6295" />
      <stop
         style="stop-color:#eeeeec;stop-opacity:1"
         offset="1"
         id="stop6297" />
    </linearGradient>
    <linearGradient
       inkscape:collect="always"
       xlink:href="#linearGradient6293"
       id="linearGradient17644"
       gradientUnits="userSpaceOnUse"
       x1="24"
       y1="9"
       x2="24"
       y2="26.207869"
       gradientTransform="translate(4.5417887e-3,-3.9999136)" />
  </defs>
  <sodipodi:namedview
     id="base"
     pagecolor="#ffffff"
     bordercolor="#666666"
     borderopacity="1.0"
     inkscape:pageopacity="0.0"
     inkscape:pageshadow="2"
     inkscape:zoom="7"
     inkscape:cx="24"
     inkscape:cy="24"
     inkscape:current-layer="layer1"
     showgrid="true"
     inkscape:grid-bbox="true"
     inkscape:document-units="px"
     inkscape:window-width="641"
     inkscape:window-height="690"
     inkscape:window-x="0"
     inkscape:window-y="25" />
  <metadata
     id="metadata7499">
    <rdf:RDF>
      <cc:Work
         rdf:about="">
        <dc:format>image/svg+xml</dc:format>
        <dc:type
           rdf:resource="http://purl.org/dc/dcmitype/StillImage" />
      </cc:Work>
    </rdf:RDF>
  </metadata>
  <g
     id="layer1"
     inkscape:label="Layer 1"
     inkscape:groupmode="layer">
    <rect
       style="fill:#d9d9d9;fill-opacity:1;stroke:#707070;stroke-width:1;stroke-miterlimit:4;stroke-dasharray:none;stroke-opacity:1"
       id="rect8955"
       width="2.9998591"
       height="2.9998591"
       x="22.500002"
       y="37.50016" />
    <path
       d="M 42.504544,9.5000864 C 42.507623,8.9499364 42.069268,8.5000864 41.504544,8.5000864 L 21.504544,8.5000864 L 19.004543,6.0000864 C 18.738267,5.7406824 18.381027,5.5000214 18.004543,5.5000214 L 7.0045408,5.5000214 C 6.2515748,5.5000214 5.5045408,6.2665544 5.5045408,7.0000864 L 5.5045408,9.0000864 C 5.5045408,9.0000864 5.8735028,35.500085 4.5044758,35.500085 L 43.504609,35.500085 C 42.135579,35.500085 42.504544,9.5000864 42.504544,9.5000864 z"
       id="path15"
       style="fill:#dadada;fill-opacity:1;stroke:url(#linearGradient17644);stroke-width:0.99986976;stroke-miterlimit:4;stroke-dasharray:none"
       sodipodi:nodetypes="ccccccccccc" />
    <path
       d="M 41.504544,10.500086 C 41.507465,9.9843214 41.040306,9.5000864 40.504544,9.5000864 L 21.004544,9.5000864 L 18.504543,7.0000864 C 18.065364,6.3837794 17.955473,6.5313364 17.004543,6.5000864 L 7.0045408,6.5000864 C 6.2901898,6.5000864 6.5045408,6.8124024 6.5045408,7.5000864 L 6.5045408,10.000086 C 6.5045408,10.000086 6.8033348,34.500085 5.5045168,34.500085 L 42.504568,34.500085 C 41.205748,34.500085 41.504544,10.500086 41.504544,10.500086 z"
       id="path7263"
       style="opacity:1;fill:url(#linearGradient12455);fill-opacity:1;stroke:url(#linearGradient17646);stroke-width:0.9999525;stroke-miterlimit:4;stroke-dasharray:none;stroke-opacity:1"
       sodipodi:nodetypes="ccccccccccc" />
    <g
       id="g6091"
       transform="matrix(8.5486833e-2,0,0,8.5486833e-2,2.1142098,-0.6587356)">
      <path
         sodipodi:nodetypes="ccccccc"
         id="path2161"
         d="M 484.172,446.37147 L 27.961393,446.37147 C 2.6850158,446.37147 27.345715,349.69917 4.5659768,159.77615 C 3.6513888,152.01817 14.425668,142.22959 22.112539,142.22959 L 490.02085,142.22959 C 503.54933,142.22959 509.03527,148.08135 507.56742,159.77615 C 485.27601,348.88632 508.75897,446.37147 484.172,446.37147 z"
         style="fill:url(#linearGradient5117);fill-opacity:1;fill-rule:evenodd;stroke:#204a87;stroke-width:11.69475842;stroke-linecap:butt;stroke-linejoin:miter;stroke-miterlimit:4;stroke-dasharray:none;stroke-opacity:1" />
    </g>
    <path
       sodipodi:nodetypes="ccccccc"
       id="path6261"
       d="M 43.004544,36.500029 L 5.5045408,36.500029 C 3.4442568,36.500029 5.3613228,28.937001 3.5045408,14.00002 C 3.4299928,13.389874 4.3779818,12.500021 5.0045408,12.500021 L 43.004544,12.500021 C 44.107253,12.500021 44.624189,13.080254 44.504544,14.00002 C 42.925935,30.023067 44.323318,36.500029 43.004544,36.500029 z"
       style="opacity:0.8;fill:none;fill-opacity:1;fill-rule:evenodd;stroke:url(#linearGradient6271);stroke-width:0.99998212;stroke-linecap:butt;stroke-linejoin:miter;stroke-miterlimit:4;stroke-dasharray:none;stroke-opacity:1" />
    <path
       sodipodi:type="arc"
       style="opacity:0.3;fill:url(#radialGradient7753);fill-opacity:1;fill-rule:evenodd;stroke:none;display:inline;enable-background:new"
       id="path6774"
       sodipodi:cx="1120.375"
       sodipodi:cy="394.78125"
       sodipodi:rx="20.625"
       sodipodi:ry="2.40625"
       d="M 1141,394.78125 A 20.625,2.40625 0 1 1 1099.75,394.78125 A 20.625,2.40625 0 1 1 1141,394.78125 z"
       transform="matrix(1.0181815,0,0,1.2467532,-1116.7451,-447.19479)" />
    <g
       style="display:inline;enable-background:new"
       id="g7753"
       transform="translate(-31.8771,12.999554)">
      <rect
         style="opacity:0.65;fill:url(#linearGradient7830);fill-opacity:1;fill-rule:nonzero;stroke:none;stroke-width:1;marker:none;visibility:visible;display:block;overflow:visible"
         id="rect8601"
         width="41.999989"
         height="1"
         x="34.877113"
         y="31" />
      <rect
         style="opacity:0.65;fill:url(#linearGradient7834);fill-opacity:1;fill-rule:nonzero;stroke:none;stroke-width:1;marker:none;visibility:visible;display:block;overflow:visible"
         id="rect8603"
         width="41.999989"
         height="1"
         x="34.877102"
         y="29" />
      <rect
         style="fill:url(#linearGradient7832);fill-opacity:1;fill-rule:nonzero;stroke:none;stroke-width:1;marker:none;visibility:visible;display:block;overflow:visible"
         id="rect8605"
         width="41.5"
         height="1"
         x="34.627102"
         y="30" />
      <g
         transform="matrix(0.544365,0,0,0.9411763,42.076688,-8.6470511)"
         id="g8613"
         style="fill:#ffffff;fill-opacity:0.72023806" />
    </g>
    <path
       sodipodi:nodetypes="ccccccccccc"
       style="fill:url(#linearGradient7755);fill-opacity:1;fill-rule:nonzero;stroke:#555753;stroke-width:1.00006688;stroke-linecap:butt;stroke-linejoin:miter;marker:none;stroke-miterlimit:4;stroke-dasharray:none;stroke-dashoffset:0;stroke-opacity:1;visibility:visible;display:block;overflow:visible;enable-background:new"
       d="M 21.77872,40.500055 L 18.545322,40.500055 C 17.96295,40.500055 17.500034,40.927095 17.500034,41.46433 L 17.500034,45.535413 C 17.500034,46.072643 17.96295,46.499988 18.545322,46.499988 L 29.454676,46.499988 C 30.037043,46.499988 30.499966,46.072643 30.499966,45.535413 L 30.499966,41.46433 C 30.499966,40.927095 30.037043,40.500055 29.454676,40.500055 L 26.633511,40.500055 L 21.77872,40.500055 z"
       id="path8607" />
    <rect
       style="fill:#ffffff;fill-opacity:0.72023806;fill-rule:nonzero;stroke:none;stroke-width:1.13999999;marker:none;visibility:visible;display:block;overflow:visible;enable-background:new"
       id="rect8615"
       width="8"
       height="1.5"
       x="21.000002"
       y="41.250019"
       rx="0.49999997"
       ry="0.5" />
    <path
       sodipodi:type="arc"
       style="fill:#ffffff;fill-opacity:0.72023806;fill-rule:nonzero;stroke:none;stroke-width:1.13999999;marker:none;visibility:visible;display:block;overflow:visible;enable-background:new"
       id="path8617"
       sodipodi:cx="18.46875"
       sodipodi:cy="40.625"
       sodipodi:rx="0.53125"
       sodipodi:ry="0.53125"
       d="M 19,40.625 A 0.53125,0.53125 0 1 1 17.9375,40.625 A 0.53125,0.53125 0 1 1 19,40.625 z"
       transform="matrix(1.4117647,0,0,1.4117647,-6.5735292,-15.35292)" />
    <path
       style="fill:url(#linearGradient32110);fill-opacity:1"
       d="M 25.101898,31.878219 L 24.773533,31.807914 L 24.48291,31.704343 C 24.218484,31.610105 24.169515,31.589849 23.939559,31.479554 C 23.717204,31.372925 23.657755,31.340404 23.44512,31.209116 C 23.312181,31.127038 23.199274,31.054529 23.194217,31.047995 C 23.189161,31.041454 23.184919,31.024867 23.184788,31.011135 C 23.184657,30.99741 23.22512,30.848088 23.274718,30.679319 C 23.324306,30.51054 23.385559,30.301991 23.410825,30.215861 C 23.436083,30.129738 23.485305,29.961963 23.520195,29.843026 C 23.631509,29.463606 24.121974,27.79302 24.320916,27.115703 C 24.42662,26.755809 24.513104,26.45711 24.513104,26.451923 C 24.513104,26.44074 24.569315,26.381514 24.606542,26.353461 C 24.624513,26.339925 24.645746,26.332347 24.673664,26.329494 L 24.714496,26.325338 L 24.8281,26.400389 C 25.009799,26.520423 25.127104,26.588838 25.392529,26.729535 C 25.661078,26.871902 25.735015,26.907146 25.898288,26.970607 C 26.078683,27.040731 26.160004,27.063919 26.456523,27.129748 L 26.743733,27.193503 L 27.068328,27.214426 L 27.392912,27.23535 L 27.762802,27.198922 L 28.132679,27.162494 L 28.548893,27.065648 L 28.965098,26.968801 L 29.439115,26.804579 C 29.758784,26.693833 29.923141,26.640371 29.943849,26.640397 C 29.977306,26.640441 29.993972,26.64923 30.056835,26.700013 C 30.090667,26.727341 30.100553,26.740737 30.110124,26.772221 C 30.118505,26.799773 30.119766,26.815838 30.114499,26.828147 C 30.110439,26.837644 30.06476,26.991384 30.012993,27.169789 C 29.961225,27.348185 29.667061,28.358095 29.359289,29.414026 C 29.05152,30.469956 28.797826,31.344066 28.795526,31.356504 C 28.785701,31.40969 28.774818,31.415462 28.476801,31.525341 C 27.809869,31.771252 27.25055,31.903083 26.592761,31.969414 C 26.085418,32.057441 25.598056,31.932987 25.101898,31.878219 z M 27.330551,27.276359 C 27.321163,27.274578 27.307575,27.274648 27.300359,27.276514 C 27.293141,27.27838 27.300822,27.27984 27.317428,27.279755 C 27.334033,27.279677 27.339939,27.278147 27.330551,27.276359 z M 27.432546,27.276498 C 27.425285,27.274621 27.413394,27.274621 27.406124,27.276498 C 27.398862,27.278371 27.404804,27.279909 27.419336,27.279909 C 27.433866,27.279909 27.439817,27.278371 27.432546,27.276498 z M 27.209859,27.268917 C 27.200523,27.267138 27.185231,27.267138 27.175896,27.268917 C 27.166552,27.270698 27.174199,27.27215 27.192877,27.27215 C 27.211557,27.27215 27.219204,27.270698 27.209859,27.268917 z M 27.507892,27.269012 C 27.500543,27.26712 27.490351,27.26725 27.48524,27.269289 C 27.480132,27.271329 27.486142,27.272876 27.498599,27.272729 C 27.51105,27.272573 27.515233,27.270905 27.507892,27.269012 z M 27.089081,27.261458 C 27.079745,27.259687 27.064452,27.259687 27.055117,27.261458 C 27.045773,27.26324 27.053419,27.264691 27.072099,27.264691 C 27.090787,27.264691 27.098424,27.26324 27.089081,27.261458 z M 27.586823,27.261632 C 27.581373,27.259471 27.574865,27.259738 27.572355,27.262221 C 27.569844,27.264691 27.574304,27.266454 27.582258,27.266134 C 27.591059,27.265779 27.592844,27.264009 27.586823,27.261632 z M 26.960672,27.253992 C 26.951275,27.252212 26.937688,27.252279 26.930471,27.254139 C 26.923261,27.256006 26.930943,27.257466 26.947547,27.257388 C 26.964153,27.2573 26.97006,27.255771 26.960672,27.253992 z M 27.669862,27.254174 C 27.66441,27.252021 27.657901,27.252279 27.655391,27.254761 C 27.652879,27.257241 27.657342,27.259005 27.665294,27.258676 C 27.674086,27.258322 27.67588,27.256549 27.669862,27.254174 z M 26.839893,27.246534 C 26.830497,27.244754 26.81691,27.244821 26.80969,27.246689 C 26.802483,27.248556 26.810164,27.250008 26.82677,27.24993 C 26.843375,27.249844 26.84928,27.248322 26.839893,27.246534 z M 26.029758,27.069804 C 26.026373,27.066519 25.686871,26.931707 25.668052,26.926167 C 25.638601,26.917499 25.721804,26.957272 25.797938,26.988255 C 25.931805,27.042736 26.041735,27.081403 26.029758,27.069804 z M 29.239148,26.927827 C 29.464338,26.853892 29.838767,26.71626 29.83224,26.709804 C 29.829598,26.707195 29.048615,26.982215 29.042929,26.987762 C 29.036506,26.99401 29.051345,26.989481 29.239148,26.927827 z M 25.652951,26.920782 C 25.652951,26.919168 25.647684,26.915858 25.641235,26.913411 C 25.634517,26.910861 25.63149,26.912114 25.634132,26.916341 C 25.638567,26.923427 25.652951,26.926824 25.652951,26.920782 z M 25.577464,26.882851 C 25.577464,26.880881 25.563878,26.872429 25.547271,26.864054 C 25.530667,26.85569 25.517079,26.850512 25.517079,26.852543 C 25.517079,26.854581 25.529817,26.862888 25.545383,26.871011 C 25.577413,26.887709 25.577464,26.887726 25.577464,26.882851 z M 25.464236,26.823236 C 25.464236,26.821291 25.454043,26.814499 25.441594,26.808128 C 25.413202,26.793627 25.411488,26.799929 25.439703,26.815052 C 25.463431,26.827766 25.464236,26.828034 25.464236,26.823236 z M 25.351007,26.763542 C 25.351007,26.761582 25.33742,26.753119 25.320815,26.744753 C 25.304209,26.73638 25.290622,26.731203 25.290622,26.733234 C 25.290622,26.735274 25.303361,26.743579 25.318926,26.751703 C 25.350955,26.768401 25.351007,26.768424 25.351007,26.763542 z M 25.237779,26.703926 C 25.237779,26.701985 25.227586,26.69519 25.215136,26.688829 C 25.186744,26.674327 25.185022,26.680618 25.213246,26.695745 C 25.236965,26.708455 25.237779,26.708733 25.237779,26.703926 z M 21.015703,30.126858 C 20.999148,30.118205 20.980521,30.106841 20.974294,30.101603 C 20.968064,30.096365 20.925684,30.070975 20.880111,30.045168 C 20.834547,30.019361 20.747924,29.966411 20.687626,29.927485 C 20.51625,29.816863 20.197046,29.66249 19.921253,29.556862 L 19.694796,29.470128 L 19.426816,29.411757 C 19.188906,29.359937 19.142327,29.352063 19.011644,29.341572 C 18.759017,29.321296 18.646569,29.324995 18.253006,29.366574 L 17.905768,29.403262 L 17.52079,29.490265 L 17.135801,29.577276 L 16.677881,29.736616 C 16.273837,29.877203 16.216514,29.895325 16.190741,29.890642 C 16.156217,29.884359 16.019856,29.789855 16.007713,29.763806 C 15.997388,29.741638 15.997442,29.704632 16.007809,29.701218 C 16.021124,29.696835 17.3421,25.174312 17.333362,25.163015 C 17.318558,25.143891 17.364873,25.121645 17.641568,25.015042 C 17.811673,24.949497 18.072059,24.860376 18.226584,24.814804 C 18.274327,24.800727 18.501921,24.745898 18.732343,24.692964 L 19.151293,24.596713 L 19.51406,24.56503 L 19.876825,24.533338 L 20.193442,24.553388 L 20.510047,24.573439 L 20.808221,24.640105 C 20.972219,24.676769 21.138667,24.717188 21.178108,24.729928 C 21.464697,24.822471 21.775099,24.967378 22.09904,25.159844 C 22.280667,25.267762 22.52841,25.429236 22.537176,25.445414 C 22.548699,25.466685 22.546512,25.478757 22.506905,25.612611 C 22.486277,25.682337 22.315129,26.266196 22.126573,26.910089 C 21.938014,27.553974 21.655512,28.518692 21.498783,29.053901 C 21.342055,29.589108 21.207347,30.036094 21.199438,30.047208 C 21.180322,30.074078 21.081178,30.142585 21.061416,30.142585 C 21.052813,30.142585 21.032247,30.135508 21.015703,30.126858 z"
       id="path31581"
       sodipodi:nodetypes="cccsssssssssscccsscccccccccsssssssscccssccssccssccssccssccssccssccssccssccssccssccssccsssccssccsssccssccssscccscccccsssssscccccccssssssssc" />
    <path
       style="fill:url(#linearGradient32112);fill-opacity:1"
       d="M 26.984251,25.344886 L 26.655886,25.274581 L 26.365263,25.17101 C 26.100837,25.076773 26.051868,25.056516 25.821911,24.94622 C 25.599557,24.839592 25.540108,24.80707 25.327473,24.675784 C 25.194534,24.593705 25.081627,24.521197 25.07657,24.514661 C 25.071514,24.508121 25.067271,24.491535 25.067141,24.477802 C 25.06701,24.464078 25.107473,24.314755 25.157071,24.145986 C 25.206659,23.977208 25.267911,23.768657 25.293178,23.682528 C 25.318436,23.596406 25.367658,23.428631 25.402548,23.309693 C 25.513862,22.930274 26.004327,21.259687 26.203269,20.582371 C 26.308973,20.222476 26.395457,19.923777 26.395457,19.918591 C 26.395457,19.907408 26.451668,19.84818 26.488895,19.820127 C 26.506866,19.806593 26.528099,19.799014 26.556017,19.796161 L 26.596849,19.792005 L 26.710453,19.867057 C 26.892151,19.987091 27.009457,20.055505 27.274882,20.196202 C 27.543431,20.338569 27.617368,20.373812 27.780641,20.437275 C 27.961036,20.507399 28.042357,20.530587 28.338876,20.596416 L 28.626086,20.660171 L 28.950681,20.681093 L 29.275265,20.702017 L 29.645155,20.665589 L 30.015032,20.629161 L 30.431246,20.532315 L 30.847451,20.435468 L 31.321468,20.271246 C 31.641137,20.1605 31.805494,20.107038 31.826202,20.107065 C 31.859659,20.107107 31.876325,20.115898 31.939188,20.166681 C 31.97302,20.194008 31.982906,20.207404 31.992477,20.238888 C 32.000858,20.26644 32.002119,20.282505 31.996852,20.294813 C 31.992792,20.304311 31.947113,20.458051 31.895346,20.636456 C 31.843578,20.814852 31.549414,21.824762 31.241642,22.880693 C 30.933873,23.936623 30.680179,24.810733 30.677878,24.823171 C 30.668054,24.876357 30.657171,24.88213 30.359154,24.992008 C 29.692222,25.23792 29.132903,25.369751 28.475114,25.436082 C 27.967771,25.524109 27.480409,25.399655 26.984251,25.344886 z M 29.212903,20.743027 C 29.203516,20.741246 29.189928,20.741314 29.182711,20.743181 C 29.175494,20.745048 29.183175,20.746507 29.199781,20.746422 C 29.216386,20.746344 29.222292,20.744815 29.212903,20.743027 z M 29.314899,20.743165 C 29.307638,20.741288 29.295747,20.741288 29.288477,20.743165 C 29.281215,20.745039 29.287157,20.746577 29.301689,20.746577 C 29.316219,20.746577 29.32217,20.745039 29.314899,20.743165 z M 29.092212,20.735584 C 29.082876,20.733805 29.067584,20.733805 29.058249,20.735584 C 29.048905,20.737364 29.056551,20.738817 29.07523,20.738817 C 29.09391,20.738817 29.101557,20.737364 29.092212,20.735584 z M 29.390245,20.735679 C 29.382896,20.733787 29.372704,20.733917 29.367593,20.735956 C 29.362485,20.737997 29.368495,20.739544 29.380952,20.739395 C 29.393403,20.73924 29.397586,20.737571 29.390245,20.735679 z M 28.971434,20.728126 C 28.962098,20.726354 28.946805,20.726354 28.93747,20.728126 C 28.928126,20.729907 28.935772,20.731359 28.954452,20.731359 C 28.97314,20.731359 28.980777,20.729907 28.971434,20.728126 z M 29.469176,20.728299 C 29.463726,20.726139 29.457218,20.726405 29.454708,20.728888 C 29.452197,20.731359 29.456657,20.733122 29.464611,20.732802 C 29.473412,20.732446 29.475197,20.730676 29.469176,20.728299 z M 28.843025,20.720659 C 28.833628,20.718879 28.820041,20.718947 28.812824,20.720806 C 28.805614,20.722673 28.813296,20.724132 28.8299,20.724055 C 28.846506,20.723968 28.852413,20.722439 28.843025,20.720659 z M 29.552214,20.720841 C 29.546763,20.718688 29.540254,20.718947 29.537744,20.721428 C 29.535232,20.723908 29.539695,20.725671 29.547647,20.725343 C 29.556438,20.724988 29.558233,20.723216 29.552214,20.720841 z M 28.722246,20.7132 C 28.71285,20.711421 28.699263,20.711489 28.692043,20.713357 C 28.684836,20.715223 28.692517,20.716674 28.709123,20.716598 C 28.725728,20.716511 28.731633,20.714989 28.722246,20.7132 z M 27.912111,20.536471 C 27.908726,20.533187 27.569224,20.398374 27.550405,20.392834 C 27.520954,20.384166 27.604157,20.423939 27.680291,20.454922 C 27.814158,20.509404 27.924088,20.548071 27.912111,20.536471 z M 31.121501,20.394494 C 31.346691,20.32056 31.72112,20.182927 31.714593,20.176472 C 31.711951,20.173861 30.930967,20.448882 30.925282,20.454429 C 30.918859,20.460677 30.933698,20.456148 31.121501,20.394494 z M 27.535303,20.38745 C 27.535303,20.385835 27.530037,20.382524 27.523588,20.380078 C 27.51687,20.377528 27.513843,20.378781 27.516485,20.383009 C 27.520919,20.390094 27.535303,20.393492 27.535303,20.38745 z M 27.459817,20.349518 C 27.459817,20.347549 27.446231,20.339096 27.429624,20.330721 C 27.41302,20.322357 27.399432,20.317179 27.399432,20.31921 C 27.399432,20.321249 27.41217,20.329555 27.427735,20.337679 C 27.459766,20.354376 27.459817,20.354393 27.459817,20.349518 z M 27.346589,20.289903 C 27.346589,20.287958 27.336396,20.281166 27.323947,20.274795 C 27.295555,20.260294 27.293841,20.266596 27.322056,20.281719 C 27.345784,20.294432 27.346589,20.2947 27.346589,20.289903 z M 27.23336,20.23021 C 27.23336,20.228249 27.219773,20.219787 27.203168,20.211421 C 27.186562,20.203047 27.172975,20.197871 27.172975,20.199902 C 27.172975,20.201941 27.185714,20.210247 27.201279,20.21837 C 27.233308,20.235068 27.23336,20.235092 27.23336,20.23021 z M 27.120132,20.170594 C 27.120132,20.168652 27.109939,20.161857 27.097489,20.155497 C 27.069097,20.140995 27.067375,20.147286 27.095599,20.162413 C 27.119318,20.175123 27.120132,20.1754 27.120132,20.170594 z M 22.898056,23.593524 C 22.881501,23.584873 22.862874,23.573508 22.856647,23.56827 C 22.850417,23.563032 22.808037,23.537642 22.762464,23.511836 C 22.7169,23.486028 22.630277,23.433077 22.569979,23.394152 C 22.398603,23.28353 22.079399,23.129157 21.803606,23.023529 L 21.577149,22.936796 L 21.309169,22.878424 C 21.071259,22.826605 21.02468,22.818731 20.893997,22.808239 C 20.64137,22.787963 20.528921,22.791662 20.135359,22.833241 L 19.788121,22.86993 L 19.403143,22.956933 L 19.018153,23.043943 L 18.560234,23.203282 C 18.15619,23.34387 18.098867,23.361993 18.073094,23.357309 C 18.038569,23.351027 17.902209,23.256522 17.890066,23.230474 C 17.879741,23.208305 17.879795,23.171299 17.890162,23.167885 C 17.903477,23.163503 19.224453,18.640979 19.215715,18.629682 C 19.200911,18.610557 19.247226,18.588311 19.523921,18.481708 C 19.694026,18.416164 19.954412,18.327042 20.108937,18.281471 C 20.15668,18.267393 20.384274,18.212564 20.614696,18.159631 L 21.033646,18.063379 L 21.396413,18.031697 L 21.759178,18.000004 L 22.075795,18.020054 L 22.3924,18.040105 L 22.690574,18.106772 C 22.854572,18.143435 23.02102,18.183854 23.060461,18.196594 C 23.34705,18.289136 23.657452,18.434045 23.981393,18.626509 C 24.16302,18.734428 24.410763,18.895903 24.419529,18.912081 C 24.431052,18.933352 24.428865,18.945423 24.389258,19.079278 C 24.36863,19.149004 24.197482,19.732862 24.008926,20.376756 C 23.820367,21.020642 23.537864,21.98536 23.381136,22.520568 C 23.224408,23.055776 23.0897,23.502762 23.081791,23.513875 C 23.062675,23.540746 22.963531,23.609253 22.943768,23.609253 C 22.935166,23.609253 22.9146,23.602175 22.898056,23.593524 z"
       id="path31583"
       sodipodi:nodetypes="cccsssssssssscccsscccccccccsssssssscccssccssccssccssccssccssccssccssccssccssccssccssccsssccssccsssccssccssscccscccccsssssscccccccssssssssc" />
  </g>
</svg>
