/* XPM */
static char * hide_pressed_xpm[] = {
"20 25 92 2",
"  	c None",
". 	c #3C3C3C",
"+ 	c #707070",
"@ 	c #515151",
"# 	c #505050",
"$ 	c #4F4F4F",
"% 	c #4E4E4E",
"& 	c #5D5D5D",
"* 	c #8D8D8D",
"= 	c #B9B9B9",
"- 	c #CDCDCD",
"; 	c #5C5C5C",
"> 	c #4D4D4D",
", 	c #9F9F9F",
"' 	c #E2E2E2",
") 	c #E6E6E6",
"! 	c #E0E0E0",
"~ 	c #4C4C4C",
"{ 	c #525252",
"] 	c #C0C0C0",
"^ 	c #BCBCBC",
"/ 	c #9C9C9C",
"( 	c #969696",
"_ 	c #4B4B4B",
": 	c #A8A8A8",
"< 	c #DDDDDD",
"[ 	c #A3A3A1",
"} 	c #939392",
"| 	c #A2A2A1",
"1 	c #A6A6A6",
"2 	c #4A4A4A",
"3 	c #666666",
"4 	c #E4E4E4",
"5 	c #A0A0A0",
"6 	c #8F8F8F",
"7 	c #656565",
"8 	c #ADADAD",
"9 	c #C4C4C4",
"0 	c #8C8C8C",
"a 	c #494949",
"b 	c #DCDCDC",
"c 	c #A5A5A5",
"d 	c #898989",
"e 	c #DBDBDB",
"f 	c #484848",
"g 	c #969695",
"h 	c #858584",
"i 	c #474747",
"j 	c #939393",
"k 	c #818181",
"l 	c #464646",
"m 	c #9E9E9D",
"n 	c #7D7D7D",
"o 	c #C8C8C7",
"p 	c #E7E7E6",
"q 	c #CBCBCB",
"r 	c #9F9F9E",
"s 	c #DADADA",
"t 	c #454545",
"u 	c #ABABAB",
"v 	c #BDBDBD",
"w 	c #7A7A79",
"x 	c #C7C7C6",
"y 	c #C4C4C3",
"z 	c #444444",
"A 	c #606060",
"B 	c #E3E3E3",
"C 	c #757575",
"D 	c #434343",
"E 	c #A4A4A4",
"F 	c #D9D9D9",
"G 	c #878786",
"H 	c #727271",
"I 	c #888887",
"J 	c #A3A3A3",
"K 	c #DFDFDF",
"L 	c #A7A7A7",
"M 	c #777777",
"N 	c #6D6D6D",
"O 	c #A9A9A9",
"P 	c #424242",
"Q 	c #9A9A9A",
"R 	c #E1E1E1",
"S 	c #DEDEDE",
"T 	c #414141",
"U 	c #838383",
"V 	c #B4B4B4",
"W 	c #CACACA",
"X 	c #404040",
"Y 	c #3F3F3F",
"Z 	c #3E3E3E",
"` 	c #3D3D3D",
". . . . . . . . . . . . . . . . . . . . ",
"+ + + + + + + + + + + + + + + + + + + + ",
"@ @ @ @ @ @ @ @ @ @ @ @ @ @ @ @ @ @ @ @ ",
"# # # # # # # # # # # # # # # # # # # # ",
"$ $ $ $ $ $ $ $ $ $ $ $ $ $ $ $ $ $ $ $ ",
"% % % % % % & * = - - = * ; % % % % % % ",
"> > > > # , ' ) ) ! ! ) ) ' , # > > > > ",
"~ ~ ~ { ] ) ! ^ / ( ( / ^ ' ) ] @ ~ ~ ~ ",
"_ _ _ : ) < [ } } } } } } | < ) 1 _ _ _ ",
"2 2 3 4 4 5 6 6 6 6 6 6 6 6 5 4 4 7 2 2 ",
"2 2 8 ) 9 0 0 0 0 0 0 0 0 0 0 9 ) 8 2 2 ",
"a a b ) c d d d d d d d d d d 1 ) e a a ",
"f f ) ) g h h h h h h h h h h g ) ) f f ",
"i i ) ) j k k k k k k k k k k j ) ) i i ",
"l l e ) m n o p p p p p p q n r ) s l l ",
"t t u ) v w x p p p p p p y w v ) u t t ",
"z z A 4 B 0 C C C C C C C C * 4 4 A z z ",
"D D D E ) F G H H H H H H I F ) J D D D ",
"D D D i v ) K L M N N M O ! ) v l D D D ",
"P P P P t Q R ) ) S S ) ) ! Q t P P P P ",
"T T T T T T # U V W W V U # T T T T T T ",
"X X X X X X X X X X X X X X X X X X X X ",
"Y Y Y Y Y Y Y Y Y Y Y Y Y Y Y Y Y Y Y Y ",
"Z Z Z Z Z Z Z Z Z Z Z Z Z Z Z Z Z Z Z Z ",
"` ` ` ` ` ` ` ` ` ` ` ` ` ` ` ` ` ` ` ` "};
