/* XPM */
static char * close_active_xpm[] = {
"20 25 36 1",
" 	c None",
".	c #464139",
"+	c #78736B",
"@	c #59544C",
"#	c #58534B",
"$	c #57524A",
"%	c #565149",
"&	c #555048",
"*	c #544F47",
"=	c #534E46",
"-	c #BAB9B6",
";	c #C3C2C0",
">	c #5F5A53",
",	c #524D45",
"'	c #E6E6E6",
")	c #CDCCCA",
"!	c #5E5952",
"~	c #CECDCC",
"{	c #514C44",
"]	c #5D5851",
"^	c #504B43",
"/	c #5C5750",
"(	c #4F4A42",
"_	c #5B564F",
":	c #CCCBCA",
"<	c #4E4941",
"[	c #C2C1BF",
"}	c #5A564E",
"|	c #B9B7B5",
"1	c #4D4840",
"2	c #4C473F",
"3	c #4B463E",
"4	c #4A453D",
"5	c #49443C",
"6	c #48433B",
"7	c #47423A",
"....................",
"++++++++++++++++++++",
"@@@@@@@@@@@@@@@@@@@@",
"####################",
"$$$$$$$$$$$$$$$$$$$$",
"%%%%%%%%%%%%%%%%%%%%",
"%%%%%%%%%%%%%%%%%%%%",
"&&&&&&&&&&&&&&&&&&&&",
"********************",
"======-;>==>;-======",
",,,,,,;')!!)';,,,,,,",
",,,,,,!)'~~')!,,,,,,",
"{{{{{{{]~''~]{{{{{{{",
"^^^^^^^/~''~/^^^^^^^",
"((((((_:'~~':_((((((",
"<<<<<<[':}}:'[<<<<<<",
"<<<<<<|[}<<}[|<<<<<<",
"11111111111111111111",
"22222222222222222222",
"33333333333333333333",
"44444444444444444444",
"44444444444444444444",
"55555555555555555555",
"66666666666666666666",
"77777777777777777777"};
