/* XPM */
static char * close_inactive_xpm[] = {
"20 25 38 1",
" 	c None",
".	c #464139",
"+	c #6E6961",
"@	c #59544C",
"#	c #58534B",
"$	c #57524A",
"%	c #565149",
"&	c #555048",
"*	c #544F47",
"=	c #534E46",
"-	c #858381",
";	c #8A8987",
">	c #59544D",
",	c #524D45",
"'	c #8A8887",
")	c #9B9B9B",
"!	c #8E8D8C",
"~	c #58534C",
"{	c #8F8F8D",
"]	c #514C44",
"^	c #57524B",
"/	c #8F8E8D",
"(	c #504B43",
"_	c #56514A",
":	c #4F4A42",
"<	c #555049",
"[	c #8E8D8B",
"}	c #4E4941",
"|	c #898886",
"1	c #545048",
"2	c #83827F",
"3	c #4D4840",
"4	c #4C473F",
"5	c #4B463E",
"6	c #4A453D",
"7	c #49443C",
"8	c #48433B",
"9	c #47423A",
"....................",
"++++++++++++++++++++",
"@@@@@@@@@@@@@@@@@@@@",
"####################",
"$$$$$$$$$$$$$$$$$$$$",
"%%%%%%%%%%%%%%%%%%%%",
"%%%%%%%%%%%%%%%%%%%%",
"&&&&&&&&&&&&&&&&&&&&",
"********************",
"======-;>==>;-======",
",,,,,,')!~~!)',,,,,,",
",,,,,,~!){{)!~,,,,,,",
"]]]]]]]^/))/^]]]]]]]",
"(((((((_/))/_(((((((",
"::::::<[)//)[<::::::",
"}}}}}}|)[11[)|}}}}}}",
"}}}}}}2|1}}1|2}}}}}}",
"33333333333333333333",
"44444444444444444444",
"55555555555555555555",
"66666666666666666666",
"66666666666666666666",
"77777777777777777777",
"88888888888888888888",
"99999999999999999999"};
