/* XPM */
static char * close_pressed_xpm[] = {
"20 25 122 2",
"  	c None",
". 	c #464139",
"+ 	c #78736B",
"@ 	c #59544C",
"# 	c #58534B",
"$ 	c #57524A",
"% 	c #565149",
"& 	c #646058",
"* 	c #918E8A",
"= 	c #BBBAB7",
"- 	c #CECECC",
"; 	c #635F58",
"> 	c #59544D",
", 	c #A3A19E",
"' 	c #E2E2E2",
") 	c #E6E6E6",
"! 	c #E0E0E0",
"~ 	c #A3A19D",
"{ 	c #58544C",
"] 	c #555048",
"^ 	c #5A554E",
"/ 	c #C2C1BF",
"( 	c #E1E0E0",
"_ 	c #BEBDBB",
": 	c #A09E9A",
"< 	c #9B9894",
"[ 	c #BFBEBB",
"} 	c #5A554D",
"| 	c #544F47",
"1 	c #ACAAA7",
"2 	c #DEDEDD",
"3 	c #A6A4A0",
"4 	c #989590",
"5 	c #A6A49F",
"6 	c #DDDDDD",
"7 	c #AAA8A5",
"8 	c #534E46",
"9 	c #6D6963",
"0 	c #E4E4E4",
"a 	c #A4A29E",
"b 	c #CDCCCB",
"c 	c #D2D1D0",
"d 	c #9A9894",
"e 	c #94918C",
"f 	c #A4A29F",
"g 	c #6C6861",
"h 	c #524D45",
"i 	c #B0AEAB",
"j 	c #C6C5C3",
"k 	c #918E89",
"l 	c #D8D7D6",
"m 	c #989591",
"n 	c #DDDDDC",
"o 	c #A9A6A3",
"p 	c #8E8C87",
"q 	c #96938E",
"r 	c #E7E7E7",
"s 	c #D8D8D7",
"t 	c #AAA8A4",
"u 	c #DCDBDB",
"v 	c #514C44",
"w 	c #9B9893",
"x 	c #8B8882",
"y 	c #928F8A",
"z 	c #D8D8D6",
"A 	c #E7E7E6",
"B 	c #504B43",
"C 	c #87847E",
"D 	c #8E8B87",
"E 	c #D7D7D6",
"F 	c #4F4A42",
"G 	c #DCDCDB",
"H 	c #A2A09B",
"I 	c #83807A",
"J 	c #8B8883",
"K 	c #D6D5D4",
"L 	c #D7D6D5",
"M 	c #A3A19C",
"N 	c #DBDADA",
"O 	c #4E4941",
"P 	c #AEACA9",
"Q 	c #C0BEBC",
"R 	c #807C76",
"S 	c #CFCECC",
"T 	c #D6D5D3",
"U 	c #88857F",
"V 	c #BFBEBC",
"W 	c #69655E",
"X 	c #E4E3E3",
"Y 	c #928F8B",
"Z 	c #C7C6C5",
"` 	c #CECDCC",
" .	c #85827C",
"..	c #7C7973",
"+.	c #93908C",
"@.	c #68645D",
"#.	c #4D4840",
"$.	c #A8A6A2",
"%.	c #DADAD9",
"&.	c #8D8A84",
"*.	c #79756F",
"=.	c #8D8A85",
"-.	c #A7A5A2",
";.	c #4C473F",
">.	c #504B44",
",.	c #E0E0DF",
"'.	c #ABA9A6",
").	c #7D7A74",
"!.	c #74706A",
"~.	c #E1E1E0",
"{.	c #4B463E",
"].	c #9E9C98",
"^.	c #E1E1E1",
"/.	c #DFDEDE",
"(.	c #4A453D",
"_.	c #58534C",
":.	c #898681",
"<.	c #B7B6B3",
"[.	c #CCCBCA",
"}.	c #49443C",
"|.	c #48433B",
"1.	c #47423A",
". . . . . . . . . . . . . . . . . . . . ",
"+ + + + + + + + + + + + + + + + + + + + ",
"@ @ @ @ @ @ @ @ @ @ @ @ @ @ @ @ @ @ @ @ ",
"# # # # # # # # # # # # # # # # # # # # ",
"$ $ $ $ $ $ $ $ $ $ $ $ $ $ $ $ $ $ $ $ ",
"% % % % % % & * = - - = * ; % % % % % % ",
"% % % % > , ' ) ) ! ! ) ) ' ~ { % % % % ",
"] ] ] ^ / ) ( _ : < < : [ ' ) / } ] ] ] ",
"| | | 1 ) 2 3 4 4 4 4 4 4 5 6 ) 7 | | | ",
"8 8 9 0 0 a b c d e e d c b f 0 0 g 8 8 ",
"h h i ) j k c ) l m m l ) c k j ) i h h ",
"h h n ) o p q l r s s r l q p t ) u h h ",
"v v ) ) w x x y z A A z y x x w ) ) v v ",
"B B ) ) m C C D E r r E D C C m ) ) B B ",
"F F G ) H I J K A L L A K J I M ) N F F ",
"O O P ) Q R S A T U U T A S R V ) P O O ",
"O O W 0 X Y Z `  ..... .` Z +.0 0 @.O O ",
"#.#.#.$.) %.&.*.*.*.*.*.*.=.%.) -.#.#.#.",
";.;.;.>.V ) ,.'.).!.!.).1 ~.) V F ;.;.;.",
"{.{.{.{.O ].^.) ) /./.) ) ! ].O {.{.{.{.",
"(.(.(.(.(.(._.:.<.[.[.<.:._.(.(.(.(.(.(.",
"(.(.(.(.(.(.(.(.(.(.(.(.(.(.(.(.(.(.(.(.",
"}.}.}.}.}.}.}.}.}.}.}.}.}.}.}.}.}.}.}.}.",
"|.|.|.|.|.|.|.|.|.|.|.|.|.|.|.|.|.|.|.|.",
"1.1.1.1.1.1.1.1.1.1.1.1.1.1.1.1.1.1.1.1."};
