<?xml version="1.0" encoding="UTF-8" standalone="no"?>
<!-- Created with Inkscape (http://www.inkscape.org/) -->
<svg
   xmlns:dc="http://purl.org/dc/elements/1.1/"
   xmlns:cc="http://creativecommons.org/ns#"
   xmlns:rdf="http://www.w3.org/1999/02/22-rdf-syntax-ns#"
   xmlns:svg="http://www.w3.org/2000/svg"
   xmlns="http://www.w3.org/2000/svg"
   xmlns:xlink="http://www.w3.org/1999/xlink"
   xmlns:sodipodi="http://sodipodi.sourceforge.net/DTD/sodipodi-0.dtd"
   xmlns:inkscape="http://www.inkscape.org/namespaces/inkscape"
   width="48px"
   height="48px"
   id="svg7186"
   sodipodi:version="0.32"
   inkscape:version="0.46"
   sodipodi:docname="drawing.svg"
   inkscape:output_extension="org.inkscape.output.svg.inkscape">
  <defs
     id="defs7188">
    <linearGradient
       inkscape:collect="always"
       xlink:href="#linearGradient5132"
       id="linearGradient3246"
       x1="-393.18005"
       y1="144.06662"
       x2="-322.58649"
       y2="407.16791"
       gradientUnits="userSpaceOnUse" />
    <linearGradient
       id="linearGradient5132">
      <stop
         id="stop5134"
         offset="0"
         style="stop-color:#ffd89b;stop-opacity:1;" />
      <stop
         id="stop5136"
         offset="1"
         style="stop-color:white;stop-opacity:0;" />
    </linearGradient>
    <linearGradient
       inkscape:collect="always"
       xlink:href="#linearGradient5132"
       id="linearGradient2462"
       gradientUnits="userSpaceOnUse"
       x1="24.35676"
       y1="-20.997862"
       x2="24.35676"
       y2="73.942764"
       gradientTransform="translate(0.5,-1.0895905e-4)" />
    <linearGradient
       id="linearGradient3259">
      <stop
         style="stop-color:#729fcf;stop-opacity:1;"
         offset="0"
         id="stop3261" />
      <stop
         style="stop-color:#3f7ab9;stop-opacity:1;"
         offset="1"
         id="stop3263" />
    </linearGradient>
    <linearGradient
       inkscape:collect="always"
       xlink:href="#linearGradient3259"
       id="linearGradient2465"
       gradientUnits="userSpaceOnUse"
       gradientTransform="matrix(1.023254,0,0,1.0246524,-5.808e-2,-3.6456659e-2)"
       x1="25.19068"
       y1="8.6671848"
       x2="25.19068"
       y2="43.347984" />
    <filter
       id="filter3251"
       height="2.4846994"
       y="-0.74234971"
       width="1.0570566"
       x="-0.028528289"
       inkscape:collect="always">
      <feGaussianBlur
         id="feGaussianBlur3253"
         stdDeviation="0.65615064"
         inkscape:collect="always" />
    </filter>
  </defs>
  <sodipodi:namedview
     id="base"
     pagecolor="#ffffff"
     bordercolor="#666666"
     borderopacity="1.0"
     inkscape:pageopacity="0.0"
     inkscape:pageshadow="2"
     inkscape:zoom="7"
     inkscape:cx="24"
     inkscape:cy="24"
     inkscape:current-layer="layer1"
     showgrid="true"
     inkscape:grid-bbox="true"
     inkscape:document-units="px"
     inkscape:window-width="641"
     inkscape:window-height="690"
     inkscape:window-x="152"
     inkscape:window-y="25" />
  <metadata
     id="metadata7191">
    <rdf:RDF>
      <cc:Work
         rdf:about="">
        <dc:format>image/svg+xml</dc:format>
        <dc:type
           rdf:resource="http://purl.org/dc/dcmitype/StillImage" />
      </cc:Work>
    </rdf:RDF>
  </metadata>
  <g
     id="layer1"
     inkscape:label="Layer 1"
     inkscape:groupmode="layer">
    <rect
       style="opacity:0.61965811;fill:#000000;fill-opacity:1;fill-rule:nonzero;stroke:none;stroke-width:1;stroke-linecap:square;stroke-linejoin:miter;stroke-miterlimit:4;stroke-dasharray:none;stroke-dashoffset:0;stroke-opacity:1;filter:url(#filter3251)"
       id="rect3209"
       width="46"
       height="1.767767"
       x="1"
       y="44.906406"
       transform="matrix(1,0,0,2.2470573,0.5,-58.437542)"
       rx="2.0444446"
       ry="1.7677668" />
    <rect
       style="fill:url(#linearGradient2465);fill-opacity:1;fill-rule:nonzero;stroke:#204a87;stroke-width:1.00058115;stroke-linecap:square;stroke-linejoin:miter;stroke-miterlimit:0;stroke-dasharray:none;stroke-dashoffset:0;stroke-opacity:1"
       id="rect2286"
       width="43.999924"
       height="44.060055"
       x="2.5000613"
       y="1.5005213"
       rx="4.9999909"
       ry="5.006824" />
    <rect
       ry="4.0054593"
       rx="3.9999926"
       y="2.5018954"
       x="3.5000613"
       height="42.057323"
       width="41.999931"
       id="rect3257"
       style="opacity:0.98717951;fill:none;fill-opacity:1;fill-rule:nonzero;stroke:url(#linearGradient2462);stroke-width:1.00068116;stroke-linecap:square;stroke-linejoin:miter;stroke-miterlimit:4;stroke-dasharray:none;stroke-dashoffset:0;stroke-opacity:1" />
    <path
       style="fill:#000000;fill-opacity:0.19215686"
       d="M 7.5000004,4.9741215 C 6.672,4.9741215 6,5.6470344 6,6.4761594 C 6,14.915439 6.00001,23.062823 6,31.541417 L 8.6875004,33.481549 C 13.95165,37.058933 17.95267,38.4496 22.5625,38.175418 C 29.37199,37.770388 34.87034,32.927017 34.875,26.847548 C 34.87844,22.355974 31.69667,18.273415 28.21875,18.273415 C 25.19134,18.273415 22.58538,19.984357 22.78125,22.27885 C 22.88903,23.541303 23.68311,23.884248 24.90625,23.186331 C 26.17541,22.462128 27.22624,22.484299 28.375,23.530548 C 29.18086,24.264514 29.40624,24.801092 29.40625,26.065237 C 29.40625,29.399741 26.85281,31.965342 23.15625,31.948219 C 17.81965,31.923515 13.78753,26.897877 13.8125,20.808104 C 13.83227,15.98464 15.5092,12.3586 20.0625,7.8530274 C 21.39754,6.5319751 22.14389,5.207398 22,4.9741215 C 21.46985,4.9741215 10.33734,4.9741215 7.5000004,4.9741215 z M 30.125,10.794518 C 29.56404,10.775202 29.01373,10.791534 28.4375,10.825811 C 21.62802,11.23083 16.12964,16.074202 16.125,22.15368 C 16.12156,26.645254 19.30333,30.727813 22.78125,30.727813 C 25.80865,30.727813 28.41463,29.016872 28.21875,26.722379 C 28.11097,25.459926 27.31688,25.11698 26.09375,25.814897 C 24.82458,26.5391 23.77375,26.51695 22.625,25.47068 C 21.81914,24.736724 21.59375,24.200126 21.59375,22.935991 C 21.59375,19.601487 24.14722,17.035886 27.84375,17.05301 C 33.18036,17.077713 37.21247,22.103362 37.1875,28.193124 C 37.16773,33.016578 35.49079,36.642658 30.9375,41.148201 C 29.60245,42.469253 28.8561,43.79385 29,44.027107 C 29.44238,44.027117 38.57854,44.058159 41.46701,44.058399 C 41.4781,44.058399 41.4891,44.058399 41.5,44.058399 C 42.5,44.058399 43.23972,43.762978 44.03671,42.96072 C 44.77658,42.21594 45,41.054324 45,40.553644 C 45,40.536491 45,40.519348 45,40.502214 C 45,32.08926 45.00001,25.921192 45,17.459811 L 42.3125,15.519679 C 37.70638,12.389462 34.05171,10.929732 30.125,10.794518 z"
       id="path2469"
       sodipodi:nodetypes="csccsssssssssscccsssssssssscsssssccc" />
    <path
       id="path2454"
       d="M 7.0000004,4.0040553 C 6,4.0040553 5,5.0054139 5,6.0067725 C 5,14.446053 5.00001,22.092757 5,30.571351 L 7.6875004,32.511483 C 12.95165,36.088867 16.95267,37.479533 21.5625,37.205351 C 28.37199,36.800322 33.87034,31.956951 33.875,25.877482 C 33.87844,21.385908 30.69667,17.303349 27.21875,17.303349 C 24.19134,17.303349 21.58538,19.014291 21.78125,21.308784 C 21.88903,22.571236 22.68311,22.914182 23.90625,22.216265 C 25.17541,21.492062 26.22624,21.514232 27.375,22.560482 C 28.18086,23.294448 28.40624,23.831026 28.40625,25.095171 C 28.40625,28.429675 25.85281,30.995276 22.15625,30.978153 C 16.81965,30.953449 12.78753,25.927811 12.8125,19.838038 C 12.83227,15.014574 14.5092,11.388534 19.0625,6.8829613 C 20.39754,5.5619089 21.14389,4.2373318 21,4.0040553 C 20.46985,4.0040553 9.8373404,4.0040553 7.0000004,4.0040553 z M 29.125,9.8244522 C 28.56404,9.805136 28.01373,9.8214681 27.4375,9.8557446 C 20.62802,10.260764 15.12964,15.104135 15.125,21.183614 C 15.12156,25.675188 18.30333,29.757747 21.78125,29.757747 C 24.80865,29.757747 27.41463,28.046805 27.21875,25.752312 C 27.11097,24.48986 26.31688,24.146914 25.09375,24.844831 C 23.82458,25.569034 22.77375,25.546884 21.625,24.500614 C 20.81914,23.766658 20.59375,23.23006 20.59375,21.965925 C 20.59375,18.631421 23.14722,16.06582 26.84375,16.082943 C 32.18036,16.107647 36.21247,21.133296 36.1875,27.223058 C 36.16773,32.046512 34.49079,35.672592 29.9375,40.178135 C 28.60245,41.499187 27.8561,42.823784 28,43.057041 C 28.44408,43.057051 39.14881,43.057041 42,43.057041 C 43,43.057041 44,42.055682 44,41.054324 C 44,32.615053 44.00001,24.968359 44,16.489745 L 41.3125,14.549613 C 36.70638,11.419396 33.05171,9.9596656 29.125,9.8244522 z"
       style="fill:#ce5c00"
       sodipodi:nodetypes="csccsssssssssscccsssssssssscssccc" />
    <path
       sodipodi:type="inkscape:offset"
       inkscape:radius="-1.0115221"
       inkscape:original="M -403.5 166 C -404.328 166 -405 166.672 -405 167.5 C -405 175.92783 -404.99999 184.06416 -405 192.53125 L -402.3125 194.46875 C -397.04835 198.04128 -393.04733 199.43006 -388.4375 199.15625 C -381.62801 198.75177 -376.12966 193.91497 -376.125 187.84375 C -376.12156 183.35827 -379.30333 179.28125 -382.78125 179.28125 C -385.80866 179.28125 -388.41462 180.98987 -388.21875 183.28125 C -388.11097 184.54199 -387.31689 184.88447 -386.09375 184.1875 C -384.82459 183.46428 -383.77376 183.48642 -382.625 184.53125 C -381.81914 185.26422 -381.59376 185.80007 -381.59375 187.0625 C -381.59375 190.39248 -384.14719 192.9546 -387.84375 192.9375 C -393.18035 192.91283 -397.21247 187.89401 -397.1875 181.8125 C -397.16773 176.99558 -395.4908 173.37446 -390.9375 168.875 C -389.60246 167.55574 -388.85611 166.23296 -389 166 C -389.53015 166 -400.66266 166 -403.5 166 z M -380.875 171.8125 C -381.43596 171.79321 -381.98627 171.80952 -382.5625 171.84375 C -389.37198 172.24822 -394.87036 177.08502 -394.875 183.15625 C -394.87844 187.64173 -391.69667 191.71875 -388.21875 191.71875 C -385.19135 191.71875 -382.58537 190.01013 -382.78125 187.71875 C -382.88903 186.45801 -383.68312 186.11553 -384.90625 186.8125 C -386.17542 187.53572 -387.22625 187.5136 -388.375 186.46875 C -389.18086 185.73579 -389.40625 185.19992 -389.40625 183.9375 C -389.40625 180.60752 -386.85278 178.0454 -383.15625 178.0625 C -377.81964 178.08717 -373.78753 183.106 -373.8125 189.1875 C -373.83227 194.00441 -375.50921 197.62557 -380.0625 202.125 C -381.39755 203.44426 -382.1439 204.76706 -382 205 C -381.55592 205.00001 -370.35119 205 -367.5 205 C -366.672 205 -366 204.328 -366 203.5 C -366 195.07218 -365.99999 186.93586 -366 178.46875 L -368.6875 176.53125 C -373.29362 173.40528 -376.94829 171.94753 -380.875 171.8125 z "
       style="fill:url(#linearGradient3246);fill-opacity:1"
       id="path2456"
       d="M -403.5,167 C -403.7807,167 -404,167.2193 -404,167.5 C -404,175.74896 -403.99999,183.72608 -404,192 L -401.71875,193.65625 C -396.55087,197.16345 -392.87316,198.416 -388.5,198.15625 C -382.1348,197.77816 -377.12919,193.30467 -377.125,187.84375 C -377.12346,185.84042 -377.85004,183.89713 -378.9375,182.5 C -380.02496,181.10287 -381.43754,180.28125 -382.78125,180.28125 C -384.10466,180.28125 -385.32776,180.68418 -386.125,181.25 C -386.92224,181.81582 -387.28244,182.44237 -387.21875,183.1875 C -387.18216,183.61555 -387.11523,183.56216 -387.1875,183.53125 C -387.25977,183.50034 -387.06159,183.57908 -386.59375,183.3125 C -385.85098,182.88924 -385.04637,182.6205 -384.21875,182.6875 C -383.39113,182.7545 -382.62282,183.15793 -381.9375,183.78125 C -381.01955,184.61617 -380.59376,185.67968 -380.59375,187.0625 C -380.59375,190.90957 -383.67765,193.95677 -387.84375,193.9375 C -393.81217,193.90991 -398.21432,188.34339 -398.1875,181.8125 C -398.16678,176.7629 -396.31423,172.75915 -391.65625,168.15625 C -391.22577,167.73086 -390.96612,167.37311 -390.6875,167 C -393.11038,167 -400.99287,167 -403.5,167 z M -380.90625,172.8125 C -381.42493,172.79466 -381.94284,172.81065 -382.5,172.84375 C -388.86518,173.22183 -393.87083,177.69533 -393.875,183.15625 C -393.87654,185.15958 -393.14996,187.10287 -392.0625,188.5 C -390.97504,189.89713 -389.56246,190.71875 -388.21875,190.71875 C -386.89535,190.71875 -385.67224,190.31582 -384.875,189.75 C -384.07776,189.18418 -383.71755,188.55763 -383.78125,187.8125 C -383.81784,187.38445 -383.88476,187.43784 -383.8125,187.46875 C -383.74024,187.49966 -383.93842,187.42092 -384.40625,187.6875 C -385.14903,188.11076 -385.95363,188.3795 -386.78125,188.3125 C -387.60887,188.2455 -388.37718,187.84209 -389.0625,187.21875 C -389.98045,186.38384 -390.40625,185.32032 -390.40625,183.9375 C -390.40625,180.09042 -387.32232,177.04323 -383.15625,177.0625 C -377.18782,177.09009 -372.78568,182.65663 -372.8125,189.1875 C -372.83322,194.23709 -374.68578,198.24088 -379.34375,202.84375 C -379.77423,203.26914 -380.03388,203.62689 -380.3125,204 C -377.93592,204.00001 -370.01937,204 -367.5,204 C -367.2193,204 -367,203.7807 -367,203.5 C -367,195.25105 -366.99999,187.27394 -367,179 L -369.28125,177.34375 C -373.80256,174.27533 -377.2079,172.93968 -380.90625,172.8125 z"
       transform="matrix(1,0,0,1.0013586,410,-162.22147)" />
    <path
       style="opacity:0.10989009;fill:#ffffff;fill-opacity:1;fill-rule:nonzero;stroke:none;stroke-width:0.99999994;stroke-linecap:square;stroke-linejoin:miter;stroke-miterlimit:4;stroke-dashoffset:0;stroke-opacity:1"
       d="M 7.1159604,2.0011979 L 41.77511,2.0011979 C 43.7437,2.0011979 45.64103,3.5643287 45.64103,5.505973 L 45.99998,21.408929 C 34.290008,24.841422 20.043069,26.209828 3.00005,25.303333 L 3.00005,5.9440774 C 3.13879,4.0718873 5.15637,2.005704 7.1159604,2.0011979 z"
       id="rect3267"
       sodipodi:nodetypes="ccccccc" />
    <path
       sodipodi:type="inkscape:offset"
       inkscape:radius="-0.9921875"
       inkscape:original="M -403.5 167 C -403.7807 167 -404 167.2193 -404 167.5 C -404 175.74896 -403.99999 183.72608 -404 192 L -401.71875 193.65625 C -396.55087 197.16345 -392.87316 198.416 -388.5 198.15625 C -382.1348 197.77816 -377.12919 193.30467 -377.125 187.84375 C -377.12346 185.84042 -377.85004 183.89713 -378.9375 182.5 C -380.02496 181.10287 -381.43754 180.28125 -382.78125 180.28125 C -384.10466 180.28125 -385.32776 180.68418 -386.125 181.25 C -386.92224 181.81582 -387.28244 182.44237 -387.21875 183.1875 C -387.18216 183.61555 -387.11523 183.56216 -387.1875 183.53125 C -387.25977 183.50034 -387.06159 183.57908 -386.59375 183.3125 C -385.85098 182.88924 -385.04637 182.6205 -384.21875 182.6875 C -383.39113 182.7545 -382.62282 183.15793 -381.9375 183.78125 C -381.01955 184.61617 -380.59376 185.67968 -380.59375 187.0625 C -380.59375 190.90957 -383.67765 193.95677 -387.84375 193.9375 C -393.81217 193.90991 -398.21432 188.34339 -398.1875 181.8125 C -398.16678 176.7629 -396.31423 172.75915 -391.65625 168.15625 C -391.22577 167.73086 -390.96612 167.37311 -390.6875 167 C -393.11038 167 -400.99287 167 -403.5 167 z M -380.90625 172.8125 C -381.42493 172.79466 -381.94284 172.81065 -382.5 172.84375 C -388.86518 173.22183 -393.87083 177.69533 -393.875 183.15625 C -393.87654 185.15958 -393.14996 187.10287 -392.0625 188.5 C -390.97504 189.89713 -389.56246 190.71875 -388.21875 190.71875 C -386.89535 190.71875 -385.67224 190.31582 -384.875 189.75 C -384.07776 189.18418 -383.71755 188.55763 -383.78125 187.8125 C -383.81784 187.38445 -383.88476 187.43784 -383.8125 187.46875 C -383.74024 187.49966 -383.93842 187.42092 -384.40625 187.6875 C -385.14903 188.11076 -385.95363 188.3795 -386.78125 188.3125 C -387.60887 188.2455 -388.37718 187.84209 -389.0625 187.21875 C -389.98045 186.38384 -390.40625 185.32032 -390.40625 183.9375 C -390.40625 180.09042 -387.32232 177.04323 -383.15625 177.0625 C -377.18782 177.09009 -372.78568 182.65663 -372.8125 189.1875 C -372.83322 194.23709 -374.68578 198.24088 -379.34375 202.84375 C -379.77423 203.26914 -380.03388 203.62689 -380.3125 204 C -377.93592 204.00001 -370.01937 204 -367.5 204 C -367.2193 204 -367 203.7807 -367 203.5 C -367 195.25105 -366.99999 187.27394 -367 179 L -369.28125 177.34375 C -373.80256 174.27533 -377.2079 172.93968 -380.90625 172.8125 z "
       style="fill:#f57900;fill-opacity:1"
       id="path2467"
       d="M -403,168 C -403,175.89134 -402.99999,183.55517 -403,191.46875 L -401.125,192.84375 C -396.04728,196.28977 -392.71434,197.40285 -388.5625,197.15625 C -382.62899,196.8038 -378.12873,192.69878 -378.125,187.84375 C -378.12364,186.08081 -378.77362,184.33927 -379.71875,183.125 C -380.66622,181.90773 -381.84199,181.28125 -382.78125,181.28125 C -383.38808,181.28125 -383.77569,181.55378 -384.28125,181.71875 C -384.22659,181.721 -384.18013,181.68304 -384.125,181.6875 C -383.02732,181.77636 -382.08199,182.3342 -381.28125,183.0625 C -380.16602,184.07685 -379.59376,185.47601 -379.59375,187.0625 C -379.59375,191.43981 -383.19159,194.95902 -387.84375,194.9375 C -394.42681,194.90707 -399.21616,188.79155 -399.1875,181.8125 C -399.16667,176.73546 -397.21048,172.49721 -392.84375,168 C -395.97773,168 -400.69316,168 -403,168 z M -380.9375,173.8125 C -381.41315,173.79614 -381.89779,173.81169 -382.4375,173.84375 C -388.37099,174.19619 -392.87129,178.30123 -392.875,183.15625 C -392.87636,184.91919 -392.22638,186.66073 -391.28125,187.875 C -390.33378,189.09227 -389.15801,189.71875 -388.21875,189.71875 C -387.61193,189.71875 -387.22431,189.44622 -386.71875,189.28125 C -386.77341,189.279 -386.81987,189.31696 -386.875,189.3125 C -387.97267,189.22364 -388.918,188.66583 -389.71875,187.9375 C -390.83398,186.92316 -391.40625,185.524 -391.40625,183.9375 C -391.40625,179.56018 -387.80838,176.04098 -383.15625,176.0625 C -376.57318,176.09293 -371.78384,182.20847 -371.8125,189.1875 C -371.83333,194.26453 -373.78953,198.50282 -378.15625,203 C -375.03983,203 -370.31777,203 -368,203 C -368,195.10866 -367.99999,187.44485 -368,179.53125 L -369.875,178.15625 C -374.31547,175.14269 -377.4567,173.9322 -380.9375,173.8125 z"
       transform="matrix(1,0,0,1.0013586,410,-162.22147)" />
  </g>
</svg>
