/* XPM */
static char * hide_pressed_xpm[] = {
"20 25 106 2",
"  	c None",
". 	c #464139",
"+ 	c #78736B",
"@ 	c #59544C",
"# 	c #58534B",
"$ 	c #57524A",
"% 	c #565149",
"& 	c #646058",
"* 	c #918E8A",
"= 	c #BBBAB7",
"- 	c #CECECC",
"; 	c #635F58",
"> 	c #59544D",
", 	c #A3A19E",
"' 	c #E2E2E2",
") 	c #E6E6E6",
"! 	c #E0E0E0",
"~ 	c #A3A19D",
"{ 	c #58544C",
"] 	c #555048",
"^ 	c #5A554E",
"/ 	c #C2C1BF",
"( 	c #E1E0E0",
"_ 	c #BEBDBB",
": 	c #A09E9A",
"< 	c #9B9894",
"[ 	c #BFBEBB",
"} 	c #5A554D",
"| 	c #544F47",
"1 	c #ACAAA7",
"2 	c #DEDEDD",
"3 	c #A6A4A0",
"4 	c #989590",
"5 	c #A6A49F",
"6 	c #DDDDDD",
"7 	c #AAA8A5",
"8 	c #534E46",
"9 	c #6D6963",
"0 	c #E4E4E4",
"a 	c #A4A29E",
"b 	c #94918C",
"c 	c #A4A29F",
"d 	c #6C6861",
"e 	c #524D45",
"f 	c #B0AEAB",
"g 	c #C6C5C3",
"h 	c #918E89",
"i 	c #DDDDDC",
"j 	c #A9A6A3",
"k 	c #8E8C87",
"l 	c #AAA8A4",
"m 	c #DCDBDB",
"n 	c #514C44",
"o 	c #9B9893",
"p 	c #8B8882",
"q 	c #504B43",
"r 	c #989591",
"s 	c #87847E",
"t 	c #4F4A42",
"u 	c #DCDCDB",
"v 	c #A2A09B",
"w 	c #83807A",
"x 	c #C9C9C6",
"y 	c #E7E7E6",
"z 	c #CDCBC9",
"A 	c #A3A19C",
"B 	c #DBDADA",
"C 	c #4E4941",
"D 	c #AEACA9",
"E 	c #C0BEBC",
"F 	c #807C76",
"G 	c #C9C7C5",
"H 	c #C6C5C2",
"I 	c #BFBEBC",
"J 	c #69655E",
"K 	c #E4E3E3",
"L 	c #928F8B",
"M 	c #7C7973",
"N 	c #93908C",
"O 	c #68645D",
"P 	c #4D4840",
"Q 	c #A8A6A2",
"R 	c #DADAD9",
"S 	c #8D8A84",
"T 	c #79756F",
"U 	c #8D8A85",
"V 	c #A7A5A2",
"W 	c #4C473F",
"X 	c #504B44",
"Y 	c #E0E0DF",
"Z 	c #ABA9A6",
"` 	c #7D7A74",
" .	c #74706A",
"..	c #E1E1E0",
"+.	c #4B463E",
"@.	c #9E9C98",
"#.	c #E1E1E1",
"$.	c #DFDEDE",
"%.	c #4A453D",
"&.	c #58534C",
"*.	c #898681",
"=.	c #B7B6B3",
"-.	c #CCCBCA",
";.	c #49443C",
">.	c #48433B",
",.	c #47423A",
". . . . . . . . . . . . . . . . . . . . ",
"+ + + + + + + + + + + + + + + + + + + + ",
"@ @ @ @ @ @ @ @ @ @ @ @ @ @ @ @ @ @ @ @ ",
"# # # # # # # # # # # # # # # # # # # # ",
"$ $ $ $ $ $ $ $ $ $ $ $ $ $ $ $ $ $ $ $ ",
"% % % % % % & * = - - = * ; % % % % % % ",
"% % % % > , ' ) ) ! ! ) ) ' ~ { % % % % ",
"] ] ] ^ / ) ( _ : < < : [ ' ) / } ] ] ] ",
"| | | 1 ) 2 3 4 4 4 4 4 4 5 6 ) 7 | | | ",
"8 8 9 0 0 a b b b b b b b b c 0 0 d 8 8 ",
"e e f ) g h h h h h h h h h h g ) f e e ",
"e e i ) j k k k k k k k k k k l ) m e e ",
"n n ) ) o p p p p p p p p p p o ) ) n n ",
"q q ) ) r s s s s s s s s s s r ) ) q q ",
"t t u ) v w x y y y y y y z w A ) B t t ",
"C C D ) E F G y y y y y y H F I ) D C C ",
"C C J 0 K L M M M M M M M M N 0 0 O C C ",
"P P P Q ) R S T T T T T T U R ) V P P P ",
"W W W X I ) Y Z `  . .` 1 ..) I t W W W ",
"+.+.+.+.C @.#.) ) $.$.) ) ! @.C +.+.+.+.",
"%.%.%.%.%.%.&.*.=.-.-.=.*.&.%.%.%.%.%.%.",
"%.%.%.%.%.%.%.%.%.%.%.%.%.%.%.%.%.%.%.%.",
";.;.;.;.;.;.;.;.;.;.;.;.;.;.;.;.;.;.;.;.",
">.>.>.>.>.>.>.>.>.>.>.>.>.>.>.>.>.>.>.>.",
",.,.,.,.,.,.,.,.,.,.,.,.,.,.,.,.,.,.,.,."};
