/* XPM */
static char * hide_prelight_xpm[] = {
"20 25 78 1",
" 	c None",
".	c #3C3C3C",
"+	c #707070",
"@	c #515151",
"#	c #505050",
"$	c #4F4F4F",
"%	c #4E4E4E",
"&	c #5D5D5D",
"*	c #8D8D8D",
"=	c #B9B9B9",
"-	c #CDCDCD",
";	c #5C5C5C",
">	c #4D4D4D",
",	c #9F9F9F",
"'	c #E2E2E2",
")	c #E6E6E6",
"!	c #DBDBDB",
"~	c #4C4C4C",
"{	c #525252",
"]	c #C0C0C0",
"^	c #DEDEDE",
"/	c #959595",
"(	c #555555",
"_	c #565656",
":	c #969696",
"<	c #DFDFDF",
"[	c #4B4B4B",
"}	c #A8A8A8",
"|	c #D4D4D4",
"1	c #666666",
"2	c #D5D5D5",
"3	c #A6A6A6",
"4	c #4A4A4A",
"5	c #E4E4E4",
"6	c #E1E1E1",
"7	c #686868",
"8	c #696969",
"9	c #656565",
"0	c #ADADAD",
"a	c #AAAAAA",
"b	c #ABABAB",
"c	c #494949",
"d	c #DCDCDC",
"e	c #787878",
"f	c #7A7A7A",
"g	c #484848",
"h	c #646464",
"i	c #474747",
"j	c #636363",
"k	c #464646",
"l	c #767676",
"m	c #B7B7B7",
"n	c #BCBCBC",
"o	c #DADADA",
"p	c #454545",
"q	c #A9A9A9",
"r	c #B6B6B6",
"s	c #B2B2B2",
"t	c #444444",
"u	c #606060",
"v	c #434343",
"w	c #A4A4A4",
"x	c #616161",
"y	c #A3A3A3",
"z	c #BDBDBD",
"A	c #919191",
"B	c #939393",
"C	c #424242",
"D	c #9A9A9A",
"E	c #E0E0E0",
"F	c #414141",
"G	c #838383",
"H	c #B4B4B4",
"I	c #CACACA",
"J	c #404040",
"K	c #3F3F3F",
"L	c #3E3E3E",
"M	c #3D3D3D",
"....................",
"++++++++++++++++++++",
"@@@@@@@@@@@@@@@@@@@@",
"####################",
"$$$$$$$$$$$$$$$$$$$$",
"%%%%%%&*=--=*;%%%%%%",
">>>>#,'))!!))',#>>>>",
"~~~{])^/(~~_:<)]@~~~",
"[[[})|1[[[[[[12)3[[[",
"441567444444448'5944",
"440)a4444444444b)044",
"ccd)eccccccccccf)!cc",
"gg))hggggggggggh))gg",
"ii))jiiiiiiiiiij))ii",
"kk!)lkm))))))nke)okk",
"ppb)qpr))))))sp})bpp",
"ttu569tttttttt1'5utt",
"vvvw)|uvvvvvvx|)yvvv",
"vvviz)^A%vv%B<)zkvvv",
"CCCCpD6))!!))EDpCCCC",
"FFFFFF#GHIIHG#FFFFFF",
"JJJJJJJJJJJJJJJJJJJJ",
"KKKKKKKKKKKKKKKKKKKK",
"LLLLLLLLLLLLLLLLLLLL",
"MMMMMMMMMMMMMMMMMMMM"};
