/* XPM */
static char * close_prelight_xpm[] = {
"20 25 82 1",
" 	c None",
".	c #3C3C3C",
"+	c #707070",
"@	c #515151",
"#	c #505050",
"$	c #4F4F4F",
"%	c #4E4E4E",
"&	c #5D5D5D",
"*	c #8D8D8D",
"=	c #B9B9B9",
"-	c #CDCDCD",
";	c #5C5C5C",
">	c #4D4D4D",
",	c #9F9F9F",
"'	c #E2E2E2",
")	c #E6E6E6",
"!	c #DBDBDB",
"~	c #4C4C4C",
"{	c #525252",
"]	c #C0C0C0",
"^	c #DEDEDE",
"/	c #959595",
"(	c #555555",
"_	c #565656",
":	c #969696",
"<	c #DFDFDF",
"[	c #4B4B4B",
"}	c #A8A8A8",
"|	c #D4D4D4",
"1	c #666666",
"2	c #D5D5D5",
"3	c #A6A6A6",
"4	c #4A4A4A",
"5	c #E4E4E4",
"6	c #E1E1E1",
"7	c #686868",
"8	c #B8B8B8",
"9	c #C2C2C2",
"0	c #575757",
"a	c #696969",
"b	c #656565",
"c	c #ADADAD",
"d	c #AAAAAA",
"e	c #CBCBCB",
"f	c #ABABAB",
"g	c #494949",
"h	c #DCDCDC",
"i	c #787878",
"j	c #7A7A7A",
"k	c #484848",
"l	c #646464",
"m	c #474747",
"n	c #636363",
"o	c #545454",
"p	c #464646",
"q	c #767676",
"r	c #535353",
"s	c #DADADA",
"t	c #454545",
"u	c #A9A9A9",
"v	c #C1C1C1",
"w	c #444444",
"x	c #606060",
"y	c #B6B6B6",
"z	c #434343",
"A	c #A4A4A4",
"B	c #616161",
"C	c #A3A3A3",
"D	c #BDBDBD",
"E	c #919191",
"F	c #939393",
"G	c #424242",
"H	c #9A9A9A",
"I	c #E0E0E0",
"J	c #414141",
"K	c #838383",
"L	c #B4B4B4",
"M	c #CACACA",
"N	c #404040",
"O	c #3F3F3F",
"P	c #3E3E3E",
"Q	c #3D3D3D",
"....................",
"++++++++++++++++++++",
"@@@@@@@@@@@@@@@@@@@@",
"####################",
"$$$$$$$$$$$$$$$$$$$$",
"%%%%%%&*=--=*;%%%%%%",
">>>>#,'))!!))',#>>>>",
"~~~{])^/(~~_:<)]@~~~",
"[[[})|1[[[[[[12)3[[[",
"44156789044098a'5b44",
"44c)d49)e00e)94f)c44",
"ggh)ig_e)--)e_gj)!gg",
"kk))lkk(-))-(kkl))kk",
"mm))nmmo-))-ommn))mm",
"pp!)qpre)--)erpi)spp",
"ttf)utv)e{{e)vt})ftt",
"wwx56byv@ww@vy1'5xww",
"zzzA)|xzzzzzzB|)Czzz",
"zzzmD)^E%zz%F<)Dpzzz",
"GGGGtH6))!!))IHtGGGG",
"JJJJJJ#KLMMLK#JJJJJJ",
"NNNNNNNNNNNNNNNNNNNN",
"OOOOOOOOOOOOOOOOOOOO",
"PPPPPPPPPPPPPPPPPPPP",
"QQQQQQQQQQQQQQQQQQQQ"};
