/* XPM */
static char * maximize_prelight_xpm[] = {
"20 25 79 1",
" 	c None",
".	c #3C3C3C",
"+	c #707070",
"@	c #515151",
"#	c #505050",
"$	c #4F4F4F",
"%	c #4E4E4E",
"&	c #5D5D5D",
"*	c #8D8D8D",
"=	c #B9B9B9",
"-	c #CDCDCD",
";	c #5C5C5C",
">	c #4D4D4D",
",	c #9F9F9F",
"'	c #E2E2E2",
")	c #E6E6E6",
"!	c #DBDBDB",
"~	c #4C4C4C",
"{	c #525252",
"]	c #C0C0C0",
"^	c #DEDEDE",
"/	c #959595",
"(	c #555555",
"_	c #565656",
":	c #969696",
"<	c #DFDFDF",
"[	c #4B4B4B",
"}	c #A8A8A8",
"|	c #D4D4D4",
"1	c #666666",
"2	c #D5D5D5",
"3	c #A6A6A6",
"4	c #4A4A4A",
"5	c #E4E4E4",
"6	c #E1E1E1",
"7	c #686868",
"8	c #B8B8B8",
"9	c #696969",
"0	c #656565",
"a	c #ADADAD",
"b	c #AAAAAA",
"c	c #ABABAB",
"d	c #494949",
"e	c #DCDCDC",
"f	c #787878",
"g	c #7A7A7A",
"h	c #484848",
"i	c #646464",
"j	c #B7B7B7",
"k	c #BDBDBD",
"l	c #474747",
"m	c #636363",
"n	c #B3B3B3",
"o	c #464646",
"p	c #767676",
"q	c #DADADA",
"r	c #454545",
"s	c #A9A9A9",
"t	c #444444",
"u	c #606060",
"v	c #B1B1B1",
"w	c #BCBCBC",
"x	c #434343",
"y	c #A4A4A4",
"z	c #616161",
"A	c #A3A3A3",
"B	c #919191",
"C	c #939393",
"D	c #424242",
"E	c #9A9A9A",
"F	c #E0E0E0",
"G	c #414141",
"H	c #838383",
"I	c #B4B4B4",
"J	c #CACACA",
"K	c #404040",
"L	c #3F3F3F",
"M	c #3E3E3E",
"N	c #3D3D3D",
"....................",
"++++++++++++++++++++",
"@@@@@@@@@@@@@@@@@@@@",
"####################",
"$$$$$$$$$$$$$$$$$$$$",
"%%%%%%&*=--=*;%%%%%%",
">>>>#,'))!!))',#>>>>",
"~~~{])^/(~~_:<)]@~~~",
"[[[})|1[[[[[[12)3[[[",
"441567444884449'5044",
"44a)b4444))4444c)a44",
"dde)fdddd))ddddg)!dd",
"hh))ihj))))))khi))hh",
"ll))mlj))))))nlm))ll",
"oo!)poooo))oooof)qoo",
"rrc)srrrr')drrr})crr",
"ttu560tttvwttt1'5utt",
"xxxy)|uxxxxxxz|)Axxx",
"xxxlk)^B%xx%C<)koxxx",
"DDDDrE6))!!))FErDDDD",
"GGGGGG#HIJJIH#GGGGGG",
"KKKKKKKKKKKKKKKKKKKK",
"LLLLLLLLLLLLLLLLLLLL",
"MMMMMMMMMMMMMMMMMMMM",
"NNNNNNNNNNNNNNNNNNNN"};
