<?xml version="1.0" encoding="UTF-8" standalone="no"?>
<!-- Created with Inkscape (http://www.inkscape.org/) -->
<svg
   xmlns:dc="http://purl.org/dc/elements/1.1/"
   xmlns:cc="http://creativecommons.org/ns#"
   xmlns:rdf="http://www.w3.org/1999/02/22-rdf-syntax-ns#"
   xmlns:svg="http://www.w3.org/2000/svg"
   xmlns="http://www.w3.org/2000/svg"
   xmlns:xlink="http://www.w3.org/1999/xlink"
   xmlns:sodipodi="http://sodipodi.sourceforge.net/DTD/sodipodi-0.dtd"
   xmlns:inkscape="http://www.inkscape.org/namespaces/inkscape"
   width="32px"
   height="32px"
   id="svg7516"
   sodipodi:version="0.32"
   inkscape:version="0.46"
   sodipodi:docname="drawing1.svg"
   inkscape:output_extension="org.inkscape.output.svg.inkscape">
  <defs
     id="defs7518">
    <linearGradient
       id="linearGradient32104"
       inkscape:collect="always">
      <stop
         id="stop32106"
         offset="0"
         style="stop-color:#ffffff;stop-opacity:1" />
      <stop
         id="stop32108"
         offset="1"
         style="stop-color:#ffffff;stop-opacity:0" />
    </linearGradient>
    <linearGradient
       inkscape:collect="always"
       xlink:href="#linearGradient32104"
       id="linearGradient32110"
       gradientUnits="userSpaceOnUse"
       gradientTransform="matrix(0.6666666,0,0,0.6250001,-0.6666667,0.3749974)"
       x1="24.380535"
       y1="20.199999"
       x2="24.296509"
       y2="37.816044" />
    <linearGradient
       inkscape:collect="always"
       id="linearGradient32094">
      <stop
         style="stop-color:#ffffff;stop-opacity:1"
         offset="0"
         id="stop32096" />
      <stop
         style="stop-color:#ffffff;stop-opacity:0"
         offset="1"
         id="stop32098" />
    </linearGradient>
    <linearGradient
       inkscape:collect="always"
       xlink:href="#linearGradient32094"
       id="linearGradient32112"
       gradientUnits="userSpaceOnUse"
       gradientTransform="matrix(0.6666666,0,0,0.625,-6.7811717e-7,-0.2500006)"
       x1="24.90534"
       y1="18"
       x2="24.813028"
       y2="38.749592" />
    <linearGradient
       inkscape:collect="always"
       id="linearGradient6704">
      <stop
         style="stop-color:#000000;stop-opacity:1;"
         offset="0"
         id="stop6706" />
      <stop
         style="stop-color:#000000;stop-opacity:0;"
         offset="1"
         id="stop6708" />
    </linearGradient>
    <radialGradient
       inkscape:collect="always"
       xlink:href="#linearGradient6704"
       id="radialGradient9391"
       gradientUnits="userSpaceOnUse"
       gradientTransform="matrix(1,0,0,0.1166667,0,348.72344)"
       cx="1120.375"
       cy="394.78125"
       fx="1120.375"
       fy="394.78125"
       r="20.625" />
    <linearGradient
       id="linearGradient9347">
      <stop
         id="stop9349"
         offset="0.0000000"
         style="stop-color:#7a7a7a;stop-opacity:1.0000000;" />
      <stop
         id="stop9351"
         offset="0.19801980"
         style="stop-color:#ebebeb;stop-opacity:1" />
      <stop
         id="stop9353"
         offset="0.59900987"
         style="stop-color:#b9b9b9;stop-opacity:1" />
      <stop
         id="stop9355"
         offset="1.0000000"
         style="stop-color:#878787;stop-opacity:1" />
    </linearGradient>
    <linearGradient
       inkscape:collect="always"
       xlink:href="#linearGradient9347"
       id="linearGradient6753"
       gradientUnits="userSpaceOnUse"
       gradientTransform="matrix(0.5065613,0,0,0.4581256,43.136236,11.218305)"
       x1="23.100046"
       y1="38.296745"
       x2="23.143667"
       y2="46.03775" />
    <linearGradient
       id="linearGradient178">
      <stop
         style="stop-color:#ffffff;stop-opacity:0.0000000;"
         offset="0.0000000"
         id="stop179" />
      <stop
         style="stop-color:#d9d9d9;stop-opacity:1"
         offset="0.10827128"
         id="stop180" />
      <stop
         style="stop-color:#d9d9d9;stop-opacity:1"
         offset="0.92053902"
         id="stop181" />
      <stop
         style="stop-color:#ffffff;stop-opacity:0.0000000;"
         offset="1.0000000"
         id="stop182" />
    </linearGradient>
    <linearGradient
       inkscape:collect="always"
       xlink:href="#linearGradient178"
       id="linearGradient7832"
       gradientUnits="userSpaceOnUse"
       gradientTransform="matrix(2.1370913,0,0,9.1235758e-2,36.727542,19.750004)"
       x1="1.6422368"
       y1="117.8271"
       x2="15.343062"
       y2="117.8271" />
    <linearGradient
       inkscape:collect="always"
       xlink:href="#linearGradient272"
       id="linearGradient7834"
       gradientUnits="userSpaceOnUse"
       gradientTransform="matrix(6.706103,0,0,0.2235361,35.772302,-45.865211)"
       x1="0.61210024"
       y1="372.57819"
       x2="5.0856376"
       y2="372.57819" />
    <linearGradient
       id="linearGradient272">
      <stop
         style="stop-color:#474747;stop-opacity:0.0000000;"
         offset="0.0000000"
         id="stop273" />
      <stop
         style="stop-color:#474747;stop-opacity:1.0000000;"
         offset="0.10000000"
         id="stop275" />
      <stop
         style="stop-color:#474747;stop-opacity:1.0000000;"
         offset="0.89999998"
         id="stop276" />
      <stop
         style="stop-color:#474747;stop-opacity:0.0000000;"
         offset="1.0000000"
         id="stop274" />
    </linearGradient>
    <linearGradient
       inkscape:collect="always"
       xlink:href="#linearGradient272"
       id="linearGradient7830"
       gradientUnits="userSpaceOnUse"
       gradientTransform="matrix(6.7061034,0,0,0.2235366,35.77231,-51.784906)"
       x1="0.61210024"
       y1="372.57819"
       x2="5.0856376"
       y2="372.57819" />
    <linearGradient
       inkscape:collect="always"
       id="linearGradient6265">
      <stop
         style="stop-color:#ffffff;stop-opacity:1;"
         offset="0"
         id="stop6267" />
      <stop
         style="stop-color:#ffffff;stop-opacity:0;"
         offset="1"
         id="stop6269" />
    </linearGradient>
    <linearGradient
       inkscape:collect="always"
       id="linearGradient8107">
      <stop
         style="stop-color:#3465a4;stop-opacity:1"
         offset="0"
         id="stop8109" />
      <stop
         style="stop-color:#204a87;stop-opacity:1"
         offset="1"
         id="stop8111" />
    </linearGradient>
    <linearGradient
       id="linearGradient4103">
      <stop
         style="stop-color:#8fb3d9;stop-opacity:1"
         offset="0"
         id="stop4105" />
      <stop
         style="stop-color:#3465a4;stop-opacity:1"
         offset="1"
         id="stop4107" />
    </linearGradient>
    <linearGradient
       id="linearGradient17648">
      <stop
         id="stop17650"
         offset="0"
         style="stop-color:#ffffff;stop-opacity:0.6" />
      <stop
         id="stop17652"
         offset="1"
         style="stop-color:#ffffff;stop-opacity:0;" />
    </linearGradient>
    <linearGradient
       inkscape:collect="always"
       id="linearGradient6293">
      <stop
         style="stop-color:#888a85;stop-opacity:1"
         offset="0"
         id="stop6295" />
      <stop
         style="stop-color:#555753;stop-opacity:1"
         offset="1"
         id="stop6297" />
    </linearGradient>
    <linearGradient
       inkscape:collect="always"
       xlink:href="#linearGradient6293"
       id="linearGradient7590"
       gradientUnits="userSpaceOnUse"
       gradientTransform="matrix(0.6792506,0,0,0.6663604,-0.301936,-3.8258134)"
       x1="23.999998"
       y1="8.7654715"
       x2="24.000002"
       y2="26.823833" />
    <linearGradient
       inkscape:collect="always"
       xlink:href="#linearGradient17648"
       id="linearGradient7592"
       gradientUnits="userSpaceOnUse"
       gradientTransform="matrix(0.6666651,0,0,0.6666659,1.1713318e-4,-3.8332964)"
       x1="24.001408"
       y1="10.238918"
       x2="23.999996"
       y2="38.762936" />
    <linearGradient
       inkscape:collect="always"
       xlink:href="#linearGradient4103"
       id="linearGradient7594"
       gradientUnits="userSpaceOnUse"
       gradientTransform="matrix(0.9935665,0,0,0.9748185,1.6474216,9.6527892)"
       x1="256.15524"
       y1="191.70981"
       x2="256.24692"
       y2="457.17615" />
    <linearGradient
       inkscape:collect="always"
       xlink:href="#linearGradient8107"
       id="linearGradient7596"
       gradientUnits="userSpaceOnUse"
       x1="291.71786"
       y1="133.28145"
       x2="291.88379"
       y2="455.31656" />
    <linearGradient
       inkscape:collect="always"
       xlink:href="#linearGradient6265"
       id="linearGradient7598"
       gradientUnits="userSpaceOnUse"
       gradientTransform="matrix(0.6740364,0,0,0.653844,-0.181882,-2.6345984)"
       x1="25.463717"
       y1="14.590255"
       x2="25.491144"
       y2="42.341671" />
  </defs>
  <sodipodi:namedview
     id="base"
     pagecolor="#ffffff"
     bordercolor="#666666"
     borderopacity="1.0"
     inkscape:pageopacity="0.0"
     inkscape:pageshadow="2"
     inkscape:zoom="5.598901"
     inkscape:cx="23.996168"
     inkscape:cy="16.46315"
     inkscape:current-layer="layer1"
     showgrid="true"
     inkscape:grid-bbox="true"
     inkscape:document-units="px"
     inkscape:window-width="641"
     inkscape:window-height="690"
     inkscape:window-x="173"
     inkscape:window-y="353" />
  <metadata
     id="metadata7521">
    <rdf:RDF>
      <cc:Work
         rdf:about="">
        <dc:format>image/svg+xml</dc:format>
        <dc:type
           rdf:resource="http://purl.org/dc/dcmitype/StillImage" />
      </cc:Work>
    </rdf:RDF>
  </metadata>
  <g
     id="layer1"
     inkscape:label="Layer 1"
     inkscape:groupmode="layer">
    <rect
       style="fill:#d9d9d9;fill-opacity:1;stroke:#707070;stroke-width:1.00014102;stroke-miterlimit:4;stroke-dasharray:none;stroke-opacity:1"
       id="rect8955"
       width="2.9998591"
       height="2.9998591"
       x="14.500072"
       y="23.500067" />
    <path
       sodipodi:type="arc"
       style="opacity:0.4;fill:url(#radialGradient9391);fill-opacity:1;fill-rule:evenodd;stroke:none;display:inline;enable-background:new"
       id="path6774"
       sodipodi:cx="1120.375"
       sodipodi:cy="394.78125"
       sodipodi:rx="20.625"
       sodipodi:ry="2.40625"
       d="M 1141,394.78125 A 20.625,2.40625 0 1 1 1099.75,394.78125 A 20.625,2.40625 0 1 1 1141,394.78125 z"
       transform="matrix(0.7272727,0,0,0.8701298,-798.81815,-314.29268)" />
    <g
       style="display:inline;enable-background:new"
       id="g7753"
       transform="translate(-38.8771,-2.0004739)">
      <rect
         style="opacity:0.65;fill:url(#linearGradient7830);fill-opacity:1;fill-rule:nonzero;stroke:none;stroke-width:1;marker:none;visibility:visible;display:block;overflow:visible"
         id="rect8601"
         width="30"
         height="1"
         x="39.87711"
         y="31" />
      <rect
         style="opacity:0.65;fill:url(#linearGradient7834);fill-opacity:1;fill-rule:nonzero;stroke:none;stroke-width:1;marker:none;visibility:visible;display:block;overflow:visible"
         id="rect8603"
         width="30"
         height="1"
         x="39.877102"
         y="29" />
      <rect
         style="fill:url(#linearGradient7832);fill-opacity:1;fill-rule:nonzero;stroke:none;stroke-width:1;marker:none;visibility:visible;display:block;overflow:visible"
         id="rect8605"
         width="28.5"
         height="1"
         x="40.627102"
         y="30" />
      <path
         sodipodi:nodetypes="ccccccccccc"
         style="fill:url(#linearGradient6753);fill-opacity:1;fill-rule:nonzero;stroke:#555753;stroke-width:1;stroke-linecap:butt;stroke-linejoin:miter;marker:none;stroke-miterlimit:4;stroke-dashoffset:0;stroke-opacity:1;visibility:visible;display:block;overflow:visible"
         d="M 53.465041,28.556339 L 51.22524,28.556339 C 50.821825,28.556339 50.501159,28.837025 50.501159,29.190142 L 50.501159,31.866 C 50.501159,32.219113 50.821825,32.5 51.22524,32.5 L 58.782242,32.5 C 59.185653,32.5 59.506324,32.219113 59.506324,31.866 L 59.506324,29.190142 C 59.506324,28.837025 59.185653,28.556339 58.782242,28.556339 L 56.827996,28.556339 L 53.465041,28.556339 z"
         id="path8607" />
      <g
         transform="matrix(0.544365,0,0,0.9411763,42.076688,-8.6470511)"
         id="g8613"
         style="fill:#ffffff;fill-opacity:0.72023806">
        <rect
           style="fill-rule:nonzero;stroke:none;stroke-width:1.13999999;marker:none;visibility:visible;display:block;overflow:visible"
           id="rect8615"
           width="10"
           height="1"
           x="20"
           y="40"
           rx="0.91850138"
           ry="0.53125012" />
        <path
           sodipodi:type="arc"
           style="fill-rule:nonzero;stroke:none;stroke-width:1.13999999;marker:none;visibility:visible;display:block;overflow:visible"
           id="path8617"
           sodipodi:cx="18.46875"
           sodipodi:cy="40.625"
           sodipodi:rx="0.53125"
           sodipodi:ry="0.53125"
           d="M 19,40.625 A 0.53125,0.53125 0 1 1 17.9375,40.625 A 0.53125,0.53125 0 1 1 19,40.625 z"
           transform="matrix(1.7289449,0,0,1,-14.326309,-9.375e-2)" />
      </g>
    </g>
    <path
       d="M 28.500076,5.4999996 C 28.494275,4.9999998 27.986279,4.4999996 27.500076,4.4999996 L 14.500076,4.4999996 L 12.750076,2.9999996 C 12.569209,2.827143 12.255804,2.4999996 12.000076,2.4999996 L 4.5000773,2.4999996 C 3.9886253,2.4999996 3.5000773,3.0112033 3.5000773,3.4999996 L 3.5000763,4.4999996 L 3.5000763,22.5 L 28.500076,22.5 L 28.500076,5.4999996 z"
       id="path15"
       style="fill:#d9d9d9;fill-opacity:1;stroke:url(#linearGradient7590);stroke-width:1.0091393;stroke-miterlimit:4;stroke-dasharray:none"
       sodipodi:nodetypes="ccccccccccc" />
    <path
       d="M 27.500076,5.9999996 C 27.509916,5.458822 27.499303,5.4684261 27.000051,5.4999996 L 14.100076,5.4999996 L 12.400076,3.9999996 C 11.919791,3.589129 11.852778,3.4583326 11.000076,3.4999996 L 5.0000773,3.4999996 C 4.5238453,3.4999996 4.5000773,3.5415439 4.5000773,3.9999996 L 4.5000763,21.5 L 27.500076,21.5 L 27.500076,5.9999996 z"
       id="path7263"
       style="opacity:1;fill:none;fill-opacity:1;stroke:url(#linearGradient7592);stroke-width:0.99997574;stroke-miterlimit:4;stroke-dasharray:none;stroke-opacity:1"
       sodipodi:nodetypes="cccccccccc" />
    <g
       id="g6091"
       transform="matrix(5.7621238e-2,0,0,5.5895059e-2,1.240112,-0.4499454)"
       style="stroke-width:17.62015152;stroke-miterlimit:4;stroke-dasharray:none">
      <path
         sodipodi:nodetypes="ccccccc"
         id="path2161"
         d="M 481.76622,446.37147 L 30.543702,446.37147 C 8.3352329,446.37147 39.08553,347.84648 4.5116334,160.12051 C 4.3719614,151.26411 13.404559,142.22959 21.866346,142.22959 L 490.44357,142.22959 C 499.12091,142.02988 507.91004,151.6211 507.79829,160.12051 C 474.11174,348.03072 504.05226,446.37147 481.76622,446.37147 z"
         style="fill:url(#linearGradient7594);fill-opacity:1;fill-rule:evenodd;stroke:url(#linearGradient7596);stroke-width:17.62015152;stroke-linecap:butt;stroke-linejoin:miter;stroke-miterlimit:4;stroke-dasharray:none;stroke-opacity:1" />
    </g>
    <path
       sodipodi:nodetypes="ccccccc"
       id="path6261"
       d="M 28.000076,23.5 L 4.0000773,23.5 C 2.7669743,23.500323 4.3691813,18.991676 2.6000763,9.0000002 C 2.5163413,8.4559412 2.4884503,8.4776742 3.0000763,8.5000002 L 29.000076,8.5000002 C 29.759129,8.4526402 29.393896,8.4775492 29.400076,9.0000002 C 27.701525,18.989965 29.185854,23.515625 28.000076,23.5 z"
       style="opacity:0.6;fill:none;fill-opacity:1;fill-rule:evenodd;stroke:url(#linearGradient7598);stroke-width:0.99997157;stroke-linecap:butt;stroke-linejoin:miter;stroke-miterlimit:4;stroke-dasharray:none;stroke-opacity:1" />
    <path
       style="fill:url(#linearGradient32110);fill-opacity:1"
       d="M 16.447176,20.918446 L 16.214585,20.871366 L 16.008726,20.80201 C 15.821425,20.738905 15.786739,20.725341 15.623852,20.651482 C 15.466352,20.58008 15.424242,20.558302 15.273625,20.470386 C 15.17946,20.415423 15.099484,20.366868 15.095902,20.362491 C 15.092321,20.358112 15.089315,20.347004 15.089224,20.337809 C 15.08913,20.328619 15.117791,20.228626 15.152923,20.11561 C 15.188049,20.00259 15.231435,19.862936 15.249333,19.80526 C 15.267224,19.747588 15.302089,19.635239 15.326804,19.555594 C 15.40565,19.301518 15.753063,18.182822 15.893981,17.729262 C 15.968855,17.488262 16.030113,17.288239 16.030113,17.284766 C 16.030113,17.277278 16.06993,17.237616 16.096299,17.218832 C 16.109028,17.209767 16.124069,17.204693 16.143843,17.202783 L 16.172766,17.2 L 16.253236,17.250257 C 16.381939,17.330637 16.46503,17.376451 16.65304,17.470667 C 16.843262,17.566002 16.895633,17.589604 17.011285,17.632099 C 17.139066,17.679058 17.196668,17.694585 17.406703,17.738666 L 17.610143,17.781359 L 17.840064,17.795371 L 18.069977,17.809383 L 18.331983,17.784989 L 18.593979,17.760595 L 18.888798,17.695742 L 19.18361,17.630889 L 19.519372,17.520919 C 19.745803,17.446758 19.862224,17.410959 19.876891,17.410977 C 19.90059,17.411005 19.912396,17.416891 19.956923,17.450897 C 19.980888,17.469198 19.98789,17.478168 19.99467,17.499252 C 20.000606,17.517701 20.001499,17.52846 19.997769,17.536701 C 19.994892,17.543061 19.962536,17.646013 19.925868,17.76548 C 19.889199,17.884942 19.680834,18.56122 19.462828,19.268316 C 19.244825,19.975413 19.065125,20.560754 19.063496,20.569084 C 19.056537,20.604699 19.048828,20.608564 18.837732,20.682143 C 18.365323,20.846816 17.969138,20.935096 17.503204,20.979514 C 17.143836,21.038461 16.798621,20.955121 16.447176,20.918446 z M 18.025805,17.836843 C 18.019156,17.83565 18.00953,17.835697 18.004419,17.836947 C 17.999307,17.838198 18.004747,17.839174 18.01651,17.839117 C 18.028272,17.839066 18.032456,17.838041 18.025805,17.836843 z M 18.098052,17.836938 C 18.092909,17.83568 18.084486,17.83568 18.079337,17.836938 C 18.074192,17.838191 18.078402,17.839221 18.088694,17.839221 C 18.098987,17.839221 18.103202,17.838191 18.098052,17.836938 z M 17.940316,17.83186 C 17.933703,17.830668 17.92287,17.830668 17.916258,17.83186 C 17.909639,17.833054 17.915055,17.834026 17.928287,17.834026 C 17.941519,17.834026 17.946935,17.833054 17.940316,17.83186 z M 18.151422,17.831923 C 18.146216,17.830657 18.138996,17.830744 18.135376,17.832109 C 18.131759,17.833474 18.136016,17.83451 18.144839,17.834412 C 18.153659,17.834308 18.156622,17.833192 18.151422,17.831923 z M 17.854764,17.826866 C 17.848151,17.82568 17.837319,17.82568 17.830707,17.826866 C 17.824088,17.828059 17.829504,17.82903 17.842736,17.82903 C 17.855973,17.82903 17.861382,17.828059 17.854764,17.826866 z M 18.207331,17.826981 C 18.203472,17.825535 18.198861,17.825714 18.197084,17.827376 C 18.195305,17.82903 18.198463,17.83021 18.204098,17.829997 C 18.210332,17.829759 18.211597,17.828574 18.207331,17.826981 z M 17.763807,17.821865 C 17.757152,17.820673 17.747527,17.820718 17.742415,17.821965 C 17.737309,17.823213 17.742749,17.824192 17.754511,17.82414 C 17.766273,17.824082 17.770458,17.823058 17.763807,17.821865 z M 18.266151,17.821988 C 18.262289,17.820545 18.257679,17.820718 18.2559,17.82238 C 18.25412,17.824042 18.257282,17.825224 18.262915,17.825003 C 18.269143,17.824766 18.270413,17.823577 18.266151,17.821988 z M 17.678257,17.816871 C 17.6716,17.815679 17.661976,17.815724 17.656862,17.816974 C 17.651758,17.818226 17.657198,17.819197 17.668961,17.819146 C 17.680722,17.819089 17.684905,17.818069 17.678257,17.816871 z M 17.10441,17.698525 C 17.102013,17.696327 16.861531,17.60605 16.848202,17.60234 C 16.827341,17.596535 16.886277,17.62317 16.940205,17.643917 C 17.035028,17.6804 17.112893,17.706293 17.10441,17.698525 z M 19.377729,17.603451 C 19.537238,17.553941 19.802458,17.461777 19.797835,17.457453 C 19.795964,17.455708 19.242767,17.639871 19.23874,17.643587 C 19.23419,17.64777 19.244701,17.644738 19.377729,17.603451 z M 16.837505,17.598735 C 16.837505,17.597654 16.833775,17.595438 16.829207,17.593798 C 16.824449,17.592091 16.822304,17.59293 16.824176,17.59576 C 16.827316,17.600506 16.837505,17.60278 16.837505,17.598735 z M 16.784035,17.573334 C 16.784035,17.572014 16.774412,17.566355 16.762648,17.560746 C 16.750888,17.555145 16.741262,17.551678 16.741262,17.553039 C 16.741262,17.554402 16.750285,17.559966 16.761311,17.565406 C 16.784,17.576587 16.784035,17.576599 16.784035,17.573334 z M 16.703833,17.533413 C 16.703833,17.53211 16.696613,17.527562 16.687794,17.523296 C 16.667683,17.513586 16.666469,17.517805 16.686454,17.527933 C 16.703261,17.536447 16.703833,17.536625 16.703833,17.533413 z M 16.623628,17.493439 C 16.623628,17.492127 16.614005,17.486459 16.602242,17.480857 C 16.59048,17.47525 16.580856,17.471784 16.580856,17.473144 C 16.580856,17.47451 16.589879,17.480071 16.600904,17.485511 C 16.623592,17.496692 16.623628,17.496709 16.623628,17.493439 z M 16.543426,17.453518 C 16.543426,17.452218 16.536205,17.447668 16.527386,17.443409 C 16.507275,17.433697 16.506056,17.43791 16.526048,17.44804 C 16.542849,17.456552 16.543426,17.456736 16.543426,17.453518 z M 13.552787,19.74566 C 13.541062,19.739865 13.527867,19.732255 13.523456,19.728747 C 13.519043,19.72524 13.489025,19.708238 13.456743,19.690956 C 13.42447,19.673675 13.363112,19.638217 13.3204,19.61215 C 13.199009,19.538074 12.972905,19.434699 12.777552,19.363966 L 12.617146,19.305885 L 12.427326,19.266798 C 12.258807,19.232096 12.225813,19.226824 12.133247,19.219798 C 11.954302,19.206221 11.874651,19.208697 11.595877,19.236541 L 11.349917,19.261108 L 11.077224,19.319369 L 10.804524,19.377635 L 10.480164,19.484336 C 10.193966,19.57848 10.153363,19.590615 10.135107,19.587479 C 10.110652,19.583271 10.014063,19.519988 10.005461,19.502544 C 9.9981493,19.4877 9.9981873,19.462919 10.005529,19.460632 C 10.014961,19.457697 10.950653,16.429222 10.944463,16.421657 C 10.933976,16.408852 10.966783,16.393955 11.162775,16.322569 C 11.283267,16.278677 11.467707,16.218998 11.577162,16.188481 C 11.610979,16.179054 11.772192,16.142338 11.935407,16.106892 L 12.232164,16.042439 L 12.489125,16.021222 L 12.746083,15.999999 L 12.970353,16.013426 L 13.194614,16.026853 L 13.405821,16.071495 C 13.521987,16.096047 13.639888,16.123112 13.667825,16.131644 C 13.870825,16.193614 14.090694,16.29065 14.320151,16.419535 C 14.448805,16.491801 14.624289,16.599932 14.630498,16.610764 C 14.638661,16.625009 14.637111,16.633093 14.609056,16.722726 C 14.594444,16.769418 14.473215,17.160394 14.339654,17.591574 C 14.206091,18.022747 14.005986,18.668763 13.894969,19.027161 C 13.783953,19.385559 13.688536,19.68488 13.682933,19.692322 C 13.669393,19.710316 13.599166,19.756191 13.585168,19.756191 C 13.579074,19.756191 13.564506,19.751452 13.552787,19.74566 z"
       id="path31581"
       sodipodi:nodetypes="cccsssssssssscccsscccccccccsssssssscccssccssccssccssccssccssccssccssccssccssccssccssccsssccssccsssccssccssscccscccccsssssscccccccssssssssc" />
    <path
       style="fill:url(#linearGradient32112);fill-opacity:1"
       d="M 18.447175,15.918445 L 18.214583,15.871366 L 18.008725,15.80201 C 17.821424,15.738905 17.786738,15.72534 17.62385,15.651482 C 17.466351,15.580079 17.424241,15.558301 17.273624,15.470386 C 17.179459,15.415422 17.099483,15.366868 17.095901,15.362492 C 17.09232,15.358112 17.089314,15.347004 17.089223,15.337808 C 17.089129,15.328618 17.117791,15.228626 17.152922,15.11561 C 17.188048,15.00259 17.231434,14.862934 17.249332,14.805259 C 17.267223,14.747589 17.302088,14.635238 17.326803,14.555593 C 17.40565,14.301518 17.753062,13.182822 17.89398,12.729262 C 17.968854,12.488261 18.030113,12.288238 18.030113,12.284766 C 18.030113,12.277279 18.069929,12.237617 18.096297,12.218829 C 18.109027,12.209767 18.124068,12.204692 18.143843,12.202781 L 18.172765,12.199999 L 18.253236,12.250257 C 18.381937,12.330636 18.465029,12.376449 18.653039,12.470666 C 18.84326,12.566001 18.895633,12.589601 19.011285,12.632098 C 19.139065,12.679058 19.196668,12.694584 19.406702,12.738667 L 19.610142,12.781359 L 19.840063,12.79537 L 20.069977,12.809381 L 20.331982,12.784988 L 20.593978,12.760595 L 20.888797,12.695742 L 21.183609,12.630889 L 21.519371,12.520919 C 21.745803,12.446759 21.862222,12.410959 21.876891,12.410976 C 21.90059,12.411004 21.912395,12.41689 21.956923,12.450899 C 21.980887,12.469198 21.987889,12.478167 21.994669,12.49925 C 22.000605,12.517701 22.001498,12.528457 21.997768,12.5367 C 21.994891,12.543061 21.962536,12.646011 21.925868,12.765479 C 21.889199,12.884942 21.680832,13.561221 21.462827,14.268316 C 21.244824,14.975412 21.065125,15.560753 21.063494,15.569082 C 21.056536,15.604697 21.048827,15.608565 20.837732,15.682143 C 20.365321,15.846817 19.969136,15.935096 19.503203,15.979514 C 19.143835,16.038461 18.79862,15.955121 18.447175,15.918445 z M 20.025803,12.836843 C 20.019155,12.835651 20.009529,12.835696 20.004417,12.836946 C 19.999306,12.838198 20.004746,12.839173 20.01651,12.839117 C 20.028271,12.839065 20.032455,12.838042 20.025803,12.836843 z M 20.098051,12.836936 C 20.092908,12.835679 20.084485,12.835679 20.079336,12.836936 C 20.074191,12.838191 20.078401,12.839221 20.088694,12.839221 C 20.098986,12.839221 20.103201,12.838191 20.098051,12.836936 z M 19.940315,12.831861 C 19.933702,12.830668 19.922869,12.830668 19.916257,12.831861 C 19.909638,12.833051 19.915054,12.834024 19.928285,12.834024 C 19.941517,12.834024 19.946934,12.833051 19.940315,12.831861 z M 20.151422,12.831923 C 20.146215,12.830656 20.138996,12.830743 20.135376,12.832109 C 20.131758,12.833475 20.136014,12.834511 20.144838,12.834411 C 20.153658,12.834307 20.156621,12.83319 20.151422,12.831923 z M 19.854763,12.826865 C 19.84815,12.825678 19.837318,12.825678 19.830705,12.826865 C 19.824087,12.828058 19.829503,12.829029 19.842735,12.829029 C 19.855972,12.829029 19.861381,12.828058 19.854763,12.826865 z M 20.20733,12.826981 C 20.20347,12.825534 20.19886,12.825712 20.197083,12.827375 C 20.195304,12.829029 20.198463,12.830211 20.204097,12.829996 C 20.210331,12.829758 20.211596,12.828573 20.20733,12.826981 z M 19.763807,12.821866 C 19.757151,12.820672 19.747526,12.820718 19.742414,12.821963 C 19.737307,12.823213 19.742748,12.824192 19.75451,12.82414 C 19.766273,12.82408 19.770457,12.823057 19.763807,12.821866 z M 20.266149,12.821987 C 20.262288,12.820545 20.257677,12.820718 20.255899,12.82238 C 20.25412,12.824042 20.257281,12.825221 20.262913,12.825002 C 20.269141,12.824764 20.270412,12.823579 20.266149,12.821987 z M 19.678255,12.81687 C 19.6716,12.815679 19.661975,12.815724 19.656861,12.816975 C 19.651757,12.818225 19.657198,12.819197 19.66896,12.819146 C 19.680721,12.819087 19.684904,12.818069 19.678255,12.81687 z M 19.104409,12.698525 C 19.102012,12.696326 18.861531,12.60605 18.848202,12.60234 C 18.82734,12.596534 18.886276,12.623168 18.940204,12.643915 C 19.035026,12.680399 19.112893,12.706293 19.104409,12.698525 z M 21.377728,12.603451 C 21.537237,12.553943 21.802457,12.461778 21.797834,12.457454 C 21.795962,12.455706 21.242765,12.639871 21.238739,12.643586 C 21.23419,12.64777 21.2447,12.644736 21.377728,12.603451 z M 18.837503,12.598733 C 18.837503,12.597652 18.833774,12.595435 18.829206,12.593797 C 18.824447,12.592091 18.822303,12.592929 18.824175,12.595762 C 18.827314,12.600505 18.837503,12.60278 18.837503,12.598733 z M 18.784034,12.573333 C 18.784034,12.572014 18.77441,12.566355 18.762647,12.560746 C 18.750887,12.555145 18.741261,12.551678 18.741261,12.553039 C 18.741261,12.554404 18.750285,12.559965 18.761309,12.565404 C 18.783998,12.576586 18.784034,12.576599 18.784034,12.573333 z M 18.703832,12.533412 C 18.703832,12.532109 18.696612,12.527562 18.687793,12.523296 C 18.667682,12.513584 18.666468,12.517805 18.686453,12.527932 C 18.703261,12.536446 18.703832,12.536624 18.703832,12.533412 z M 18.623627,12.493439 C 18.623627,12.492127 18.614004,12.486459 18.602241,12.480858 C 18.590479,12.47525 18.580854,12.471784 18.580854,12.473144 C 18.580854,12.474509 18.589878,12.480071 18.600903,12.485511 C 18.623591,12.496692 18.623627,12.496709 18.623627,12.493439 z M 18.543425,12.453518 C 18.543425,12.452218 18.536204,12.447667 18.527385,12.443408 C 18.507274,12.433697 18.506054,12.437909 18.526046,12.448039 C 18.542848,12.456551 18.543425,12.456736 18.543425,12.453518 z M 15.552787,14.745659 C 15.54106,14.739865 15.527866,14.732255 15.523455,14.728747 C 15.519042,14.725239 15.489023,14.708238 15.456742,14.690956 C 15.424469,14.673674 15.36311,14.638216 15.320399,14.61215 C 15.199008,14.538073 14.972904,14.434698 14.777551,14.363966 L 14.617144,14.305885 L 14.427325,14.266798 C 14.258806,14.232097 14.225812,14.226823 14.133245,14.219797 C 13.954301,14.20622 13.874649,14.208696 13.595876,14.23654 L 13.349916,14.261108 L 13.077223,14.319369 L 12.804522,14.377635 L 12.480163,14.484335 C 12.193964,14.578479 12.153362,14.590615 12.135105,14.587479 C 12.11065,14.583273 12.014062,14.519988 12.005461,14.502545 C 11.998147,14.487699 11.998186,14.462918 12.005529,14.460633 C 12.01496,14.457697 12.950651,11.429222 12.944462,11.421657 C 12.933975,11.408851 12.966782,11.393953 13.162774,11.322567 C 13.283266,11.278677 13.467706,11.218997 13.577161,11.18848 C 13.610978,11.179053 13.772191,11.142337 13.935407,11.106892 L 14.232162,11.042437 L 14.489123,11.021221 L 14.746082,10.999999 L 14.970352,11.013426 L 15.194614,11.026852 L 15.40582,11.071495 C 15.521986,11.096047 15.639887,11.123112 15.667824,11.131644 C 15.870824,11.193612 16.090693,11.29065 16.320151,11.419533 C 16.448804,11.4918 16.624288,11.59993 16.630497,11.610764 C 16.63866,11.625008 16.63711,11.633092 16.609055,11.722726 C 16.594444,11.769418 16.473214,12.160394 16.339653,12.591574 C 16.20609,13.022747 16.005984,13.668763 15.894968,14.027161 C 15.783953,14.38556 15.688535,14.68488 15.682932,14.692323 C 15.669392,14.710315 15.599165,14.756192 15.585166,14.756192 C 15.579072,14.756192 15.564505,14.751451 15.552787,14.745659 z"
       id="path31583"
       sodipodi:nodetypes="cccsssssssssscccsscccccccccsssssssscccssccssccssccssccssccssccssccssccssccssccssccssccsssccssccsssccssccssscccscccccsssssscccccccssssssssc" />
  </g>
</svg>
