<?xml version="1.0" encoding="UTF-8" standalone="no"?>
<!-- Created with Inkscape (http://www.inkscape.org/) -->
<svg
   xmlns:dc="http://purl.org/dc/elements/1.1/"
   xmlns:cc="http://creativecommons.org/ns#"
   xmlns:rdf="http://www.w3.org/1999/02/22-rdf-syntax-ns#"
   xmlns:svg="http://www.w3.org/2000/svg"
   xmlns="http://www.w3.org/2000/svg"
   xmlns:xlink="http://www.w3.org/1999/xlink"
   xmlns:sodipodi="http://sodipodi.sourceforge.net/DTD/sodipodi-0.dtd"
   xmlns:inkscape="http://www.inkscape.org/namespaces/inkscape"
   width="16px"
   height="16px"
   id="svg7217"
   sodipodi:version="0.32"
   inkscape:version="0.46"
   sodipodi:docname="folder-remote1.svg"
   inkscape:output_extension="org.inkscape.output.svg.inkscape">
  <defs
     id="defs7219">
    <linearGradient
       id="linearGradient32104"
       inkscape:collect="always">
      <stop
         id="stop32106"
         offset="0"
         style="stop-color:#ffffff;stop-opacity:1" />
      <stop
         id="stop32108"
         offset="1"
         style="stop-color:#ffffff;stop-opacity:0" />
    </linearGradient>
    <linearGradient
       inkscape:collect="always"
       xlink:href="#linearGradient32104"
       id="linearGradient32110"
       gradientUnits="userSpaceOnUse"
       gradientTransform="matrix(0.4117647,0,0,0.3999999,-2.088235,-2.1999982)"
       x1="24.472109"
       y1="23.019806"
       x2="24.565605"
       y2="40.500008" />
    <linearGradient
       inkscape:collect="always"
       id="linearGradient32094">
      <stop
         style="stop-color:#ffffff;stop-opacity:1"
         offset="0"
         id="stop32096" />
      <stop
         style="stop-color:#ffffff;stop-opacity:0"
         offset="1"
         id="stop32098" />
    </linearGradient>
    <linearGradient
       inkscape:collect="always"
       xlink:href="#linearGradient32094"
       id="linearGradient32112"
       gradientUnits="userSpaceOnUse"
       gradientTransform="matrix(0.4117647,0,0,0.3999999,-2.088235,-2.1999982)"
       x1="24.472109"
       y1="23.019806"
       x2="24.525963"
       y2="37.96817" />
    <linearGradient
       id="linearGradient204">
      <stop
         style="stop-color:#7a7a7a;stop-opacity:1.0000000;"
         offset="0.0000000"
         id="stop205" />
      <stop
         style="stop-color:#ebebeb;stop-opacity:1"
         offset="0.19801980"
         id="stop207" />
      <stop
         style="stop-color:#b9b9b9;stop-opacity:1"
         offset="0.59900987"
         id="stop208" />
      <stop
         style="stop-color:#878787;stop-opacity:1"
         offset="1.0000000"
         id="stop206" />
    </linearGradient>
    <linearGradient
       inkscape:collect="always"
       xlink:href="#linearGradient204"
       id="linearGradient6849"
       gradientUnits="userSpaceOnUse"
       gradientTransform="matrix(0.5065613,0,0,0.4314897,43.034978,12.413858)"
       x1="23.100046"
       y1="38.296745"
       x2="23.100046"
       y2="43.915466" />
    <linearGradient
       id="linearGradient6862">
      <stop
         id="stop6864"
         offset="0.0000000"
         style="stop-color:#ffffff;stop-opacity:0.0000000;" />
      <stop
         id="stop6866"
         offset="0.10342737"
         style="stop-color:#d9d9d9;stop-opacity:1" />
      <stop
         id="stop6868"
         offset="0.89450336"
         style="stop-color:#d9d9d9;stop-opacity:1" />
      <stop
         id="stop6870"
         offset="1.0000000"
         style="stop-color:#ffffff;stop-opacity:0.0000000;" />
    </linearGradient>
    <linearGradient
       inkscape:collect="always"
       xlink:href="#linearGradient6862"
       id="linearGradient6847"
       gradientUnits="userSpaceOnUse"
       gradientTransform="matrix(1.1997705,0,0,9.1235761e-2,44.958601,20.062502)"
       x1="1.6422368"
       y1="117.8271"
       x2="15.343062"
       y2="117.8271" />
    <linearGradient
       inkscape:collect="always"
       xlink:href="#linearGradient272"
       id="linearGradient6845"
       gradientUnits="userSpaceOnUse"
       gradientTransform="matrix(3.5765885,0,0,0.2235361,44.958575,-45.552711)"
       x1="0.61210024"
       y1="372.57819"
       x2="5.0856376"
       y2="372.57819" />
    <linearGradient
       id="linearGradient272">
      <stop
         style="stop-color:#474747;stop-opacity:0.0000000;"
         offset="0.0000000"
         id="stop273" />
      <stop
         style="stop-color:#474747;stop-opacity:1.0000000;"
         offset="0.10000000"
         id="stop275" />
      <stop
         style="stop-color:#474747;stop-opacity:1.0000000;"
         offset="0.89999998"
         id="stop276" />
      <stop
         style="stop-color:#474747;stop-opacity:0.0000000;"
         offset="1.0000000"
         id="stop274" />
    </linearGradient>
    <linearGradient
       inkscape:collect="always"
       xlink:href="#linearGradient272"
       id="linearGradient6843"
       gradientUnits="userSpaceOnUse"
       gradientTransform="matrix(3.5765886,0,0,0.2257221,44.958573,-52.291577)"
       x1="0.61210024"
       y1="372.57819"
       x2="5.0856376"
       y2="372.57819" />
    <linearGradient
       inkscape:collect="always"
       id="linearGradient6265">
      <stop
         style="stop-color:#ffffff;stop-opacity:1;"
         offset="0"
         id="stop6267" />
      <stop
         style="stop-color:#ffffff;stop-opacity:0;"
         offset="1"
         id="stop6269" />
    </linearGradient>
    <linearGradient
       inkscape:collect="always"
       xlink:href="#linearGradient6265"
       id="linearGradient6271"
       x1="24.007496"
       y1="7.7337008"
       x2="24.012035"
       y2="42.179672"
       gradientUnits="userSpaceOnUse"
       gradientTransform="matrix(0.3169131,0,0,0.291671,0.403737,0.6875344)" />
    <linearGradient
       id="linearGradient4103">
      <stop
         style="stop-color:#8fb3d9;stop-opacity:1"
         offset="0"
         id="stop4105" />
      <stop
         style="stop-color:#3465a4;stop-opacity:1"
         offset="1"
         id="stop4107" />
    </linearGradient>
    <linearGradient
       inkscape:collect="always"
       xlink:href="#linearGradient4103"
       id="linearGradient5117"
       gradientUnits="userSpaceOnUse"
       x1="256.15552"
       y1="222.14418"
       x2="256.08548"
       y2="430.65604"
       gradientTransform="matrix(0.9531336,0,0,0.9284911,12.004535,20.166933)" />
    <linearGradient
       id="linearGradient17648">
      <stop
         id="stop17650"
         offset="0"
         style="stop-color:#ffffff;stop-opacity:0.6" />
      <stop
         id="stop17652"
         offset="1"
         style="stop-color:#ffffff;stop-opacity:0;" />
    </linearGradient>
    <linearGradient
       inkscape:collect="always"
       xlink:href="#linearGradient17648"
       id="linearGradient17646"
       gradientUnits="userSpaceOnUse"
       x1="22.124207"
       y1="11.806856"
       x2="22.124207"
       y2="44.554501"
       gradientTransform="matrix(0.3513555,0,0,0.3333434,0.2264853,-1.9982376)" />
    <linearGradient
       inkscape:collect="always"
       id="linearGradient12449">
      <stop
         style="stop-color:#888a85;stop-opacity:0"
         offset="0"
         id="stop12451" />
      <stop
         style="stop-color:#888a85;stop-opacity:1"
         offset="1"
         id="stop12453" />
    </linearGradient>
    <linearGradient
       inkscape:collect="always"
       xlink:href="#linearGradient12449"
       id="linearGradient12455"
       x1="16.355764"
       y1="14.874944"
       x2="16.293266"
       y2="30.093719"
       gradientUnits="userSpaceOnUse"
       gradientTransform="matrix(0.3513555,0,0,0.3333434,0.2264853,-1.9982376)" />
    <linearGradient
       inkscape:collect="always"
       id="linearGradient6293">
      <stop
         style="stop-color:#555753;stop-opacity:1;"
         offset="0"
         id="stop6295" />
      <stop
         style="stop-color:#eeeeec;stop-opacity:1"
         offset="1"
         id="stop6297" />
    </linearGradient>
    <linearGradient
       inkscape:collect="always"
       xlink:href="#linearGradient6293"
       id="linearGradient17644"
       gradientUnits="userSpaceOnUse"
       x1="22.666126"
       y1="8.0004635"
       x2="22.720911"
       y2="35.11385"
       gradientTransform="matrix(0.3513555,0,0,0.3333434,0.567247,-2.666739)" />
  </defs>
  <sodipodi:namedview
     id="base"
     pagecolor="#ffffff"
     bordercolor="#666666"
     borderopacity="1.0"
     inkscape:pageopacity="0.0"
     inkscape:pageshadow="2"
     inkscape:zoom="22.197802"
     inkscape:cx="8"
     inkscape:cy="8"
     inkscape:current-layer="layer1"
     showgrid="true"
     inkscape:grid-bbox="true"
     inkscape:document-units="px"
     inkscape:window-width="641"
     inkscape:window-height="690"
     inkscape:window-x="625"
     inkscape:window-y="331" />
  <metadata
     id="metadata7222">
    <rdf:RDF>
      <cc:Work
         rdf:about="">
        <dc:format>image/svg+xml</dc:format>
        <dc:type
           rdf:resource="http://purl.org/dc/dcmitype/StillImage" />
      </cc:Work>
    </rdf:RDF>
  </metadata>
  <g
     id="layer1"
     inkscape:label="Layer 1"
     inkscape:groupmode="layer">
    <path
       d="M 14.500027,2.0001629 C 14.501111,1.8167738 14.198445,1.5000527 14.000027,1.5000527 L 8.4998639,1.5000527 L 7.4998639,0.6666939 C 7.4063069,0.5802233 7.1321439,0.5000005 6.999864,0.5000005 L 1.999864,0.5000005 C 1.735306,0.5000005 1.499864,0.75552 1.499864,1.0000377 L 1.499864,2.0001629 L 1.499864,10.500325 L 14.500027,10.500325 L 14.500027,2.0001629 z"
       id="path15"
       style="fill:#dadada;fill-opacity:1;stroke:url(#linearGradient17644);stroke-width:0.99967569;stroke-miterlimit:4;stroke-dasharray:none"
       sodipodi:nodetypes="ccccccccccc" />
    <path
       d="M 13.500027,3.0001629 C 13.501052,2.8282361 13.188268,2.5001629 13.000027,2.5001629 L 8.0998639,2.5001629 L 7.2498639,1.7501629 C 7.0955569,1.5447206 6.833979,1.5105794 6.499864,1.5001629 L 2.999864,1.5001629 C 2.748872,1.5001629 2.499864,1.7709287 2.499864,2.0001629 L 2.499864,2.5001629 L 2.510023,10.835481 L 13.500027,10.835481 L 13.500027,3.0001629 z"
       id="path7263"
       style="opacity:1;fill:url(#linearGradient12455);fill-opacity:1;stroke:url(#linearGradient17646);stroke-width:0.99967569;stroke-miterlimit:4;stroke-dasharray:none;stroke-opacity:1"
       sodipodi:nodetypes="ccccccccccc" />
    <g
       id="g6091"
       transform="matrix(3.1069053e-2,0,0,3.1069053e-2,5.3182054e-2,-4.98486e-2)">
      <path
         sodipodi:nodetypes="ccccccc"
         id="path2161"
         d="M 489.50613,403.9393 L 22.803784,403.9393 C -1.443977,403.9393 36.609916,311.25227 14.757192,130.35516 C 13.879823,122.96588 23.476319,114.26198 30.850376,114.26198 L 481.45954,114.26198 C 494.4375,114.26198 498.96083,119.21615 497.55272,130.35516 C 476.16843,310.47804 513.09253,403.9393 489.50613,403.9393 z"
         style="fill:url(#linearGradient5117);fill-opacity:1;fill-rule:evenodd;stroke:#204a87;stroke-width:32.17588806;stroke-linecap:butt;stroke-linejoin:miter;stroke-miterlimit:4;stroke-dasharray:none;stroke-opacity:1" />
    </g>
    <path
       sodipodi:nodetypes="ccccccc"
       id="path6261"
       d="M 14.011674,11.500163 L 2.011674,11.500163 C 1.115675,11.500163 2.100112,9.3568501 1.511674,5.0001629 C 1.488049,4.8222013 1.813109,4.5001629 2.011674,4.5001629 L 14.011674,4.5001629 C 14.361137,4.5001629 14.54959,4.7318943 14.511674,5.0001629 C 13.923002,9.6515291 14.82736,11.500163 14.011674,11.500163 z"
       style="opacity:0.8;fill:none;fill-opacity:1;fill-rule:evenodd;stroke:url(#linearGradient6271);stroke-width:0.99989057;stroke-linecap:butt;stroke-linejoin:miter;stroke-miterlimit:4;stroke-dasharray:none;stroke-opacity:1" />
    <g
       id="g8782"
       transform="translate(-47.1478,-16.3125)"
       style="display:inline;enable-background:new">
      <rect
         style="opacity:0.56571428;fill:url(#linearGradient6843);fill-opacity:1;fill-rule:nonzero;stroke:none;stroke-width:1;marker:none;visibility:visible;display:block;overflow:visible"
         id="rect8784"
         width="16"
         height="1.0097771"
         x="47.1478"
         y="31.302723" />
      <rect
         style="opacity:0.56571428;fill:url(#linearGradient6845);fill-opacity:1;fill-rule:nonzero;stroke:none;stroke-width:1;marker:none;visibility:visible;display:block;overflow:visible"
         id="rect8786"
         width="16"
         height="1"
         x="47.1478"
         y="29.3125" />
      <rect
         style="fill:url(#linearGradient6847);fill-opacity:1;fill-rule:nonzero;stroke:none;stroke-width:1;marker:none;visibility:visible;display:block;overflow:visible"
         id="rect8788"
         width="16"
         height="1"
         x="47.147827"
         y="30.3125" />
      <path
         sodipodi:nodetypes="ccccccccc"
         style="fill:url(#linearGradient6849);fill-opacity:1;fill-rule:nonzero;stroke:#555753;stroke-width:1;stroke-linecap:butt;stroke-linejoin:miter;marker:none;stroke-miterlimit:4;stroke-dashoffset:0;stroke-opacity:1;visibility:visible;display:block;overflow:visible"
         d="M 53.342732,28.743839 C 52.939317,28.743839 52.618651,29.008206 52.618651,29.340792 L 52.618651,31.184298 C 52.618651,31.516881 52.939317,31.781252 53.342732,31.781252 L 56.993484,31.781252 C 57.396895,31.781252 57.717566,31.516881 57.717566,31.184298 L 57.717566,29.340792 C 57.717566,29.008206 57.396895,28.743839 56.993484,28.743839 L 53.342732,28.743839 z"
         id="path8790" />
      <g
         transform="matrix(0.544365,0,0,0.9411763,42.076688,-8.6470511)"
         id="g8792"
         style="fill:#ffffff;fill-opacity:0.72023806">
        <path
           sodipodi:type="arc"
           style="fill-rule:nonzero;stroke:none;stroke-width:1.13999999;marker:none;visibility:visible;display:block;overflow:visible"
           id="path8794"
           sodipodi:cx="18.46875"
           sodipodi:cy="40.625"
           sodipodi:rx="0.53125"
           sodipodi:ry="0.53125"
           d="M 19,40.625 A 0.53125,0.53125 0 1 1 17.9375,40.625 A 0.53125,0.53125 0 1 1 19,40.625 z"
           transform="matrix(2.3232693,0,0,1.3437498,-21.657435,-13.709952)" />
      </g>
    </g>
    <path
       style="fill:url(#linearGradient32110);fill-opacity:1"
       d="M 8.4820795,10.947805 L 8.3384195,10.917674 L 8.2112725,10.873287 C 8.0955855,10.832899 8.0741615,10.824218 7.9735565,10.77695 C 7.8762755,10.73125 7.8502665,10.717313 7.7572395,10.661047 C 7.6990785,10.625869 7.6496815,10.594797 7.6474691,10.591995 C 7.6452571,10.589191 7.6434013,10.582084 7.6433439,10.576199 C 7.6432866,10.570317 7.6609892,10.50632 7.6826884,10.433991 C 7.7043825,10.361657 7.7311815,10.272279 7.7422355,10.235367 C 7.7532855,10.198456 7.7748205,10.126553 7.7900845,10.075581 C 7.8387845,9.9129723 8.0533625,9.1970073 8.1403995,8.9067283 C 8.1866455,8.7524903 8.2244825,8.6244753 8.2244825,8.6222523 C 8.2244825,8.6174593 8.2490745,8.5920763 8.2653615,8.5800543 C 8.2732235,8.5742533 8.2825125,8.5710053 8.2947275,8.5697823 L 8.3125915,8.5680003 L 8.3622925,8.6001663 C 8.4417865,8.6516083 8.4931075,8.6809293 8.6092305,8.7412293 C 8.7267205,8.8022413 8.7590685,8.8173463 8.8305005,8.8445463 C 8.9094225,8.8745983 8.9450005,8.8845373 9.0747275,8.9127483 L 9.2003825,8.9400733 L 9.3423925,8.9490383 L 9.4843985,8.9580063 L 9.6462245,8.9423933 L 9.8080465,8.9267813 L 9.9901405,8.8852773 L 10.172229,8.8437723 L 10.379612,8.7733903 C 10.519467,8.7259273 10.591373,8.7030153 10.600433,8.7030253 C 10.61507,8.7030453 10.622362,8.7068103 10.649865,8.7285753 C 10.664666,8.7402873 10.668991,8.7460303 10.673178,8.7595213 C 10.676845,8.7713293 10.677396,8.7782143 10.675093,8.7834913 C 10.673316,8.7875603 10.653331,8.8534483 10.630684,8.9299073 C 10.608035,9.0063643 10.479338,9.4391823 10.344688,9.8917223 C 10.210039,10.344264 10.099047,10.718884 10.098041,10.724213 C 10.093743,10.747007 10.088981,10.749481 9.9585995,10.796571 C 9.6668175,10.901962 9.4221145,10.958461 9.1343325,10.986889 C 8.9123695,11.024616 8.6991485,10.971277 8.4820795,10.947805 z M 9.4571155,8.9755813 C 9.4530075,8.9748193 9.4470635,8.9748473 9.4439065,8.9756483 C 9.4407485,8.9764473 9.4441085,8.9770743 9.4513735,8.9770373 C 9.4586385,8.9770023 9.4612225,8.9763483 9.4571155,8.9755813 z M 9.5017375,8.9756423 C 9.4985615,8.9748353 9.4933585,8.9748353 9.4901785,8.9756423 C 9.4870015,8.9764443 9.4896005,8.9771033 9.4959585,8.9771033 C 9.5023155,8.9771033 9.5049195,8.9764443 9.5017375,8.9756423 z M 9.4043125,8.9723923 C 9.4002275,8.9716303 9.3935375,8.9716303 9.3894535,8.9723923 C 9.3853655,8.9731543 9.3887115,8.9737773 9.3968825,8.9737773 C 9.4050555,8.9737773 9.4084005,8.9731543 9.4043125,8.9723923 z M 9.5347015,8.9724323 C 9.5314865,8.9716223 9.5270275,8.9716783 9.5247915,8.9725513 C 9.5225565,8.9734273 9.5251865,8.9740883 9.5306365,8.9740253 C 9.5360835,8.9739583 9.5379135,8.9732443 9.5347015,8.9724323 z M 9.3514725,8.9691963 C 9.3473875,8.9684363 9.3406965,8.9684363 9.3366125,8.9691963 C 9.3325245,8.9699583 9.3358695,8.9705813 9.3440425,8.9705813 C 9.3522185,8.9705813 9.3555595,8.9699583 9.3514725,8.9691963 z M 9.5692345,8.9692703 C 9.5668505,8.9683453 9.5640025,8.9684573 9.5629045,8.9695213 C 9.5618055,8.9705813 9.5637565,8.9713363 9.5672365,8.9711993 C 9.5710875,8.9710473 9.5718685,8.9702883 9.5692345,8.9692703 z M 9.2952935,8.9659953 C 9.2911815,8.9652323 9.2852375,8.9652613 9.2820805,8.9660583 C 9.2789255,8.9668593 9.2822865,8.9674843 9.2895505,8.9674503 C 9.2968165,8.9674133 9.2994005,8.9667583 9.2952935,8.9659953 z M 9.6055635,8.9660723 C 9.6031785,8.9651513 9.6003315,8.9652613 9.5992325,8.9663253 C 9.5981335,8.9673883 9.6000865,8.9681433 9.6035655,8.9680033 C 9.6074115,8.9678523 9.6081965,8.9670923 9.6055635,8.9660723 z M 9.2424525,8.9627993 C 9.2383415,8.9620373 9.2323975,8.9620653 9.2292385,8.9628673 C 9.2260855,8.9636653 9.2294455,8.9642873 9.2367105,8.9642543 C 9.2439755,8.9642183 9.2465595,8.9635663 9.2424525,8.9627993 z M 8.8880185,8.8870573 C 8.8865375,8.8856493 8.7380055,8.8278733 8.7297715,8.8254993 C 8.7168875,8.8217843 8.7532885,8.8388293 8.7865965,8.8521093 C 8.8451635,8.8754583 8.8932585,8.8920293 8.8880185,8.8870573 z M 10.292126,8.8262113 C 10.390647,8.7945243 10.55446,8.7355393 10.551604,8.7327713 C 10.550447,8.7316543 10.208768,8.8495193 10.20628,8.8518983 C 10.20347,8.8545743 10.209962,8.8526333 10.292126,8.8262113 z M 8.7231655,8.8231903 C 8.7231655,8.8225003 8.7208605,8.8210823 8.7180395,8.8200323 C 8.7151005,8.8189383 8.7137755,8.8194773 8.7149315,8.8212883 C 8.7168725,8.8243253 8.7231655,8.8257803 8.7231655,8.8231903 z M 8.6901395,8.8069353 C 8.6901395,8.8060923 8.6841955,8.8024673 8.6769305,8.7988793 C 8.6696655,8.7952943 8.6637215,8.7930763 8.6637215,8.7939473 C 8.6637215,8.7948203 8.6692945,8.7983793 8.6761045,8.8018613 C 8.6901175,8.8090163 8.6901395,8.8090233 8.6901395,8.8069353 z M 8.6406025,8.7813863 C 8.6406025,8.7805523 8.6361425,8.7776423 8.6306965,8.7749123 C 8.6182745,8.7686963 8.6175255,8.7713973 8.6298695,8.7778783 C 8.6402505,8.7833273 8.6406025,8.7834433 8.6406025,8.7813863 z M 8.5910645,8.7558033 C 8.5910645,8.7549613 8.5851205,8.7513373 8.5778555,8.7477513 C 8.5705905,8.7441613 8.5646465,8.7419433 8.5646465,8.7428143 C 8.5646465,8.7436873 8.5702195,8.7472473 8.5770295,8.7507283 C 8.5910415,8.7578863 8.5910645,8.7578943 8.5910645,8.7558033 z M 8.5415275,8.7302533 C 8.5415275,8.7294223 8.5370675,8.7265093 8.5316215,8.7237823 C 8.5191995,8.7175673 8.5184465,8.7202633 8.5307945,8.7267483 C 8.5411715,8.7321933 8.5415275,8.7323123 8.5415275,8.7302533 z M 6.6943695,10.197222 C 6.6871267,10.193513 6.6789773,10.188643 6.676253,10.186399 C 6.6735273,10.184153 6.6549862,10.173274 6.635048,10.162213 C 6.6151137,10.151153 6.5772162,10.128459 6.5508356,10.111776 C 6.4758587,10.064369 6.336207,9.9982073 6.2155476,9.9529373 L 6.1164727,9.9157673 L 5.9992314,9.8907503 C 5.8951457,9.8685433 5.8747675,9.8651693 5.8175937,9.8606713 C 5.7070693,9.8519823 5.6578733,9.8535673 5.4856894,9.8713853 L 5.3337729,9.8871083 L 5.165345,9.9243973 L 4.9969124,9.9616873 L 4.7965724,10.029975 C 4.619803,10.090228 4.5947242,10.097993 4.5834485,10.095988 C 4.5683444,10.093294 4.5086864,10.052794 4.5033739,10.041627 C 4.4988567,10.032128 4.4988802,10.016268 4.5034159,10.014806 C 4.5092412,10.012927 5.0871681,8.0747033 5.0833452,8.0698623 C 5.0768685,8.0616673 5.0971314,8.0521333 5.2181854,8.0064463 C 5.2926063,7.9783544 5.4065252,7.9401591 5.4741299,7.9206288 C 5.4950173,7.9145956 5.5945898,7.8910974 5.6953993,7.8684116 L 5.8786901,7.8271614 L 6.0374007,7.8135831 L 6.1961103,7.8000003 L 6.3346302,7.8085933 L 6.473145,7.8171877 L 6.603596,7.845758 C 6.6753452,7.8614722 6.7481662,7.8787933 6.7654217,7.8842528 C 6.8908043,7.9239145 7.0266052,7.9860187 7.1683292,8.0685033 C 7.247791,8.1147553 7.3561785,8.1839573 7.3600137,8.1908913 C 7.365055,8.2000073 7.3640982,8.2051813 7.3467701,8.2625473 C 7.3377454,8.2924303 7.2628682,8.5426543 7.1803749,8.8186083 C 7.0978805,9.0945593 6.9742858,9.5080083 6.905717,9.7373833 C 6.8371485,9.9667583 6.7782137,10.158322 6.7747535,10.163086 C 6.7663901,10.174601 6.7230146,10.203962 6.7143688,10.203962 C 6.710605,10.203962 6.7016075,10.200929 6.6943695,10.197222 z"
       id="path31581"
       sodipodi:nodetypes="cccsssssssssscccsscccccccccsssssssscccssccssccssccssccssccssccssccssccssccssccssccssccsssccssccsssccssccssscccscccccsssssscccccccssssssssc" />
    <path
       style="fill:url(#linearGradient32112);fill-opacity:1"
       d="M 9.3056085,8.1478073 L 9.1619495,8.1176773 L 9.0348015,8.0732903 C 8.9191155,8.0329023 8.8976915,8.0242203 8.7970855,7.9769497 C 8.6998055,7.9312516 8.6737965,7.9173133 8.5807685,7.8610482 C 8.5226075,7.8258723 8.4732105,7.7947968 8.4709985,7.7919968 C 8.4687865,7.7891934 8.4669305,7.782086 8.4668735,7.7761991 C 8.4668155,7.7703168 8.4845185,7.7063225 8.5062175,7.6339923 C 8.5279125,7.5616586 8.5547105,7.4722803 8.5657645,7.4353683 C 8.5768145,7.3984586 8.5983495,7.3265546 8.6136135,7.275581 C 8.6623135,7.112973 8.8768925,6.3970075 8.9639295,6.1067296 C 9.0101745,5.9524892 9.0480115,5.8244745 9.0480115,5.8222519 C 9.0480115,5.8174596 9.0726035,5.7920761 9.0888905,5.7800531 C 9.0967525,5.7742528 9.1060425,5.7710051 9.1182565,5.7697819 L 9.1361205,5.7680006 L 9.1858225,5.8001659 C 9.2653155,5.851609 9.3166365,5.8809293 9.4327595,5.9412284 C 9.5502505,6.0022419 9.5825975,6.0173468 9.6540295,6.0445449 C 9.7329525,6.0745984 9.7685305,6.0845358 9.8982575,6.1127488 L 10.023911,6.1400718 L 10.165922,6.1490382 L 10.307928,6.1580059 L 10.469755,6.1423936 L 10.631575,6.1267813 L 10.813668,6.0852764 L 10.995759,6.0437715 L 11.203141,5.9733898 C 11.342997,5.9259275 11.414902,5.9030153 11.423962,5.9030265 C 11.4386,5.9030444 11.445891,5.9068124 11.473394,5.9285762 C 11.488195,5.9402876 11.49252,5.9460298 11.496707,5.9595219 C 11.500374,5.9713299 11.500926,5.9782144 11.498622,5.9834903 C 11.496845,5.9875607 11.476861,6.0534496 11.454213,6.1299081 C 11.431564,6.2063639 11.302867,6.6391824 11.168217,7.0917239 C 11.033569,7.5442666 10.922578,7.9188836 10.92157,7.924215 C 10.917272,7.9470094 10.912512,7.9494836 10.782129,7.9965729 C 10.490345,8.1019653 10.245644,8.1584633 9.9578615,8.1868923 C 9.7358995,8.2246173 9.5226785,8.1712793 9.3056085,8.1478073 z M 10.280644,6.1755822 C 10.276537,6.1748183 10.270592,6.1748485 10.267435,6.175648 C 10.264277,6.1764475 10.267638,6.1770729 10.274903,6.1770373 C 10.282168,6.177003 10.284752,6.1763474 10.280644,6.1755822 z M 10.325268,6.1756411 C 10.32209,6.1748361 10.316889,6.1748361 10.313707,6.1756411 C 10.310531,6.1764434 10.31313,6.1771031 10.319488,6.1771031 C 10.325845,6.1771031 10.328448,6.1764434 10.325268,6.1756411 z M 10.227841,6.1723922 C 10.223757,6.1716297 10.217067,6.1716297 10.212983,6.1723922 C 10.208895,6.1731547 10.21224,6.1737774 10.220412,6.1737774 C 10.228584,6.1737774 10.23193,6.1731547 10.227841,6.1723922 z M 10.358231,6.172432 C 10.355016,6.1716215 10.350557,6.1716777 10.348321,6.1725513 C 10.346086,6.1734263 10.348716,6.1740887 10.354165,6.1740256 C 10.359613,6.1739584 10.361443,6.1732439 10.358231,6.172432 z M 10.175001,6.1691954 C 10.170916,6.168437 10.164226,6.168437 10.160142,6.1691954 C 10.156054,6.1699593 10.159399,6.1705806 10.167571,6.1705806 C 10.175747,6.1705806 10.179089,6.1699593 10.175001,6.1691954 z M 10.392763,6.1692695 C 10.390378,6.1683438 10.387532,6.1684576 10.386434,6.1695218 C 10.385335,6.1705806 10.387287,6.1713376 10.390767,6.1712005 C 10.394617,6.1710469 10.395397,6.1702885 10.392763,6.1692695 z M 10.118822,6.1659959 C 10.114711,6.165232 10.108767,6.1652622 10.105609,6.166059 C 10.102455,6.1668585 10.105816,6.1674839 10.11308,6.167451 C 10.120345,6.1674139 10.12293,6.1667584 10.118822,6.1659959 z M 10.429092,6.1660727 C 10.426708,6.1651511 10.423859,6.1652622 10.422762,6.166325 C 10.421663,6.1673879 10.423616,6.1681435 10.427095,6.1680023 C 10.43094,6.1678514 10.431726,6.1670917 10.429092,6.1660727 z M 10.065981,6.1627991 C 10.06187,6.1620366 10.055927,6.1620654 10.052768,6.1628663 C 10.049614,6.1636658 10.052975,6.1642885 10.06024,6.1642555 C 10.067505,6.1642171 10.070088,6.1635657 10.065981,6.1627991 z M 9.7115475,6.0870578 C 9.7100665,6.0856508 9.5615345,6.0278739 9.5533015,6.0254999 C 9.5404165,6.0217847 9.5768185,6.0388302 9.6101265,6.0521084 C 9.6686935,6.0754583 9.7167875,6.0920293 9.7115475,6.0870578 z M 11.115655,6.0262103 C 11.214177,5.9945248 11.377989,5.9355383 11.375134,5.9327727 C 11.373978,5.9316532 11.032297,6.0495205 11.02981,6.0518972 C 11.027,6.0545742 11.033492,6.0526336 11.115655,6.0262103 z M 9.5466945,6.0231918 C 9.5466945,6.0224992 9.5443905,6.0210812 9.5415685,6.020032 C 9.5386295,6.018939 9.5373055,6.0194766 9.5384615,6.0212883 C 9.5404015,6.0243246 9.5466945,6.0257811 9.5466945,6.0231918 z M 9.5136695,6.0069349 C 9.5136695,6.0060915 9.5077255,6.0024681 9.5004595,5.9988791 C 9.4931955,5.9952942 9.4872505,5.9930752 9.4872505,5.9939461 C 9.4872505,5.9948197 9.4928235,5.9983799 9.4996335,6.0018606 C 9.5136465,6.0090167 9.5136695,6.0090236 9.5136695,6.0069349 z M 9.4641315,5.9813852 C 9.4641315,5.9805527 9.4596725,5.9776412 9.4542255,5.9749107 C 9.4418045,5.9686967 9.4410545,5.9713971 9.4533985,5.9778784 C 9.4637795,5.9833271 9.4641315,5.9834423 9.4641315,5.9813852 z M 9.4145945,5.9558039 C 9.4145945,5.9549619 9.4086495,5.9513358 9.4013855,5.9477509 C 9.3941195,5.9441619 9.3881755,5.9419429 9.3881755,5.9428138 C 9.3881755,5.9436874 9.3937485,5.9472476 9.4005585,5.9507296 C 9.4145715,5.9578858 9.4145945,5.9578954 9.4145945,5.9558039 z M 9.3650565,5.9302535 C 9.3650565,5.9294212 9.3605975,5.9265088 9.3551505,5.923783 C 9.3427295,5.9175678 9.3419755,5.9202644 9.3543235,5.9267469 C 9.3647005,5.9321941 9.3650565,5.9323133 9.3650565,5.9302535 z M 7.5178987,7.3972232 C 7.5106559,7.3935158 7.5025065,7.388645 7.4997823,7.3863992 C 7.4970566,7.3841546 7.4785154,7.3732735 7.4585772,7.3622141 C 7.4386429,7.3511535 7.4007454,7.3284598 7.374365,7.3117775 C 7.299388,7.2643684 7.1597365,7.1982084 7.039077,7.1529387 L 6.940002,7.1157684 L 6.8227608,7.0907512 C 6.7186752,7.0685433 6.6982968,7.0651684 6.641123,7.0606713 C 6.5305986,7.0519821 6.4814023,7.0535673 6.309219,7.0713867 L 6.1573023,7.0871113 L 5.9888745,7.1243982 L 5.8204413,7.1616884 L 5.6201017,7.2299764 C 5.4433324,7.2902278 5.4182537,7.2979946 5.4069779,7.2959878 C 5.3918733,7.2932952 5.3322158,7.2527935 5.3269032,7.2416301 C 5.322386,7.2321295 5.3224097,7.216269 5.3269452,7.2148061 C 5.3327705,7.2129273 5.9106976,5.274704 5.9068748,5.2698628 C 5.900398,5.2616659 5.9206607,5.2521321 6.0417148,5.2064453 C 6.1161357,5.178355 6.2300547,5.14016 6.2976593,5.1206293 C 6.3185468,5.1145958 6.4181192,5.0910979 6.5189288,5.0684121 L 6.7022195,5.0271612 L 6.86093,5.0135832 L 7.0196396,5.0000008 L 7.1581597,5.0085939 L 7.2966742,5.0171867 L 7.4271254,5.0457585 C 7.4988744,5.0614709 7.5716954,5.0787939 7.5889509,5.0842537 C 7.7143335,5.1239146 7.8501345,5.1860179 7.9918585,5.2685025 C 8.0713205,5.3147539 8.1797075,5.3839572 8.1835435,5.3908906 C 8.1885845,5.4000071 8.1876275,5.4051801 8.1702995,5.4625469 C 8.1612745,5.4924293 8.0863975,5.7426543 8.0039045,6.0186085 C 7.9214095,6.2945604 7.7978145,6.7080103 7.7292465,6.9373844 C 7.6606777,7.1667604 7.6017429,7.3583249 7.5982828,7.3630872 C 7.5899195,7.3746038 7.546544,7.4039649 7.5378977,7.4039649 C 7.5341344,7.4039649 7.5251367,7.4009318 7.5178987,7.3972232 z"
       id="path31583"
       sodipodi:nodetypes="cccsssssssssscccsscccccccccsssssssscccssccssccssccssccssccssccssccssccssccssccssccssccsssccssccsssccssccssscccscccccsssssscccccccssssssssc" />
  </g>
</svg>
