/* XPM */
static char * close_inactive_xpm[] = {
"20 25 31 1",
" 	c None",
".	c #3C3C3C",
"+	c #666666",
"@	c #515151",
"#	c #505050",
"$	c #4F4F4F",
"%	c #4E4E4E",
"&	c #4D4D4D",
"*	c #4C4C4C",
"=	c #4B4B4B",
"-	c #4A4A4A",
";	c #838383",
">	c #888888",
",	c #9B9B9B",
"'	c #8D8D8D",
")	c #494949",
"!	c #8E8E8E",
"~	c #484848",
"{	c #474747",
"]	c #464646",
"^	c #454545",
"/	c #878787",
"(	c #444444",
"_	c #818181",
":	c #434343",
"<	c #424242",
"[	c #414141",
"}	c #404040",
"|	c #3F3F3F",
"1	c #3E3E3E",
"2	c #3D3D3D",
"....................",
"++++++++++++++++++++",
"@@@@@@@@@@@@@@@@@@@@",
"####################",
"$$$$$$$$$$$$$$$$$$$$",
"%%%%%%%%%%%%%%%%%%%%",
"&&&&&&&&&&&&&&&&&&&&",
"********************",
"====================",
"------;>@--@>;------",
"------>,'@@',>------",
"))))))#',!!,'#))))))",
"~~~~~~~$!,,!$~~~~~~~",
"{{{{{{{%!,,!%{{{{{{{",
"]]]]]]&',!!,'&]]]]]]",
"^^^^^^/,'**',/^^^^^^",
"((((((_/=((=/_((((((",
"::::::::::::::::::::",
"::::::::::::::::::::",
"<<<<<<<<<<<<<<<<<<<<",
"[[[[[[[[[[[[[[[[[[[[",
"}}}}}}}}}}}}}}}}}}}}",
"||||||||||||||||||||",
"11111111111111111111",
"22222222222222222222"};
